<svg xmlns="http://www.w3.org/2000/svg" xmlns:xlink="http://www.w3.org/1999/xlink" width="1500" zoomAndPan="magnify" viewBox="0 0 1125 374.999991" height="500" preserveAspectRatio="xMidYMid meet" version="1.0"><defs><g/></defs><g fill="#ff0000" fill-opacity="1"><g transform="translate(-18.383022, 266.853403)"><g><path d="M 149.265625 -164.28125 L 149.265625 -181.453125 L 198 -181.453125 L 198 -146.8125 L 212.71875 -146.8125 L 227.109375 -146.5 L 227.734375 -103.59375 L 213.015625 -103.59375 L 198.3125 -103.296875 L 198 -66.515625 C 197.789062 -44.441406 196.765625 -30.335938 194.921875 -24.203125 C 193.085938 -18.078125 189.515625 -12.050781 184.203125 -6.125 C 179.296875 -0.8125 173.828125 3.117188 167.796875 5.671875 C 161.773438 8.222656 153.863281 10.007812 144.0625 11.03125 C 141.40625 11.238281 138.441406 11.34375 135.171875 11.34375 C 132.515625 11.34375 128.832031 11.238281 124.125 11.03125 C 119.425781 10.832031 116.769531 10.320312 116.15625 9.5 C 115.550781 9.289062 115.039062 5.921875 114.625 -0.609375 C 113.8125 -9.597656 113.097656 -17.363281 112.484375 -23.90625 C 111.671875 -32.894531 111.265625 -37.390625 111.265625 -37.390625 C 111.460938 -37.597656 111.867188 -37.703125 112.484375 -37.703125 C 113.503906 -37.703125 115.546875 -37.394531 118.609375 -36.78125 C 124.335938 -35.757812 129.242188 -35.25 133.328125 -35.25 C 141.910156 -35.25 146.40625 -37.597656 146.8125 -42.296875 C 148.039062 -51.285156 148.859375 -61.296875 149.265625 -72.328125 L 149.578125 -103.59375 L 126.28125 -103.59375 L 126.28125 -61.296875 L 78.46875 -61.296875 L 78.46875 -103.59375 L 50.578125 -103.59375 L 50.578125 -146.8125 L 78.46875 -146.8125 L 78.46875 -179.609375 L 126.28125 -179.609375 L 126.28125 -146.8125 L 137.3125 -146.8125 C 140.988281 -146.8125 143.75 -146.8125 145.59375 -146.8125 C 147.632812 -146.8125 148.65625 -146.8125 148.65625 -146.8125 C 149.0625 -147.019531 149.265625 -152.84375 149.265625 -164.28125 Z M 149.265625 -164.28125 "/></g></g></g><g fill="#ff0000" fill-opacity="1"><g transform="translate(205.968146, 266.853403)"><g><path d="M 180.21875 -52.40625 C 175.519531 -58.132812 173.066406 -61 172.859375 -61 C 172.453125 -61 172.25 -56.65625 172.25 -47.96875 C 172.25 -39.28125 172.554688 -34.117188 173.171875 -32.484375 C 173.378906 -31.265625 173.6875 -30.601562 174.09375 -30.5 C 174.5 -30.394531 175.414062 -30.851562 176.84375 -31.875 C 179.5 -33.507812 181.796875 -35.296875 183.734375 -37.234375 C 185.679688 -39.179688 186.65625 -40.664062 186.65625 -41.6875 C 186.65625 -42.90625 184.507812 -46.476562 180.21875 -52.40625 Z M 213.015625 -89.5 C 213.015625 -90.925781 212.195312 -91.742188 210.5625 -91.953125 L 201.0625 -92.25 C 193.707031 -92.050781 190.03125 -91.539062 190.03125 -90.71875 C 193.914062 -85.40625 197.644531 -80.753906 201.21875 -76.765625 C 204.789062 -72.785156 206.882812 -70.898438 207.5 -71.109375 C 208.113281 -71.316406 209.132812 -73.867188 210.5625 -78.765625 C 212 -83.671875 212.816406 -87.25 213.015625 -89.5 Z M 233.25 -179 C 235.90625 -179.613281 238.351562 -179.765625 240.59375 -179.453125 C 242.84375 -179.148438 244.171875 -178.585938 244.578125 -177.765625 C 244.992188 -176.953125 245.25 -170.875 245.34375 -159.53125 C 245.445312 -148.1875 245.398438 -142.515625 245.203125 -142.515625 C 244.585938 -142.515625 232.734375 -141.800781 209.640625 -140.375 C 186.148438 -138.738281 174.195312 -137.71875 173.78125 -137.3125 C 173.164062 -136.695312 172.757812 -127.09375 172.5625 -108.5 C 172.15625 -89.695312 172.5625 -80.296875 173.78125 -80.296875 C 175.007812 -80.296875 177.769531 -82.238281 182.0625 -86.125 L 188.5 -92.25 L 177.15625 -92.25 L 177.15625 -121.6875 L 197.078125 -121.375 C 214.859375 -120.96875 226.097656 -120.203125 230.796875 -119.078125 C 235.492188 -117.953125 239.375 -114.9375 242.4375 -110.03125 C 244.070312 -107.78125 245.039062 -105.734375 245.34375 -103.890625 C 245.65625 -102.054688 245.8125 -97.972656 245.8125 -91.640625 C 245.8125 -78.160156 242.539062 -64.265625 236 -49.953125 L 231.40625 -39.84375 L 245.5 -22.0625 C 255.101562 -10.414062 259.703125 -4.082031 259.296875 -3.0625 C 258.890625 -2.25 256.796875 -0.109375 253.015625 3.359375 C 249.234375 6.835938 245.347656 10.109375 241.359375 13.171875 C 237.378906 16.242188 235.082031 17.78125 234.46875 17.78125 C 233.851562 17.78125 230.785156 14.40625 225.265625 7.65625 C 219.753906 0.914062 215.570312 -4.597656 212.71875 -8.890625 C 212.300781 -9.703125 209.335938 -7.863281 203.828125 -3.375 C 192.992188 5.414062 184.410156 11.035156 178.078125 13.484375 L 173.78125 15.328125 L 169.796875 7.359375 C 168.367188 4.492188 166.941406 1.632812 165.515625 -1.21875 C 165.515625 -1.21875 165.050781 -0.910156 164.125 -0.296875 C 163.207031 0.304688 162.035156 1.019531 160.609375 1.84375 C 157.546875 4.5 154.378906 6.539062 151.109375 7.96875 C 148.242188 9.394531 144.050781 10.671875 138.53125 11.796875 C 133.019531 12.921875 129.957031 13.078125 129.34375 12.265625 C 128.519531 11.648438 127.140625 6.335938 125.203125 -3.671875 C 123.265625 -13.691406 122.09375 -20.640625 121.6875 -24.515625 C 121.476562 -27.378906 121.679688 -29.21875 122.296875 -30.03125 C 122.910156 -30.851562 124.75 -32.082031 127.8125 -33.71875 C 129.445312 -34.332031 130.519531 -37.039062 131.03125 -41.84375 C 131.539062 -46.644531 132.101562 -58.546875 132.71875 -77.546875 C 134.96875 -138.429688 136.296875 -169.179688 136.703125 -169.796875 C 137.515625 -170.410156 156.722656 -172.25 194.328125 -175.3125 C 219.253906 -177.363281 232.226562 -178.59375 233.25 -179 Z M 83.0625 -34.9375 C 82.65625 -35.550781 80 -35.859375 75.09375 -35.859375 L 68.046875 -35.859375 L 68.046875 -27.890625 C 68.046875 -22.578125 68.351562 -19.613281 68.96875 -19 C 69.375 -18.59375 72.128906 -19.613281 77.234375 -22.0625 C 81.117188 -23.90625 83.367188 -25.179688 83.984375 -25.890625 C 84.597656 -26.609375 84.695312 -27.988281 84.28125 -30.03125 C 83.675781 -32.6875 83.269531 -34.320312 83.0625 -34.9375 Z M 87.046875 -69.875 C 86.835938 -71.101562 86.273438 -71.867188 85.359375 -72.171875 C 84.441406 -72.484375 81.835938 -72.742188 77.546875 -72.953125 C 72.847656 -73.148438 70.085938 -73.09375 69.265625 -72.78125 C 68.453125 -72.476562 68.046875 -71.613281 68.046875 -70.1875 C 68.046875 -68.550781 68.453125 -67.628906 69.265625 -67.421875 C 70.085938 -67.222656 72.945312 -67.125 77.84375 -67.125 C 82.550781 -67.125 85.3125 -67.222656 86.125 -67.421875 C 86.945312 -67.628906 87.253906 -68.445312 87.046875 -69.875 Z M 87.359375 -95.328125 C 87.359375 -96.753906 86.894531 -97.566406 85.96875 -97.765625 C 85.050781 -97.972656 82.289062 -98.078125 77.6875 -98.078125 C 73.09375 -98.078125 70.335938 -97.972656 69.421875 -97.765625 C 68.503906 -97.566406 68.046875 -96.75 68.046875 -95.3125 C 68.046875 -93.882812 68.453125 -93.015625 69.265625 -92.703125 C 70.085938 -92.398438 72.234375 -92.148438 75.703125 -91.953125 C 78.972656 -91.742188 81.472656 -91.738281 83.203125 -91.9375 C 84.941406 -92.144531 86.066406 -92.453125 86.578125 -92.859375 C 87.097656 -93.273438 87.359375 -94.097656 87.359375 -95.328125 Z M 72.953125 -188.1875 C 78.671875 -192.882812 81.835938 -195.234375 82.453125 -195.234375 C 82.859375 -195.234375 86.84375 -191.457031 94.40625 -183.90625 C 97.675781 -180.632812 100.023438 -178.128906 101.453125 -176.390625 C 102.878906 -174.648438 103.847656 -173.320312 104.359375 -172.40625 C 104.867188 -171.488281 105.023438 -170.617188 104.828125 -169.796875 C 104.410156 -167.960938 104.96875 -166.328125 106.5 -164.890625 C 108.039062 -163.460938 112.796875 -160.398438 120.765625 -155.703125 C 129.347656 -150.597656 133.640625 -148.046875 133.640625 -148.046875 C 134.046875 -147.835938 132.710938 -145.125 129.640625 -139.90625 C 126.578125 -134.695312 123.410156 -129.488281 120.140625 -124.28125 C 116.878906 -119.070312 115.039062 -116.46875 114.625 -116.46875 C 113.601562 -116.257812 106.757812 -120.753906 94.09375 -129.953125 C 81.21875 -139.359375 74.269531 -143.753906 73.25 -143.140625 C 71.820312 -142.722656 68.859375 -140.675781 64.359375 -137 C 59.867188 -133.320312 55.679688 -129.742188 51.796875 -126.265625 C 47.910156 -122.796875 46.175781 -120.960938 46.59375 -120.765625 C 47.195312 -119.941406 49.34375 -119.734375 53.03125 -120.140625 C 55.269531 -120.554688 56.796875 -121.066406 57.609375 -121.671875 C 58.429688 -122.285156 59.148438 -123.3125 59.765625 -124.75 C 60.785156 -127.195312 62.625 -129.546875 65.28125 -131.796875 C 69.164062 -135.066406 73.457031 -136.140625 78.15625 -135.015625 C 82.851562 -133.890625 86.941406 -130.773438 90.421875 -125.671875 C 91.035156 -124.847656 91.597656 -124.128906 92.109375 -123.515625 C 92.617188 -122.898438 93.175781 -122.335938 93.78125 -121.828125 C 94.394531 -121.316406 95.0625 -120.859375 95.78125 -120.453125 C 96.5 -120.046875 97.265625 -119.632812 98.078125 -119.21875 C 98.898438 -118.8125 100.023438 -118.40625 101.453125 -118 C 110.441406 -114.9375 116.570312 -110.035156 119.84375 -103.296875 C 121.070312 -100.640625 121.835938 -97.984375 122.140625 -95.328125 C 122.441406 -92.671875 122.59375 -86.640625 122.59375 -77.234375 C 122.59375 -69.066406 122.488281 -63.601562 122.28125 -60.84375 C 122.082031 -58.082031 121.570312 -55.78125 120.75 -53.9375 C 119.9375 -52.101562 118.203125 -49.550781 115.546875 -46.28125 L 111.5625 -41.375 L 118 -13.796875 C 122.289062 4.179688 124.4375 13.785156 124.4375 15.015625 C 124.4375 15.628906 121.78125 16.804688 116.46875 18.546875 C 111.15625 20.285156 106.457031 21.457031 102.375 22.0625 C 99.507812 22.675781 97.257812 23.085938 95.625 23.296875 C 94.8125 23.703125 94.148438 23.394531 93.640625 22.375 C 93.128906 21.351562 92.566406 19.410156 91.953125 16.546875 C 90.929688 11.847656 90.113281 9.296875 89.5 8.890625 C 88.675781 8.273438 84.585938 9.804688 77.234375 13.484375 C 67.628906 18.390625 59.863281 20.84375 53.9375 20.84375 C 48.019531 20.84375 43.015625 18.59375 38.921875 14.09375 C 36.066406 11.238281 34.128906 8.582031 33.109375 6.125 C 32.078125 4.082031 31.359375 -18.082031 30.953125 -60.375 L 30.34375 -123.828125 L 22.984375 -133.9375 C 17.878906 -140.6875 15.835938 -144.570312 16.859375 -145.59375 C 17.671875 -146.40625 25.742188 -152.535156 41.078125 -163.984375 C 52.722656 -172.765625 63.347656 -180.832031 72.953125 -188.1875 Z M 72.953125 -188.1875 "/></g></g></g><g fill="#ff0000" fill-opacity="1"><g transform="translate(430.319313, 266.853403)"><g><path d="M 117.078125 -160.609375 C 119.535156 -161.015625 122.703125 -161.21875 126.578125 -161.21875 C 129.234375 -161.21875 133.421875 -161.0625 139.140625 -160.75 C 144.867188 -160.445312 151.410156 -159.476562 158.765625 -157.84375 C 189.828125 -151.914062 210.160156 -134.957031 219.765625 -106.96875 C 223.441406 -96.34375 225.28125 -85.304688 225.28125 -73.859375 C 225.28125 -67.328125 224.101562 -57.722656 221.75 -45.046875 C 219.40625 -32.378906 212.613281 -21.039062 201.375 -11.03125 C 196.875 -6.332031 191.097656 -2.398438 184.046875 0.765625 C 177.003906 3.929688 170.210938 5.925781 163.671875 6.75 C 162.242188 6.75 161.273438 6.488281 160.765625 5.96875 C 160.253906 5.457031 159.894531 3.265625 159.6875 -0.609375 C 157.84375 -10.210938 156.207031 -20.378906 154.78125 -31.109375 C 153.351562 -41.835938 152.640625 -47.507812 152.640625 -48.125 C 153.253906 -49.144531 156.21875 -50.984375 161.53125 -53.640625 C 166.226562 -56.085938 169.492188 -58.128906 171.328125 -59.765625 C 173.171875 -61.398438 174.804688 -63.75 176.234375 -66.8125 C 177.460938 -69.675781 178.078125 -73.457031 178.078125 -78.15625 C 178.078125 -78.976562 178.078125 -79.691406 178.078125 -80.296875 C 177.867188 -89.285156 175.109375 -96.644531 169.796875 -102.375 C 167.546875 -104.207031 164.734375 -106.25 161.359375 -108.5 C 157.992188 -110.75 155.90625 -111.875 155.09375 -111.875 C 154.476562 -111.875 153.96875 -102.578125 153.5625 -83.984375 L 152.640625 -55.78125 L 148.65625 -44.75 C 143.75 -31.0625 137.207031 -20.945312 129.03125 -14.40625 C 120.863281 -7.863281 112.078125 -4.59375 102.671875 -4.59375 C 101.453125 -4.59375 97.773438 -4.847656 91.640625 -5.359375 C 85.515625 -5.867188 77.34375 -10.722656 67.125 -19.921875 C 56.5 -28.910156 50.0625 -38.867188 47.8125 -49.796875 C 45.5625 -60.734375 44.4375 -69.570312 44.4375 -76.3125 C 44.4375 -84.488281 45.457031 -92.664062 47.5 -100.84375 C 56.082031 -133.9375 79.273438 -153.859375 117.078125 -160.609375 Z M 113.40625 -93.171875 C 113.40625 -105.640625 112.992188 -111.875 112.171875 -111.875 C 110.742188 -111.875 108.394531 -110.695312 105.125 -108.34375 C 101.851562 -106 99.097656 -103.597656 96.859375 -101.140625 C 92.148438 -95.828125 89.644531 -90.769531 89.34375 -85.96875 C 89.039062 -81.164062 88.890625 -78.253906 88.890625 -77.234375 C 88.890625 -70.492188 90.519531 -65.382812 93.78125 -61.90625 C 96.03125 -59.664062 98.28125 -58.546875 100.53125 -58.546875 C 102.976562 -58.546875 105.328125 -59.769531 107.578125 -62.21875 C 110.035156 -65.082031 111.566406 -67.738281 112.171875 -70.1875 C 112.992188 -72.84375 113.40625 -80.503906 113.40625 -93.171875 Z M 113.40625 -93.171875 "/></g></g></g><g fill="#ff0000" fill-opacity="1"><g transform="translate(654.670463, 266.853403)"><g><path d="M 175.9375 -81.828125 L 175.9375 -89.1875 L 198.609375 -88.890625 C 199.835938 -88.890625 201.578125 -88.890625 203.828125 -88.890625 C 213.015625 -88.679688 218.425781 -88.269531 220.0625 -87.65625 C 221.695312 -87.039062 222.617188 -84.894531 222.828125 -81.21875 C 222.828125 -80.40625 222.828125 -79.691406 222.828125 -79.078125 L 223.125 -74.78125 L 232.015625 -74.484375 L 240.609375 -74.171875 L 240.609375 -40.765625 L 223.125 -40.765625 L 222.21875 -25.140625 C 221.800781 -18.390625 221.179688 -12.867188 220.359375 -8.578125 C 219.546875 -4.285156 218.472656 -0.554688 217.140625 2.609375 C 215.816406 5.773438 214.035156 8.582031 211.796875 11.03125 C 207.910156 15.53125 203.15625 18.898438 197.53125 21.140625 C 191.914062 23.390625 184.507812 24.820312 175.3125 25.4375 L 166.734375 26.359375 L 163.984375 10.109375 L 161.21875 -6.125 L 157.84375 -2.140625 C 154.164062 2.347656 148.800781 5 141.75 5.8125 C 134.707031 6.632812 129.347656 5.207031 125.671875 1.53125 C 120.765625 -2.957031 118.003906 -8.421875 117.390625 -14.859375 C 116.773438 -21.296875 118.410156 -26.660156 122.296875 -30.953125 C 126.992188 -35.859375 132.507812 -38.3125 138.84375 -38.3125 C 141.90625 -38.3125 144.457031 -37.898438 146.5 -37.078125 C 148.550781 -36.265625 150.75 -34.734375 153.09375 -32.484375 C 155.445312 -30.242188 158.867188 -26.46875 163.359375 -21.15625 C 164.585938 -19.71875 166.328125 -19.304688 168.578125 -19.921875 C 170.410156 -20.328125 171.785156 -20.9375 172.703125 -21.75 C 173.628906 -22.570312 174.296875 -23.75 174.703125 -25.28125 C 175.109375 -26.8125 175.414062 -29.113281 175.625 -32.1875 L 176.234375 -40.453125 L 163.359375 -41.078125 C 154.984375 -41.679688 145.585938 -41.984375 135.171875 -41.984375 L 119.84375 -41.984375 L 119.84375 -74.171875 L 175.9375 -74.171875 Z M 84.28125 -87.359375 C 84.082031 -89.191406 83.625 -90.257812 82.90625 -90.5625 C 82.1875 -90.875 80.09375 -91.03125 76.625 -91.03125 L 69.265625 -91.03125 L 69.265625 -59.765625 L 76.9375 -60.078125 L 84.28125 -60.6875 L 84.59375 -72.03125 C 85 -79.175781 84.894531 -84.285156 84.28125 -87.359375 Z M 84.59375 -132.71875 L 84.28125 -148.046875 L 76.9375 -148.34375 L 69.265625 -148.65625 L 69.265625 -117.390625 L 85.203125 -117.390625 Z M 33.71875 -168.875 L 52.40625 -168.875 C 71.207031 -168.875 85 -167.445312 93.78125 -164.59375 C 96.445312 -163.769531 99.054688 -162.335938 101.609375 -160.296875 C 104.160156 -158.253906 106.40625 -156.003906 108.34375 -153.546875 C 110.289062 -151.097656 111.671875 -148.648438 112.484375 -146.203125 C 113.503906 -142.722656 114.015625 -126.628906 114.015625 -97.921875 C 114.015625 -69.210938 113.503906 -52.921875 112.484375 -49.046875 C 109.421875 -38.003906 103.492188 -30.390625 94.703125 -26.203125 C 85.921875 -22.015625 72.03125 -20.125 53.03125 -20.53125 C 39.945312 -21.144531 33.203125 -21.554688 32.796875 -21.765625 C 32.390625 -22.171875 32.492188 -46.789062 33.109375 -95.625 Z M 155.703125 -189.421875 L 155.703125 -197.6875 L 203.515625 -197.6875 L 203.828125 -189.109375 L 204.125 -180.21875 L 217.3125 -180.21875 C 226.5 -180.019531 231.398438 -179.921875 232.015625 -179.921875 C 233.035156 -179.710938 233.546875 -173.679688 233.546875 -161.828125 L 233.546875 -143.75 L 230.1875 -143.75 C 228.75 -143.75 223.84375 -143.644531 215.46875 -143.4375 L 204.125 -143.140625 L 203.828125 -138.234375 L 203.515625 -133.015625 L 243.046875 -133.015625 L 243.046875 -94.703125 L 180.828125 -94.40625 L 118.609375 -94.09375 L 118.609375 -132.71875 L 127.8125 -133.328125 C 134.351562 -133.941406 140.6875 -134.25 146.8125 -134.25 L 156.921875 -134.25 L 156.921875 -142.515625 L 145.28125 -142.515625 C 137.519531 -142.515625 133.125 -142.820312 132.09375 -143.4375 C 131.070312 -144.050781 130.460938 -150.179688 130.265625 -161.828125 L 129.953125 -179.296875 L 142.515625 -180.21875 L 155.703125 -181.140625 Z M 155.703125 -189.421875 "/></g></g></g><g fill="#ff0000" fill-opacity="1"><g transform="translate(879.021639, 266.853403)"><g><path d="M 149.265625 -27.28125 C 149.265625 -28.507812 146.609375 -29.125 141.296875 -29.125 C 133.734375 -28.914062 129.75 -28.300781 129.34375 -27.28125 C 128.9375 -26.257812 132 -25.546875 138.53125 -25.140625 C 145.6875 -24.722656 149.265625 -25.4375 149.265625 -27.28125 Z M 149.265625 -56.703125 C 148.035156 -57.515625 144.5625 -57.867188 138.84375 -57.765625 C 133.125 -57.671875 129.957031 -57.210938 129.34375 -56.390625 C 128.519531 -55.171875 129.335938 -54.351562 131.796875 -53.9375 C 133.222656 -53.738281 135.878906 -53.640625 139.765625 -53.640625 C 148.347656 -53.835938 151.515625 -54.859375 149.265625 -56.703125 Z M 188.796875 -125.359375 L 188.796875 -133.328125 L 170.71875 -133.328125 L 170.71875 -117.703125 L 188.796875 -117.703125 Z M 188.796875 -167.34375 L 188.796875 -174.09375 L 170.71875 -174.09375 L 170.71875 -160.90625 L 188.796875 -160.90625 Z M 140.984375 -140.375 L 140.984375 -196.765625 L 209.34375 -196.765625 L 216.390625 -192.78125 C 221.492188 -190.125 225.015625 -187.265625 226.953125 -184.203125 C 228.898438 -181.140625 230.179688 -176.238281 230.796875 -169.5 C 231.609375 -162.957031 231.914062 -133.941406 231.71875 -82.453125 C 231.300781 -31.367188 230.175781 -3.882812 228.34375 0 C 225.6875 6.125 221.238281 11.484375 215 16.078125 C 208.769531 20.679688 202.285156 23.394531 195.546875 24.21875 C 183.078125 25.644531 176.640625 25.742188 176.234375 24.515625 C 175.828125 24.109375 174.957031 18.335938 173.625 7.203125 C 172.300781 -3.929688 171.484375 -9.597656 171.171875 -9.796875 C 170.867188 -10.003906 169.492188 -9.085938 167.046875 -7.046875 C 165.003906 -5.210938 162.5 -3.832031 159.53125 -2.90625 C 156.570312 -1.988281 152.484375 -1.273438 147.265625 -0.765625 C 142.054688 -0.253906 134.445312 0.101562 124.4375 0.3125 L 97.78125 0.921875 L 97.78125 -78.15625 L 128.734375 -77.84375 C 141.191406 -77.84375 149.820312 -77.585938 154.625 -77.078125 C 159.425781 -76.566406 162.953125 -75.75 165.203125 -74.625 C 167.453125 -73.507812 169.597656 -71.414062 171.640625 -68.34375 C 173.273438 -65.894531 174.242188 -63.492188 174.546875 -61.140625 C 174.859375 -58.796875 175.113281 -52.617188 175.3125 -42.609375 L 175.9375 -22.0625 L 179.609375 -23.296875 C 181.859375 -23.910156 183.898438 -25.035156 185.734375 -26.671875 C 186.960938 -27.890625 187.675781 -29.929688 187.875 -32.796875 C 188.082031 -35.660156 188.289062 -43.628906 188.5 -56.703125 L 188.796875 -84.28125 L 140.984375 -84.28125 Z M 106.046875 -125.359375 L 106.046875 -133.328125 L 84.59375 -133.328125 L 84.59375 -117.703125 L 106.046875 -117.703125 Z M 106.046875 -167.34375 L 106.046875 -174.09375 L 84.59375 -174.09375 L 84.59375 -160.90625 L 106.046875 -160.90625 Z M 45.359375 -197.078125 L 79.078125 -196.46875 C 97.671875 -196.257812 109.421875 -195.695312 114.328125 -194.78125 C 119.234375 -193.863281 123.523438 -191.664062 127.203125 -188.1875 C 129.242188 -186.144531 130.722656 -184.40625 131.640625 -182.96875 C 132.554688 -181.539062 133.375 -178.988281 134.09375 -175.3125 C 134.8125 -171.632812 135.21875 -167.5 135.3125 -162.90625 C 135.414062 -158.3125 135.46875 -151.109375 135.46875 -141.296875 C 135.46875 -127.804688 135.3125 -118.351562 135 -112.9375 C 134.695312 -107.53125 134.035156 -103.5 133.015625 -100.84375 C 131.992188 -98.1875 130.15625 -95.628906 127.5 -93.171875 C 124.644531 -90.515625 121.582031 -88.675781 118.3125 -87.65625 C 116.46875 -87.039062 111.816406 -86.320312 104.359375 -85.5 C 96.898438 -84.6875 91.234375 -84.28125 87.359375 -84.28125 L 84.59375 -84.28125 L 84.59375 20.234375 L 65.28125 19.609375 C 52.613281 19.410156 45.875 18.695312 45.0625 17.46875 C 44.445312 16.445312 44.085938 -6.179688 43.984375 -50.421875 C 43.878906 -94.660156 44.132812 -130.773438 44.75 -158.765625 Z M 45.359375 -197.078125 "/></g></g></g><g fill="#00ffff" fill-opacity="1"><g transform="translate(-29.876815, 266.853403)"><g><path d="M 149.265625 -164.28125 L 149.265625 -181.453125 L 198 -181.453125 L 198 -146.8125 L 212.71875 -146.8125 L 227.109375 -146.5 L 227.734375 -103.59375 L 213.015625 -103.59375 L 198.3125 -103.296875 L 198 -66.515625 C 197.789062 -44.441406 196.765625 -30.335938 194.921875 -24.203125 C 193.085938 -18.078125 189.515625 -12.050781 184.203125 -6.125 C 179.296875 -0.8125 173.828125 3.117188 167.796875 5.671875 C 161.773438 8.222656 153.863281 10.007812 144.0625 11.03125 C 141.40625 11.238281 138.441406 11.34375 135.171875 11.34375 C 132.515625 11.34375 128.832031 11.238281 124.125 11.03125 C 119.425781 10.832031 116.769531 10.320312 116.15625 9.5 C 115.550781 9.289062 115.039062 5.921875 114.625 -0.609375 C 113.8125 -9.597656 113.097656 -17.363281 112.484375 -23.90625 C 111.671875 -32.894531 111.265625 -37.390625 111.265625 -37.390625 C 111.460938 -37.597656 111.867188 -37.703125 112.484375 -37.703125 C 113.503906 -37.703125 115.546875 -37.394531 118.609375 -36.78125 C 124.335938 -35.757812 129.242188 -35.25 133.328125 -35.25 C 141.910156 -35.25 146.40625 -37.597656 146.8125 -42.296875 C 148.039062 -51.285156 148.859375 -61.296875 149.265625 -72.328125 L 149.578125 -103.59375 L 126.28125 -103.59375 L 126.28125 -61.296875 L 78.46875 -61.296875 L 78.46875 -103.59375 L 50.578125 -103.59375 L 50.578125 -146.8125 L 78.46875 -146.8125 L 78.46875 -179.609375 L 126.28125 -179.609375 L 126.28125 -146.8125 L 137.3125 -146.8125 C 140.988281 -146.8125 143.75 -146.8125 145.59375 -146.8125 C 147.632812 -146.8125 148.65625 -146.8125 148.65625 -146.8125 C 149.0625 -147.019531 149.265625 -152.84375 149.265625 -164.28125 Z M 149.265625 -164.28125 "/></g></g></g><g fill="#00ffff" fill-opacity="1"><g transform="translate(194.474352, 266.853403)"><g><path d="M 180.21875 -52.40625 C 175.519531 -58.132812 173.066406 -61 172.859375 -61 C 172.453125 -61 172.25 -56.65625 172.25 -47.96875 C 172.25 -39.28125 172.554688 -34.117188 173.171875 -32.484375 C 173.378906 -31.265625 173.6875 -30.601562 174.09375 -30.5 C 174.5 -30.394531 175.414062 -30.851562 176.84375 -31.875 C 179.5 -33.507812 181.796875 -35.296875 183.734375 -37.234375 C 185.679688 -39.179688 186.65625 -40.664062 186.65625 -41.6875 C 186.65625 -42.90625 184.507812 -46.476562 180.21875 -52.40625 Z M 213.015625 -89.5 C 213.015625 -90.925781 212.195312 -91.742188 210.5625 -91.953125 L 201.0625 -92.25 C 193.707031 -92.050781 190.03125 -91.539062 190.03125 -90.71875 C 193.914062 -85.40625 197.644531 -80.753906 201.21875 -76.765625 C 204.789062 -72.785156 206.882812 -70.898438 207.5 -71.109375 C 208.113281 -71.316406 209.132812 -73.867188 210.5625 -78.765625 C 212 -83.671875 212.816406 -87.25 213.015625 -89.5 Z M 233.25 -179 C 235.90625 -179.613281 238.351562 -179.765625 240.59375 -179.453125 C 242.84375 -179.148438 244.171875 -178.585938 244.578125 -177.765625 C 244.992188 -176.953125 245.25 -170.875 245.34375 -159.53125 C 245.445312 -148.1875 245.398438 -142.515625 245.203125 -142.515625 C 244.585938 -142.515625 232.734375 -141.800781 209.640625 -140.375 C 186.148438 -138.738281 174.195312 -137.71875 173.78125 -137.3125 C 173.164062 -136.695312 172.757812 -127.09375 172.5625 -108.5 C 172.15625 -89.695312 172.5625 -80.296875 173.78125 -80.296875 C 175.007812 -80.296875 177.769531 -82.238281 182.0625 -86.125 L 188.5 -92.25 L 177.15625 -92.25 L 177.15625 -121.6875 L 197.078125 -121.375 C 214.859375 -120.96875 226.097656 -120.203125 230.796875 -119.078125 C 235.492188 -117.953125 239.375 -114.9375 242.4375 -110.03125 C 244.070312 -107.78125 245.039062 -105.734375 245.34375 -103.890625 C 245.65625 -102.054688 245.8125 -97.972656 245.8125 -91.640625 C 245.8125 -78.160156 242.539062 -64.265625 236 -49.953125 L 231.40625 -39.84375 L 245.5 -22.0625 C 255.101562 -10.414062 259.703125 -4.082031 259.296875 -3.0625 C 258.890625 -2.25 256.796875 -0.109375 253.015625 3.359375 C 249.234375 6.835938 245.347656 10.109375 241.359375 13.171875 C 237.378906 16.242188 235.082031 17.78125 234.46875 17.78125 C 233.851562 17.78125 230.785156 14.40625 225.265625 7.65625 C 219.753906 0.914062 215.570312 -4.597656 212.71875 -8.890625 C 212.300781 -9.703125 209.335938 -7.863281 203.828125 -3.375 C 192.992188 5.414062 184.410156 11.035156 178.078125 13.484375 L 173.78125 15.328125 L 169.796875 7.359375 C 168.367188 4.492188 166.941406 1.632812 165.515625 -1.21875 C 165.515625 -1.21875 165.050781 -0.910156 164.125 -0.296875 C 163.207031 0.304688 162.035156 1.019531 160.609375 1.84375 C 157.546875 4.5 154.378906 6.539062 151.109375 7.96875 C 148.242188 9.394531 144.050781 10.671875 138.53125 11.796875 C 133.019531 12.921875 129.957031 13.078125 129.34375 12.265625 C 128.519531 11.648438 127.140625 6.335938 125.203125 -3.671875 C 123.265625 -13.691406 122.09375 -20.640625 121.6875 -24.515625 C 121.476562 -27.378906 121.679688 -29.21875 122.296875 -30.03125 C 122.910156 -30.851562 124.75 -32.082031 127.8125 -33.71875 C 129.445312 -34.332031 130.519531 -37.039062 131.03125 -41.84375 C 131.539062 -46.644531 132.101562 -58.546875 132.71875 -77.546875 C 134.96875 -138.429688 136.296875 -169.179688 136.703125 -169.796875 C 137.515625 -170.410156 156.722656 -172.25 194.328125 -175.3125 C 219.253906 -177.363281 232.226562 -178.59375 233.25 -179 Z M 83.0625 -34.9375 C 82.65625 -35.550781 80 -35.859375 75.09375 -35.859375 L 68.046875 -35.859375 L 68.046875 -27.890625 C 68.046875 -22.578125 68.351562 -19.613281 68.96875 -19 C 69.375 -18.59375 72.128906 -19.613281 77.234375 -22.0625 C 81.117188 -23.90625 83.367188 -25.179688 83.984375 -25.890625 C 84.597656 -26.609375 84.695312 -27.988281 84.28125 -30.03125 C 83.675781 -32.6875 83.269531 -34.320312 83.0625 -34.9375 Z M 87.046875 -69.875 C 86.835938 -71.101562 86.273438 -71.867188 85.359375 -72.171875 C 84.441406 -72.484375 81.835938 -72.742188 77.546875 -72.953125 C 72.847656 -73.148438 70.085938 -73.09375 69.265625 -72.78125 C 68.453125 -72.476562 68.046875 -71.613281 68.046875 -70.1875 C 68.046875 -68.550781 68.453125 -67.628906 69.265625 -67.421875 C 70.085938 -67.222656 72.945312 -67.125 77.84375 -67.125 C 82.550781 -67.125 85.3125 -67.222656 86.125 -67.421875 C 86.945312 -67.628906 87.253906 -68.445312 87.046875 -69.875 Z M 87.359375 -95.328125 C 87.359375 -96.753906 86.894531 -97.566406 85.96875 -97.765625 C 85.050781 -97.972656 82.289062 -98.078125 77.6875 -98.078125 C 73.09375 -98.078125 70.335938 -97.972656 69.421875 -97.765625 C 68.503906 -97.566406 68.046875 -96.75 68.046875 -95.3125 C 68.046875 -93.882812 68.453125 -93.015625 69.265625 -92.703125 C 70.085938 -92.398438 72.234375 -92.148438 75.703125 -91.953125 C 78.972656 -91.742188 81.472656 -91.738281 83.203125 -91.9375 C 84.941406 -92.144531 86.066406 -92.453125 86.578125 -92.859375 C 87.097656 -93.273438 87.359375 -94.097656 87.359375 -95.328125 Z M 72.953125 -188.1875 C 78.671875 -192.882812 81.835938 -195.234375 82.453125 -195.234375 C 82.859375 -195.234375 86.84375 -191.457031 94.40625 -183.90625 C 97.675781 -180.632812 100.023438 -178.128906 101.453125 -176.390625 C 102.878906 -174.648438 103.847656 -173.320312 104.359375 -172.40625 C 104.867188 -171.488281 105.023438 -170.617188 104.828125 -169.796875 C 104.410156 -167.960938 104.96875 -166.328125 106.5 -164.890625 C 108.039062 -163.460938 112.796875 -160.398438 120.765625 -155.703125 C 129.347656 -150.597656 133.640625 -148.046875 133.640625 -148.046875 C 134.046875 -147.835938 132.710938 -145.125 129.640625 -139.90625 C 126.578125 -134.695312 123.410156 -129.488281 120.140625 -124.28125 C 116.878906 -119.070312 115.039062 -116.46875 114.625 -116.46875 C 113.601562 -116.257812 106.757812 -120.753906 94.09375 -129.953125 C 81.21875 -139.359375 74.269531 -143.753906 73.25 -143.140625 C 71.820312 -142.722656 68.859375 -140.675781 64.359375 -137 C 59.867188 -133.320312 55.679688 -129.742188 51.796875 -126.265625 C 47.910156 -122.796875 46.175781 -120.960938 46.59375 -120.765625 C 47.195312 -119.941406 49.34375 -119.734375 53.03125 -120.140625 C 55.269531 -120.554688 56.796875 -121.066406 57.609375 -121.671875 C 58.429688 -122.285156 59.148438 -123.3125 59.765625 -124.75 C 60.785156 -127.195312 62.625 -129.546875 65.28125 -131.796875 C 69.164062 -135.066406 73.457031 -136.140625 78.15625 -135.015625 C 82.851562 -133.890625 86.941406 -130.773438 90.421875 -125.671875 C 91.035156 -124.847656 91.597656 -124.128906 92.109375 -123.515625 C 92.617188 -122.898438 93.175781 -122.335938 93.78125 -121.828125 C 94.394531 -121.316406 95.0625 -120.859375 95.78125 -120.453125 C 96.5 -120.046875 97.265625 -119.632812 98.078125 -119.21875 C 98.898438 -118.8125 100.023438 -118.40625 101.453125 -118 C 110.441406 -114.9375 116.570312 -110.035156 119.84375 -103.296875 C 121.070312 -100.640625 121.835938 -97.984375 122.140625 -95.328125 C 122.441406 -92.671875 122.59375 -86.640625 122.59375 -77.234375 C 122.59375 -69.066406 122.488281 -63.601562 122.28125 -60.84375 C 122.082031 -58.082031 121.570312 -55.78125 120.75 -53.9375 C 119.9375 -52.101562 118.203125 -49.550781 115.546875 -46.28125 L 111.5625 -41.375 L 118 -13.796875 C 122.289062 4.179688 124.4375 13.785156 124.4375 15.015625 C 124.4375 15.628906 121.78125 16.804688 116.46875 18.546875 C 111.15625 20.285156 106.457031 21.457031 102.375 22.0625 C 99.507812 22.675781 97.257812 23.085938 95.625 23.296875 C 94.8125 23.703125 94.148438 23.394531 93.640625 22.375 C 93.128906 21.351562 92.566406 19.410156 91.953125 16.546875 C 90.929688 11.847656 90.113281 9.296875 89.5 8.890625 C 88.675781 8.273438 84.585938 9.804688 77.234375 13.484375 C 67.628906 18.390625 59.863281 20.84375 53.9375 20.84375 C 48.019531 20.84375 43.015625 18.59375 38.921875 14.09375 C 36.066406 11.238281 34.128906 8.582031 33.109375 6.125 C 32.078125 4.082031 31.359375 -18.082031 30.953125 -60.375 L 30.34375 -123.828125 L 22.984375 -133.9375 C 17.878906 -140.6875 15.835938 -144.570312 16.859375 -145.59375 C 17.671875 -146.40625 25.742188 -152.535156 41.078125 -163.984375 C 52.722656 -172.765625 63.347656 -180.832031 72.953125 -188.1875 Z M 72.953125 -188.1875 "/></g></g></g><g fill="#00ffff" fill-opacity="1"><g transform="translate(418.82552, 266.853403)"><g><path d="M 117.078125 -160.609375 C 119.535156 -161.015625 122.703125 -161.21875 126.578125 -161.21875 C 129.234375 -161.21875 133.421875 -161.0625 139.140625 -160.75 C 144.867188 -160.445312 151.410156 -159.476562 158.765625 -157.84375 C 189.828125 -151.914062 210.160156 -134.957031 219.765625 -106.96875 C 223.441406 -96.34375 225.28125 -85.304688 225.28125 -73.859375 C 225.28125 -67.328125 224.101562 -57.722656 221.75 -45.046875 C 219.40625 -32.378906 212.613281 -21.039062 201.375 -11.03125 C 196.875 -6.332031 191.097656 -2.398438 184.046875 0.765625 C 177.003906 3.929688 170.210938 5.925781 163.671875 6.75 C 162.242188 6.75 161.273438 6.488281 160.765625 5.96875 C 160.253906 5.457031 159.894531 3.265625 159.6875 -0.609375 C 157.84375 -10.210938 156.207031 -20.378906 154.78125 -31.109375 C 153.351562 -41.835938 152.640625 -47.507812 152.640625 -48.125 C 153.253906 -49.144531 156.21875 -50.984375 161.53125 -53.640625 C 166.226562 -56.085938 169.492188 -58.128906 171.328125 -59.765625 C 173.171875 -61.398438 174.804688 -63.75 176.234375 -66.8125 C 177.460938 -69.675781 178.078125 -73.457031 178.078125 -78.15625 C 178.078125 -78.976562 178.078125 -79.691406 178.078125 -80.296875 C 177.867188 -89.285156 175.109375 -96.644531 169.796875 -102.375 C 167.546875 -104.207031 164.734375 -106.25 161.359375 -108.5 C 157.992188 -110.75 155.90625 -111.875 155.09375 -111.875 C 154.476562 -111.875 153.96875 -102.578125 153.5625 -83.984375 L 152.640625 -55.78125 L 148.65625 -44.75 C 143.75 -31.0625 137.207031 -20.945312 129.03125 -14.40625 C 120.863281 -7.863281 112.078125 -4.59375 102.671875 -4.59375 C 101.453125 -4.59375 97.773438 -4.847656 91.640625 -5.359375 C 85.515625 -5.867188 77.34375 -10.722656 67.125 -19.921875 C 56.5 -28.910156 50.0625 -38.867188 47.8125 -49.796875 C 45.5625 -60.734375 44.4375 -69.570312 44.4375 -76.3125 C 44.4375 -84.488281 45.457031 -92.664062 47.5 -100.84375 C 56.082031 -133.9375 79.273438 -153.859375 117.078125 -160.609375 Z M 113.40625 -93.171875 C 113.40625 -105.640625 112.992188 -111.875 112.171875 -111.875 C 110.742188 -111.875 108.394531 -110.695312 105.125 -108.34375 C 101.851562 -106 99.097656 -103.597656 96.859375 -101.140625 C 92.148438 -95.828125 89.644531 -90.769531 89.34375 -85.96875 C 89.039062 -81.164062 88.890625 -78.253906 88.890625 -77.234375 C 88.890625 -70.492188 90.519531 -65.382812 93.78125 -61.90625 C 96.03125 -59.664062 98.28125 -58.546875 100.53125 -58.546875 C 102.976562 -58.546875 105.328125 -59.769531 107.578125 -62.21875 C 110.035156 -65.082031 111.566406 -67.738281 112.171875 -70.1875 C 112.992188 -72.84375 113.40625 -80.503906 113.40625 -93.171875 Z M 113.40625 -93.171875 "/></g></g></g><g fill="#00ffff" fill-opacity="1"><g transform="translate(643.17667, 266.853403)"><g><path d="M 175.9375 -81.828125 L 175.9375 -89.1875 L 198.609375 -88.890625 C 199.835938 -88.890625 201.578125 -88.890625 203.828125 -88.890625 C 213.015625 -88.679688 218.425781 -88.269531 220.0625 -87.65625 C 221.695312 -87.039062 222.617188 -84.894531 222.828125 -81.21875 C 222.828125 -80.40625 222.828125 -79.691406 222.828125 -79.078125 L 223.125 -74.78125 L 232.015625 -74.484375 L 240.609375 -74.171875 L 240.609375 -40.765625 L 223.125 -40.765625 L 222.21875 -25.140625 C 221.800781 -18.390625 221.179688 -12.867188 220.359375 -8.578125 C 219.546875 -4.285156 218.472656 -0.554688 217.140625 2.609375 C 215.816406 5.773438 214.035156 8.582031 211.796875 11.03125 C 207.910156 15.53125 203.15625 18.898438 197.53125 21.140625 C 191.914062 23.390625 184.507812 24.820312 175.3125 25.4375 L 166.734375 26.359375 L 163.984375 10.109375 L 161.21875 -6.125 L 157.84375 -2.140625 C 154.164062 2.347656 148.800781 5 141.75 5.8125 C 134.707031 6.632812 129.347656 5.207031 125.671875 1.53125 C 120.765625 -2.957031 118.003906 -8.421875 117.390625 -14.859375 C 116.773438 -21.296875 118.410156 -26.660156 122.296875 -30.953125 C 126.992188 -35.859375 132.507812 -38.3125 138.84375 -38.3125 C 141.90625 -38.3125 144.457031 -37.898438 146.5 -37.078125 C 148.550781 -36.265625 150.75 -34.734375 153.09375 -32.484375 C 155.445312 -30.242188 158.867188 -26.46875 163.359375 -21.15625 C 164.585938 -19.71875 166.328125 -19.304688 168.578125 -19.921875 C 170.410156 -20.328125 171.785156 -20.9375 172.703125 -21.75 C 173.628906 -22.570312 174.296875 -23.75 174.703125 -25.28125 C 175.109375 -26.8125 175.414062 -29.113281 175.625 -32.1875 L 176.234375 -40.453125 L 163.359375 -41.078125 C 154.984375 -41.679688 145.585938 -41.984375 135.171875 -41.984375 L 119.84375 -41.984375 L 119.84375 -74.171875 L 175.9375 -74.171875 Z M 84.28125 -87.359375 C 84.082031 -89.191406 83.625 -90.257812 82.90625 -90.5625 C 82.1875 -90.875 80.09375 -91.03125 76.625 -91.03125 L 69.265625 -91.03125 L 69.265625 -59.765625 L 76.9375 -60.078125 L 84.28125 -60.6875 L 84.59375 -72.03125 C 85 -79.175781 84.894531 -84.285156 84.28125 -87.359375 Z M 84.59375 -132.71875 L 84.28125 -148.046875 L 76.9375 -148.34375 L 69.265625 -148.65625 L 69.265625 -117.390625 L 85.203125 -117.390625 Z M 33.71875 -168.875 L 52.40625 -168.875 C 71.207031 -168.875 85 -167.445312 93.78125 -164.59375 C 96.445312 -163.769531 99.054688 -162.335938 101.609375 -160.296875 C 104.160156 -158.253906 106.40625 -156.003906 108.34375 -153.546875 C 110.289062 -151.097656 111.671875 -148.648438 112.484375 -146.203125 C 113.503906 -142.722656 114.015625 -126.628906 114.015625 -97.921875 C 114.015625 -69.210938 113.503906 -52.921875 112.484375 -49.046875 C 109.421875 -38.003906 103.492188 -30.390625 94.703125 -26.203125 C 85.921875 -22.015625 72.03125 -20.125 53.03125 -20.53125 C 39.945312 -21.144531 33.203125 -21.554688 32.796875 -21.765625 C 32.390625 -22.171875 32.492188 -46.789062 33.109375 -95.625 Z M 155.703125 -189.421875 L 155.703125 -197.6875 L 203.515625 -197.6875 L 203.828125 -189.109375 L 204.125 -180.21875 L 217.3125 -180.21875 C 226.5 -180.019531 231.398438 -179.921875 232.015625 -179.921875 C 233.035156 -179.710938 233.546875 -173.679688 233.546875 -161.828125 L 233.546875 -143.75 L 230.1875 -143.75 C 228.75 -143.75 223.84375 -143.644531 215.46875 -143.4375 L 204.125 -143.140625 L 203.828125 -138.234375 L 203.515625 -133.015625 L 243.046875 -133.015625 L 243.046875 -94.703125 L 180.828125 -94.40625 L 118.609375 -94.09375 L 118.609375 -132.71875 L 127.8125 -133.328125 C 134.351562 -133.941406 140.6875 -134.25 146.8125 -134.25 L 156.921875 -134.25 L 156.921875 -142.515625 L 145.28125 -142.515625 C 137.519531 -142.515625 133.125 -142.820312 132.09375 -143.4375 C 131.070312 -144.050781 130.460938 -150.179688 130.265625 -161.828125 L 129.953125 -179.296875 L 142.515625 -180.21875 L 155.703125 -181.140625 Z M 155.703125 -189.421875 "/></g></g></g><g fill="#00ffff" fill-opacity="1"><g transform="translate(867.527846, 266.853403)"><g><path d="M 149.265625 -27.28125 C 149.265625 -28.507812 146.609375 -29.125 141.296875 -29.125 C 133.734375 -28.914062 129.75 -28.300781 129.34375 -27.28125 C 128.9375 -26.257812 132 -25.546875 138.53125 -25.140625 C 145.6875 -24.722656 149.265625 -25.4375 149.265625 -27.28125 Z M 149.265625 -56.703125 C 148.035156 -57.515625 144.5625 -57.867188 138.84375 -57.765625 C 133.125 -57.671875 129.957031 -57.210938 129.34375 -56.390625 C 128.519531 -55.171875 129.335938 -54.351562 131.796875 -53.9375 C 133.222656 -53.738281 135.878906 -53.640625 139.765625 -53.640625 C 148.347656 -53.835938 151.515625 -54.859375 149.265625 -56.703125 Z M 188.796875 -125.359375 L 188.796875 -133.328125 L 170.71875 -133.328125 L 170.71875 -117.703125 L 188.796875 -117.703125 Z M 188.796875 -167.34375 L 188.796875 -174.09375 L 170.71875 -174.09375 L 170.71875 -160.90625 L 188.796875 -160.90625 Z M 140.984375 -140.375 L 140.984375 -196.765625 L 209.34375 -196.765625 L 216.390625 -192.78125 C 221.492188 -190.125 225.015625 -187.265625 226.953125 -184.203125 C 228.898438 -181.140625 230.179688 -176.238281 230.796875 -169.5 C 231.609375 -162.957031 231.914062 -133.941406 231.71875 -82.453125 C 231.300781 -31.367188 230.175781 -3.882812 228.34375 0 C 225.6875 6.125 221.238281 11.484375 215 16.078125 C 208.769531 20.679688 202.285156 23.394531 195.546875 24.21875 C 183.078125 25.644531 176.640625 25.742188 176.234375 24.515625 C 175.828125 24.109375 174.957031 18.335938 173.625 7.203125 C 172.300781 -3.929688 171.484375 -9.597656 171.171875 -9.796875 C 170.867188 -10.003906 169.492188 -9.085938 167.046875 -7.046875 C 165.003906 -5.210938 162.5 -3.832031 159.53125 -2.90625 C 156.570312 -1.988281 152.484375 -1.273438 147.265625 -0.765625 C 142.054688 -0.253906 134.445312 0.101562 124.4375 0.3125 L 97.78125 0.921875 L 97.78125 -78.15625 L 128.734375 -77.84375 C 141.191406 -77.84375 149.820312 -77.585938 154.625 -77.078125 C 159.425781 -76.566406 162.953125 -75.75 165.203125 -74.625 C 167.453125 -73.507812 169.597656 -71.414062 171.640625 -68.34375 C 173.273438 -65.894531 174.242188 -63.492188 174.546875 -61.140625 C 174.859375 -58.796875 175.113281 -52.617188 175.3125 -42.609375 L 175.9375 -22.0625 L 179.609375 -23.296875 C 181.859375 -23.910156 183.898438 -25.035156 185.734375 -26.671875 C 186.960938 -27.890625 187.675781 -29.929688 187.875 -32.796875 C 188.082031 -35.660156 188.289062 -43.628906 188.5 -56.703125 L 188.796875 -84.28125 L 140.984375 -84.28125 Z M 106.046875 -125.359375 L 106.046875 -133.328125 L 84.59375 -133.328125 L 84.59375 -117.703125 L 106.046875 -117.703125 Z M 106.046875 -167.34375 L 106.046875 -174.09375 L 84.59375 -174.09375 L 84.59375 -160.90625 L 106.046875 -160.90625 Z M 45.359375 -197.078125 L 79.078125 -196.46875 C 97.671875 -196.257812 109.421875 -195.695312 114.328125 -194.78125 C 119.234375 -193.863281 123.523438 -191.664062 127.203125 -188.1875 C 129.242188 -186.144531 130.722656 -184.40625 131.640625 -182.96875 C 132.554688 -181.539062 133.375 -178.988281 134.09375 -175.3125 C 134.8125 -171.632812 135.21875 -167.5 135.3125 -162.90625 C 135.414062 -158.3125 135.46875 -151.109375 135.46875 -141.296875 C 135.46875 -127.804688 135.3125 -118.351562 135 -112.9375 C 134.695312 -107.53125 134.035156 -103.5 133.015625 -100.84375 C 131.992188 -98.1875 130.15625 -95.628906 127.5 -93.171875 C 124.644531 -90.515625 121.582031 -88.675781 118.3125 -87.65625 C 116.46875 -87.039062 111.816406 -86.320312 104.359375 -85.5 C 96.898438 -84.6875 91.234375 -84.28125 87.359375 -84.28125 L 84.59375 -84.28125 L 84.59375 20.234375 L 65.28125 19.609375 C 52.613281 19.410156 45.875 18.695312 45.0625 17.46875 C 44.445312 16.445312 44.085938 -6.179688 43.984375 -50.421875 C 43.878906 -94.660156 44.132812 -130.773438 44.75 -158.765625 Z M 45.359375 -197.078125 "/></g></g></g><g fill="#ffffff" fill-opacity="1"><g transform="translate(-24.129918, 266.853403)"><g><path d="M 149.265625 -164.28125 L 149.265625 -181.453125 L 198 -181.453125 L 198 -146.8125 L 212.71875 -146.8125 L 227.109375 -146.5 L 227.734375 -103.59375 L 213.015625 -103.59375 L 198.3125 -103.296875 L 198 -66.515625 C 197.789062 -44.441406 196.765625 -30.335938 194.921875 -24.203125 C 193.085938 -18.078125 189.515625 -12.050781 184.203125 -6.125 C 179.296875 -0.8125 173.828125 3.117188 167.796875 5.671875 C 161.773438 8.222656 153.863281 10.007812 144.0625 11.03125 C 141.40625 11.238281 138.441406 11.34375 135.171875 11.34375 C 132.515625 11.34375 128.832031 11.238281 124.125 11.03125 C 119.425781 10.832031 116.769531 10.320312 116.15625 9.5 C 115.550781 9.289062 115.039062 5.921875 114.625 -0.609375 C 113.8125 -9.597656 113.097656 -17.363281 112.484375 -23.90625 C 111.671875 -32.894531 111.265625 -37.390625 111.265625 -37.390625 C 111.460938 -37.597656 111.867188 -37.703125 112.484375 -37.703125 C 113.503906 -37.703125 115.546875 -37.394531 118.609375 -36.78125 C 124.335938 -35.757812 129.242188 -35.25 133.328125 -35.25 C 141.910156 -35.25 146.40625 -37.597656 146.8125 -42.296875 C 148.039062 -51.285156 148.859375 -61.296875 149.265625 -72.328125 L 149.578125 -103.59375 L 126.28125 -103.59375 L 126.28125 -61.296875 L 78.46875 -61.296875 L 78.46875 -103.59375 L 50.578125 -103.59375 L 50.578125 -146.8125 L 78.46875 -146.8125 L 78.46875 -179.609375 L 126.28125 -179.609375 L 126.28125 -146.8125 L 137.3125 -146.8125 C 140.988281 -146.8125 143.75 -146.8125 145.59375 -146.8125 C 147.632812 -146.8125 148.65625 -146.8125 148.65625 -146.8125 C 149.0625 -147.019531 149.265625 -152.84375 149.265625 -164.28125 Z M 149.265625 -164.28125 "/></g></g></g><g fill="#ffffff" fill-opacity="1"><g transform="translate(200.221249, 266.853403)"><g><path d="M 180.21875 -52.40625 C 175.519531 -58.132812 173.066406 -61 172.859375 -61 C 172.453125 -61 172.25 -56.65625 172.25 -47.96875 C 172.25 -39.28125 172.554688 -34.117188 173.171875 -32.484375 C 173.378906 -31.265625 173.6875 -30.601562 174.09375 -30.5 C 174.5 -30.394531 175.414062 -30.851562 176.84375 -31.875 C 179.5 -33.507812 181.796875 -35.296875 183.734375 -37.234375 C 185.679688 -39.179688 186.65625 -40.664062 186.65625 -41.6875 C 186.65625 -42.90625 184.507812 -46.476562 180.21875 -52.40625 Z M 213.015625 -89.5 C 213.015625 -90.925781 212.195312 -91.742188 210.5625 -91.953125 L 201.0625 -92.25 C 193.707031 -92.050781 190.03125 -91.539062 190.03125 -90.71875 C 193.914062 -85.40625 197.644531 -80.753906 201.21875 -76.765625 C 204.789062 -72.785156 206.882812 -70.898438 207.5 -71.109375 C 208.113281 -71.316406 209.132812 -73.867188 210.5625 -78.765625 C 212 -83.671875 212.816406 -87.25 213.015625 -89.5 Z M 233.25 -179 C 235.90625 -179.613281 238.351562 -179.765625 240.59375 -179.453125 C 242.84375 -179.148438 244.171875 -178.585938 244.578125 -177.765625 C 244.992188 -176.953125 245.25 -170.875 245.34375 -159.53125 C 245.445312 -148.1875 245.398438 -142.515625 245.203125 -142.515625 C 244.585938 -142.515625 232.734375 -141.800781 209.640625 -140.375 C 186.148438 -138.738281 174.195312 -137.71875 173.78125 -137.3125 C 173.164062 -136.695312 172.757812 -127.09375 172.5625 -108.5 C 172.15625 -89.695312 172.5625 -80.296875 173.78125 -80.296875 C 175.007812 -80.296875 177.769531 -82.238281 182.0625 -86.125 L 188.5 -92.25 L 177.15625 -92.25 L 177.15625 -121.6875 L 197.078125 -121.375 C 214.859375 -120.96875 226.097656 -120.203125 230.796875 -119.078125 C 235.492188 -117.953125 239.375 -114.9375 242.4375 -110.03125 C 244.070312 -107.78125 245.039062 -105.734375 245.34375 -103.890625 C 245.65625 -102.054688 245.8125 -97.972656 245.8125 -91.640625 C 245.8125 -78.160156 242.539062 -64.265625 236 -49.953125 L 231.40625 -39.84375 L 245.5 -22.0625 C 255.101562 -10.414062 259.703125 -4.082031 259.296875 -3.0625 C 258.890625 -2.25 256.796875 -0.109375 253.015625 3.359375 C 249.234375 6.835938 245.347656 10.109375 241.359375 13.171875 C 237.378906 16.242188 235.082031 17.78125 234.46875 17.78125 C 233.851562 17.78125 230.785156 14.40625 225.265625 7.65625 C 219.753906 0.914062 215.570312 -4.597656 212.71875 -8.890625 C 212.300781 -9.703125 209.335938 -7.863281 203.828125 -3.375 C 192.992188 5.414062 184.410156 11.035156 178.078125 13.484375 L 173.78125 15.328125 L 169.796875 7.359375 C 168.367188 4.492188 166.941406 1.632812 165.515625 -1.21875 C 165.515625 -1.21875 165.050781 -0.910156 164.125 -0.296875 C 163.207031 0.304688 162.035156 1.019531 160.609375 1.84375 C 157.546875 4.5 154.378906 6.539062 151.109375 7.96875 C 148.242188 9.394531 144.050781 10.671875 138.53125 11.796875 C 133.019531 12.921875 129.957031 13.078125 129.34375 12.265625 C 128.519531 11.648438 127.140625 6.335938 125.203125 -3.671875 C 123.265625 -13.691406 122.09375 -20.640625 121.6875 -24.515625 C 121.476562 -27.378906 121.679688 -29.21875 122.296875 -30.03125 C 122.910156 -30.851562 124.75 -32.082031 127.8125 -33.71875 C 129.445312 -34.332031 130.519531 -37.039062 131.03125 -41.84375 C 131.539062 -46.644531 132.101562 -58.546875 132.71875 -77.546875 C 134.96875 -138.429688 136.296875 -169.179688 136.703125 -169.796875 C 137.515625 -170.410156 156.722656 -172.25 194.328125 -175.3125 C 219.253906 -177.363281 232.226562 -178.59375 233.25 -179 Z M 83.0625 -34.9375 C 82.65625 -35.550781 80 -35.859375 75.09375 -35.859375 L 68.046875 -35.859375 L 68.046875 -27.890625 C 68.046875 -22.578125 68.351562 -19.613281 68.96875 -19 C 69.375 -18.59375 72.128906 -19.613281 77.234375 -22.0625 C 81.117188 -23.90625 83.367188 -25.179688 83.984375 -25.890625 C 84.597656 -26.609375 84.695312 -27.988281 84.28125 -30.03125 C 83.675781 -32.6875 83.269531 -34.320312 83.0625 -34.9375 Z M 87.046875 -69.875 C 86.835938 -71.101562 86.273438 -71.867188 85.359375 -72.171875 C 84.441406 -72.484375 81.835938 -72.742188 77.546875 -72.953125 C 72.847656 -73.148438 70.085938 -73.09375 69.265625 -72.78125 C 68.453125 -72.476562 68.046875 -71.613281 68.046875 -70.1875 C 68.046875 -68.550781 68.453125 -67.628906 69.265625 -67.421875 C 70.085938 -67.222656 72.945312 -67.125 77.84375 -67.125 C 82.550781 -67.125 85.3125 -67.222656 86.125 -67.421875 C 86.945312 -67.628906 87.253906 -68.445312 87.046875 -69.875 Z M 87.359375 -95.328125 C 87.359375 -96.753906 86.894531 -97.566406 85.96875 -97.765625 C 85.050781 -97.972656 82.289062 -98.078125 77.6875 -98.078125 C 73.09375 -98.078125 70.335938 -97.972656 69.421875 -97.765625 C 68.503906 -97.566406 68.046875 -96.75 68.046875 -95.3125 C 68.046875 -93.882812 68.453125 -93.015625 69.265625 -92.703125 C 70.085938 -92.398438 72.234375 -92.148438 75.703125 -91.953125 C 78.972656 -91.742188 81.472656 -91.738281 83.203125 -91.9375 C 84.941406 -92.144531 86.066406 -92.453125 86.578125 -92.859375 C 87.097656 -93.273438 87.359375 -94.097656 87.359375 -95.328125 Z M 72.953125 -188.1875 C 78.671875 -192.882812 81.835938 -195.234375 82.453125 -195.234375 C 82.859375 -195.234375 86.84375 -191.457031 94.40625 -183.90625 C 97.675781 -180.632812 100.023438 -178.128906 101.453125 -176.390625 C 102.878906 -174.648438 103.847656 -173.320312 104.359375 -172.40625 C 104.867188 -171.488281 105.023438 -170.617188 104.828125 -169.796875 C 104.410156 -167.960938 104.96875 -166.328125 106.5 -164.890625 C 108.039062 -163.460938 112.796875 -160.398438 120.765625 -155.703125 C 129.347656 -150.597656 133.640625 -148.046875 133.640625 -148.046875 C 134.046875 -147.835938 132.710938 -145.125 129.640625 -139.90625 C 126.578125 -134.695312 123.410156 -129.488281 120.140625 -124.28125 C 116.878906 -119.070312 115.039062 -116.46875 114.625 -116.46875 C 113.601562 -116.257812 106.757812 -120.753906 94.09375 -129.953125 C 81.21875 -139.359375 74.269531 -143.753906 73.25 -143.140625 C 71.820312 -142.722656 68.859375 -140.675781 64.359375 -137 C 59.867188 -133.320312 55.679688 -129.742188 51.796875 -126.265625 C 47.910156 -122.796875 46.175781 -120.960938 46.59375 -120.765625 C 47.195312 -119.941406 49.34375 -119.734375 53.03125 -120.140625 C 55.269531 -120.554688 56.796875 -121.066406 57.609375 -121.671875 C 58.429688 -122.285156 59.148438 -123.3125 59.765625 -124.75 C 60.785156 -127.195312 62.625 -129.546875 65.28125 -131.796875 C 69.164062 -135.066406 73.457031 -136.140625 78.15625 -135.015625 C 82.851562 -133.890625 86.941406 -130.773438 90.421875 -125.671875 C 91.035156 -124.847656 91.597656 -124.128906 92.109375 -123.515625 C 92.617188 -122.898438 93.175781 -122.335938 93.78125 -121.828125 C 94.394531 -121.316406 95.0625 -120.859375 95.78125 -120.453125 C 96.5 -120.046875 97.265625 -119.632812 98.078125 -119.21875 C 98.898438 -118.8125 100.023438 -118.40625 101.453125 -118 C 110.441406 -114.9375 116.570312 -110.035156 119.84375 -103.296875 C 121.070312 -100.640625 121.835938 -97.984375 122.140625 -95.328125 C 122.441406 -92.671875 122.59375 -86.640625 122.59375 -77.234375 C 122.59375 -69.066406 122.488281 -63.601562 122.28125 -60.84375 C 122.082031 -58.082031 121.570312 -55.78125 120.75 -53.9375 C 119.9375 -52.101562 118.203125 -49.550781 115.546875 -46.28125 L 111.5625 -41.375 L 118 -13.796875 C 122.289062 4.179688 124.4375 13.785156 124.4375 15.015625 C 124.4375 15.628906 121.78125 16.804688 116.46875 18.546875 C 111.15625 20.285156 106.457031 21.457031 102.375 22.0625 C 99.507812 22.675781 97.257812 23.085938 95.625 23.296875 C 94.8125 23.703125 94.148438 23.394531 93.640625 22.375 C 93.128906 21.351562 92.566406 19.410156 91.953125 16.546875 C 90.929688 11.847656 90.113281 9.296875 89.5 8.890625 C 88.675781 8.273438 84.585938 9.804688 77.234375 13.484375 C 67.628906 18.390625 59.863281 20.84375 53.9375 20.84375 C 48.019531 20.84375 43.015625 18.59375 38.921875 14.09375 C 36.066406 11.238281 34.128906 8.582031 33.109375 6.125 C 32.078125 4.082031 31.359375 -18.082031 30.953125 -60.375 L 30.34375 -123.828125 L 22.984375 -133.9375 C 17.878906 -140.6875 15.835938 -144.570312 16.859375 -145.59375 C 17.671875 -146.40625 25.742188 -152.535156 41.078125 -163.984375 C 52.722656 -172.765625 63.347656 -180.832031 72.953125 -188.1875 Z M 72.953125 -188.1875 "/></g></g></g><g fill="#ffffff" fill-opacity="1"><g transform="translate(424.572416, 266.853403)"><g><path d="M 117.078125 -160.609375 C 119.535156 -161.015625 122.703125 -161.21875 126.578125 -161.21875 C 129.234375 -161.21875 133.421875 -161.0625 139.140625 -160.75 C 144.867188 -160.445312 151.410156 -159.476562 158.765625 -157.84375 C 189.828125 -151.914062 210.160156 -134.957031 219.765625 -106.96875 C 223.441406 -96.34375 225.28125 -85.304688 225.28125 -73.859375 C 225.28125 -67.328125 224.101562 -57.722656 221.75 -45.046875 C 219.40625 -32.378906 212.613281 -21.039062 201.375 -11.03125 C 196.875 -6.332031 191.097656 -2.398438 184.046875 0.765625 C 177.003906 3.929688 170.210938 5.925781 163.671875 6.75 C 162.242188 6.75 161.273438 6.488281 160.765625 5.96875 C 160.253906 5.457031 159.894531 3.265625 159.6875 -0.609375 C 157.84375 -10.210938 156.207031 -20.378906 154.78125 -31.109375 C 153.351562 -41.835938 152.640625 -47.507812 152.640625 -48.125 C 153.253906 -49.144531 156.21875 -50.984375 161.53125 -53.640625 C 166.226562 -56.085938 169.492188 -58.128906 171.328125 -59.765625 C 173.171875 -61.398438 174.804688 -63.75 176.234375 -66.8125 C 177.460938 -69.675781 178.078125 -73.457031 178.078125 -78.15625 C 178.078125 -78.976562 178.078125 -79.691406 178.078125 -80.296875 C 177.867188 -89.285156 175.109375 -96.644531 169.796875 -102.375 C 167.546875 -104.207031 164.734375 -106.25 161.359375 -108.5 C 157.992188 -110.75 155.90625 -111.875 155.09375 -111.875 C 154.476562 -111.875 153.96875 -102.578125 153.5625 -83.984375 L 152.640625 -55.78125 L 148.65625 -44.75 C 143.75 -31.0625 137.207031 -20.945312 129.03125 -14.40625 C 120.863281 -7.863281 112.078125 -4.59375 102.671875 -4.59375 C 101.453125 -4.59375 97.773438 -4.847656 91.640625 -5.359375 C 85.515625 -5.867188 77.34375 -10.722656 67.125 -19.921875 C 56.5 -28.910156 50.0625 -38.867188 47.8125 -49.796875 C 45.5625 -60.734375 44.4375 -69.570312 44.4375 -76.3125 C 44.4375 -84.488281 45.457031 -92.664062 47.5 -100.84375 C 56.082031 -133.9375 79.273438 -153.859375 117.078125 -160.609375 Z M 113.40625 -93.171875 C 113.40625 -105.640625 112.992188 -111.875 112.171875 -111.875 C 110.742188 -111.875 108.394531 -110.695312 105.125 -108.34375 C 101.851562 -106 99.097656 -103.597656 96.859375 -101.140625 C 92.148438 -95.828125 89.644531 -90.769531 89.34375 -85.96875 C 89.039062 -81.164062 88.890625 -78.253906 88.890625 -77.234375 C 88.890625 -70.492188 90.519531 -65.382812 93.78125 -61.90625 C 96.03125 -59.664062 98.28125 -58.546875 100.53125 -58.546875 C 102.976562 -58.546875 105.328125 -59.769531 107.578125 -62.21875 C 110.035156 -65.082031 111.566406 -67.738281 112.171875 -70.1875 C 112.992188 -72.84375 113.40625 -80.503906 113.40625 -93.171875 Z M 113.40625 -93.171875 "/></g></g></g><g fill="#ffffff" fill-opacity="1"><g transform="translate(648.923566, 266.853403)"><g><path d="M 175.9375 -81.828125 L 175.9375 -89.1875 L 198.609375 -88.890625 C 199.835938 -88.890625 201.578125 -88.890625 203.828125 -88.890625 C 213.015625 -88.679688 218.425781 -88.269531 220.0625 -87.65625 C 221.695312 -87.039062 222.617188 -84.894531 222.828125 -81.21875 C 222.828125 -80.40625 222.828125 -79.691406 222.828125 -79.078125 L 223.125 -74.78125 L 232.015625 -74.484375 L 240.609375 -74.171875 L 240.609375 -40.765625 L 223.125 -40.765625 L 222.21875 -25.140625 C 221.800781 -18.390625 221.179688 -12.867188 220.359375 -8.578125 C 219.546875 -4.285156 218.472656 -0.554688 217.140625 2.609375 C 215.816406 5.773438 214.035156 8.582031 211.796875 11.03125 C 207.910156 15.53125 203.15625 18.898438 197.53125 21.140625 C 191.914062 23.390625 184.507812 24.820312 175.3125 25.4375 L 166.734375 26.359375 L 163.984375 10.109375 L 161.21875 -6.125 L 157.84375 -2.140625 C 154.164062 2.347656 148.800781 5 141.75 5.8125 C 134.707031 6.632812 129.347656 5.207031 125.671875 1.53125 C 120.765625 -2.957031 118.003906 -8.421875 117.390625 -14.859375 C 116.773438 -21.296875 118.410156 -26.660156 122.296875 -30.953125 C 126.992188 -35.859375 132.507812 -38.3125 138.84375 -38.3125 C 141.90625 -38.3125 144.457031 -37.898438 146.5 -37.078125 C 148.550781 -36.265625 150.75 -34.734375 153.09375 -32.484375 C 155.445312 -30.242188 158.867188 -26.46875 163.359375 -21.15625 C 164.585938 -19.71875 166.328125 -19.304688 168.578125 -19.921875 C 170.410156 -20.328125 171.785156 -20.9375 172.703125 -21.75 C 173.628906 -22.570312 174.296875 -23.75 174.703125 -25.28125 C 175.109375 -26.8125 175.414062 -29.113281 175.625 -32.1875 L 176.234375 -40.453125 L 163.359375 -41.078125 C 154.984375 -41.679688 145.585938 -41.984375 135.171875 -41.984375 L 119.84375 -41.984375 L 119.84375 -74.171875 L 175.9375 -74.171875 Z M 84.28125 -87.359375 C 84.082031 -89.191406 83.625 -90.257812 82.90625 -90.5625 C 82.1875 -90.875 80.09375 -91.03125 76.625 -91.03125 L 69.265625 -91.03125 L 69.265625 -59.765625 L 76.9375 -60.078125 L 84.28125 -60.6875 L 84.59375 -72.03125 C 85 -79.175781 84.894531 -84.285156 84.28125 -87.359375 Z M 84.59375 -132.71875 L 84.28125 -148.046875 L 76.9375 -148.34375 L 69.265625 -148.65625 L 69.265625 -117.390625 L 85.203125 -117.390625 Z M 33.71875 -168.875 L 52.40625 -168.875 C 71.207031 -168.875 85 -167.445312 93.78125 -164.59375 C 96.445312 -163.769531 99.054688 -162.335938 101.609375 -160.296875 C 104.160156 -158.253906 106.40625 -156.003906 108.34375 -153.546875 C 110.289062 -151.097656 111.671875 -148.648438 112.484375 -146.203125 C 113.503906 -142.722656 114.015625 -126.628906 114.015625 -97.921875 C 114.015625 -69.210938 113.503906 -52.921875 112.484375 -49.046875 C 109.421875 -38.003906 103.492188 -30.390625 94.703125 -26.203125 C 85.921875 -22.015625 72.03125 -20.125 53.03125 -20.53125 C 39.945312 -21.144531 33.203125 -21.554688 32.796875 -21.765625 C 32.390625 -22.171875 32.492188 -46.789062 33.109375 -95.625 Z M 155.703125 -189.421875 L 155.703125 -197.6875 L 203.515625 -197.6875 L 203.828125 -189.109375 L 204.125 -180.21875 L 217.3125 -180.21875 C 226.5 -180.019531 231.398438 -179.921875 232.015625 -179.921875 C 233.035156 -179.710938 233.546875 -173.679688 233.546875 -161.828125 L 233.546875 -143.75 L 230.1875 -143.75 C 228.75 -143.75 223.84375 -143.644531 215.46875 -143.4375 L 204.125 -143.140625 L 203.828125 -138.234375 L 203.515625 -133.015625 L 243.046875 -133.015625 L 243.046875 -94.703125 L 180.828125 -94.40625 L 118.609375 -94.09375 L 118.609375 -132.71875 L 127.8125 -133.328125 C 134.351562 -133.941406 140.6875 -134.25 146.8125 -134.25 L 156.921875 -134.25 L 156.921875 -142.515625 L 145.28125 -142.515625 C 137.519531 -142.515625 133.125 -142.820312 132.09375 -143.4375 C 131.070312 -144.050781 130.460938 -150.179688 130.265625 -161.828125 L 129.953125 -179.296875 L 142.515625 -180.21875 L 155.703125 -181.140625 Z M 155.703125 -189.421875 "/></g></g></g><g fill="#ffffff" fill-opacity="1"><g transform="translate(873.274743, 266.853403)"><g><path d="M 149.265625 -27.28125 C 149.265625 -28.507812 146.609375 -29.125 141.296875 -29.125 C 133.734375 -28.914062 129.75 -28.300781 129.34375 -27.28125 C 128.9375 -26.257812 132 -25.546875 138.53125 -25.140625 C 145.6875 -24.722656 149.265625 -25.4375 149.265625 -27.28125 Z M 149.265625 -56.703125 C 148.035156 -57.515625 144.5625 -57.867188 138.84375 -57.765625 C 133.125 -57.671875 129.957031 -57.210938 129.34375 -56.390625 C 128.519531 -55.171875 129.335938 -54.351562 131.796875 -53.9375 C 133.222656 -53.738281 135.878906 -53.640625 139.765625 -53.640625 C 148.347656 -53.835938 151.515625 -54.859375 149.265625 -56.703125 Z M 188.796875 -125.359375 L 188.796875 -133.328125 L 170.71875 -133.328125 L 170.71875 -117.703125 L 188.796875 -117.703125 Z M 188.796875 -167.34375 L 188.796875 -174.09375 L 170.71875 -174.09375 L 170.71875 -160.90625 L 188.796875 -160.90625 Z M 140.984375 -140.375 L 140.984375 -196.765625 L 209.34375 -196.765625 L 216.390625 -192.78125 C 221.492188 -190.125 225.015625 -187.265625 226.953125 -184.203125 C 228.898438 -181.140625 230.179688 -176.238281 230.796875 -169.5 C 231.609375 -162.957031 231.914062 -133.941406 231.71875 -82.453125 C 231.300781 -31.367188 230.175781 -3.882812 228.34375 0 C 225.6875 6.125 221.238281 11.484375 215 16.078125 C 208.769531 20.679688 202.285156 23.394531 195.546875 24.21875 C 183.078125 25.644531 176.640625 25.742188 176.234375 24.515625 C 175.828125 24.109375 174.957031 18.335938 173.625 7.203125 C 172.300781 -3.929688 171.484375 -9.597656 171.171875 -9.796875 C 170.867188 -10.003906 169.492188 -9.085938 167.046875 -7.046875 C 165.003906 -5.210938 162.5 -3.832031 159.53125 -2.90625 C 156.570312 -1.988281 152.484375 -1.273438 147.265625 -0.765625 C 142.054688 -0.253906 134.445312 0.101562 124.4375 0.3125 L 97.78125 0.921875 L 97.78125 -78.15625 L 128.734375 -77.84375 C 141.191406 -77.84375 149.820312 -77.585938 154.625 -77.078125 C 159.425781 -76.566406 162.953125 -75.75 165.203125 -74.625 C 167.453125 -73.507812 169.597656 -71.414062 171.640625 -68.34375 C 173.273438 -65.894531 174.242188 -63.492188 174.546875 -61.140625 C 174.859375 -58.796875 175.113281 -52.617188 175.3125 -42.609375 L 175.9375 -22.0625 L 179.609375 -23.296875 C 181.859375 -23.910156 183.898438 -25.035156 185.734375 -26.671875 C 186.960938 -27.890625 187.675781 -29.929688 187.875 -32.796875 C 188.082031 -35.660156 188.289062 -43.628906 188.5 -56.703125 L 188.796875 -84.28125 L 140.984375 -84.28125 Z M 106.046875 -125.359375 L 106.046875 -133.328125 L 84.59375 -133.328125 L 84.59375 -117.703125 L 106.046875 -117.703125 Z M 106.046875 -167.34375 L 106.046875 -174.09375 L 84.59375 -174.09375 L 84.59375 -160.90625 L 106.046875 -160.90625 Z M 45.359375 -197.078125 L 79.078125 -196.46875 C 97.671875 -196.257812 109.421875 -195.695312 114.328125 -194.78125 C 119.234375 -193.863281 123.523438 -191.664062 127.203125 -188.1875 C 129.242188 -186.144531 130.722656 -184.40625 131.640625 -182.96875 C 132.554688 -181.539062 133.375 -178.988281 134.09375 -175.3125 C 134.8125 -171.632812 135.21875 -167.5 135.3125 -162.90625 C 135.414062 -158.3125 135.46875 -151.109375 135.46875 -141.296875 C 135.46875 -127.804688 135.3125 -118.351562 135 -112.9375 C 134.695312 -107.53125 134.035156 -103.5 133.015625 -100.84375 C 131.992188 -98.1875 130.15625 -95.628906 127.5 -93.171875 C 124.644531 -90.515625 121.582031 -88.675781 118.3125 -87.65625 C 116.46875 -87.039062 111.816406 -86.320312 104.359375 -85.5 C 96.898438 -84.6875 91.234375 -84.28125 87.359375 -84.28125 L 84.59375 -84.28125 L 84.59375 20.234375 L 65.28125 19.609375 C 52.613281 19.410156 45.875 18.695312 45.0625 17.46875 C 44.445312 16.445312 44.085938 -6.179688 43.984375 -50.421875 C 43.878906 -94.660156 44.132812 -130.773438 44.75 -158.765625 Z M 45.359375 -197.078125 "/></g></g></g></svg>