<svg xmlns="http://www.w3.org/2000/svg" xmlns:xlink="http://www.w3.org/1999/xlink" width="500" zoomAndPan="magnify" viewBox="0 0 375 374.999991" height="500" preserveAspectRatio="xMidYMid meet" version="1.0"><defs><g/><clipPath id="fd3fb89094"><path d="M 187.5 0 C 83.945312 0 0 83.945312 0 187.5 C 0 291.054688 83.945312 375 187.5 375 C 291.054688 375 375 291.054688 375 187.5 C 375 83.945312 291.054688 0 187.5 0 Z M 187.5 0 " clip-rule="nonzero"/></clipPath></defs><g clip-path="url(#fd3fb89094)"><rect x="-37.5" width="450" fill="#000000" y="-37.499999" height="449.999989" fill-opacity="1"/></g><g fill="#ff0000" fill-opacity="1"><g transform="translate(17.031467, 303.698057)"><g><path d="M 192.703125 -212.09375 L 192.703125 -234.25 L 255.609375 -234.25 L 255.609375 -189.53125 L 274.609375 -189.53125 L 293.203125 -189.140625 L 294 -133.75 L 275 -133.75 L 256.015625 -133.34375 L 255.609375 -85.859375 C 255.347656 -57.367188 254.03125 -39.164062 251.65625 -31.25 C 249.28125 -23.34375 244.664062 -15.5625 237.8125 -7.90625 C 231.476562 -1.050781 224.421875 4.019531 216.640625 7.3125 C 208.859375 10.613281 198.632812 12.925781 185.96875 14.25 C 182.539062 14.507812 178.71875 14.640625 174.5 14.640625 C 171.070312 14.640625 166.320312 14.503906 160.25 14.234375 C 154.1875 13.972656 150.757812 13.316406 149.96875 12.265625 C 149.175781 12.003906 148.515625 7.648438 147.984375 -0.796875 C 146.929688 -12.398438 146.007812 -22.421875 145.21875 -30.859375 C 144.164062 -42.472656 143.640625 -48.28125 143.640625 -48.28125 C 143.898438 -48.539062 144.425781 -48.671875 145.21875 -48.671875 C 146.539062 -48.671875 149.175781 -48.273438 153.125 -47.484375 C 160.507812 -46.160156 166.84375 -45.5 172.125 -45.5 C 183.207031 -45.5 189.007812 -48.535156 189.53125 -54.609375 C 191.113281 -66.210938 192.171875 -79.132812 192.703125 -93.375 L 193.09375 -133.75 L 163.015625 -133.75 L 163.015625 -79.140625 L 101.296875 -79.140625 L 101.296875 -133.75 L 65.28125 -133.75 L 65.28125 -189.53125 L 101.296875 -189.53125 L 101.296875 -231.875 L 163.015625 -231.875 L 163.015625 -189.53125 L 177.265625 -189.53125 C 182.015625 -189.53125 185.578125 -189.53125 187.953125 -189.53125 C 190.585938 -189.53125 191.90625 -189.53125 191.90625 -189.53125 C 192.4375 -189.800781 192.703125 -197.320312 192.703125 -212.09375 Z M 192.703125 -212.09375 "/></g></g></g><g fill="#00ffff" fill-opacity="1"><g transform="translate(2.192917, 303.698057)"><g><path d="M 192.703125 -212.09375 L 192.703125 -234.25 L 255.609375 -234.25 L 255.609375 -189.53125 L 274.609375 -189.53125 L 293.203125 -189.140625 L 294 -133.75 L 275 -133.75 L 256.015625 -133.34375 L 255.609375 -85.859375 C 255.347656 -57.367188 254.03125 -39.164062 251.65625 -31.25 C 249.28125 -23.34375 244.664062 -15.5625 237.8125 -7.90625 C 231.476562 -1.050781 224.421875 4.019531 216.640625 7.3125 C 208.859375 10.613281 198.632812 12.925781 185.96875 14.25 C 182.539062 14.507812 178.71875 14.640625 174.5 14.640625 C 171.070312 14.640625 166.320312 14.503906 160.25 14.234375 C 154.1875 13.972656 150.757812 13.316406 149.96875 12.265625 C 149.175781 12.003906 148.515625 7.648438 147.984375 -0.796875 C 146.929688 -12.398438 146.007812 -22.421875 145.21875 -30.859375 C 144.164062 -42.472656 143.640625 -48.28125 143.640625 -48.28125 C 143.898438 -48.539062 144.425781 -48.671875 145.21875 -48.671875 C 146.539062 -48.671875 149.175781 -48.273438 153.125 -47.484375 C 160.507812 -46.160156 166.84375 -45.5 172.125 -45.5 C 183.207031 -45.5 189.007812 -48.535156 189.53125 -54.609375 C 191.113281 -66.210938 192.171875 -79.132812 192.703125 -93.375 L 193.09375 -133.75 L 163.015625 -133.75 L 163.015625 -79.140625 L 101.296875 -79.140625 L 101.296875 -133.75 L 65.28125 -133.75 L 65.28125 -189.53125 L 101.296875 -189.53125 L 101.296875 -231.875 L 163.015625 -231.875 L 163.015625 -189.53125 L 177.265625 -189.53125 C 182.015625 -189.53125 185.578125 -189.53125 187.953125 -189.53125 C 190.585938 -189.53125 191.90625 -189.53125 191.90625 -189.53125 C 192.4375 -189.800781 192.703125 -197.320312 192.703125 -212.09375 Z M 192.703125 -212.09375 "/></g></g></g><g fill="#ffffff" fill-opacity="1"><g transform="translate(9.612192, 303.698057)"><g><path d="M 192.703125 -212.09375 L 192.703125 -234.25 L 255.609375 -234.25 L 255.609375 -189.53125 L 274.609375 -189.53125 L 293.203125 -189.140625 L 294 -133.75 L 275 -133.75 L 256.015625 -133.34375 L 255.609375 -85.859375 C 255.347656 -57.367188 254.03125 -39.164062 251.65625 -31.25 C 249.28125 -23.34375 244.664062 -15.5625 237.8125 -7.90625 C 231.476562 -1.050781 224.421875 4.019531 216.640625 7.3125 C 208.859375 10.613281 198.632812 12.925781 185.96875 14.25 C 182.539062 14.507812 178.71875 14.640625 174.5 14.640625 C 171.070312 14.640625 166.320312 14.503906 160.25 14.234375 C 154.1875 13.972656 150.757812 13.316406 149.96875 12.265625 C 149.175781 12.003906 148.515625 7.648438 147.984375 -0.796875 C 146.929688 -12.398438 146.007812 -22.421875 145.21875 -30.859375 C 144.164062 -42.472656 143.640625 -48.28125 143.640625 -48.28125 C 143.898438 -48.539062 144.425781 -48.671875 145.21875 -48.671875 C 146.539062 -48.671875 149.175781 -48.273438 153.125 -47.484375 C 160.507812 -46.160156 166.84375 -45.5 172.125 -45.5 C 183.207031 -45.5 189.007812 -48.535156 189.53125 -54.609375 C 191.113281 -66.210938 192.171875 -79.132812 192.703125 -93.375 L 193.09375 -133.75 L 163.015625 -133.75 L 163.015625 -79.140625 L 101.296875 -79.140625 L 101.296875 -133.75 L 65.28125 -133.75 L 65.28125 -189.53125 L 101.296875 -189.53125 L 101.296875 -231.875 L 163.015625 -231.875 L 163.015625 -189.53125 L 177.265625 -189.53125 C 182.015625 -189.53125 185.578125 -189.53125 187.953125 -189.53125 C 190.585938 -189.53125 191.90625 -189.53125 191.90625 -189.53125 C 192.4375 -189.800781 192.703125 -197.320312 192.703125 -212.09375 Z M 192.703125 -212.09375 "/></g></g></g></svg>