<svg xmlns="http://www.w3.org/2000/svg" xmlns:xlink="http://www.w3.org/1999/xlink" width="100" zoomAndPan="magnify" viewBox="0 0 75 74.999997" height="100" preserveAspectRatio="xMidYMid meet" version="1.0"><defs><clipPath id="526addb4d0"><path d="M 7.5 7.5 L 67.5 7.5 L 67.5 67.5 L 7.5 67.5 Z M 7.5 7.5 " clip-rule="nonzero"/></clipPath></defs><rect x="-7.5" width="90" fill="#ffffff" y="-7.5" height="89.999996" fill-opacity="1"/><rect x="-7.5" width="90" fill="#ffffff" y="-7.5" height="89.999996" fill-opacity="1"/><g clip-path="url(#526addb4d0)"><path fill="#9d9797" d="M 37.5 7.5 C 20.957031 7.5 7.5 20.957031 7.5 37.5 C 7.5 54.042969 20.957031 67.5 37.5 67.5 C 54.042969 67.5 67.5 54.042969 67.5 37.5 C 67.5 20.957031 54.042969 7.5 37.5 7.5 Z M 37.5 15.324219 C 42.535156 15.324219 46.628906 19.421875 46.628906 24.457031 C 46.628906 29.492188 42.535156 33.585938 37.5 33.585938 C 32.464844 33.585938 28.371094 29.492188 28.371094 24.457031 C 28.371094 19.421875 32.464844 15.324219 37.5 15.324219 Z M 53.152344 54.457031 L 21.847656 54.457031 C 21.128906 54.457031 20.542969 53.871094 20.542969 53.152344 C 20.542969 43.800781 28.152344 36.195312 37.5 36.195312 C 46.847656 36.195312 54.457031 43.800781 54.457031 53.152344 C 54.457031 53.871094 53.871094 54.457031 53.152344 54.457031 Z M 53.152344 54.457031 " fill-opacity="1" fill-rule="nonzero"/></g></svg>