<svg xmlns="http://www.w3.org/2000/svg" xmlns:xlink="http://www.w3.org/1999/xlink" width="300" zoomAndPan="magnify" viewBox="0 0 224.87999 149.999998" height="200" preserveAspectRatio="xMidYMid meet" version="1.0"><defs><g/><clipPath id="5a748a8469"><path d="M 0 0.0390625 L 224.761719 0.0390625 L 224.761719 149.960938 L 0 149.960938 Z M 0 0.0390625 " clip-rule="nonzero"/></clipPath><clipPath id="728edbfd90"><path d="M 116.59375 45.015625 L 176.558594 45.015625 L 176.558594 104.984375 L 116.59375 104.984375 Z M 116.59375 45.015625 " clip-rule="nonzero"/></clipPath></defs><g clip-path="url(#5a748a8469)"><path fill="#ffffff" d="M 0 0.0390625 L 224.878906 0.0390625 L 224.878906 149.960938 L 0 149.960938 Z M 0 0.0390625 " fill-opacity="1" fill-rule="nonzero"/><path fill="#ffffff" d="M 0 0.0390625 L 224.878906 0.0390625 L 224.878906 149.960938 L 0 149.960938 Z M 0 0.0390625 " fill-opacity="1" fill-rule="nonzero"/></g><g clip-path="url(#728edbfd90)"><path fill="#a6a6a6" d="M 146.585938 45.007812 C 163.148438 45.007812 176.570312 58.429688 176.570312 74.988281 C 176.570312 87.628906 168.75 98.4375 157.683594 102.851562 L 157.246094 93.402344 L 157.246094 93.386719 C 157.269531 91.515625 158.058594 90.046875 159.8125 89.304688 L 160.035156 89.214844 L 160.046875 89.210938 L 160.0625 89.203125 L 160.082031 89.195312 C 161.371094 88.675781 162.421875 87.972656 163.136719 86.753906 C 164.03125 85.238281 164.203125 83.21875 164.203125 81.5 C 164.203125 78.195312 163.230469 74.296875 161.550781 71.4375 C 160.359375 69.410156 158.476562 67.355469 155.9375 67.355469 C 153.398438 67.355469 151.515625 69.410156 150.324219 71.4375 C 148.644531 74.296875 147.671875 78.195312 147.671875 81.5 C 147.671875 83.222656 147.84375 85.242188 148.738281 86.753906 C 149.460938 87.980469 150.523438 88.683594 151.820312 89.207031 C 151.855469 89.21875 151.890625 89.234375 151.925781 89.25 L 151.9375 89.25 L 152.050781 89.296875 C 153.804688 90.039062 154.605469 91.492188 154.628906 93.386719 L 154.628906 93.402344 L 154.136719 104.015625 C 151.722656 104.644531 149.195312 104.976562 146.585938 104.976562 C 143.886719 104.976562 141.269531 104.617188 138.78125 103.949219 L 138.320312 94.011719 L 138.320312 93.988281 C 138.34375 92.074219 139.164062 90.566406 140.957031 89.804688 L 141.183594 89.714844 L 141.191406 89.714844 L 141.199219 89.710938 L 141.226562 89.699219 C 142.492188 89.1875 143.523438 88.5 144.226562 87.304688 C 145.105469 85.808594 145.277344 83.804688 145.277344 82.105469 C 145.277344 81.941406 145.269531 81.777344 145.257812 81.613281 C 145.253906 81.519531 145.246094 81.425781 145.234375 81.332031 L 145.21875 81.195312 L 145.242188 81.097656 L 144.152344 68.417969 L 143.011719 68.417969 L 142.914062 81.820312 L 141.015625 82.011719 L 139.886719 66.859375 L 138.652344 66.933594 L 138.40625 82.199219 L 137.734375 82.226562 C 137.59375 82.230469 137.453125 82.234375 137.3125 82.234375 C 137.171875 82.234375 137.03125 82.230469 136.890625 82.226562 L 136.222656 82.199219 L 135.878906 66.933594 L 134.640625 66.863281 L 133.609375 82.011719 L 131.710938 81.824219 L 131.613281 68.417969 L 130.46875 68.417969 L 128.992188 81.105469 L 129.019531 81.195312 L 129 81.332031 C 128.992188 81.425781 128.984375 81.519531 128.976562 81.613281 C 128.96875 81.777344 128.960938 81.941406 128.960938 82.105469 C 128.960938 83.804688 129.128906 85.808594 130.011719 87.304688 C 130.71875 88.507812 131.765625 89.199219 133.035156 89.710938 C 133.066406 89.722656 133.097656 89.734375 133.125 89.746094 L 133.136719 89.746094 L 133.269531 89.800781 C 135.066406 90.558594 135.890625 92.054688 135.914062 93.988281 L 135.914062 94.011719 L 135.507812 102.867188 C 124.425781 98.460938 116.59375 87.640625 116.59375 74.992188 C 116.601562 58.429688 130.027344 45.007812 146.585938 45.007812 " fill-opacity="1" fill-rule="evenodd"/></g><g fill="#9d9797" fill-opacity="1"><g transform="translate(48.319447, 81.371597)"><g><path d="M 4.988281 0.222656 C 7.722656 0.222656 9.335938 -1.421875 9.335938 -3.359375 C 9.335938 -5.070312 8.394531 -5.980469 6.957031 -6.570312 L 5.402344 -7.226562 C 4.398438 -7.625 3.550781 -7.929688 3.550781 -8.777344 C 3.550781 -9.5625 4.222656 -10.023438 5.261719 -10.023438 C 6.234375 -10.023438 7.019531 -9.671875 7.769531 -9.050781 L 8.96875 -10.535156 C 8.011719 -11.511719 6.636719 -12.054688 5.261719 -12.054688 C 2.863281 -12.054688 1.167969 -10.570312 1.167969 -8.632812 C 1.167969 -6.90625 2.367188 -5.949219 3.566406 -5.453125 L 5.148438 -4.78125 C 6.203125 -4.332031 6.921875 -4.0625 6.921875 -3.183594 C 6.921875 -2.351562 6.269531 -1.824219 5.035156 -1.824219 C 3.996094 -1.824219 2.878906 -2.351562 2.03125 -3.132812 L 0.671875 -1.503906 C 1.824219 -0.398438 3.40625 0.222656 4.988281 0.222656 Z M 4.988281 0.222656 "/></g></g></g><g fill="#9d9797" fill-opacity="1"><g transform="translate(58.295728, 81.371597)"><g><path d="M 3.46875 0.222656 C 4.492188 0.222656 5.386719 -0.289062 6.171875 -0.960938 L 6.21875 -0.960938 L 6.394531 0 L 8.3125 0 L 8.3125 -5.226562 C 8.3125 -7.820312 7.148438 -9.175781 4.875 -9.175781 C 3.46875 -9.175781 2.191406 -8.648438 1.136719 -7.996094 L 1.984375 -6.445312 C 2.8125 -6.921875 3.613281 -7.289062 4.445312 -7.289062 C 5.546875 -7.289062 5.933594 -6.621094 5.964844 -5.738281 C 2.367188 -5.355469 0.816406 -4.347656 0.816406 -2.429688 C 0.816406 -0.910156 1.871094 0.222656 3.46875 0.222656 Z M 4.238281 -1.613281 C 3.550781 -1.613281 3.054688 -1.917969 3.054688 -2.621094 C 3.054688 -3.421875 3.789062 -4.011719 5.964844 -4.300781 L 5.964844 -2.496094 C 5.402344 -1.933594 4.910156 -1.613281 4.238281 -1.613281 Z M 4.238281 -1.613281 "/></g></g></g><g fill="#9d9797" fill-opacity="1"><g transform="translate(67.744409, 81.371597)"><g><path d="M 1.261719 0 L 3.597656 0 L 3.597656 -6.15625 C 4.238281 -6.828125 4.8125 -7.164062 5.324219 -7.164062 C 6.171875 -7.164062 6.570312 -6.667969 6.570312 -5.292969 L 6.570312 0 L 8.921875 0 L 8.921875 -6.15625 C 9.5625 -6.828125 10.136719 -7.164062 10.648438 -7.164062 C 11.496094 -7.164062 11.894531 -6.667969 11.894531 -5.292969 L 11.894531 0 L 14.246094 0 L 14.246094 -5.582031 C 14.246094 -7.835938 13.367188 -9.175781 11.464844 -9.175781 C 10.296875 -9.175781 9.433594 -8.472656 8.617188 -7.609375 C 8.1875 -8.601562 7.433594 -9.175781 6.15625 -9.175781 C 4.988281 -9.175781 4.15625 -8.539062 3.40625 -7.753906 L 3.339844 -7.753906 L 3.183594 -8.953125 L 1.261719 -8.953125 Z M 1.261719 0 "/></g></g></g><g fill="#9d9797" fill-opacity="1"><g transform="translate(83.156479, 81.371597)"><g><path d="M 1.261719 3.4375 L 3.597656 3.4375 L 3.597656 0.71875 L 3.535156 -0.75 C 4.222656 -0.128906 4.972656 0.222656 5.757812 0.222656 C 7.722656 0.222656 9.5625 -1.550781 9.5625 -4.621094 C 9.5625 -7.371094 8.25 -9.175781 6.042969 -9.175781 C 5.085938 -9.175781 4.15625 -8.667969 3.40625 -8.027344 L 3.339844 -8.027344 L 3.183594 -8.953125 L 1.261719 -8.953125 Z M 5.226562 -1.710938 C 4.75 -1.710938 4.171875 -1.886719 3.597656 -2.382812 L 3.597656 -6.316406 C 4.222656 -6.9375 4.765625 -7.242188 5.371094 -7.242188 C 6.601562 -7.242188 7.148438 -6.300781 7.148438 -4.589844 C 7.148438 -2.636719 6.316406 -1.710938 5.226562 -1.710938 Z M 5.226562 -1.710938 "/></g></g></g><g fill="#9d9797" fill-opacity="1"><g transform="translate(93.452509, 81.371597)"><g><path d="M 3.46875 0.222656 C 4.011719 0.222656 4.414062 0.128906 4.683594 0.015625 L 4.398438 -1.726562 C 4.238281 -1.695312 4.171875 -1.695312 4.078125 -1.695312 C 3.851562 -1.695312 3.597656 -1.871094 3.597656 -2.398438 L 3.597656 -12.757812 L 1.261719 -12.757812 L 1.261719 -2.511719 C 1.261719 -0.847656 1.839844 0.222656 3.46875 0.222656 Z M 3.46875 0.222656 "/></g></g></g><g fill="#9d9797" fill-opacity="1"><g transform="translate(98.488609, 81.371597)"><g><path d="M 5.148438 0.222656 C 6.269531 0.222656 7.402344 -0.160156 8.28125 -0.765625 L 7.484375 -2.207031 C 6.84375 -1.808594 6.203125 -1.582031 5.46875 -1.582031 C 4.140625 -1.582031 3.183594 -2.351562 2.988281 -3.820312 L 8.507812 -3.820312 C 8.570312 -4.027344 8.617188 -4.460938 8.617188 -4.894531 C 8.617188 -7.371094 7.339844 -9.175781 4.875 -9.175781 C 2.734375 -9.175781 0.703125 -7.371094 0.703125 -4.460938 C 0.703125 -1.519531 2.652344 0.222656 5.148438 0.222656 Z M 2.957031 -5.371094 C 3.132812 -6.683594 3.964844 -7.355469 4.910156 -7.355469 C 6.058594 -7.355469 6.601562 -6.585938 6.601562 -5.371094 Z M 2.957031 -5.371094 "/></g></g></g></svg>