<svg xmlns="http://www.w3.org/2000/svg" xmlns:xlink="http://www.w3.org/1999/xlink" width="500" zoomAndPan="magnify" viewBox="0 0 375 374.999991" height="500" preserveAspectRatio="xMidYMid meet" version="1.0"><defs><clipPath id="c130a2e400"><path d="M 0.230469 130 L 374.707031 130 L 374.707031 350.109375 L 0.230469 350.109375 Z M 0.230469 130 " clip-rule="nonzero"/></clipPath><clipPath id="36dea9a7bb"><path d="M 154 24.609375 L 221 24.609375 L 221 90 L 154 90 Z M 154 24.609375 " clip-rule="nonzero"/></clipPath></defs><path fill="#ff3131" d="M 86.5 252.199219 C 89.203125 253.589844 93.34375 254.972656 97.644531 254.972656 C 102.261719 254.972656 104.691406 253.066406 104.691406 250.164062 C 104.691406 247.390625 102.59375 245.804688 97.25 243.902344 C 89.859375 241.328125 85.046875 237.234375 85.046875 230.78125 C 85.046875 223.1875 91.371094 217.390625 101.855469 217.390625 C 106.867188 217.390625 110.570312 218.449219 113.203125 219.628906 L 110.964844 227.746094 C 109.179688 226.878906 106.023438 225.640625 101.667969 225.640625 C 97.308594 225.640625 95.203125 227.617188 95.203125 229.914062 C 95.203125 232.746094 97.714844 234.007812 103.453125 236.1875 C 111.296875 239.078125 114.988281 243.175781 114.988281 249.4375 C 114.988281 256.886719 109.25 263.222656 97.046875 263.222656 C 91.964844 263.222656 86.964844 261.898438 84.453125 260.519531 L 86.5 252.199219 " fill-opacity="1" fill-rule="evenodd"/><path fill="#ff3131" d="M 132.117188 251.152344 L 128.964844 262.554688 L 118.535156 262.554688 L 132.117188 218.117188 L 145.308594 218.117188 L 159.09375 262.554688 L 148.285156 262.554688 L 144.84375 251.152344 Z M 143.390625 243.628906 L 140.628906 234.210938 C 139.832031 231.566406 139.046875 228.269531 138.378906 225.628906 L 138.25 225.628906 C 137.59375 228.269531 136.941406 231.628906 136.203125 234.210938 L 133.570312 243.628906 L 143.390625 243.628906 " fill-opacity="1" fill-rule="evenodd"/><path fill="#ff3131" d="M 172.734375 218.117188 L 172.734375 243.699219 C 172.734375 251.351562 175.640625 255.234375 180.785156 255.234375 C 186.058594 255.234375 188.949219 251.542969 188.949219 243.699219 L 188.949219 218.117188 L 198.972656 218.117188 L 198.972656 243.042969 C 198.972656 256.757812 192.058594 263.28125 180.449219 263.28125 C 169.25 263.28125 162.640625 257.089844 162.640625 242.914062 L 162.640625 218.117188 L 172.734375 218.117188 " fill-opacity="1" fill-rule="evenodd"/><path fill="#ff3131" d="M 207.675781 262.554688 L 207.675781 218.117188 L 219.402344 218.117188 L 228.640625 234.402344 C 231.28125 239.078125 233.914062 244.625 235.902344 249.640625 L 236.089844 249.640625 C 235.4375 243.757812 235.234375 237.769531 235.234375 231.101562 L 235.234375 218.117188 L 244.460938 218.117188 L 244.460938 262.554688 L 233.914062 262.554688 L 224.425781 245.414062 C 221.78125 240.675781 218.878906 234.9375 216.710938 229.722656 L 216.507812 229.792969 C 216.769531 235.664062 216.902344 241.925781 216.902344 249.175781 L 216.902344 262.566406 L 207.675781 262.554688 " fill-opacity="1" fill-rule="evenodd"/><path fill="#ff3131" d="M 263.519531 251.152344 L 260.351562 262.554688 L 249.9375 262.554688 L 263.519531 218.117188 L 276.710938 218.117188 L 290.484375 262.554688 L 279.671875 262.554688 L 276.246094 251.152344 Z M 274.792969 243.628906 L 272.019531 234.210938 C 271.234375 231.566406 270.449219 228.269531 269.78125 225.628906 L 269.648438 225.628906 C 268.996094 228.269531 268.339844 231.628906 267.601562 234.210938 L 264.972656 243.628906 L 274.792969 243.628906 " fill-opacity="1" fill-rule="evenodd"/><g clip-path="url(#c130a2e400)"><path fill="#ff3131" d="M 325.445312 350.242188 L 44.191406 350.242188 C 41.941406 350.242188 39.90625 349.328125 38.429688 347.851562 L 2.609375 312.03125 C 1.027344 310.445312 0.230469 308.363281 0.230469 306.28125 L 0.230469 174.390625 C 0.230469 172.140625 1.132812 170.105469 2.609375 168.640625 L 38.429688 132.820312 C 40.027344 131.226562 42.109375 130.441406 44.191406 130.441406 L 330.742188 130.441406 C 332.992188 130.441406 335.027344 131.34375 336.503906 132.820312 L 372.324219 168.640625 C 373.910156 170.222656 374.707031 172.308594 374.707031 174.390625 L 374.707031 306.28125 C 374.707031 308.53125 373.800781 310.566406 372.324219 312.03125 L 336.503906 347.851562 C 333.46875 350.886719 329.328125 350.242188 325.445312 350.242188 Z M 47.5625 333.957031 L 327.375 333.957031 L 358.421875 302.910156 L 358.421875 177.761719 L 327.375 146.714844 L 47.5625 146.714844 L 16.515625 177.761719 L 16.515625 302.910156 L 47.5625 333.957031 " fill-opacity="1" fill-rule="nonzero"/></g><path fill="#ff3131" d="M 73.5 285.113281 L 301.445312 285.113281 L 301.445312 195.558594 L 73.5 195.558594 Z M 309.589844 301.386719 L 65.359375 301.386719 C 60.871094 301.386719 57.214844 297.746094 57.214844 293.257812 L 57.214844 187.414062 C 57.214844 182.925781 60.871094 179.285156 65.359375 179.285156 L 309.589844 179.285156 C 314.078125 179.285156 317.730469 182.925781 317.730469 187.414062 L 317.730469 293.257812 C 317.730469 297.746094 314.078125 301.386719 309.589844 301.386719 " fill-opacity="1" fill-rule="nonzero"/><g clip-path="url(#36dea9a7bb)"><path fill="#ff3131" d="M 203.757812 57.167969 C 203.757812 48.167969 196.460938 40.882812 187.472656 40.882812 C 178.472656 40.882812 171.1875 48.167969 171.1875 57.167969 C 171.1875 66.15625 178.472656 73.453125 187.472656 73.453125 C 196.460938 73.453125 203.757812 66.15625 203.757812 57.167969 Z M 220.042969 57.167969 C 220.042969 75.15625 205.460938 89.738281 187.472656 89.738281 C 169.484375 89.738281 154.902344 75.15625 154.902344 57.167969 C 154.902344 39.179688 169.484375 24.597656 187.472656 24.597656 C 205.460938 24.597656 220.042969 39.179688 220.042969 57.167969 " fill-opacity="1" fill-rule="nonzero"/></g><path fill="#ff3131" d="M 217.332031 59.261719 C 213.996094 56.25 208.855469 56.523438 205.855469 59.859375 C 202.84375 63.203125 203.117188 68.347656 206.460938 71.347656 L 287.863281 144.617188 C 291.195312 147.617188 296.339844 147.34375 299.351562 144.011719 C 302.351562 140.675781 302.078125 135.535156 298.746094 132.523438 L 217.332031 59.261719 " fill-opacity="1" fill-rule="nonzero"/><path fill="#ff3131" d="M 168.484375 71.347656 C 171.820312 68.347656 172.09375 63.203125 169.082031 59.859375 C 166.082031 56.523438 160.9375 56.25 157.605469 59.261719 L 76.191406 132.523438 C 72.859375 135.535156 72.585938 140.675781 75.597656 144.011719 C 78.597656 147.34375 83.738281 147.617188 87.070312 144.617188 L 168.484375 71.347656 " fill-opacity="1" fill-rule="nonzero"/></svg>