<svg xmlns="http://www.w3.org/2000/svg" xmlns:xlink="http://www.w3.org/1999/xlink" width="1080" zoomAndPan="magnify" viewBox="0 0 810 809.999993" height="1080" preserveAspectRatio="xMidYMid meet" version="1.0"><defs><g/><clipPath id="aede43f29c"><path d="M 74 80 L 154 80 L 154 158 L 74 158 Z M 74 80 " clip-rule="nonzero"/></clipPath><clipPath id="f8ef687283"><path d="M 99.074219 64.597656 L 177.761719 98.035156 L 148.429688 167.0625 L 69.742188 133.625 Z M 99.074219 64.597656 " clip-rule="nonzero"/></clipPath><clipPath id="a06d05f5d6"><path d="M 99.074219 64.597656 L 177.761719 98.035156 L 148.429688 167.0625 L 69.742188 133.625 Z M 99.074219 64.597656 " clip-rule="nonzero"/></clipPath></defs><g fill="#000000" fill-opacity="1"><g transform="translate(182.999994, 244.026087)"><g><path d="M 58.34375 -46.644531 L 58.34375 -54.835938 C 58.34375 -57.953125 58.65625 -60.527344 58.8125 -62.089844 L 47.734375 -62.089844 C 47.96875 -60.527344 48.203125 -57.953125 48.203125 -54.835938 L 48.203125 -46.644531 L 29.71875 -46.644531 L 29.71875 -54.289062 C 29.71875 -57.40625 29.953125 -59.902344 30.1875 -61.386719 L 19.109375 -61.386719 C 19.265625 -59.902344 19.578125 -57.328125 19.578125 -54.367188 L 19.578125 -46.644531 L 12.949219 -46.644531 C 9.046875 -46.644531 5.929688 -47.113281 4.523438 -47.347656 L 4.523438 -36.738281 C 6.238281 -36.894531 9.046875 -37.050781 12.949219 -37.050781 L 19.578125 -37.050781 L 19.578125 -26.441406 C 19.578125 -22.933594 19.34375 -19.8125 19.109375 -18.253906 L 30.03125 -18.253906 C 29.953125 -19.8125 29.71875 -23.011719 29.71875 -26.441406 L 29.71875 -37.050781 L 48.203125 -37.050781 L 48.203125 -34.085938 C 48.203125 -14.976562 41.574219 -8.191406 26.519531 -2.964844 L 34.867188 4.914062 C 53.664062 -3.355469 58.34375 -15.132812 58.34375 -34.476562 L 58.34375 -37.050781 L 64.117188 -37.050781 C 68.25 -37.050781 70.980469 -36.972656 72.695312 -36.816406 L 72.695312 -47.191406 C 70.589844 -46.800781 68.25 -46.644531 64.117188 -46.644531 Z M 58.34375 -46.644531 "/></g></g></g><g fill="#000000" fill-opacity="1"><g transform="translate(261.000059, 244.026087)"><g><path d="M 64.117188 -51.402344 C 62.789062 -50.933594 60.917969 -50.542969 57.640625 -50.542969 L 44.070312 -50.542969 L 44.070312 -56.550781 C 44.070312 -58.734375 44.226562 -60.371094 44.617188 -63.726562 L 32.605469 -63.726562 C 33.148438 -60.371094 33.226562 -58.734375 33.226562 -56.550781 L 33.226562 -50.542969 L 16.535156 -50.542969 C 13.570312 -50.542969 11.308594 -50.621094 8.578125 -50.933594 C 8.890625 -49.0625 8.96875 -45.941406 8.96875 -44.226562 L 8.96875 -30.730469 C 8.96875 -28.625 8.8125 -26.128906 8.578125 -24.179688 L 19.34375 -24.179688 C 19.1875 -25.738281 19.109375 -28.15625 19.109375 -29.953125 L 19.109375 -41.339844 L 57.796875 -41.339844 C 56.863281 -34.398438 54.835938 -26.988281 50.855469 -21.292969 C 46.488281 -14.976562 39.625 -10.375 33.148438 -7.957031 C 29.953125 -6.707031 25.660156 -5.539062 22.152344 -4.914062 L 30.265625 4.445312 C 44.148438 0.859375 55.847656 -7.410156 62.089844 -18.953125 C 65.910156 -26.050781 68.015625 -33.539062 69.34375 -41.027344 C 69.652344 -42.589844 70.277344 -45.550781 70.902344 -47.269531 Z M 64.117188 -51.402344 "/></g></g></g><g fill="#000000" fill-opacity="1"><g transform="translate(339.000124, 244.026087)"><g><path d="M 46.488281 -43.992188 L 46.488281 -52.492188 C 46.488281 -54.910156 46.644531 -59.28125 47.113281 -61.699219 L 34.710938 -61.699219 C 35.410156 -59.28125 35.722656 -55.222656 35.722656 -52.570312 L 35.722656 -43.992188 L 15.445312 -43.992188 C 12.324219 -43.992188 9.125 -44.304688 6.785156 -44.539062 L 6.785156 -33.773438 C 9.203125 -33.929688 12.324219 -34.164062 15.757812 -34.164062 L 35.644531 -34.164062 C 35.023438 -20.980469 29.796875 -9.75 14.507812 -2.808594 L 24.179688 4.367188 C 41.027344 -5.695312 45.941406 -18.484375 46.410156 -34.164062 L 63.960938 -34.164062 C 67.078125 -34.164062 70.902344 -33.929688 72.539062 -33.851562 L 72.539062 -44.460938 C 70.902344 -44.304688 67.625 -43.992188 64.039062 -43.992188 Z M 46.488281 -43.992188 "/></g></g></g><g fill="#000000" fill-opacity="1"><g transform="translate(417.00019, 244.026087)"><g><path d="M 34.945312 -54.445312 L 35.023438 -44.460938 C 44.695312 -43.601562 58.65625 -43.601562 68.171875 -44.460938 L 68.171875 -54.445312 C 59.824219 -53.429688 44.460938 -53.117188 34.945312 -54.445312 Z M 32.292969 -22.230469 C 31.511719 -18.640625 30.964844 -15.367188 30.964844 -12.167969 C 30.964844 -4.289062 37.285156 0.546875 50.621094 0.546875 C 59.359375 0.546875 65.597656 -0.078125 70.589844 -1.015625 L 70.355469 -11.464844 C 63.648438 -10.0625 57.953125 -9.4375 51.011719 -9.4375 C 43.210938 -9.4375 40.246094 -11.464844 40.246094 -14.898438 C 40.246094 -17.003906 40.558594 -18.875 41.183594 -21.371094 Z M 12.246094 -60.449219 C 12.246094 -58.03125 11.777344 -55.066406 11.464844 -52.882812 C 10.609375 -46.957031 8.269531 -33.929688 8.269531 -22.308594 C 8.269531 -11.855469 9.75 -2.417969 11.308594 2.964844 L 20.203125 2.339844 C 20.125 1.246094 20.125 0 20.046875 -0.859375 C 20.046875 -1.636719 20.28125 -3.355469 20.515625 -4.445312 C 21.292969 -8.578125 23.867188 -16.925781 26.050781 -23.398438 L 21.214844 -27.144531 C 20.125 -24.648438 18.875 -22.074219 17.785156 -19.34375 C 17.550781 -20.980469 17.472656 -22.855469 17.472656 -24.335938 C 17.472656 -32.058594 20.125 -47.503906 21.214844 -52.648438 C 21.527344 -54.054688 22.464844 -57.953125 23.089844 -59.515625 Z M 12.246094 -60.449219 "/></g></g></g><g fill="#000000" fill-opacity="1"><g transform="translate(495.000255, 244.026087)"><g><path d="M 18.019531 -61.699219 L 18.019531 -52.261719 L 35.800781 -52.261719 C 36.035156 -49.609375 36.347656 -46.800781 36.894531 -43.835938 L 32.136719 -44.695312 C 27.847656 -24.179688 18.5625 -9.125 2.339844 -0.9375 C 4.757812 0.859375 9.125 4.679688 10.84375 6.628906 C 24.414062 -1.480469 33.773438 -14.429688 39.625 -31.902344 C 43.914062 -17.941406 52.183594 -3.199219 68.328125 6.550781 C 69.964844 4.132812 73.789062 0.078125 75.816406 -1.558594 C 47.113281 -18.484375 45.007812 -46.957031 45.007812 -61.699219 Z M 18.019531 -61.699219 "/></g></g></g><g fill="#000000" fill-opacity="1"><g transform="translate(573.000342, 244.026087)"><g><path d="M 17.941406 -58.734375 L 18.328125 -48.671875 C 19.96875 -48.90625 22.464844 -49.21875 24.414062 -49.375 C 28.15625 -49.53125 36.816406 -50.152344 40.949219 -50.230469 C 34.867188 -44.695312 16.378906 -29.171875 6.941406 -20.515625 L 14.117188 -12.871094 C 21.449219 -21.058594 29.484375 -29.5625 42.898438 -29.5625 C 51.636719 -29.5625 57.328125 -25.273438 57.328125 -19.1875 C 57.328125 -8.734375 45.394531 -3.589844 24.648438 -6.316406 L 27.457031 3.742188 C 55.457031 6.007812 67.9375 -4.210938 67.9375 -19.1875 C 67.9375 -29.953125 58.5 -37.828125 45.007812 -37.828125 C 42.898438 -37.828125 39.703125 -37.519531 37.207031 -36.738281 C 43.054688 -41.808594 50.464844 -47.191406 54.910156 -50.386719 C 56.003906 -51.089844 57.71875 -52.183594 59.203125 -52.960938 L 54.054688 -59.746094 C 52.570312 -59.359375 50.230469 -59.046875 48.515625 -58.890625 C 43.367188 -58.578125 28.003906 -58.34375 23.945312 -58.34375 C 21.292969 -58.34375 19.265625 -58.578125 17.941406 -58.734375 Z M 17.941406 -58.734375 "/></g></g></g><g fill="#000000" fill-opacity="1"><g transform="translate(651.00043, 244.026087)"><g><path d="M 53.195312 -25.660156 C 53.195312 -13.570312 40.949219 -7.332031 21.761719 -5.148438 L 27.378906 4.523438 C 48.828125 1.558594 64.117188 -8.734375 64.117188 -25.273438 C 64.117188 -37.363281 55.535156 -44.304688 43.289062 -44.304688 C 34.320312 -44.304688 25.660156 -42.042969 19.96875 -40.792969 C 17.472656 -40.246094 14.117188 -39.703125 11.542969 -39.46875 L 14.429688 -28.46875 C 16.691406 -29.25 19.65625 -30.421875 21.917969 -31.121094 C 25.894531 -32.292969 33.539062 -34.867188 42.042969 -34.867188 C 49.296875 -34.945312 53.195312 -30.730469 53.195312 -25.660156 Z M 22.933594 -62.789062 L 21.371094 -53.429688 C 30.265625 -51.871094 47.035156 -50.386719 56.082031 -49.765625 L 57.640625 -59.28125 C 49.453125 -59.28125 31.902344 -60.839844 22.933594 -62.789062 Z M 22.933594 -62.789062 "/></g></g></g><path stroke-linecap="butt" transform="matrix(0.75, 0, 0, 0.75, 72.908203, 60.999989)" fill="none" stroke-linejoin="miter" d="M 27.210939 252.000027 L 27.210939 136.833355 L 7.226563 136.833355 L 7.226563 105.84377 L 38.14844 106.104187 C 47.221357 106.104187 54.601565 106.213562 60.283857 106.432312 C 65.971358 106.604187 68.815108 106.776062 68.815108 106.953145 L 68.815108 252.000027 Z M 27.210939 252.000027 " stroke="#000000" stroke-width="10.000012" stroke-opacity="1" stroke-miterlimit="4"/><g clip-path="url(#aede43f29c)"><g clip-path="url(#f8ef687283)"><g clip-path="url(#a06d05f5d6)"><path fill="#ff3131" d="M 130.046875 89.953125 C 123.90625 88.847656 111.894531 89.324219 100.140625 104.808594 C 86.367188 122.957031 77.964844 122.621094 75.398438 121.917969 C 74.988281 121.804688 74.636719 122.105469 74.734375 122.476562 C 75.359375 124.867188 78.101562 131.496094 89.554688 134.367188 C 91.015625 133.183594 97.113281 127.816406 105.632812 114.5625 C 114.6875 100.472656 122.875 92.226562 130.046875 89.953125 Z M 152.929688 154.863281 C 150.644531 153.503906 144.566406 147.6875 148.074219 125.175781 C 151.066406 105.96875 143.070312 96.992188 138.011719 93.335938 C 141.351562 100.078125 141.097656 111.695312 137.242188 127.992188 C 133.609375 143.324219 133.980469 151.441406 134.140625 153.316406 C 144.160156 159.566406 150.835938 156.941406 152.992188 155.730469 C 153.324219 155.542969 153.296875 155.082031 152.929688 154.863281 Z M 135.304688 92.265625 C 137.261719 91.507812 140.226562 90.066406 141.101562 88.007812 C 142.199219 85.421875 140.992188 82.4375 138.410156 81.335938 C 135.824219 80.238281 132.839844 81.445312 131.742188 84.027344 C 130.867188 86.085938 131.882812 89.222656 132.699219 91.15625 C 125.601562 92.207031 117.085938 100.390625 107.34375 115.550781 C 99.140625 128.316406 93.226562 133.816406 91.25 135.464844 C 93.179688 138.175781 100.152344 146.4375 111.84375 143.847656 C 118.097656 154.0625 128.886719 153.347656 132.175781 152.859375 C 131.988281 150.289062 131.847656 142.210938 135.34375 127.449219 C 139.492188 109.910156 139.472656 98.101562 135.304688 92.265625 Z M 134.503906 90.527344 C 133.421875 88.078125 133.03125 85.921875 133.488281 84.851562 C 134.167969 83.25 136.023438 82.5 137.625 83.179688 C 139.226562 83.859375 139.976562 85.71875 139.296875 87.316406 C 138.839844 88.390625 137.015625 89.605469 134.503906 90.527344 Z M 134.503906 90.527344 " fill-opacity="1" fill-rule="nonzero"/></g></g></g><g fill="#000000" fill-opacity="1"><g transform="translate(192.804368, 454.749842)"><g><path d="M 19.898438 -13.199219 C 17.949219 -12.648438 15.898438 -12.097656 13.949219 -11.550781 L 13.949219 -20.097656 L 19.148438 -20.097656 L 19.148438 -25.546875 L 13.949219 -25.546875 L 13.949219 -34.246094 L 19.699219 -34.246094 L 19.699219 -39.746094 L 2.199219 -39.746094 L 2.199219 -34.246094 L 8.199219 -34.246094 L 8.199219 -25.546875 L 2.648438 -25.546875 L 2.648438 -20.097656 L 8.199219 -20.097656 L 8.199219 -10.050781 C 5.5 -9.347656 3.050781 -8.699219 1.050781 -8.25 L 2.550781 -2.648438 C 7.699219 -4.148438 14.398438 -6.097656 20.699219 -7.949219 Z M 27.199219 -20.398438 L 40.246094 -20.398438 L 40.246094 -17.296875 L 27.199219 -17.296875 Z M 27.199219 -27.996094 L 40.246094 -27.996094 L 40.246094 -24.898438 L 27.199219 -24.898438 Z M 27.199219 -35.597656 L 40.246094 -35.597656 L 40.246094 -32.496094 L 27.199219 -32.496094 Z M 40.847656 -1 C 39.996094 -1 39.894531 -1.199219 39.894531 -2.648438 L 39.894531 -12.449219 L 46.046875 -12.449219 L 46.046875 -40.445312 L 21.648438 -40.445312 L 21.648438 -12.449219 L 25.296875 -12.449219 C 24.648438 -6.597656 23.046875 -2.5 14 -0.25 C 15.199219 0.898438 16.699219 3.199219 17.296875 4.648438 C 27.945312 1.5 30.246094 -4.300781 31.148438 -12.449219 L 34.195312 -12.449219 L 34.195312 -2.648438 C 34.195312 2.398438 35.195312 4.097656 39.796875 4.097656 L 43.546875 4.097656 C 47.246094 4.097656 48.546875 2.25 49.046875 -4.597656 C 47.546875 -4.949219 45.246094 -5.898438 44.09375 -6.800781 C 43.996094 -1.800781 43.796875 -1 42.894531 -1 Z M 40.847656 -1 "/></g></g></g><g fill="#000000" fill-opacity="1"><g transform="translate(242.796633, 454.749842)"><g><path d="M 35.246094 -13.796875 L 45.144531 -13.796875 L 45.144531 -19.296875 L 35.246094 -19.296875 L 35.246094 -27.597656 L 29.246094 -27.597656 L 29.246094 -19.296875 L 19.097656 -19.296875 L 19.097656 -13.796875 L 29.246094 -13.796875 L 29.246094 -2.398438 L 17.148438 -2.398438 L 17.148438 3.101562 L 47.09375 3.101562 L 47.09375 -2.398438 L 35.246094 -2.398438 Z M 22.898438 -35.445312 C 23.597656 -37.246094 24.246094 -39.046875 24.796875 -40.894531 L 18.546875 -42.394531 C 17.949219 -40.097656 17.199219 -37.796875 16.347656 -35.445312 L 2.851562 -35.445312 L 2.851562 -29.746094 L 13.699219 -29.746094 C 10.699219 -23.996094 6.5 -18.75 1.25 -15.347656 C 2.199219 -13.898438 3.550781 -11.199219 4.199219 -9.597656 C 5.800781 -10.699219 7.199219 -11.796875 8.597656 -13.097656 L 8.597656 4.300781 L 14.648438 4.300781 L 14.648438 -19.898438 C 16.949219 -22.949219 18.847656 -26.296875 20.496094 -29.746094 L 47.246094 -29.746094 L 47.246094 -35.445312 Z M 22.898438 -35.445312 "/></g></g></g><g fill="#000000" fill-opacity="1"><g transform="translate(292.788899, 454.749842)"><g><path d="M 13.199219 -25.199219 L 18.25 -25.199219 L 18.25 -30.847656 L 13.199219 -30.847656 L 13.199219 -41.695312 L 7.648438 -41.695312 L 7.648438 -30.847656 L 1.800781 -30.847656 L 1.800781 -25.199219 L 7.648438 -25.199219 L 7.648438 -11.148438 C 5.148438 -10.148438 2.949219 -9.300781 1.148438 -8.648438 L 3.550781 -2.648438 C 8.148438 -4.800781 13.847656 -7.449219 19.148438 -10.097656 L 17.796875 -15.347656 C 16.296875 -14.699219 14.75 -14.046875 13.199219 -13.398438 Z M 30.246094 -1.898438 C 27.199219 -1.898438 26.746094 -2.351562 26.746094 -5.300781 L 26.746094 -20.699219 L 30.898438 -22.496094 L 30.898438 -7.25 L 36.445312 -7.25 L 36.445312 -24.898438 L 40.746094 -26.796875 C 40.746094 -19.699219 40.695312 -16.046875 40.597656 -15.25 C 40.394531 -14.347656 40.097656 -14.148438 39.496094 -14.148438 C 39.046875 -14.148438 37.945312 -14.148438 37.097656 -14.25 C 37.746094 -13 38.195312 -10.75 38.347656 -9.25 C 39.945312 -9.25 42.097656 -9.300781 43.546875 -9.949219 C 45.046875 -10.597656 45.945312 -11.796875 46.09375 -14.097656 C 46.34375 -16.148438 46.445312 -22.148438 46.445312 -31.648438 L 46.644531 -32.648438 L 42.496094 -34.097656 L 41.445312 -33.398438 L 40.394531 -32.695312 L 36.445312 -30.996094 L 36.445312 -42.394531 L 30.898438 -42.394531 L 30.898438 -28.597656 L 26.746094 -26.847656 L 26.746094 -37.546875 L 21.046875 -37.546875 L 21.046875 -24.398438 L 16.148438 -22.347656 L 18.347656 -17.046875 L 21.046875 -18.199219 L 21.046875 -5.347656 C 21.046875 1.550781 22.996094 3.398438 29.746094 3.398438 L 40.394531 3.398438 C 46.246094 3.398438 47.996094 1 48.796875 -6 C 47.144531 -6.300781 44.84375 -7.25 43.59375 -8.148438 C 43.144531 -3.050781 42.644531 -1.898438 39.894531 -1.898438 Z M 30.246094 -1.898438 "/></g></g></g><g fill="#000000" fill-opacity="1"><g transform="translate(342.781164, 454.749842)"><g><path d="M 14 -22.699219 L 14 -18.046875 L 36.945312 -18.046875 L 36.945312 -22.699219 L 28.097656 -22.699219 L 28.097656 -25.898438 L 35.945312 -25.898438 L 35.945312 -30.398438 L 28.097656 -30.398438 L 28.097656 -33.695312 L 22.449219 -33.695312 L 22.449219 -30.398438 L 15 -30.398438 L 15 -25.898438 L 22.449219 -25.898438 L 22.449219 -22.699219 Z M 29.546875 -10.699219 L 29.546875 -6.097656 L 21.199219 -6.097656 L 21.199219 -10.699219 Z M 35.046875 -1.648438 L 35.046875 -15.199219 L 15.796875 -15.199219 L 15.796875 1.050781 L 21.199219 1.050781 L 21.199219 -1.648438 Z M 44.996094 -39.945312 L 6.449219 -39.945312 L 6.449219 -22.648438 C 6.449219 -15.347656 6.050781 -5.75 1.300781 0.800781 C 2.601562 1.449219 5.097656 3.449219 6.097656 4.550781 C 11.550781 -2.699219 12.347656 -14.449219 12.347656 -22.648438 L 12.347656 -34.445312 L 39.046875 -34.445312 L 39.046875 -2.300781 C 39.046875 -1.449219 38.695312 -1.148438 37.847656 -1.148438 C 36.996094 -1.148438 34.046875 -1.101562 31.496094 -1.25 C 32.296875 0.25 33.097656 2.699219 33.296875 4.300781 C 37.597656 4.300781 40.496094 4.199219 42.394531 3.300781 C 44.34375 2.300781 44.996094 0.851562 44.996094 -2.25 Z M 44.996094 -39.945312 "/></g></g></g><g fill="#000000" fill-opacity="1"><g transform="translate(392.773429, 454.749842)"><g><path d="M 38.996094 -33.445312 C 38.695312 -18.449219 38.246094 -12.597656 37.246094 -11.300781 C 36.746094 -10.648438 36.246094 -10.5 35.445312 -10.5 C 34.347656 -10.5 32.296875 -10.5 29.945312 -10.699219 C 30.898438 -9.148438 31.597656 -6.800781 31.695312 -5.148438 C 34.195312 -5.097656 36.746094 -5.050781 38.347656 -5.347656 C 40.097656 -5.648438 41.347656 -6.148438 42.496094 -7.847656 C 44.09375 -10.097656 44.546875 -17 44.996094 -36.445312 L 44.996094 -39.046875 L 16.148438 -39.046875 L 16.148438 -33.445312 L 24.996094 -33.445312 C 24.546875 -23.398438 23.398438 -14.296875 15.25 -8.949219 C 16.648438 -7.949219 18.347656 -5.949219 19.148438 -4.5 C 28.597656 -10.949219 30.347656 -21.648438 30.996094 -33.445312 Z M 15.148438 -33.648438 C 13.449219 -35.996094 9.800781 -39.097656 6.800781 -41.195312 L 2.398438 -37.597656 C 5.347656 -35.394531 8.898438 -32.097656 10.449219 -29.695312 Z M 13.898438 -22.949219 L 2.351562 -22.949219 L 2.351562 -17.5 L 8.097656 -17.5 L 8.097656 -6.949219 C 5.898438 -5.25 3.398438 -3.601562 1.300781 -2.351562 L 4.199219 3.851562 C 6.898438 1.75 9.097656 -0.199219 11.300781 -2.148438 C 14.546875 1.75 18.648438 3.148438 24.796875 3.398438 C 30.746094 3.648438 40.796875 3.550781 46.796875 3.25 C 47.09375 1.550781 47.996094 -1.351562 48.644531 -2.75 C 41.996094 -2.25 30.746094 -2.101562 24.898438 -2.351562 C 19.699219 -2.550781 15.949219 -3.898438 13.898438 -7.25 Z M 13.898438 -22.949219 "/></g></g></g><g fill="#000000" fill-opacity="1"><g transform="translate(442.765706, 454.749842)"><g><path d="M 15.75 -40.097656 C 15.796875 -36.996094 15.398438 -33.398438 14.699219 -29.597656 C 12.199219 -29.398438 9.847656 -29.246094 8.300781 -29.195312 C 6.5 -29.148438 4.847656 -29.046875 3.050781 -29.195312 L 3.601562 -22.496094 C 5.148438 -22.746094 7.699219 -23.097656 9.097656 -23.246094 C 10.050781 -23.398438 11.597656 -23.597656 13.347656 -23.796875 C 11.550781 -17.046875 8.199219 -7.148438 3.351562 -0.648438 L 9.847656 1.949219 C 14.398438 -5.347656 18 -17 19.898438 -24.496094 C 21.296875 -24.597656 22.496094 -24.699219 23.296875 -24.699219 C 26.449219 -24.699219 28.148438 -24.148438 28.148438 -20.199219 C 28.148438 -15.296875 27.496094 -9.398438 26.097656 -6.648438 C 25.347656 -5 24.046875 -4.5 22.398438 -4.5 C 21.097656 -4.5 18.25 -5 16.347656 -5.550781 L 17.449219 1 C 19.097656 1.398438 21.449219 1.699219 23.347656 1.699219 C 27.097656 1.699219 29.847656 0.601562 31.496094 -2.851562 C 33.597656 -7.148438 34.296875 -15.046875 34.296875 -20.898438 C 34.296875 -27.996094 30.597656 -30.347656 25.347656 -30.347656 C 24.347656 -30.347656 22.847656 -30.246094 21.199219 -30.148438 C 21.546875 -31.945312 21.949219 -33.746094 22.199219 -35.246094 C 22.449219 -36.496094 22.796875 -38.046875 23.097656 -39.347656 Z M 34.195312 -32.195312 C 37.746094 -27.796875 41.296875 -18.847656 42.597656 -13.347656 L 48.84375 -16.296875 C 47.34375 -20.996094 43.195312 -30.445312 40.195312 -34.695312 Z M 34.195312 -32.195312 "/></g></g></g><g fill="#000000" fill-opacity="1"><g transform="translate(492.757982, 454.749842)"><g><path d="M 15.199219 -34.097656 C 19.046875 -33.097656 30.097656 -30.796875 35.097656 -30.148438 L 36.597656 -36.246094 C 32.246094 -36.746094 21.496094 -38.644531 16.796875 -40.097656 Z M 17.097656 -30.148438 L 10.398438 -31.046875 C 10.097656 -24.898438 8.898438 -15.25 7.949219 -10.398438 L 13.699219 -8.949219 C 14.097656 -9.949219 14.648438 -10.75 15.546875 -11.847656 C 18.648438 -15.597656 23.597656 -17.648438 29.195312 -17.648438 C 33.546875 -17.648438 36.597656 -15.296875 36.597656 -12.097656 C 36.597656 -5.800781 28.746094 -2.148438 13.898438 -4.25 L 15.796875 2.25 C 36.394531 4.050781 43.546875 -2.898438 43.546875 -11.949219 C 43.546875 -17.949219 38.496094 -23.296875 29.796875 -23.296875 C 24.648438 -23.296875 19.746094 -21.847656 15.25 -18.597656 C 15.597656 -21.449219 16.449219 -27.398438 17.097656 -30.148438 Z M 17.097656 -30.148438 "/></g></g></g><g fill="#000000" fill-opacity="1"><g transform="translate(192.804368, 524.499838)"><g><path d="M 13.949219 -4.449219 C 12.648438 -4.449219 10.347656 -5.847656 10.347656 -7.347656 C 10.347656 -9.097656 12.347656 -11.148438 15.398438 -12.699219 C 15.5 -10.097656 15.546875 -7.847656 15.546875 -6.597656 C 15.546875 -4.898438 14.847656 -4.449219 13.949219 -4.449219 Z M 20.996094 -22.246094 C 20.996094 -23.699219 20.996094 -25.199219 21.046875 -26.699219 C 24.296875 -27.097656 27.695312 -27.597656 30.496094 -28.246094 L 30.347656 -34.445312 C 27.746094 -33.695312 24.496094 -33.046875 21.246094 -32.597656 C 21.296875 -33.847656 21.347656 -35.046875 21.398438 -36.144531 C 21.496094 -37.394531 21.699219 -39.546875 21.796875 -40.445312 L 15 -40.445312 C 15.148438 -39.546875 15.347656 -37.144531 15.347656 -36.097656 C 15.347656 -35.246094 15.347656 -33.796875 15.296875 -32.046875 C 14.296875 -31.996094 13.347656 -31.945312 12.449219 -31.945312 C 10.648438 -31.945312 8.5 -31.996094 5.597656 -32.347656 L 5.699219 -26.347656 C 7.847656 -26.148438 10.347656 -26.097656 12.597656 -26.097656 C 13.398438 -26.097656 14.296875 -26.148438 15.25 -26.199219 L 15.25 -22.046875 C 15.25 -20.898438 15.25 -19.746094 15.296875 -18.597656 C 9.25 -15.949219 4.199219 -11.5 4.199219 -7.148438 C 4.199219 -1.898438 11.050781 2.25 15.898438 2.25 C 19.097656 2.25 21.347656 0.648438 21.347656 -5.5 C 21.347656 -7.199219 21.199219 -11 21.097656 -14.949219 C 24.148438 -15.796875 27.347656 -16.296875 30.398438 -16.296875 C 34.695312 -16.296875 37.695312 -14.347656 37.695312 -11 C 37.695312 -7.398438 34.496094 -5.347656 30.496094 -4.648438 C 28.746094 -4.347656 26.648438 -4.300781 24.398438 -4.300781 L 26.699219 2.050781 C 28.648438 1.949219 30.898438 1.75 33.195312 1.25 C 41.046875 -0.699219 44.09375 -5.097656 44.09375 -10.949219 C 44.09375 -17.75 38.097656 -21.796875 30.496094 -21.796875 C 27.746094 -21.796875 24.347656 -21.347656 20.996094 -20.496094 Z M 33.195312 -30.246094 C 36.296875 -28.746094 42.746094 -25.097656 45.09375 -23.046875 L 48.09375 -28.148438 C 45.496094 -29.996094 39.746094 -33.246094 35.945312 -35.097656 Z M 33.195312 -30.246094 "/></g></g></g><g fill="#000000" fill-opacity="1"><g transform="translate(242.796633, 524.499838)"><g><path d="M 33.496094 -22.898438 L 33.496094 -4.25 L 39.394531 -4.25 L 39.394531 -22.898438 L 47.746094 -22.898438 L 47.746094 -28.398438 L 25.949219 -28.398438 L 25.949219 -33.398438 C 32.746094 -34.296875 40.195312 -35.695312 45.996094 -37.746094 L 41.097656 -42.296875 C 37.246094 -40.746094 31.195312 -39.347656 25.296875 -38.347656 L 20.199219 -39.296875 L 20.199219 -27.898438 C 20.199219 -22.097656 19.597656 -14.597656 14.5 -9.148438 C 15.898438 -8.398438 18 -6.347656 18.796875 -5.050781 C 23.597656 -10 25.246094 -17 25.746094 -22.898438 Z M 15.148438 -33.648438 C 13.449219 -35.996094 9.800781 -39.097656 6.800781 -41.195312 L 2.398438 -37.597656 C 5.347656 -35.394531 8.898438 -32.097656 10.449219 -29.695312 Z M 13.898438 -22.949219 L 2.351562 -22.949219 L 2.351562 -17.5 L 8.097656 -17.5 L 8.097656 -6.949219 C 5.898438 -5.25 3.398438 -3.601562 1.25 -2.351562 L 4.148438 3.851562 C 6.898438 1.75 9.097656 -0.199219 11.300781 -2.148438 C 14.546875 1.75 18.648438 3.148438 24.796875 3.398438 C 30.746094 3.648438 40.796875 3.550781 46.796875 3.25 C 47.09375 1.550781 47.996094 -1.351562 48.644531 -2.75 C 41.996094 -2.25 30.746094 -2.101562 24.898438 -2.351562 C 19.699219 -2.550781 15.949219 -3.898438 13.898438 -7.25 Z M 13.898438 -22.949219 "/></g></g></g><g fill="#000000" fill-opacity="1"><g transform="translate(292.788899, 524.499838)"><g><path d="M 30.796875 -41.046875 C 29.996094 -39.894531 28.398438 -38.246094 26.996094 -36.894531 C 23.648438 -33.597656 16.847656 -28.097656 13 -24.949219 C 8.050781 -20.847656 7.648438 -18.097656 12.546875 -13.949219 C 17.097656 -10.097656 24.648438 -3.648438 27.347656 -0.800781 C 28.746094 0.699219 30.296875 2.25 31.695312 3.800781 L 37.445312 -1.5 C 32.546875 -6.25 22.996094 -13.796875 19.296875 -16.949219 C 16.597656 -19.25 16.546875 -19.796875 19.199219 -22.046875 C 22.496094 -24.898438 29.046875 -29.945312 32.246094 -32.546875 C 33.398438 -33.445312 35.046875 -34.746094 36.597656 -35.894531 Z M 30.796875 -41.046875 "/></g></g></g><g fill="#000000" fill-opacity="1"><g transform="translate(342.781164, 524.499838)"><g><path d="M 13.648438 -9 C 11.796875 -9 9.800781 -11.449219 9.800781 -16.449219 C 9.800781 -21.898438 14.148438 -29.097656 22.347656 -30.796875 C 21.746094 -26.699219 20.847656 -22.449219 19.699219 -18.796875 C 17.699219 -12.097656 15.699219 -9 13.648438 -9 Z M 27.246094 2.050781 C 39.746094 0.148438 46.144531 -7.25 46.144531 -17.648438 C 46.144531 -28.445312 38.394531 -36.996094 26.148438 -36.996094 C 13.296875 -36.996094 3.351562 -27.199219 3.351562 -15.796875 C 3.351562 -7.449219 8 -1.398438 13.449219 -1.398438 C 18.847656 -1.398438 23.148438 -7.5 26.097656 -17.5 C 27.496094 -22.148438 28.347656 -26.746094 29.046875 -30.945312 C 35.695312 -29.796875 39.394531 -24.699219 39.394531 -17.847656 C 39.394531 -10.648438 34.496094 -6.097656 28.148438 -4.597656 C 26.847656 -4.300781 25.449219 -4.050781 23.546875 -3.800781 Z M 27.246094 2.050781 "/></g></g></g><g fill="#000000" fill-opacity="1"><g transform="translate(392.773429, 524.499838)"><g><path d="M 37.394531 -29.898438 L 37.394531 -35.148438 C 37.394531 -37.144531 37.597656 -38.796875 37.695312 -39.796875 L 30.597656 -39.796875 C 30.746094 -38.796875 30.898438 -37.144531 30.898438 -35.148438 L 30.898438 -29.898438 L 19.046875 -29.898438 L 19.046875 -34.796875 C 19.046875 -36.796875 19.199219 -38.394531 19.347656 -39.347656 L 12.25 -39.347656 C 12.347656 -38.394531 12.546875 -36.746094 12.546875 -34.847656 L 12.546875 -29.898438 L 8.300781 -29.898438 C 5.800781 -29.898438 3.800781 -30.195312 2.898438 -30.347656 L 2.898438 -23.546875 C 4 -23.648438 5.800781 -23.746094 8.300781 -23.746094 L 12.546875 -23.746094 L 12.546875 -16.949219 C 12.546875 -14.699219 12.398438 -12.699219 12.25 -11.699219 L 19.25 -11.699219 C 19.199219 -12.699219 19.046875 -14.75 19.046875 -16.949219 L 19.046875 -23.746094 L 30.898438 -23.746094 L 30.898438 -21.847656 C 30.898438 -9.597656 26.648438 -5.25 17 -1.898438 L 22.347656 3.148438 C 34.398438 -2.148438 37.394531 -9.699219 37.394531 -22.097656 L 37.394531 -23.746094 L 41.097656 -23.746094 C 43.746094 -23.746094 45.496094 -23.699219 46.59375 -23.597656 L 46.59375 -30.246094 C 45.246094 -29.996094 43.746094 -29.898438 41.097656 -29.898438 Z M 37.394531 -29.898438 "/></g></g></g><g fill="#000000" fill-opacity="1"><g transform="translate(442.765706, 524.499838)"><g><path d="M 41.097656 -32.945312 C 40.246094 -32.648438 39.046875 -32.398438 36.945312 -32.398438 L 28.246094 -32.398438 L 28.246094 -36.246094 C 28.246094 -37.644531 28.347656 -38.695312 28.597656 -40.847656 L 20.898438 -40.847656 C 21.246094 -38.695312 21.296875 -37.644531 21.296875 -36.246094 L 21.296875 -32.398438 L 10.597656 -32.398438 C 8.699219 -32.398438 7.25 -32.445312 5.5 -32.648438 C 5.699219 -31.445312 5.75 -29.445312 5.75 -28.347656 L 5.75 -19.699219 C 5.75 -18.347656 5.648438 -16.75 5.5 -15.5 L 12.398438 -15.5 C 12.296875 -16.5 12.25 -18.046875 12.25 -19.199219 L 12.25 -26.496094 L 37.046875 -26.496094 C 36.445312 -22.046875 35.148438 -17.296875 32.597656 -13.648438 C 29.796875 -9.597656 25.398438 -6.648438 21.246094 -5.097656 C 19.199219 -4.300781 16.449219 -3.550781 14.199219 -3.148438 L 19.398438 2.851562 C 28.296875 0.550781 35.796875 -4.75 39.796875 -12.148438 C 42.246094 -16.699219 43.59375 -21.496094 44.445312 -26.296875 C 44.644531 -27.296875 45.046875 -29.195312 45.445312 -30.296875 Z M 41.097656 -32.945312 "/></g></g></g><g fill="#000000" fill-opacity="1"><g transform="translate(492.757982, 524.499838)"><g><path d="M 29.796875 -28.195312 L 29.796875 -33.648438 C 29.796875 -35.195312 29.898438 -37.996094 30.195312 -39.546875 L 22.246094 -39.546875 C 22.699219 -37.996094 22.898438 -35.394531 22.898438 -33.695312 L 22.898438 -28.195312 L 9.898438 -28.195312 C 7.898438 -28.195312 5.847656 -28.398438 4.347656 -28.546875 L 4.347656 -21.648438 C 5.898438 -21.746094 7.898438 -21.898438 10.097656 -21.898438 L 22.847656 -21.898438 C 22.449219 -13.449219 19.097656 -6.25 9.300781 -1.800781 L 15.5 2.800781 C 26.296875 -3.648438 29.445312 -11.847656 29.746094 -21.898438 L 40.996094 -21.898438 C 42.996094 -21.898438 45.445312 -21.746094 46.496094 -21.699219 L 46.496094 -28.496094 C 45.445312 -28.398438 43.34375 -28.195312 41.046875 -28.195312 Z M 29.796875 -28.195312 "/></g></g></g><g fill="#000000" fill-opacity="1"><g transform="translate(542.750259, 524.499838)"><g><path d="M 21.199219 -16.648438 L 21.296875 -21.648438 L 21.296875 -23.898438 L 12.296875 -23.898438 C 12.347656 -25.648438 12.398438 -27.445312 12.449219 -29.246094 L 21.996094 -29.246094 C 21.496094 -28.597656 20.949219 -27.996094 20.398438 -27.445312 C 21.699219 -26.546875 23.898438 -24.347656 24.847656 -23.246094 L 25.296875 -23.746094 L 25.296875 -18.546875 Z M 33.398438 -0.75 C 30.898438 -0.75 30.546875 -1.050781 30.546875 -3.101562 L 30.546875 -15.148438 L 33.246094 -16.398438 L 33.246094 -4.75 L 38.195312 -4.75 L 38.195312 -18.699219 L 41.394531 -20.199219 C 41.347656 -15.449219 41.347656 -12.699219 41.246094 -12.25 C 41.195312 -11.597656 40.945312 -11.5 40.546875 -11.5 C 40.144531 -11.5 39.445312 -11.5 38.847656 -11.550781 C 39.394531 -10.449219 39.796875 -8.550781 39.945312 -7.199219 C 41.246094 -7.199219 42.847656 -7.25 44.046875 -7.75 C 45.394531 -8.300781 46.09375 -9.398438 46.195312 -11.199219 C 46.34375 -12.699219 46.34375 -17.796875 46.394531 -24.898438 L 46.59375 -25.699219 L 42.894531 -26.996094 L 41.996094 -26.347656 L 41.796875 -26.199219 L 38.195312 -24.546875 L 38.195312 -29.398438 L 33.246094 -29.398438 L 33.246094 -22.246094 L 30.546875 -20.996094 L 30.546875 -25.796875 L 26.898438 -25.796875 C 27.945312 -27.246094 28.898438 -28.898438 29.746094 -30.648438 L 47.695312 -30.648438 L 47.695312 -36.046875 L 31.996094 -36.046875 C 32.546875 -37.746094 33.097656 -39.496094 33.496094 -41.246094 L 27.648438 -42.347656 C 26.746094 -38.246094 25.246094 -34.246094 23.199219 -30.996094 L 23.199219 -34.746094 L 15.398438 -34.746094 L 15.398438 -42.296875 L 9.699219 -42.296875 L 9.699219 -34.746094 L 2.050781 -34.746094 L 2.050781 -29.246094 L 6.847656 -29.246094 C 6.699219 -17.699219 6.25 -6.699219 1.300781 0.148438 C 2.75 1.101562 4.597656 2.898438 5.550781 4.300781 C 9.699219 -1.398438 11.300781 -9.5 12 -18.5 L 15.898438 -18.5 C 15.699219 -6.75 15.398438 -2.550781 14.75 -1.550781 C 14.347656 -0.898438 13.949219 -0.75 13.296875 -0.75 C 12.648438 -0.75 11.25 -0.75 9.699219 -0.949219 C 10.5 0.5 11.050781 2.699219 11.148438 4.347656 C 13.148438 4.347656 15.046875 4.398438 16.296875 4.097656 C 17.648438 3.851562 18.597656 3.351562 19.5 2.050781 C 20.648438 0.449219 20.996094 -4.347656 21.199219 -16.597656 L 23.246094 -11.75 L 25.296875 -12.699219 L 25.296875 -3.101562 C 25.296875 2.601562 26.898438 4.199219 32.796875 4.199219 L 41.546875 4.199219 C 46.394531 4.199219 47.894531 2.300781 48.546875 -3.949219 C 47.09375 -4.300781 44.945312 -5.148438 43.746094 -6 C 43.445312 -1.601562 43.046875 -0.75 41.097656 -0.75 Z M 33.398438 -0.75 "/></g></g></g><g fill="#000000" fill-opacity="1"><g transform="translate(592.742535, 524.499838)"><g><path d="M 19.296875 -40.796875 L 4.199219 -40.796875 L 4.199219 -36.296875 L 19.296875 -36.296875 Z M 21.199219 -34.097656 L 1.648438 -34.097656 L 1.648438 -29.398438 L 21.199219 -29.398438 Z M 19.398438 -20.296875 L 4 -20.296875 L 4 -15.847656 L 19.398438 -15.847656 Z M 38.496094 -15.546875 C 37.296875 -13 35.746094 -10.75 33.796875 -8.800781 C 31.796875 -10.800781 30.148438 -13.046875 28.945312 -15.546875 Z M 14.199219 -2.949219 L 8.898438 -2.949219 L 8.898438 -8.699219 L 14.199219 -8.699219 Z M 42.246094 -21.148438 L 41.246094 -20.898438 L 23.648438 -20.898438 C 28.847656 -24.449219 29.847656 -30.148438 29.847656 -34.847656 L 29.847656 -35.695312 L 35.445312 -35.695312 L 35.445312 -29.648438 C 35.445312 -24.699219 36.597656 -23.148438 40.597656 -23.148438 L 43.496094 -23.148438 C 46.84375 -23.148438 48.144531 -24.898438 48.644531 -31.097656 C 47.195312 -31.496094 44.894531 -32.347656 43.796875 -33.195312 C 43.746094 -28.847656 43.546875 -28.195312 42.894531 -28.195312 L 41.644531 -28.195312 C 41.097656 -28.195312 40.996094 -28.347656 40.996094 -29.746094 L 40.996094 -40.945312 L 24.246094 -40.945312 L 24.246094 -34.996094 C 24.246094 -31.648438 23.699219 -27.695312 19.398438 -24.746094 L 19.398438 -27.148438 L 4 -27.148438 L 4 -22.597656 L 19.398438 -22.597656 L 19.398438 -24.496094 C 20.597656 -23.699219 22.699219 -21.898438 23.546875 -20.898438 L 21.847656 -20.898438 L 21.847656 -15.546875 L 28.796875 -15.546875 L 23.699219 -13.898438 C 25.246094 -10.648438 27.148438 -7.75 29.445312 -5.25 C 26.496094 -3.300781 23.097656 -1.898438 19.347656 -0.949219 L 19.347656 -13.398438 L 3.851562 -13.398438 L 3.851562 3.648438 L 8.898438 3.648438 L 8.898438 1.699219 L 19.347656 1.699219 L 19.347656 -0.851562 C 20.449219 0.5 21.847656 2.851562 22.449219 4.300781 C 26.699219 3 30.546875 1.199219 33.898438 -1.148438 C 37.046875 1.199219 40.695312 3.050781 44.894531 4.300781 C 45.746094 2.75 47.445312 0.398438 48.746094 -0.851562 C 44.894531 -1.800781 41.394531 -3.25 38.445312 -5.148438 C 41.894531 -8.898438 44.546875 -13.648438 46.144531 -19.699219 Z M 42.246094 -21.148438 "/></g></g></g><g fill="#000000" fill-opacity="1"><g transform="translate(642.734812, 524.499838)"><g><path d="M 31.148438 -7.199219 C 31.097656 -9.449219 30.996094 -13.097656 30.945312 -15.847656 C 33.996094 -17.25 36.796875 -18.347656 38.996094 -19.199219 C 40.695312 -19.898438 43.296875 -20.898438 44.894531 -21.296875 L 42.394531 -27.046875 C 40.597656 -26.199219 38.847656 -25.347656 36.945312 -24.496094 C 34.898438 -23.597656 32.796875 -22.746094 30.246094 -21.546875 C 29.148438 -24.097656 26.648438 -25.398438 23.648438 -25.398438 C 21.996094 -25.398438 19.347656 -25.046875 18.046875 -24.398438 C 19.097656 -25.847656 20.097656 -27.648438 20.898438 -29.398438 C 26.199219 -29.597656 32.296875 -29.996094 37.046875 -30.695312 L 37.097656 -36.496094 C 32.746094 -35.695312 27.746094 -35.296875 23.097656 -35.046875 C 23.699219 -37.046875 24.046875 -38.746094 24.296875 -39.945312 L 17.796875 -40.496094 C 17.75 -39.097656 17.398438 -37.097656 16.796875 -34.847656 L 14.398438 -34.847656 C 11.898438 -34.847656 8.199219 -34.996094 5.699219 -35.394531 L 5.699219 -29.597656 C 8.398438 -29.347656 12.046875 -29.246094 14.046875 -29.246094 L 14.648438 -29.246094 C 12.449219 -24.847656 8.949219 -20.449219 3.75 -15.648438 L 9.050781 -11.699219 C 10.75 -13.847656 12.148438 -15.648438 13.648438 -17.148438 C 15.546875 -18.949219 18.597656 -20.546875 21.398438 -20.546875 C 22.746094 -20.546875 24.046875 -20.097656 24.847656 -18.847656 C 19.199219 -15.949219 13.199219 -11.949219 13.199219 -5.648438 C 13.199219 0.75 19.046875 2.601562 26.796875 2.601562 C 31.445312 2.601562 37.496094 2.199219 40.796875 1.800781 L 40.996094 -4.648438 C 36.644531 -3.75 31.148438 -3.199219 26.949219 -3.199219 C 22.097656 -3.199219 19.746094 -3.949219 19.746094 -6.699219 C 19.746094 -9.148438 21.746094 -11.097656 25.398438 -13.097656 C 25.347656 -10.949219 25.296875 -8.648438 25.199219 -7.199219 Z M 31.148438 -7.199219 "/></g></g></g><g fill="#000000" fill-opacity="1"><g transform="translate(192.804368, 594.249835)"><g><path d="M 23.347656 -34.996094 L 42.246094 -34.996094 L 42.246094 -30.148438 L 47.496094 -30.148438 L 47.496094 -40.046875 L 18.296875 -40.046875 L 18.296875 -29.847656 L 23.347656 -29.847656 Z M 25.847656 -33.796875 C 25.546875 -28.148438 24.597656 -25.296875 17.296875 -23.648438 C 18.296875 -22.648438 19.648438 -20.699219 20.148438 -19.449219 C 29.148438 -21.746094 30.796875 -26.199219 31.246094 -33.796875 Z M 16.699219 -21.398438 L 12.648438 -20.246094 L 12.648438 -27.445312 L 17.199219 -27.445312 L 17.199219 -32.898438 L 12.648438 -32.898438 L 12.648438 -42.296875 L 7.25 -42.296875 L 7.25 -32.898438 L 2 -32.898438 L 2 -27.445312 L 7.25 -27.445312 L 7.25 -18.796875 C 5 -18.25 2.898438 -17.699219 1.199219 -17.347656 L 2.5 -11.648438 C 3.949219 -12.046875 5.597656 -12.5 7.25 -13 L 7.25 -1.949219 C 7.25 -1.300781 7 -1.101562 6.398438 -1.101562 C 5.800781 -1.050781 4.050781 -1.050781 2.300781 -1.148438 C 2.949219 0.449219 3.601562 2.898438 3.75 4.347656 C 7.050781 4.398438 9.148438 4.199219 10.699219 3.25 C 12.199219 2.300781 12.648438 0.800781 12.648438 -1.949219 L 12.648438 -14.597656 C 14.25 -15.046875 15.847656 -15.546875 17.449219 -16.046875 Z M 47.59375 -11.25 L 47.59375 -16.546875 L 35.546875 -16.546875 L 35.546875 -21.296875 C 36.394531 -20.796875 37.597656 -20.597656 39.296875 -20.597656 L 43.246094 -20.597656 C 46.546875 -20.597656 47.894531 -21.949219 48.394531 -27.199219 C 46.996094 -27.445312 44.796875 -28.246094 43.796875 -29.046875 C 43.695312 -25.746094 43.496094 -25.296875 42.597656 -25.296875 L 40.195312 -25.296875 C 39.296875 -25.296875 39.097656 -25.398438 39.097656 -26.648438 L 39.097656 -33.847656 L 33.796875 -33.847656 L 33.796875 -26.597656 C 33.796875 -23.996094 34.097656 -22.398438 35.296875 -21.496094 L 29.648438 -21.496094 L 29.648438 -16.546875 L 17.796875 -16.546875 L 17.796875 -11.25 L 26.449219 -11.25 C 23.597656 -7.199219 19.347656 -3.648438 14.75 -1.75 C 16.046875 -0.648438 17.699219 1.449219 18.546875 2.800781 C 22.796875 0.601562 26.699219 -2.949219 29.648438 -7.148438 L 29.648438 4.300781 L 35.546875 4.300781 L 35.546875 -7.097656 C 38.246094 -3.25 41.597656 0.199219 45.09375 2.351562 C 45.996094 0.949219 47.796875 -1.148438 49.09375 -2.199219 C 45.246094 -4.148438 41.394531 -7.597656 38.695312 -11.25 Z M 47.59375 -11.25 "/></g></g></g><g fill="#000000" fill-opacity="1"><g transform="translate(242.796633, 594.249835)"><g><path d="M 20.148438 -16.449219 C 20.148438 -19.046875 22.046875 -20.347656 23.949219 -20.347656 C 25.347656 -20.347656 26.496094 -19.796875 27.199219 -18.597656 C 27.847656 -14.296875 25.996094 -12.75 23.949219 -12.75 C 21.996094 -12.75 20.148438 -14.148438 20.148438 -16.449219 Z M 46.546875 -34.398438 C 43.945312 -34.445312 37.195312 -34.398438 32.195312 -34.398438 C 32.195312 -34.996094 32.246094 -35.496094 32.246094 -35.894531 C 32.296875 -36.695312 32.445312 -39.347656 32.597656 -40.144531 L 25.398438 -40.144531 C 25.597656 -39.347656 25.746094 -37.445312 25.847656 -35.847656 C 25.898438 -35.496094 25.898438 -34.945312 25.898438 -34.347656 C 19.25 -34.246094 10.25 -33.996094 4.597656 -33.996094 L 4.75 -27.996094 C 10.847656 -28.347656 18.5 -28.648438 25.996094 -28.746094 L 26.046875 -25.449219 C 25.449219 -25.546875 24.796875 -25.597656 24.097656 -25.597656 C 18.699219 -25.597656 14.199219 -21.949219 14.199219 -16.347656 C 14.199219 -10.300781 18.898438 -7.25 22.746094 -7.25 C 23.546875 -7.25 24.296875 -7.347656 24.996094 -7.5 C 22.246094 -4.550781 17.898438 -2.898438 12.898438 -1.851562 L 18.148438 3.449219 C 30.246094 0.0507812 34.046875 -8.148438 34.046875 -14.597656 C 34.046875 -17.199219 33.445312 -19.597656 32.195312 -21.449219 C 32.195312 -23.597656 32.195312 -26.296875 32.148438 -28.796875 C 38.847656 -28.796875 43.496094 -28.695312 46.496094 -28.546875 Z M 46.546875 -34.398438 "/></g></g></g><g fill="#000000" fill-opacity="1"><g transform="translate(292.788899, 594.249835)"><g><path d="M 11 -29.648438 C 15.046875 -29.347656 19.347656 -29.097656 24.546875 -29.097656 C 29.246094 -29.097656 35.394531 -29.445312 38.847656 -29.695312 L 38.847656 -36.347656 C 35.046875 -35.945312 29.398438 -35.644531 24.496094 -35.644531 C 19.296875 -35.644531 14.699219 -35.847656 11 -36.246094 Z M 8.699219 -15.847656 C 8.300781 -14 7.699219 -11.597656 7.699219 -8.699219 C 7.699219 -1.898438 13.398438 1.898438 24.746094 1.898438 C 31.695312 1.898438 37.644531 1.25 41.945312 0.199219 L 41.894531 -6.75 C 37.496094 -5.550781 31.195312 -4.800781 24.496094 -4.800781 C 17.347656 -4.800781 14.347656 -7.097656 14.347656 -10.25 C 14.347656 -11.898438 14.75 -13.449219 15.199219 -15.25 Z M 8.699219 -15.847656 "/></g></g></g><g fill="#000000" fill-opacity="1"><g transform="translate(342.781164, 594.249835)"><g><path d="M 37.046875 -34.847656 C 35.796875 -33.796875 34.347656 -32.945312 32.496094 -31.847656 C 30.148438 -30.546875 25.847656 -28.347656 21.796875 -25.996094 C 19.796875 -29.796875 17.5 -34.546875 15.597656 -39.695312 L 9.347656 -37.144531 C 11.597656 -31.898438 14 -26.648438 16.296875 -22.398438 C 11.550781 -18.898438 8.097656 -14.847656 8.097656 -9.347656 C 8.097656 -0.851562 15.546875 1.898438 25.398438 1.898438 C 31.847656 1.898438 37.097656 1.398438 41.296875 0.699219 L 41.394531 -6.449219 C 36.996094 -5.449219 30.296875 -4.648438 25.199219 -4.648438 C 18.347656 -4.648438 14.898438 -6.550781 14.898438 -10.097656 C 14.898438 -13.546875 17.648438 -16.398438 21.796875 -19.097656 C 26.296875 -21.996094 32.496094 -24.898438 35.597656 -26.449219 C 37.394531 -27.347656 38.996094 -28.195312 40.496094 -29.097656 Z M 37.046875 -34.847656 "/></g></g></g><g fill="#000000" fill-opacity="1"><g transform="translate(392.773429, 594.249835)"><g><path d="M 48.996094 -36.496094 C 48.144531 -38.246094 46.296875 -41.394531 44.945312 -43.296875 L 40.996094 -41.644531 C 42.394531 -39.796875 43.996094 -36.847656 45.046875 -34.746094 Z M 15.398438 -39.746094 C 15.449219 -36.644531 15.046875 -33.046875 14.347656 -29.246094 C 11.847656 -29.046875 9.5 -28.898438 7.949219 -28.847656 C 6.148438 -28.796875 4.5 -28.695312 2.699219 -28.847656 L 3.25 -22.148438 C 4.800781 -22.398438 7.347656 -22.746094 8.75 -22.898438 C 9.699219 -23.046875 11.25 -23.246094 13 -23.449219 C 11.25 -16.699219 7.847656 -6.800781 3.050781 -0.300781 L 9.5 2.300781 C 14.046875 -5 17.648438 -16.648438 19.597656 -24.148438 C 20.996094 -24.246094 22.199219 -24.347656 22.996094 -24.347656 C 26.097656 -24.347656 27.796875 -23.796875 27.796875 -19.847656 C 27.796875 -14.949219 27.148438 -9.050781 25.796875 -6.300781 C 24.996094 -4.648438 23.746094 -4.148438 22.097656 -4.148438 C 20.796875 -4.148438 17.898438 -4.648438 16 -5.199219 L 17.097656 1.351562 C 18.75 1.75 21.148438 2.050781 22.996094 2.050781 C 26.796875 2.050781 29.496094 0.949219 31.148438 -2.5 C 33.246094 -6.800781 33.945312 -14.699219 33.945312 -20.546875 C 33.945312 -27.648438 30.246094 -29.996094 24.996094 -29.996094 C 23.996094 -29.996094 22.496094 -29.898438 20.847656 -29.796875 C 21.199219 -31.597656 21.597656 -33.398438 21.898438 -34.898438 C 22.148438 -36.144531 22.449219 -37.695312 22.746094 -38.996094 Z M 43.046875 -34.195312 C 42.046875 -36.046875 40.296875 -39.195312 39.046875 -41.046875 L 35.097656 -39.394531 C 36.246094 -37.796875 37.496094 -35.394531 38.496094 -33.496094 L 33.898438 -31.546875 C 37.445312 -27.148438 40.945312 -18.398438 42.246094 -12.898438 L 48.546875 -15.847656 C 47.09375 -20.199219 43.394531 -28.546875 40.496094 -33.097656 Z M 43.046875 -34.195312 "/></g></g></g><g fill="#000000" fill-opacity="1"><g transform="translate(442.765706, 594.249835)"><g><path d="M 36.996094 -25.996094 L 33.296875 -24.449219 C 34.898438 -22.199219 35.945312 -20.246094 37.195312 -17.5 L 40.996094 -19.199219 C 40.046875 -21.199219 38.195312 -24.199219 36.996094 -25.996094 Z M 42.597656 -28.296875 L 38.945312 -26.597656 C 40.546875 -24.398438 41.695312 -22.546875 43.046875 -19.847656 L 46.796875 -21.648438 C 45.746094 -23.597656 43.84375 -26.546875 42.597656 -28.296875 Z M 3.648438 -34.195312 L 4.300781 -27.398438 C 10.050781 -28.648438 20.449219 -29.746094 24.746094 -30.195312 C 21.398438 -27.695312 17.449219 -22.097656 17.449219 -14.949219 C 17.449219 -4.199219 27.246094 1.398438 37.644531 2.050781 L 39.945312 -4.800781 C 31.546875 -5.199219 23.949219 -8.148438 23.949219 -16.296875 C 23.949219 -22.148438 28.398438 -28.546875 34.398438 -30.148438 C 37.046875 -30.746094 41.296875 -30.796875 43.945312 -30.796875 L 43.894531 -37.195312 C 40.394531 -37.046875 34.996094 -36.746094 29.898438 -36.347656 C 20.847656 -35.546875 12.648438 -34.796875 8.5 -34.445312 C 7.550781 -34.347656 5.648438 -34.246094 3.648438 -34.195312 Z M 3.648438 -34.195312 "/></g></g></g><g fill="#000000" fill-opacity="1"><g transform="translate(492.757982, 594.249835)"><g><path d="M 9.550781 -14.046875 C 9 -12.199219 8.347656 -9.550781 8.347656 -7.300781 C 8.347656 -0.449219 14.046875 2.699219 23.296875 2.699219 C 28.246094 2.699219 33.296875 2.199219 36.046875 1.75 L 36.246094 -4.597656 C 32.746094 -3.898438 27.847656 -3.5 23.148438 -3.5 C 16.699219 -3.5 14.5 -5.597656 14.5 -8.699219 C 14.5 -9.898438 15.046875 -12 15.699219 -13.5 Z M 42.246094 -28.398438 C 40.046875 -27.546875 37.195312 -26.699219 33.398438 -25.949219 L 32.246094 -28.445312 L 31.296875 -30.597656 C 34.546875 -31.148438 37.246094 -31.847656 39.796875 -32.597656 L 38.746094 -38.144531 C 35.796875 -37.144531 32.597656 -36.394531 29.246094 -35.847656 C 28.597656 -37.597656 28.046875 -39.296875 27.695312 -40.796875 L 20.648438 -39.445312 C 21.496094 -38.097656 22.148438 -36.996094 23.046875 -35.195312 L 23.046875 -35.148438 C 18.648438 -34.898438 13.699219 -35.097656 8.050781 -35.695312 L 8.347656 -30.046875 C 14.347656 -29.445312 20.546875 -29.445312 25.398438 -29.847656 L 26.597656 -27.046875 L 27.445312 -25.097656 C 21.847656 -24.496094 15.097656 -24.496094 7.699219 -25.199219 L 7.949219 -19.5 C 15.449219 -18.949219 23.496094 -19.097656 29.695312 -19.796875 L 31.945312 -14.648438 C 30.597656 -14.796875 28.648438 -14.949219 26.699219 -15.199219 L 26.148438 -10.449219 C 29.445312 -10.050781 34.195312 -9.300781 36.945312 -8.800781 L 39.894531 -12.546875 C 38.445312 -15.25 37.046875 -18.148438 35.796875 -20.796875 C 38.695312 -21.398438 41.394531 -22.046875 43.445312 -22.796875 Z M 42.246094 -28.398438 "/></g></g></g><g fill="#000000" fill-opacity="1"><g transform="translate(542.750259, 594.249835)"><g><path d="M 23.847656 -6.550781 C 23.847656 -3.699219 22.148438 -2.898438 19.5 -2.898438 C 16.097656 -2.898438 14.347656 -4.097656 14.347656 -5.949219 C 14.347656 -7.648438 16.25 -9 19.746094 -9 C 21.148438 -9 22.496094 -8.847656 23.796875 -8.648438 C 23.847656 -7.800781 23.847656 -7.097656 23.847656 -6.550781 Z M 43.644531 -5.300781 C 40.796875 -7.699219 36.046875 -11 29.796875 -12.796875 C 29.648438 -14.699219 29.546875 -16.699219 29.445312 -18.546875 C 34.246094 -18.699219 38.097656 -19.046875 42.546875 -19.546875 L 42.546875 -25.398438 C 38.496094 -24.898438 34.347656 -24.449219 29.347656 -24.246094 L 29.398438 -29.398438 C 34.148438 -29.648438 38.144531 -30.046875 41.394531 -30.347656 L 41.246094 -36.046875 C 36.945312 -35.394531 33.296875 -34.996094 29.445312 -34.847656 L 29.496094 -36.796875 C 29.546875 -38.046875 29.695312 -39.296875 29.847656 -40.296875 L 23.097656 -40.296875 C 23.296875 -39.347656 23.347656 -37.796875 23.347656 -36.894531 L 23.347656 -34.648438 L 20.898438 -34.648438 C 17.847656 -34.648438 13.25 -34.996094 10.148438 -35.597656 L 10.199219 -29.945312 C 13.046875 -29.496094 17.796875 -29.195312 20.949219 -29.195312 L 23.296875 -29.195312 L 23.296875 -24.046875 L 20.949219 -24.046875 C 18.296875 -24.046875 11.847656 -24.398438 9 -24.949219 L 8.949219 -19.097656 C 12.25 -18.699219 17.949219 -18.449219 20.847656 -18.449219 L 23.398438 -18.449219 C 23.449219 -17 23.496094 -15.449219 23.597656 -13.949219 C 22.597656 -14.046875 21.597656 -14.097656 20.546875 -14.097656 C 12.898438 -14.097656 8.300781 -10.597656 8.300781 -5.597656 C 8.300781 -0.351562 12.5 2.648438 20.398438 2.648438 C 26.949219 2.648438 30.148438 -0.601562 30.148438 -4.847656 C 30.148438 -5.347656 30.148438 -5.949219 30.097656 -6.597656 C 34.046875 -4.800781 37.445312 -2.25 40.097656 0.25 Z M 43.644531 -5.300781 "/></g></g></g><g fill="#000000" fill-opacity="1"><g transform="translate(592.742535, 594.249835)"><g><path d="M 20.148438 -16.449219 C 20.148438 -19.046875 22.046875 -20.347656 23.949219 -20.347656 C 25.347656 -20.347656 26.496094 -19.796875 27.199219 -18.597656 C 27.847656 -14.296875 25.996094 -12.75 23.949219 -12.75 C 21.996094 -12.75 20.148438 -14.148438 20.148438 -16.449219 Z M 46.546875 -34.398438 C 43.945312 -34.445312 37.195312 -34.398438 32.195312 -34.398438 C 32.195312 -34.996094 32.246094 -35.496094 32.246094 -35.894531 C 32.296875 -36.695312 32.445312 -39.347656 32.597656 -40.144531 L 25.398438 -40.144531 C 25.597656 -39.347656 25.746094 -37.445312 25.847656 -35.847656 C 25.898438 -35.496094 25.898438 -34.945312 25.898438 -34.347656 C 19.25 -34.246094 10.25 -33.996094 4.597656 -33.996094 L 4.75 -27.996094 C 10.847656 -28.347656 18.5 -28.648438 25.996094 -28.746094 L 26.046875 -25.449219 C 25.449219 -25.546875 24.796875 -25.597656 24.097656 -25.597656 C 18.699219 -25.597656 14.199219 -21.949219 14.199219 -16.347656 C 14.199219 -10.300781 18.898438 -7.25 22.746094 -7.25 C 23.546875 -7.25 24.296875 -7.347656 24.996094 -7.5 C 22.246094 -4.550781 17.898438 -2.898438 12.898438 -1.851562 L 18.148438 3.449219 C 30.246094 0.0507812 34.046875 -8.148438 34.046875 -14.597656 C 34.046875 -17.199219 33.445312 -19.597656 32.195312 -21.449219 C 32.195312 -23.597656 32.195312 -26.296875 32.148438 -28.796875 C 38.847656 -28.796875 43.496094 -28.695312 46.496094 -28.546875 Z M 46.546875 -34.398438 "/></g></g></g><g fill="#000000" fill-opacity="1"><g transform="translate(642.734812, 594.249835)"><g><path d="M 22.449219 -12.847656 L 27.597656 -12.847656 L 29.347656 -29.945312 L 29.597656 -37.394531 L 20.449219 -37.394531 L 20.648438 -29.945312 Z M 24.996094 0.449219 C 27.945312 0.449219 30.195312 -1.550781 30.195312 -4.449219 C 30.195312 -7.300781 27.945312 -9.398438 24.996094 -9.398438 C 22.046875 -9.398438 19.796875 -7.300781 19.796875 -4.449219 C 19.796875 -1.550781 22.046875 0.449219 24.996094 0.449219 Z M 24.996094 0.449219 "/></g></g></g></svg>