<svg xmlns="http://www.w3.org/2000/svg" xmlns:xlink="http://www.w3.org/1999/xlink" width="1080" zoomAndPan="magnify" viewBox="0 0 810 809.999993" height="1080" preserveAspectRatio="xMidYMid meet" version="1.0"><defs><g/></defs><g fill="#000000" fill-opacity="1"><g transform="translate(338.988271, 244.026087)"><g><path d="M 29.484375 -24.414062 L 28.546875 -32.449219 L 22.074219 -30.886719 L 22.074219 -43.054688 L 29.796875 -43.054688 L 29.796875 -51.636719 L 22.074219 -51.636719 L 22.074219 -65.988281 L 12.949219 -65.988281 L 12.949219 -51.636719 L 3.121094 -51.636719 L 3.121094 -43.054688 L 12.949219 -43.054688 L 12.949219 -28.625 C 8.734375 -27.613281 4.992188 -26.753906 1.949219 -26.207031 L 4.445312 -16.535156 C 7.097656 -17.316406 9.984375 -18.175781 12.949219 -19.109375 L 12.949219 -3.199219 C 12.949219 -2.105469 12.558594 -1.792969 11.542969 -1.714844 C 10.53125 -1.714844 7.253906 -1.714844 4.289062 -1.871094 C 5.382812 0.546875 6.550781 4.289062 6.863281 6.628906 C 12.324219 6.628906 16.066406 6.394531 18.71875 4.992188 C 21.214844 3.589844 22.074219 1.324219 22.074219 -3.277344 L 22.074219 -21.996094 Z M 58.890625 -24.492188 C 56.863281 -20.359375 54.132812 -16.769531 50.777344 -13.726562 C 47.425781 -16.847656 44.695312 -20.4375 42.664062 -24.492188 Z M 65.050781 -33.148438 L 63.335938 -32.839844 L 33.929688 -32.839844 C 42.742188 -38.453125 44.929688 -47.269531 45.007812 -54.601562 L 54.988281 -54.601562 L 54.988281 -46.175781 C 54.988281 -38.53125 56.941406 -36.269531 63.335938 -36.269531 L 68.25 -36.269531 C 73.632812 -36.269531 75.582031 -38.921875 76.363281 -48.515625 C 74.023438 -49.0625 70.511719 -50.464844 68.796875 -51.792969 C 68.640625 -45.007812 68.40625 -43.914062 67.234375 -43.914062 L 65.050781 -43.914062 C 64.117188 -43.914062 63.882812 -44.148438 63.882812 -46.253906 L 63.882812 -63.179688 L 36.269531 -63.179688 L 36.269531 -55.222656 C 36.269531 -50.074219 35.335938 -43.992188 27.613281 -39.546875 C 29.328125 -38.21875 32.605469 -34.710938 33.695312 -32.839844 L 32.136719 -32.839844 L 32.136719 -24.492188 L 40.636719 -24.492188 L 34.085938 -22.464844 C 36.660156 -17.082031 39.703125 -12.324219 43.445312 -8.347656 C 38.140625 -5.148438 31.902344 -2.964844 25.117188 -1.636719 C 26.832031 0.46875 28.9375 4.367188 29.875 6.863281 C 37.675781 4.914062 44.695312 2.027344 50.777344 -1.949219 C 56.238281 1.949219 62.789062 4.914062 70.433594 6.707031 C 71.839844 4.210938 74.410156 0.3125 76.519531 -1.714844 C 69.652344 -3.042969 63.570312 -5.226562 58.421875 -8.191406 C 64.195312 -13.882812 68.484375 -21.292969 71.136719 -30.730469 Z M 65.050781 -33.148438 "/></g></g></g><g fill="#000000" fill-opacity="1"><g transform="translate(416.988337, 244.026087)"><g><path d="M 55.691406 -12.558594 L 55.691406 -7.175781 L 49.21875 -7.175781 L 49.21875 -12.558594 Z M 62.089844 -1.636719 L 62.089844 -18.253906 L 42.898438 -18.253906 L 42.898438 2.027344 L 49.21875 2.027344 L 49.21875 -1.636719 Z M 73.867188 -28.46875 L 31.277344 -28.46875 L 31.277344 -24.335938 C 29.40625 -26.675781 24.257812 -32.605469 22.152344 -34.554688 L 22.152344 -35.566406 L 30.652344 -35.566406 L 30.652344 -44.070312 L 22.152344 -44.070312 L 22.152344 -55.144531 C 25.195312 -55.925781 28.078125 -56.707031 30.730469 -57.640625 L 30.730469 -51.324219 L 73.789062 -51.324219 L 73.789062 -58.578125 L 57.019531 -58.578125 L 57.019531 -65.988281 L 48.046875 -65.988281 L 48.046875 -58.578125 L 31.199219 -58.578125 L 25.195312 -64.972656 C 19.734375 -62.554688 10.765625 -60.527344 2.652344 -59.28125 C 3.742188 -57.40625 4.835938 -54.210938 5.226562 -52.261719 C 7.800781 -52.570312 10.53125 -52.960938 13.261719 -53.429688 L 13.261719 -44.070312 L 3.121094 -44.070312 L 3.121094 -35.566406 L 12.402344 -35.566406 C 9.828125 -28.078125 5.851562 -19.65625 1.871094 -14.585938 C 3.277344 -12.246094 5.304688 -8.347656 6.160156 -5.695312 C 8.734375 -9.203125 11.152344 -14.039062 13.261719 -19.34375 L 13.261719 6.785156 L 22.152344 6.785156 L 22.152344 -24.335938 C 23.789062 -21.527344 25.429688 -18.640625 26.363281 -16.613281 L 31.277344 -23.242188 L 31.277344 6.863281 L 39.546875 6.863281 L 39.546875 -21.292969 L 65.519531 -21.292969 L 65.519531 -1.324219 C 65.519531 -0.625 65.285156 -0.390625 64.585938 -0.3125 C 63.882812 -0.3125 61.777344 -0.3125 59.746094 -0.390625 C 60.683594 1.636719 61.621094 4.523438 61.933594 6.707031 C 65.988281 6.707031 68.953125 6.707031 71.136719 5.460938 C 73.398438 4.210938 73.867188 2.339844 73.867188 -1.246094 Z M 44.539062 -42.355469 L 60.761719 -42.355469 L 60.761719 -37.597656 L 44.539062 -37.597656 Z M 69.03125 -31.355469 L 69.03125 -48.59375 L 36.738281 -48.59375 L 36.738281 -31.355469 Z M 69.03125 -31.355469 "/></g></g></g><g fill="#000000" fill-opacity="1"><g transform="translate(494.988402, 244.026087)"><g><path d="M 16.613281 -61.777344 C 17.316406 -58.734375 17.628906 -54.988281 17.628906 -51.324219 C 17.628906 -44.695312 16.847656 -24.414062 16.847656 -14.039062 C 16.847656 -0.859375 25.039062 4.679688 37.675781 4.679688 C 55.300781 4.679688 66.222656 -5.617188 71.214844 -12.949219 L 64.195312 -21.605469 C 58.65625 -13.183594 50.542969 -5.851562 37.753906 -5.851562 C 31.824219 -5.851562 27.144531 -8.347656 27.144531 -16.144531 C 27.144531 -25.738281 27.691406 -43.054688 28.078125 -51.324219 C 28.15625 -54.445312 28.546875 -58.34375 29.09375 -61.621094 Z M 16.613281 -61.777344 "/></g></g></g><g fill="#000000" fill-opacity="1"><g transform="translate(572.988467, 244.026087)"><g><path d="M 34.632812 -12.402344 C 34.632812 -7.332031 32.839844 -5.070312 27.847656 -5.070312 C 22.464844 -5.070312 18.5625 -6.472656 18.5625 -10.296875 C 18.5625 -13.570312 22.152344 -15.601562 28.15625 -15.601562 C 30.34375 -15.601562 32.527344 -15.367188 34.554688 -15.054688 C 34.632812 -14.039062 34.632812 -13.105469 34.632812 -12.402344 Z M 68.015625 -8.8125 C 62.710938 -13.804688 54.367188 -19.109375 44.539062 -22.074219 C 44.148438 -27.769531 43.835938 -33.851562 43.679688 -38.53125 C 49.921875 -38.6875 59.125 -39 65.597656 -39.625 L 65.207031 -48.828125 C 58.8125 -48.125 49.765625 -47.8125 43.679688 -47.65625 C 43.679688 -49.609375 43.679688 -51.558594 43.679688 -53.273438 C 43.835938 -56.316406 44.070312 -60.058594 44.382812 -62.320312 L 32.761719 -62.320312 C 33.226562 -60.371094 33.460938 -57.097656 33.539062 -53.273438 C 33.617188 -49.996094 33.695312 -45.394531 33.695312 -40.714844 C 33.695312 -36.660156 34.007812 -30.03125 34.242188 -24.023438 C 32.761719 -24.179688 31.199219 -24.257812 29.640625 -24.257812 C 15.445312 -24.257812 8.578125 -17.863281 8.578125 -9.828125 C 8.578125 0.703125 17.628906 4.289062 28.625 4.289062 C 41.574219 4.289062 45.085938 -2.261719 45.085938 -9.046875 C 45.085938 -9.828125 45.085938 -10.6875 45.007812 -11.699219 C 51.871094 -8.578125 57.71875 -3.976562 62.089844 0.390625 Z M 68.015625 -8.8125 "/></g></g></g><g fill="#000000" fill-opacity="1"><g transform="translate(650.988532, 244.026087)"><g><path d="M 53.195312 -25.660156 C 53.195312 -13.570312 40.949219 -7.332031 21.761719 -5.148438 L 27.378906 4.523438 C 48.828125 1.558594 64.117188 -8.734375 64.117188 -25.273438 C 64.117188 -37.363281 55.535156 -44.304688 43.289062 -44.304688 C 34.320312 -44.304688 25.660156 -42.042969 19.96875 -40.792969 C 17.472656 -40.246094 14.117188 -39.703125 11.542969 -39.46875 L 14.429688 -28.46875 C 16.691406 -29.25 19.65625 -30.421875 21.917969 -31.121094 C 25.894531 -32.292969 33.539062 -34.867188 42.042969 -34.867188 C 49.296875 -34.945312 53.195312 -30.730469 53.195312 -25.660156 Z M 22.933594 -62.789062 L 21.371094 -53.429688 C 30.265625 -51.871094 47.035156 -50.386719 56.082031 -49.765625 L 57.640625 -59.28125 C 49.453125 -59.28125 31.902344 -60.839844 22.933594 -62.789062 Z M 22.933594 -62.789062 "/></g></g></g><path stroke-linecap="butt" transform="matrix(0.75, 0, 0, 0.75, 72.908203, 60.999989)" fill="none" stroke-linejoin="miter" d="M 16.013022 106.432312 C 17.231772 105.520853 26.867189 105.06252 44.919273 105.06252 C 62.976566 105.06252 74.4974 105.520853 79.492192 106.432312 C 87.304692 107.817729 93.877609 110.661479 99.216151 114.958354 C 104.554693 119.213562 108.200526 124.723979 110.153651 131.494813 C 111.023443 133.968771 111.455735 137.072938 111.455735 140.807314 C 111.455735 141.890647 111.325527 144.125022 111.06511 147.510439 C 110.804693 150.854189 109.955735 154.041689 108.523443 157.078148 C 107.091151 159.729189 105.226568 162.442731 102.929693 165.218773 C 100.627609 167.953148 98.414068 170.036482 96.289067 171.468773 C 94.117192 172.72919 93.033859 173.57294 93.033859 174.005232 C 93.033859 174.442732 94.117192 175.203149 96.289067 176.286482 C 101.971359 178.932315 106.179693 183.380232 108.914068 189.630233 C 111.695318 195.838566 113.080735 202.6719 113.080735 210.14065 C 113.080735 210.4844 113.080735 210.9219 113.080735 211.442734 C 112.169277 221.598984 108.78386 230.015651 102.929693 236.703152 C 97.070318 243.343777 88.971359 247.812527 78.643233 250.114611 C 74.044275 251.197944 68.856774 251.781277 63.085941 251.869819 C 57.309899 251.958361 53.971357 252.000027 53.059899 252.000027 C 43.638023 252.000027 35.825523 251.567736 29.622397 250.697944 C 21.070314 250.135444 16.252605 249.593777 15.169272 249.072944 C 14.29948 248.895861 13.825522 247.921902 13.73698 246.140652 C 13.648438 244.359402 13.606772 238.760443 13.606772 229.343776 L 13.606772 209.880234 L 17.575522 210.14065 C 28.429689 211.572942 37.497398 212.286484 44.789065 212.286484 C 46.049482 212.286484 48.934898 212.20315 53.450524 212.026067 C 58.007816 211.854192 62.325524 210.682317 66.403649 208.510442 C 68.705733 207.2969 70.377608 205.843775 71.419275 204.151067 C 72.502608 202.458358 73.044275 201.156275 73.044275 200.244816 C 73.044275 199.895858 72.955733 199.5469 72.783858 199.20315 C 71.351566 197.4219 69.158858 196.3594 66.210941 196.010441 C 63.299482 195.666691 55.013024 195.2969 41.341148 194.906275 L 17.835939 194.645858 L 18.684897 158.901064 L 30.664064 158.119814 C 43.986982 157.598981 54.83594 155.734398 63.216149 152.520856 C 66.601566 151.307314 68.945316 149.984397 70.247399 148.552106 C 71.59115 147.119814 72.263025 145.338564 72.263025 143.213564 L 72.263025 139.765647 L 42.643231 139.437522 L 15.169272 139.437522 L 15.169272 123.489604 C 15.169272 116.369812 15.210938 111.791687 15.29948 109.75002 C 15.388022 107.713562 15.622397 106.604187 16.013022 106.432312 Z M 16.013022 106.432312 " stroke="#000000" stroke-width="10.000012" stroke-opacity="1" stroke-miterlimit="4"/><g fill="#000000" fill-opacity="1"><g transform="translate(192.804368, 454.749842)"><g><path d="M 13.949219 -4.449219 C 12.648438 -4.449219 10.347656 -5.847656 10.347656 -7.347656 C 10.347656 -9.097656 12.347656 -11.148438 15.398438 -12.699219 C 15.5 -10.097656 15.546875 -7.847656 15.546875 -6.597656 C 15.546875 -4.898438 14.847656 -4.449219 13.949219 -4.449219 Z M 20.996094 -22.246094 C 20.996094 -23.699219 20.996094 -25.199219 21.046875 -26.699219 C 24.296875 -27.097656 27.695312 -27.597656 30.496094 -28.246094 L 30.347656 -34.445312 C 27.746094 -33.695312 24.496094 -33.046875 21.246094 -32.597656 C 21.296875 -33.847656 21.347656 -35.046875 21.398438 -36.144531 C 21.496094 -37.394531 21.699219 -39.546875 21.796875 -40.445312 L 15 -40.445312 C 15.148438 -39.546875 15.347656 -37.144531 15.347656 -36.097656 C 15.347656 -35.246094 15.347656 -33.796875 15.296875 -32.046875 C 14.296875 -31.996094 13.347656 -31.945312 12.449219 -31.945312 C 10.648438 -31.945312 8.5 -31.996094 5.597656 -32.347656 L 5.699219 -26.347656 C 7.847656 -26.148438 10.347656 -26.097656 12.597656 -26.097656 C 13.398438 -26.097656 14.296875 -26.148438 15.25 -26.199219 L 15.25 -22.046875 C 15.25 -20.898438 15.25 -19.746094 15.296875 -18.597656 C 9.25 -15.949219 4.199219 -11.5 4.199219 -7.148438 C 4.199219 -1.898438 11.050781 2.25 15.898438 2.25 C 19.097656 2.25 21.347656 0.648438 21.347656 -5.5 C 21.347656 -7.199219 21.199219 -11 21.097656 -14.949219 C 24.148438 -15.796875 27.347656 -16.296875 30.398438 -16.296875 C 34.695312 -16.296875 37.695312 -14.347656 37.695312 -11 C 37.695312 -7.398438 34.496094 -5.347656 30.496094 -4.648438 C 28.746094 -4.347656 26.648438 -4.300781 24.398438 -4.300781 L 26.699219 2.050781 C 28.648438 1.949219 30.898438 1.75 33.195312 1.25 C 41.046875 -0.699219 44.09375 -5.097656 44.09375 -10.949219 C 44.09375 -17.75 38.097656 -21.796875 30.496094 -21.796875 C 27.746094 -21.796875 24.347656 -21.347656 20.996094 -20.496094 Z M 33.195312 -30.246094 C 36.296875 -28.746094 42.746094 -25.097656 45.09375 -23.046875 L 48.09375 -28.148438 C 45.496094 -29.996094 39.746094 -33.246094 35.945312 -35.097656 Z M 33.195312 -30.246094 "/></g></g></g><g fill="#000000" fill-opacity="1"><g transform="translate(242.796633, 454.749842)"><g><path d="M 24.246094 -17.699219 C 23.046875 -15.398438 21.597656 -13.25 19.847656 -11.25 C 17 -13.046875 14.097656 -14.75 11.5 -16.097656 L 7.25 -12.199219 C 9.898438 -10.699219 12.796875 -8.949219 15.648438 -7.050781 C 11.949219 -3.898438 7.648438 -1.300781 3 0.5 C 4.300781 1.601562 6.5 3.898438 7.449219 5.148438 C 12.046875 2.898438 16.5 -0.0507812 20.449219 -3.648438 C 23.449219 -1.351562 26.097656 0.851562 27.847656 2.800781 L 32.597656 -1.699219 C 30.648438 -3.648438 27.847656 -5.898438 24.699219 -8.050781 C 26.746094 -10.449219 28.496094 -13.046875 29.996094 -15.796875 Z M 8 -22.949219 C 9.800781 -24.847656 11.5 -27.097656 13.046875 -29.648438 L 13.046875 -25.449219 L 41.894531 -25.449219 L 41.894531 -30.246094 L 13.398438 -30.246094 C 13.847656 -30.996094 14.296875 -31.796875 14.699219 -32.597656 L 46.445312 -32.597656 L 46.445312 -37.546875 L 16.898438 -37.546875 C 17.347656 -38.746094 17.75 -39.996094 18.148438 -41.246094 L 11.949219 -42.546875 C 10 -35.644531 6.25 -29.195312 1.300781 -25.449219 C 2.75 -24.597656 5.550781 -22.699219 6.699219 -21.699219 L 7.148438 -22.097656 L 7.148438 -17.949219 L 33.945312 -17.949219 C 34.246094 -5.148438 35.695312 4.398438 42.996094 4.398438 C 46.84375 4.398438 47.894531 1.75 48.34375 -4.5 C 47.144531 -5.347656 45.644531 -6.847656 44.496094 -8.199219 C 44.394531 -4.148438 44.195312 -1.550781 43.445312 -1.5 C 40.546875 -1.5 39.894531 -10.949219 39.996094 -22.949219 Z M 8 -22.949219 "/></g></g></g><g fill="#000000" fill-opacity="1"><g transform="translate(292.788899, 454.749842)"><g><path d="M 22.398438 -34.898438 L 22.449219 -28.496094 C 28.648438 -27.945312 37.597656 -27.945312 43.695312 -28.496094 L 43.695312 -34.898438 C 38.347656 -34.246094 28.496094 -34.046875 22.398438 -34.898438 Z M 20.699219 -14.25 C 20.199219 -11.949219 19.847656 -9.847656 19.847656 -7.800781 C 19.847656 -2.75 23.898438 0.351562 32.445312 0.351562 C 38.046875 0.351562 42.046875 -0.0507812 45.246094 -0.648438 L 45.09375 -7.347656 C 40.796875 -6.449219 37.144531 -6.050781 32.695312 -6.050781 C 27.695312 -6.050781 25.796875 -7.347656 25.796875 -9.550781 C 25.796875 -10.898438 25.996094 -12.097656 26.398438 -13.699219 Z M 7.847656 -38.746094 C 7.847656 -37.195312 7.550781 -35.296875 7.347656 -33.898438 C 6.800781 -30.097656 5.300781 -21.746094 5.300781 -14.296875 C 5.300781 -7.597656 6.25 -1.550781 7.25 1.898438 L 12.949219 1.5 C 12.898438 0.800781 12.898438 0 12.847656 -0.550781 C 12.847656 -1.050781 13 -2.148438 13.148438 -2.851562 C 13.648438 -5.5 15.296875 -10.847656 16.699219 -15 L 13.597656 -17.398438 C 12.898438 -15.796875 12.097656 -14.148438 11.398438 -12.398438 C 11.25 -13.449219 11.199219 -14.648438 11.199219 -15.597656 C 11.199219 -20.546875 12.898438 -30.445312 13.597656 -33.746094 C 13.796875 -34.648438 14.398438 -37.144531 14.796875 -38.144531 Z M 7.847656 -38.746094 "/></g></g></g><g fill="#000000" fill-opacity="1"><g transform="translate(342.781164, 454.749842)"><g><path d="M 11.550781 -39.546875 L 11.550781 -33.496094 L 22.949219 -33.496094 C 23.097656 -31.796875 23.296875 -29.996094 23.648438 -28.097656 L 20.597656 -28.648438 C 17.847656 -15.5 11.898438 -5.847656 1.5 -0.601562 C 3.050781 0.550781 5.847656 3 6.949219 4.25 C 15.648438 -0.949219 21.648438 -9.25 25.398438 -20.449219 C 28.148438 -11.5 33.445312 -2.050781 43.796875 4.199219 C 44.84375 2.648438 47.296875 0.0507812 48.59375 -1 C 30.195312 -11.847656 28.847656 -30.097656 28.847656 -39.546875 Z M 11.550781 -39.546875 "/></g></g></g><g fill="#000000" fill-opacity="1"><g transform="translate(392.773429, 454.749842)"><g><path d="M 11.347656 -40.296875 C 11.300781 -38.894531 11.199219 -36.894531 10.949219 -35.097656 C 10.199219 -29.996094 9.550781 -23.847656 9.550781 -19.25 C 9.550781 -15.949219 9.898438 -12.898438 10.148438 -11 L 16.296875 -11.398438 C 16 -13.699219 16 -15.296875 16.046875 -16.648438 C 16.296875 -23.148438 21.398438 -31.945312 27.246094 -31.945312 C 31.347656 -31.945312 33.898438 -27.695312 33.898438 -20.046875 C 33.898438 -8.050781 26.199219 -4.449219 15.199219 -2.75 L 18.949219 3 C 32.046875 0.601562 40.644531 -6.097656 40.644531 -20.097656 C 40.644531 -30.996094 35.296875 -37.746094 28.398438 -37.746094 C 22.796875 -37.746094 18.5 -33.546875 16.148438 -29.746094 C 16.449219 -32.496094 17.449219 -37.546875 18.148438 -39.996094 Z M 11.347656 -40.296875 "/></g></g></g><g fill="#000000" fill-opacity="1"><g transform="translate(442.765706, 454.749842)"><g><path d="M 13.648438 -9 C 11.796875 -9 9.800781 -11.449219 9.800781 -16.449219 C 9.800781 -21.898438 14.148438 -29.097656 22.347656 -30.796875 C 21.746094 -26.699219 20.847656 -22.449219 19.699219 -18.796875 C 17.699219 -12.097656 15.699219 -9 13.648438 -9 Z M 27.246094 2.050781 C 39.746094 0.148438 46.144531 -7.25 46.144531 -17.648438 C 46.144531 -28.445312 38.394531 -36.996094 26.148438 -36.996094 C 13.296875 -36.996094 3.351562 -27.199219 3.351562 -15.796875 C 3.351562 -7.449219 8 -1.398438 13.449219 -1.398438 C 18.847656 -1.398438 23.148438 -7.5 26.097656 -17.5 C 27.496094 -22.148438 28.347656 -26.746094 29.046875 -30.945312 C 35.695312 -29.796875 39.394531 -24.699219 39.394531 -17.847656 C 39.394531 -10.648438 34.496094 -6.097656 28.148438 -4.597656 C 26.847656 -4.300781 25.449219 -4.050781 23.546875 -3.800781 Z M 27.246094 2.050781 "/></g></g></g><g fill="#000000" fill-opacity="1"><g transform="translate(492.757982, 454.749842)"><g><path d="M 37.394531 -29.898438 L 37.394531 -35.148438 C 37.394531 -37.144531 37.597656 -38.796875 37.695312 -39.796875 L 30.597656 -39.796875 C 30.746094 -38.796875 30.898438 -37.144531 30.898438 -35.148438 L 30.898438 -29.898438 L 19.046875 -29.898438 L 19.046875 -34.796875 C 19.046875 -36.796875 19.199219 -38.394531 19.347656 -39.347656 L 12.25 -39.347656 C 12.347656 -38.394531 12.546875 -36.746094 12.546875 -34.847656 L 12.546875 -29.898438 L 8.300781 -29.898438 C 5.800781 -29.898438 3.800781 -30.195312 2.898438 -30.347656 L 2.898438 -23.546875 C 4 -23.648438 5.800781 -23.746094 8.300781 -23.746094 L 12.546875 -23.746094 L 12.546875 -16.949219 C 12.546875 -14.699219 12.398438 -12.699219 12.25 -11.699219 L 19.25 -11.699219 C 19.199219 -12.699219 19.046875 -14.75 19.046875 -16.949219 L 19.046875 -23.746094 L 30.898438 -23.746094 L 30.898438 -21.847656 C 30.898438 -9.597656 26.648438 -5.25 17 -1.898438 L 22.347656 3.148438 C 34.398438 -2.148438 37.394531 -9.699219 37.394531 -22.097656 L 37.394531 -23.746094 L 41.097656 -23.746094 C 43.746094 -23.746094 45.496094 -23.699219 46.59375 -23.597656 L 46.59375 -30.246094 C 45.246094 -29.996094 43.746094 -29.898438 41.097656 -29.898438 Z M 37.394531 -29.898438 "/></g></g></g><g fill="#000000" fill-opacity="1"><g transform="translate(542.750259, 454.749842)"><g><path d="M 27.148438 -0.699219 C 29.195312 -5.347656 30.097656 -10.800781 30.496094 -15.847656 C 31.648438 -12.648438 32.996094 -9.648438 34.597656 -6.949219 C 32.445312 -4.347656 29.945312 -2.300781 27.148438 -0.699219 Z M 41.496094 -21.949219 C 40.644531 -18.199219 39.394531 -14.847656 37.847656 -11.898438 C 36.097656 -14.949219 34.746094 -18.347656 33.695312 -21.949219 Z M 16.75 -24.648438 L 16.75 -22.296875 L 10.050781 -22.296875 L 10.050781 -24.648438 Z M 10.050781 -15.847656 L 10.050781 -18.296875 L 16.75 -18.296875 L 16.75 -15.847656 Z M 44.34375 -27.445312 L 43.296875 -27.296875 L 30.746094 -27.296875 L 30.746094 -34.445312 L 47.445312 -34.445312 L 47.445312 -39.996094 L 25.148438 -39.996094 L 25.148438 -22.847656 C 25.148438 -17.097656 24.898438 -9.949219 22.347656 -3.898438 C 21.449219 -6.25 20.148438 -9 18.949219 -11.199219 L 14.199219 -9.5 C 14.699219 -8.5 15.199219 -7.398438 15.699219 -6.25 C 13.75 -5.75 11.847656 -5.25 10.050781 -4.75 L 10.050781 -11.75 L 21.949219 -11.75 L 21.949219 -28.746094 L 16.5 -28.746094 L 16.5 -32.847656 L 11.5 -32.847656 L 11.5 -28.746094 L 6.597656 -28.746094 C 9.75 -31.648438 12.097656 -34.746094 13.847656 -37.445312 C 16.398438 -35.148438 19.148438 -31.847656 20.597656 -29.648438 L 24.199219 -33.847656 C 22.398438 -36.445312 18.648438 -39.894531 15.648438 -42.296875 L 10.199219 -42.296875 C 8.449219 -38.496094 5.300781 -33.996094 0.550781 -30.597656 C 1.75 -29.796875 3.5 -27.996094 4.347656 -26.847656 L 4.75 -27.148438 L 4.75 -3.398438 C 3.648438 -3.148438 2.601562 -2.898438 1.648438 -2.699219 L 3.5 2.800781 C 7.597656 1.550781 12.546875 -0.0507812 17.449219 -1.699219 C 17.75 -0.699219 18.046875 0.25 18.199219 1.050781 L 20.046875 0.300781 L 19.597656 0.898438 C 20.847656 1.5 23.246094 3.25 24.199219 4.25 C 25.296875 2.851562 26.246094 1.300781 26.996094 -0.398438 C 28.148438 0.601562 29.898438 2.75 30.648438 4 C 33.296875 2.449219 35.746094 0.398438 37.894531 -2.199219 C 39.996094 0.300781 42.347656 2.351562 45.046875 4 C 45.945312 2.5 47.695312 0.351562 48.996094 -0.75 C 46.046875 -2.25 43.496094 -4.347656 41.296875 -6.949219 C 44.34375 -12.046875 46.59375 -18.5 47.796875 -26.246094 Z M 44.34375 -27.445312 "/></g></g></g><g fill="#000000" fill-opacity="1"><g transform="translate(592.742535, 454.749842)"><g><path d="M 31.148438 -7.199219 C 31.097656 -9.449219 30.996094 -13.097656 30.945312 -15.847656 C 33.996094 -17.25 36.796875 -18.347656 38.996094 -19.199219 C 40.695312 -19.898438 43.296875 -20.898438 44.894531 -21.296875 L 42.394531 -27.046875 C 40.597656 -26.199219 38.847656 -25.347656 36.945312 -24.496094 C 34.898438 -23.597656 32.796875 -22.746094 30.246094 -21.546875 C 29.148438 -24.097656 26.648438 -25.398438 23.648438 -25.398438 C 21.996094 -25.398438 19.347656 -25.046875 18.046875 -24.398438 C 19.097656 -25.847656 20.097656 -27.648438 20.898438 -29.398438 C 26.199219 -29.597656 32.296875 -29.996094 37.046875 -30.695312 L 37.097656 -36.496094 C 32.746094 -35.695312 27.746094 -35.296875 23.097656 -35.046875 C 23.699219 -37.046875 24.046875 -38.746094 24.296875 -39.945312 L 17.796875 -40.496094 C 17.75 -39.097656 17.398438 -37.097656 16.796875 -34.847656 L 14.398438 -34.847656 C 11.898438 -34.847656 8.199219 -34.996094 5.699219 -35.394531 L 5.699219 -29.597656 C 8.398438 -29.347656 12.046875 -29.246094 14.046875 -29.246094 L 14.648438 -29.246094 C 12.449219 -24.847656 8.949219 -20.449219 3.75 -15.648438 L 9.050781 -11.699219 C 10.75 -13.847656 12.148438 -15.648438 13.648438 -17.148438 C 15.546875 -18.949219 18.597656 -20.546875 21.398438 -20.546875 C 22.746094 -20.546875 24.046875 -20.097656 24.847656 -18.847656 C 19.199219 -15.949219 13.199219 -11.949219 13.199219 -5.648438 C 13.199219 0.75 19.046875 2.601562 26.796875 2.601562 C 31.445312 2.601562 37.496094 2.199219 40.796875 1.800781 L 40.996094 -4.648438 C 36.644531 -3.75 31.148438 -3.199219 26.949219 -3.199219 C 22.097656 -3.199219 19.746094 -3.949219 19.746094 -6.699219 C 19.746094 -9.148438 21.746094 -11.097656 25.398438 -13.097656 C 25.347656 -10.949219 25.296875 -8.648438 25.199219 -7.199219 Z M 31.148438 -7.199219 "/></g></g></g><g fill="#000000" fill-opacity="1"><g transform="translate(192.804368, 524.499838)"><g><path d="M 47.496094 -11.75 L 38.144531 -11.75 C 38.394531 -13.699219 38.597656 -15.898438 38.796875 -18.398438 C 38.894531 -19.199219 38.996094 -20.898438 38.996094 -20.898438 L 17.796875 -20.898438 C 18.097656 -22.246094 18.347656 -23.699219 18.648438 -25.148438 L 38.046875 -25.148438 L 38.046875 -30.246094 L 19.648438 -30.246094 C 19.898438 -31.597656 20.148438 -32.945312 20.347656 -34.195312 L 16.546875 -34.546875 L 40.597656 -34.546875 L 40.597656 -27.945312 L 46.796875 -27.945312 L 46.796875 -40.046875 L 3.398438 -40.046875 L 3.398438 -27.945312 L 9.300781 -27.945312 L 9.300781 -34.546875 L 14.347656 -34.546875 C 13.296875 -28.148438 11.699219 -19.847656 10.25 -14.699219 L 16.296875 -14.25 L 16.648438 -15.699219 L 32.597656 -15.699219 C 32.496094 -14.25 32.347656 -12.949219 32.195312 -11.75 L 2.601562 -11.75 L 2.601562 -6.300781 L 31.398438 -6.300781 C 30.847656 -3.699219 30.195312 -2.25 29.496094 -1.648438 C 28.847656 -1.101562 28.148438 -1 27.097656 -1 C 25.699219 -1 22.398438 -1.050781 19.046875 -1.351562 C 20.199219 0.25 20.996094 2.601562 21.097656 4.300781 C 24.296875 4.398438 27.496094 4.449219 29.296875 4.25 C 31.546875 4.050781 32.996094 3.601562 34.445312 2.101562 C 35.695312 0.800781 36.644531 -1.699219 37.394531 -6.300781 L 47.496094 -6.300781 Z M 47.496094 -11.75 "/></g></g></g><g fill="#000000" fill-opacity="1"><g transform="translate(242.796633, 524.499838)"><g><path d="M 34.695312 -26.097656 L 15.847656 -26.097656 L 15.847656 -28.195312 L 34.695312 -28.195312 Z M 34.695312 -20.597656 L 15.847656 -20.597656 L 15.847656 -22.699219 L 34.695312 -22.699219 Z M 34.695312 -15.046875 L 15.847656 -15.046875 L 15.847656 -17.296875 L 34.695312 -17.296875 Z M 21.796875 -31.695312 L 10.097656 -31.695312 L 10.097656 -11.597656 L 40.746094 -11.597656 L 40.746094 -31.695312 L 27.996094 -31.695312 L 27.996094 -33.796875 L 46.195312 -33.796875 L 46.195312 -38.746094 L 27.996094 -38.746094 L 27.996094 -42.347656 L 21.796875 -42.347656 L 21.796875 -38.746094 L 4.300781 -38.746094 L 4.300781 -33.796875 L 21.796875 -33.796875 Z M 47.246094 -4.75 L 47.246094 -9.648438 L 2.800781 -9.648438 L 2.800781 -4.75 L 16.398438 -4.75 C 13.25 -2.851562 7.449219 -0.699219 2.601562 0.351562 C 3.851562 1.5 5.648438 3.25 6.597656 4.449219 C 11.550781 3.25 17.75 0.851562 21.699219 -1.5 L 17.046875 -4.75 L 31.847656 -4.75 L 28.445312 -1.5 C 33.847656 0.398438 39.445312 2.75 42.746094 4.398438 L 47.84375 0.449219 C 44.445312 -1 38.894531 -3.050781 33.898438 -4.75 Z M 47.246094 -4.75 "/></g></g></g><g fill="#000000" fill-opacity="1"><g transform="translate(292.788899, 524.499838)"><g><path d="M 37.046875 -34.847656 C 35.796875 -33.796875 34.347656 -32.945312 32.496094 -31.847656 C 30.148438 -30.546875 25.847656 -28.347656 21.796875 -25.996094 C 19.796875 -29.796875 17.5 -34.546875 15.597656 -39.695312 L 9.347656 -37.144531 C 11.597656 -31.898438 14 -26.648438 16.296875 -22.398438 C 11.550781 -18.898438 8.097656 -14.847656 8.097656 -9.347656 C 8.097656 -0.851562 15.546875 1.898438 25.398438 1.898438 C 31.847656 1.898438 37.097656 1.398438 41.296875 0.699219 L 41.394531 -6.449219 C 36.996094 -5.449219 30.296875 -4.648438 25.199219 -4.648438 C 18.347656 -4.648438 14.898438 -6.550781 14.898438 -10.097656 C 14.898438 -13.546875 17.648438 -16.398438 21.796875 -19.097656 C 26.296875 -21.996094 32.496094 -24.898438 35.597656 -26.449219 C 37.394531 -27.347656 38.996094 -28.195312 40.496094 -29.097656 Z M 37.046875 -34.847656 "/></g></g></g><g fill="#000000" fill-opacity="1"><g transform="translate(342.781164, 524.499838)"><g><path d="M 2.050781 -22.699219 L 2.050781 -16.25 L 48.046875 -16.25 L 48.046875 -22.699219 Z M 2.050781 -22.699219 "/></g></g></g><g fill="#000000" fill-opacity="1"><g transform="translate(392.773429, 524.499838)"><g><path d="M 3.351562 -13.097656 C 2.949219 -8.898438 2.25 -4.449219 0.800781 -1.5 C 2 -1.050781 4.148438 -0.101562 5.148438 0.601562 C 6.550781 -2.601562 7.648438 -7.550781 8.097656 -12.296875 Z M 14.347656 -12.046875 C 15.449219 -9.199219 16.398438 -5.5 16.648438 -3.050781 L 21.046875 -4.5 C 20.746094 -6.898438 19.699219 -10.550781 18.5 -13.296875 Z M 39.796875 -11.050781 L 29.648438 -11.050781 L 29.648438 -14.597656 L 39.796875 -14.597656 Z M 29.648438 -2.601562 L 29.648438 -6.347656 L 39.796875 -6.347656 L 39.796875 -2.601562 Z M 33.546875 -32.398438 L 38.296875 -32.398438 C 37.347656 -30.945312 36.296875 -29.496094 35.195312 -28.148438 L 33.546875 -28.148438 Z M 48.246094 -23.097656 L 48.246094 -28.148438 L 41.847656 -28.148438 C 44.296875 -31.648438 46.246094 -35.496094 47.84375 -39.695312 L 42.644531 -41.394531 C 41.796875 -38.996094 40.746094 -36.644531 39.496094 -34.445312 L 39.496094 -37.347656 L 33.546875 -37.347656 L 33.546875 -42.296875 L 28.046875 -42.296875 L 28.046875 -37.347656 L 21.199219 -37.347656 L 21.199219 -32.398438 L 28.046875 -32.398438 L 28.046875 -28.148438 L 19.597656 -28.148438 L 19.597656 -23.097656 L 30.347656 -23.097656 C 27.648438 -20.699219 24.648438 -18.597656 21.347656 -16.796875 C 20.546875 -19.546875 18.847656 -23.296875 17.148438 -26.246094 L 12.949219 -24.496094 C 13.5 -23.496094 14 -22.398438 14.5 -21.296875 L 10.199219 -21.046875 C 13.347656 -25.046875 16.75 -29.996094 19.5 -34.195312 L 14.648438 -36.445312 C 13.5 -33.996094 11.898438 -31.148438 10.148438 -28.347656 C 9.699219 -28.945312 9.148438 -29.648438 8.550781 -30.296875 C 10.398438 -33.097656 12.449219 -37.046875 14.199219 -40.496094 L 9.050781 -42.296875 C 8.25 -39.746094 6.847656 -36.394531 5.449219 -33.648438 C 5.050781 -33.996094 4.648438 -34.347656 4.300781 -34.695312 L 1.398438 -30.695312 C 3.398438 -28.648438 5.699219 -25.949219 7.097656 -23.699219 C 6.347656 -22.648438 5.597656 -21.648438 4.847656 -20.746094 L 1.25 -20.546875 L 1.851562 -15.398438 L 8.800781 -15.949219 L 8.800781 4.347656 L 13.898438 4.347656 L 13.898438 -16.347656 L 16.347656 -16.546875 C 16.699219 -15.5 16.949219 -14.546875 17.097656 -13.75 L 18.597656 -14.449219 C 19.699219 -13.398438 20.949219 -11.898438 21.496094 -10.898438 C 22.449219 -11.347656 23.347656 -11.847656 24.246094 -12.347656 L 24.246094 4.300781 L 29.648438 4.300781 L 29.648438 2.300781 L 39.796875 2.300781 L 39.796875 4.347656 L 45.546875 4.347656 L 45.546875 -19.449219 L 34.246094 -19.449219 C 35.546875 -20.597656 36.746094 -21.847656 37.894531 -23.097656 Z M 48.246094 -23.097656 "/></g></g></g><g fill="#000000" fill-opacity="1"><g transform="translate(442.765706, 524.499838)"><g><path d="M 22.398438 -34.898438 L 22.449219 -28.496094 C 28.648438 -27.945312 37.597656 -27.945312 43.695312 -28.496094 L 43.695312 -34.898438 C 38.347656 -34.246094 28.496094 -34.046875 22.398438 -34.898438 Z M 20.699219 -14.25 C 20.199219 -11.949219 19.847656 -9.847656 19.847656 -7.800781 C 19.847656 -2.75 23.898438 0.351562 32.445312 0.351562 C 38.046875 0.351562 42.046875 -0.0507812 45.246094 -0.648438 L 45.09375 -7.347656 C 40.796875 -6.449219 37.144531 -6.050781 32.695312 -6.050781 C 27.695312 -6.050781 25.796875 -7.347656 25.796875 -9.550781 C 25.796875 -10.898438 25.996094 -12.097656 26.398438 -13.699219 Z M 7.847656 -38.746094 C 7.847656 -37.195312 7.550781 -35.296875 7.347656 -33.898438 C 6.800781 -30.097656 5.300781 -21.746094 5.300781 -14.296875 C 5.300781 -7.597656 6.25 -1.550781 7.25 1.898438 L 12.949219 1.5 C 12.898438 0.800781 12.898438 0 12.847656 -0.550781 C 12.847656 -1.050781 13 -2.148438 13.148438 -2.851562 C 13.648438 -5.5 15.296875 -10.847656 16.699219 -15 L 13.597656 -17.398438 C 12.898438 -15.796875 12.097656 -14.148438 11.398438 -12.398438 C 11.25 -13.449219 11.199219 -14.648438 11.199219 -15.597656 C 11.199219 -20.546875 12.898438 -30.445312 13.597656 -33.746094 C 13.796875 -34.648438 14.398438 -37.144531 14.796875 -38.144531 Z M 7.847656 -38.746094 "/></g></g></g><g fill="#000000" fill-opacity="1"><g transform="translate(492.757982, 524.499838)"><g><path d="M 18.898438 -15.648438 L 18.296875 -20.796875 L 14.148438 -19.796875 L 14.148438 -27.597656 L 19.097656 -27.597656 L 19.097656 -33.097656 L 14.148438 -33.097656 L 14.148438 -42.296875 L 8.300781 -42.296875 L 8.300781 -33.097656 L 2 -33.097656 L 2 -27.597656 L 8.300781 -27.597656 L 8.300781 -18.347656 C 5.597656 -17.699219 3.199219 -17.148438 1.25 -16.796875 L 2.851562 -10.597656 C 4.550781 -11.097656 6.398438 -11.648438 8.300781 -12.25 L 8.300781 -2.050781 C 8.300781 -1.351562 8.050781 -1.148438 7.398438 -1.101562 C 6.75 -1.101562 4.648438 -1.101562 2.75 -1.199219 C 3.449219 0.351562 4.199219 2.75 4.398438 4.25 C 7.898438 4.25 10.300781 4.097656 12 3.199219 C 13.597656 2.300781 14.148438 0.851562 14.148438 -2.101562 L 14.148438 -14.097656 Z M 37.746094 -15.699219 C 36.445312 -13.046875 34.695312 -10.75 32.546875 -8.800781 C 30.398438 -10.800781 28.648438 -13.097656 27.347656 -15.699219 Z M 41.695312 -21.246094 L 40.597656 -21.046875 L 21.746094 -21.046875 C 27.398438 -24.648438 28.796875 -30.296875 28.847656 -34.996094 L 35.246094 -34.996094 L 35.246094 -29.597656 C 35.246094 -24.699219 36.496094 -23.246094 40.597656 -23.246094 L 43.746094 -23.246094 C 47.195312 -23.246094 48.445312 -24.949219 48.945312 -31.097656 C 47.445312 -31.445312 45.195312 -32.347656 44.09375 -33.195312 C 43.996094 -28.847656 43.84375 -28.148438 43.09375 -28.148438 L 41.695312 -28.148438 C 41.097656 -28.148438 40.945312 -28.296875 40.945312 -29.648438 L 40.945312 -40.496094 L 23.246094 -40.496094 L 23.246094 -35.394531 C 23.246094 -32.097656 22.648438 -28.195312 17.699219 -25.347656 C 18.796875 -24.496094 20.898438 -22.246094 21.597656 -21.046875 L 20.597656 -21.046875 L 20.597656 -15.699219 L 26.046875 -15.699219 L 21.847656 -14.398438 C 23.496094 -10.949219 25.449219 -7.898438 27.847656 -5.347656 C 24.449219 -3.300781 20.449219 -1.898438 16.097656 -1.050781 C 17.199219 0.300781 18.546875 2.800781 19.148438 4.398438 C 24.148438 3.148438 28.648438 1.300781 32.546875 -1.25 C 36.046875 1.25 40.246094 3.148438 45.144531 4.300781 C 46.046875 2.699219 47.695312 0.199219 49.046875 -1.101562 C 44.644531 -1.949219 40.746094 -3.351562 37.445312 -5.25 C 41.144531 -8.898438 43.894531 -13.648438 45.59375 -19.699219 Z M 41.695312 -21.246094 "/></g></g></g><g fill="#000000" fill-opacity="1"><g transform="translate(542.750259, 524.499838)"><g><path d="M 35.695312 -8.050781 L 35.695312 -4.597656 L 31.546875 -4.597656 L 31.546875 -8.050781 Z M 39.796875 -1.050781 L 39.796875 -11.699219 L 27.496094 -11.699219 L 27.496094 1.300781 L 31.546875 1.300781 L 31.546875 -1.050781 Z M 47.34375 -18.25 L 20.046875 -18.25 L 20.046875 -15.597656 C 18.847656 -17.097656 15.546875 -20.898438 14.199219 -22.148438 L 14.199219 -22.796875 L 19.648438 -22.796875 L 19.648438 -28.246094 L 14.199219 -28.246094 L 14.199219 -35.347656 C 16.148438 -35.847656 18 -36.347656 19.699219 -36.945312 L 19.699219 -32.898438 L 47.296875 -32.898438 L 47.296875 -37.546875 L 36.546875 -37.546875 L 36.546875 -42.296875 L 30.796875 -42.296875 L 30.796875 -37.546875 L 19.996094 -37.546875 L 16.148438 -41.644531 C 12.648438 -40.097656 6.898438 -38.796875 1.699219 -37.996094 C 2.398438 -36.796875 3.101562 -34.746094 3.351562 -33.496094 C 5 -33.695312 6.75 -33.945312 8.5 -34.246094 L 8.5 -28.246094 L 2 -28.246094 L 2 -22.796875 L 7.949219 -22.796875 C 6.300781 -18 3.75 -12.597656 1.199219 -9.347656 C 2.101562 -7.847656 3.398438 -5.347656 3.949219 -3.648438 C 5.597656 -5.898438 7.148438 -9 8.5 -12.398438 L 8.5 4.347656 L 14.199219 4.347656 L 14.199219 -15.597656 C 15.25 -13.796875 16.296875 -11.949219 16.898438 -10.648438 L 20.046875 -14.898438 L 20.046875 4.398438 L 25.347656 4.398438 L 25.347656 -13.648438 L 41.996094 -13.648438 L 41.996094 -0.851562 C 41.996094 -0.398438 41.847656 -0.25 41.394531 -0.199219 C 40.945312 -0.199219 39.597656 -0.199219 38.296875 -0.25 C 38.894531 1.050781 39.496094 2.898438 39.695312 4.300781 C 42.296875 4.300781 44.195312 4.300781 45.59375 3.5 C 47.046875 2.699219 47.34375 1.5 47.34375 -0.800781 Z M 28.546875 -27.148438 L 38.945312 -27.148438 L 38.945312 -24.097656 L 28.546875 -24.097656 Z M 44.246094 -20.097656 L 44.246094 -31.148438 L 23.546875 -31.148438 L 23.546875 -20.097656 Z M 44.246094 -20.097656 "/></g></g></g><g fill="#000000" fill-opacity="1"><g transform="translate(592.742535, 524.499838)"><g><path d="M 22.449219 -12.847656 L 27.597656 -12.847656 L 29.347656 -29.945312 L 29.597656 -37.394531 L 20.449219 -37.394531 L 20.648438 -29.945312 Z M 24.996094 0.449219 C 27.945312 0.449219 30.195312 -1.550781 30.195312 -4.449219 C 30.195312 -7.300781 27.945312 -9.398438 24.996094 -9.398438 C 22.046875 -9.398438 19.796875 -7.300781 19.796875 -4.449219 C 19.796875 -1.550781 22.046875 0.449219 24.996094 0.449219 Z M 24.996094 0.449219 "/></g></g></g><g fill="#000000" fill-opacity="1"><g transform="translate(192.804368, 594.249835)"><g><path d="M 34.898438 -33.445312 C 33.597656 -32.398438 32.195312 -31.546875 30.347656 -30.496094 C 28.046875 -29.148438 24.546875 -27.398438 20.898438 -25.246094 C 18.898438 -29.046875 16.597656 -33.796875 14.699219 -38.945312 L 8.449219 -36.394531 C 10.699219 -31.148438 13.097656 -25.847656 15.347656 -21.648438 C 10.597656 -18.148438 7.148438 -14.097656 7.148438 -8.648438 C 7.148438 -0.101562 14.597656 2.648438 24.449219 2.648438 C 30.898438 2.648438 36.144531 2.148438 40.347656 1.398438 L 40.445312 -5.699219 C 36.046875 -4.699219 29.347656 -3.898438 24.296875 -3.898438 C 17.398438 -3.898438 14 -5.800781 14 -9.347656 C 14 -12.796875 16.75 -15.648438 20.847656 -18.347656 C 25.398438 -21.296875 30.046875 -23.398438 33.097656 -24.996094 C 34.945312 -25.898438 36.496094 -26.746094 37.996094 -27.648438 Z M 34.796875 -38.246094 C 36.144531 -36.296875 37.695312 -33.347656 38.695312 -31.296875 L 42.746094 -32.996094 C 41.796875 -34.847656 39.996094 -38.046875 38.746094 -39.847656 Z M 40.695312 -40.496094 C 42.097656 -38.597656 43.695312 -35.695312 44.746094 -33.597656 L 48.695312 -35.296875 C 47.84375 -37.046875 45.996094 -40.246094 44.695312 -42.144531 Z M 40.695312 -40.496094 "/></g></g></g><g fill="#000000" fill-opacity="1"><g transform="translate(242.796633, 594.249835)"><g><path d="M 11 -29.648438 C 15.046875 -29.347656 19.347656 -29.097656 24.546875 -29.097656 C 29.246094 -29.097656 35.394531 -29.445312 38.847656 -29.695312 L 38.847656 -36.347656 C 35.046875 -35.945312 29.398438 -35.644531 24.496094 -35.644531 C 19.296875 -35.644531 14.699219 -35.847656 11 -36.246094 Z M 8.699219 -15.847656 C 8.300781 -14 7.699219 -11.597656 7.699219 -8.699219 C 7.699219 -1.898438 13.398438 1.898438 24.746094 1.898438 C 31.695312 1.898438 37.644531 1.25 41.945312 0.199219 L 41.894531 -6.75 C 37.496094 -5.550781 31.195312 -4.800781 24.496094 -4.800781 C 17.347656 -4.800781 14.347656 -7.097656 14.347656 -10.25 C 14.347656 -11.898438 14.75 -13.449219 15.199219 -15.25 Z M 8.699219 -15.847656 "/></g></g></g><g fill="#000000" fill-opacity="1"><g transform="translate(292.788899, 594.249835)"><g><path d="M 36.996094 -25.996094 L 33.296875 -24.449219 C 34.898438 -22.199219 35.945312 -20.246094 37.195312 -17.5 L 40.996094 -19.199219 C 40.046875 -21.199219 38.195312 -24.199219 36.996094 -25.996094 Z M 42.597656 -28.296875 L 38.945312 -26.597656 C 40.546875 -24.398438 41.695312 -22.546875 43.046875 -19.847656 L 46.796875 -21.648438 C 45.746094 -23.597656 43.84375 -26.546875 42.597656 -28.296875 Z M 3.648438 -34.195312 L 4.300781 -27.398438 C 10.050781 -28.648438 20.449219 -29.746094 24.746094 -30.195312 C 21.398438 -27.695312 17.449219 -22.097656 17.449219 -14.949219 C 17.449219 -4.199219 27.246094 1.398438 37.644531 2.050781 L 39.945312 -4.800781 C 31.546875 -5.199219 23.949219 -8.148438 23.949219 -16.296875 C 23.949219 -22.148438 28.398438 -28.546875 34.398438 -30.148438 C 37.046875 -30.746094 41.296875 -30.796875 43.945312 -30.796875 L 43.894531 -37.195312 C 40.394531 -37.046875 34.996094 -36.746094 29.898438 -36.347656 C 20.847656 -35.546875 12.648438 -34.796875 8.5 -34.445312 C 7.550781 -34.347656 5.648438 -34.246094 3.648438 -34.195312 Z M 3.648438 -34.195312 "/></g></g></g><g fill="#000000" fill-opacity="1"><g transform="translate(342.781164, 594.249835)"><g><path d="M 12.449219 -42.394531 C 10 -35.347656 5.699219 -28.347656 1.300781 -23.949219 C 2.351562 -22.449219 3.949219 -19.199219 4.5 -17.75 C 5.648438 -19 6.847656 -20.398438 8 -21.949219 L 8 4.199219 L 13.949219 4.199219 L 13.949219 -31.445312 C 15.546875 -34.496094 16.898438 -37.546875 18.046875 -40.597656 Z M 29.296875 -21.796875 L 29.296875 -14 L 23.746094 -14 L 23.746094 -21.796875 Z M 34.847656 -8.847656 L 34.847656 -26.949219 L 18.199219 -26.949219 L 18.199219 -5.597656 L 23.746094 -5.597656 L 23.746094 -8.847656 Z M 48.394531 -38.046875 L 17.597656 -38.046875 L 17.597656 -32.347656 L 39.394531 -32.347656 L 39.394531 -2.800781 C 39.394531 -1.851562 39.097656 -1.550781 38.097656 -1.550781 C 37.097656 -1.550781 33.597656 -1.550781 30.347656 -1.699219 C 31.195312 0.0507812 32.148438 2.648438 32.347656 4.398438 C 36.996094 4.398438 40.394531 4.199219 42.496094 3.300781 C 44.644531 2.351562 45.394531 0.75 45.394531 -2.699219 L 45.394531 -32.347656 L 48.394531 -32.347656 Z M 48.394531 -38.046875 "/></g></g></g><g fill="#000000" fill-opacity="1"><g transform="translate(392.773429, 594.249835)"><g><path d="M 31.148438 -7.199219 C 31.097656 -9.449219 30.996094 -13.097656 30.945312 -15.847656 C 33.996094 -17.25 36.796875 -18.347656 38.996094 -19.199219 C 40.695312 -19.898438 43.296875 -20.898438 44.894531 -21.296875 L 42.394531 -27.046875 C 40.597656 -26.199219 38.847656 -25.347656 36.945312 -24.496094 C 34.898438 -23.597656 32.796875 -22.746094 30.246094 -21.546875 C 29.148438 -24.097656 26.648438 -25.398438 23.648438 -25.398438 C 21.996094 -25.398438 19.347656 -25.046875 18.046875 -24.398438 C 19.097656 -25.847656 20.097656 -27.648438 20.898438 -29.398438 C 26.199219 -29.597656 32.296875 -29.996094 37.046875 -30.695312 L 37.097656 -36.496094 C 32.746094 -35.695312 27.746094 -35.296875 23.097656 -35.046875 C 23.699219 -37.046875 24.046875 -38.746094 24.296875 -39.945312 L 17.796875 -40.496094 C 17.75 -39.097656 17.398438 -37.097656 16.796875 -34.847656 L 14.398438 -34.847656 C 11.898438 -34.847656 8.199219 -34.996094 5.699219 -35.394531 L 5.699219 -29.597656 C 8.398438 -29.347656 12.046875 -29.246094 14.046875 -29.246094 L 14.648438 -29.246094 C 12.449219 -24.847656 8.949219 -20.449219 3.75 -15.648438 L 9.050781 -11.699219 C 10.75 -13.847656 12.148438 -15.648438 13.648438 -17.148438 C 15.546875 -18.949219 18.597656 -20.546875 21.398438 -20.546875 C 22.746094 -20.546875 24.046875 -20.097656 24.847656 -18.847656 C 19.199219 -15.949219 13.199219 -11.949219 13.199219 -5.648438 C 13.199219 0.75 19.046875 2.601562 26.796875 2.601562 C 31.445312 2.601562 37.496094 2.199219 40.796875 1.800781 L 40.996094 -4.648438 C 36.644531 -3.75 31.148438 -3.199219 26.949219 -3.199219 C 22.097656 -3.199219 19.746094 -3.949219 19.746094 -6.699219 C 19.746094 -9.148438 21.746094 -11.097656 25.398438 -13.097656 C 25.347656 -10.949219 25.296875 -8.648438 25.199219 -7.199219 Z M 31.148438 -7.199219 "/></g></g></g><g fill="#000000" fill-opacity="1"><g transform="translate(442.765706, 594.249835)"><g><path d="M 37.246094 -9.800781 C 35.347656 -8.550781 33.246094 -7.347656 31.398438 -6.347656 C 29.996094 -7.398438 28.796875 -8.5 27.796875 -9.800781 Z M 16.046875 -17.199219 L 33.746094 -17.199219 L 33.746094 -14.449219 L 16.046875 -14.449219 Z M 27.945312 -28.648438 L 27.945312 -32.496094 L 21.847656 -32.496094 L 21.847656 -28.648438 L 14.398438 -28.648438 C 18.648438 -31.398438 22.347656 -34.445312 24.796875 -37.296875 C 27.398438 -34.398438 31.296875 -31.296875 35.546875 -28.648438 Z M 16.046875 -24.046875 L 33.746094 -24.046875 L 33.746094 -21.449219 L 16.046875 -21.449219 Z M 41.246094 -12.597656 C 40.796875 -12.25 40.296875 -11.847656 39.746094 -11.5 L 39.746094 -26.148438 C 41.546875 -25.199219 43.34375 -24.296875 45.09375 -23.546875 C 46.09375 -25.296875 47.445312 -27.398438 48.84375 -28.847656 C 41.046875 -31.347656 33.097656 -36.246094 27.496094 -42.496094 L 21.546875 -42.496094 C 17.597656 -37.347656 9.5 -31.546875 1.300781 -28.296875 C 2.5 -27.097656 4 -24.796875 4.75 -23.398438 C 6.550781 -24.199219 8.398438 -25.097656 10.148438 -26.097656 L 10.148438 -2 C 8.25 -1.851562 6.5 -1.699219 4.949219 -1.601562 L 5.75 3.851562 C 11.5 3.351562 19.347656 2.648438 26.746094 1.898438 L 26.648438 -3.351562 L 16.046875 -2.449219 L 16.046875 -9.800781 L 21.796875 -9.800781 C 26.199219 -1.949219 33.398438 2.550781 44.296875 4.347656 C 45.046875 2.75 46.644531 0.398438 47.84375 -0.851562 C 43.394531 -1.351562 39.546875 -2.300781 36.246094 -3.648438 C 39.347656 -5.199219 42.695312 -7.148438 45.546875 -9.050781 Z M 41.246094 -12.597656 "/></g></g></g><g fill="#000000" fill-opacity="1"><g transform="translate(492.757982, 594.249835)"><g><path d="M 35.445312 -34.445312 L 31.097656 -32.648438 C 32.945312 -30.046875 34.195312 -27.648438 35.695312 -24.496094 L 40.195312 -26.449219 C 39.046875 -28.746094 36.847656 -32.347656 35.445312 -34.445312 Z M 42.144531 -37.195312 L 37.847656 -35.195312 C 39.695312 -32.695312 41.046875 -30.445312 42.695312 -27.296875 L 47.046875 -29.398438 C 45.894531 -31.597656 43.644531 -35.195312 42.144531 -37.195312 Z M 1.699219 -14.148438 L 7.648438 -7.949219 C 8.550781 -9.25 9.648438 -11.25 10.800781 -12.847656 C 12.898438 -15.648438 16.5 -20.496094 18.449219 -22.996094 C 19.898438 -24.847656 20.847656 -25.046875 22.597656 -23.148438 C 24.949219 -20.546875 28.648438 -15.847656 31.695312 -12.25 C 34.847656 -8.5 38.945312 -3.601562 42.546875 -0.25 L 47.695312 -6.097656 C 42.996094 -10.300781 38.796875 -14.75 35.597656 -18.199219 C 32.695312 -21.398438 28.695312 -26.496094 25.347656 -29.796875 C 21.746094 -33.296875 18.5 -32.945312 15.046875 -29.046875 C 12 -25.449219 8.148438 -20.347656 5.898438 -18 C 4.398438 -16.398438 3.199219 -15.296875 1.699219 -14.148438 Z M 1.699219 -14.148438 "/></g></g></g><g fill="#000000" fill-opacity="1"><g transform="translate(542.750259, 594.249835)"><g><path d="M 26.648438 -18.949219 C 29.746094 -19.347656 32.746094 -19.5 36.195312 -19.5 C 39.195312 -19.5 42.246094 -19.199219 44.695312 -18.898438 L 44.84375 -24.847656 C 41.945312 -25.148438 38.945312 -25.296875 36.144531 -25.296875 C 32.945312 -25.296875 29.398438 -25.046875 26.648438 -24.796875 Z M 30.546875 -34.847656 C 27.847656 -34.195312 25.046875 -33.648438 22.246094 -33.195312 L 22.648438 -35.097656 C 22.898438 -36.195312 23.347656 -38.394531 23.699219 -39.746094 L 16.148438 -40.347656 C 16.25 -39.195312 16.199219 -37.195312 15.949219 -35.347656 C 15.847656 -34.546875 15.699219 -33.597656 15.5 -32.496094 C 14 -32.398438 12.546875 -32.347656 11.097656 -32.347656 C 9.050781 -32.347656 7.398438 -32.445312 4.847656 -32.746094 L 5 -26.546875 C 6.75 -26.449219 8.597656 -26.347656 11 -26.347656 C 12 -26.347656 13.097656 -26.398438 14.25 -26.449219 C 13.898438 -25.046875 13.546875 -23.648438 13.199219 -22.347656 C 11.347656 -15.398438 7.597656 -5 4.648438 -0.0507812 L 11.597656 2.25 C 14.296875 -3.550781 17.648438 -13.699219 19.449219 -20.648438 C 19.996094 -22.648438 20.496094 -24.847656 20.949219 -26.996094 C 24.246094 -27.398438 27.597656 -27.945312 30.546875 -28.597656 Z M 23.597656 -12.898438 C 23.199219 -10.949219 22.746094 -8.550781 22.746094 -6.300781 C 22.746094 -1.300781 26.996094 1.601562 35.347656 1.601562 C 39.296875 1.601562 42.644531 1.25 45.445312 0.898438 L 45.695312 -5.449219 C 42.144531 -4.800781 38.695312 -4.449219 35.394531 -4.449219 C 30.097656 -4.449219 28.847656 -6.050781 28.847656 -8.199219 C 28.847656 -9.300781 29.148438 -10.949219 29.546875 -12.347656 Z M 23.597656 -12.898438 "/></g></g></g><g fill="#000000" fill-opacity="1"><g transform="translate(592.742535, 594.249835)"><g><path d="M 13.648438 -9 C 11.796875 -9 9.800781 -11.449219 9.800781 -16.449219 C 9.800781 -21.898438 14.148438 -29.097656 22.347656 -30.796875 C 21.746094 -26.699219 20.847656 -22.449219 19.699219 -18.796875 C 17.699219 -12.097656 15.699219 -9 13.648438 -9 Z M 27.246094 2.050781 C 39.746094 0.148438 46.144531 -7.25 46.144531 -17.648438 C 46.144531 -28.445312 38.394531 -36.996094 26.148438 -36.996094 C 13.296875 -36.996094 3.351562 -27.199219 3.351562 -15.796875 C 3.351562 -7.449219 8 -1.398438 13.449219 -1.398438 C 18.847656 -1.398438 23.148438 -7.5 26.097656 -17.5 C 27.496094 -22.148438 28.347656 -26.746094 29.046875 -30.945312 C 35.695312 -29.796875 39.394531 -24.699219 39.394531 -17.847656 C 39.394531 -10.648438 34.496094 -6.097656 28.148438 -4.597656 C 26.847656 -4.300781 25.449219 -4.050781 23.546875 -3.800781 Z M 27.246094 2.050781 "/></g></g></g><g fill="#000000" fill-opacity="1"><g transform="translate(642.734812, 594.249835)"><g><path d="M 15.75 -40.097656 C 15.796875 -36.996094 15.398438 -33.398438 14.699219 -29.597656 C 12.199219 -29.398438 9.847656 -29.246094 8.300781 -29.195312 C 6.5 -29.148438 4.847656 -29.046875 3.050781 -29.195312 L 3.601562 -22.496094 C 5.148438 -22.746094 7.699219 -23.097656 9.097656 -23.246094 C 10.050781 -23.398438 11.597656 -23.597656 13.347656 -23.796875 C 11.550781 -17.046875 8.199219 -7.148438 3.351562 -0.648438 L 9.847656 1.949219 C 14.398438 -5.347656 18 -17 19.898438 -24.496094 C 21.296875 -24.597656 22.496094 -24.699219 23.296875 -24.699219 C 26.449219 -24.699219 28.148438 -24.148438 28.148438 -20.199219 C 28.148438 -15.296875 27.496094 -9.398438 26.097656 -6.648438 C 25.347656 -5 24.046875 -4.5 22.398438 -4.5 C 21.097656 -4.5 18.25 -5 16.347656 -5.550781 L 17.449219 1 C 19.097656 1.398438 21.449219 1.699219 23.347656 1.699219 C 27.097656 1.699219 29.847656 0.601562 31.496094 -2.851562 C 33.597656 -7.148438 34.296875 -15.046875 34.296875 -20.898438 C 34.296875 -27.996094 30.597656 -30.347656 25.347656 -30.347656 C 24.347656 -30.347656 22.847656 -30.246094 21.199219 -30.148438 C 21.546875 -31.945312 21.949219 -33.746094 22.199219 -35.246094 C 22.449219 -36.496094 22.796875 -38.046875 23.097656 -39.347656 Z M 34.195312 -32.195312 C 37.746094 -27.796875 41.296875 -18.847656 42.597656 -13.347656 L 48.84375 -16.296875 C 47.34375 -20.996094 43.195312 -30.445312 40.195312 -34.695312 Z M 34.195312 -32.195312 "/></g></g></g><g fill="#000000" fill-opacity="1"><g transform="translate(192.804368, 663.999831)"><g><path d="M 39.246094 -27.746094 C 38.695312 -23.398438 37.847656 -19.5 36.597656 -16.097656 C 35.246094 -19.699219 34.246094 -23.597656 33.546875 -27.746094 Z M 20.148438 -21.847656 L 17.25 -21.847656 C 18 -22.648438 18.699219 -23.496094 19.398438 -24.347656 L 25.347656 -24.347656 C 24.597656 -22.996094 23.796875 -21.796875 22.949219 -20.746094 L 21.199219 -22.148438 Z M 14.75 -32.796875 L 18.648438 -32.796875 C 17.949219 -31.648438 17.199219 -30.546875 16.398438 -29.445312 L 14.75 -29.445312 Z M 48.34375 -27.746094 L 48.34375 -33.246094 L 35.046875 -33.246094 C 35.746094 -35.894531 36.347656 -38.644531 36.847656 -41.445312 L 30.796875 -42.347656 C 29.898438 -36.445312 28.398438 -30.695312 26.199219 -26.046875 L 26.199219 -29.445312 L 23.046875 -29.445312 C 25.046875 -32.597656 26.796875 -35.945312 28.246094 -39.597656 L 22.746094 -41.144531 C 21.847656 -38.796875 20.796875 -36.496094 19.597656 -34.398438 L 19.597656 -37.796875 L 14.75 -37.796875 L 14.75 -42.347656 L 9.199219 -42.347656 L 9.199219 -37.796875 L 3.550781 -37.796875 L 3.550781 -32.796875 L 9.199219 -32.796875 L 9.199219 -29.445312 L 1.898438 -29.445312 L 1.898438 -24.347656 L 11.949219 -24.347656 C 11.050781 -23.496094 10.148438 -22.648438 9.199219 -21.847656 L 6 -21.847656 L 6 -19.449219 C 4.347656 -18.347656 2.601562 -17.296875 0.75 -16.398438 C 1.949219 -15.296875 3.949219 -13 4.75 -11.847656 C 7.5 -13.398438 10.050781 -15.199219 12.5 -17.25 L 16.046875 -17.25 C 15.199219 -16.347656 14.296875 -15.5 13.449219 -14.75 L 11.5 -14.75 L 11.5 -10.847656 C 7.75 -10.550781 4.300781 -10.300781 1.5 -10.097656 L 2.101562 -4.800781 C 4.847656 -5.050781 8.050781 -5.347656 11.5 -5.648438 L 11.5 -1.398438 C 11.5 -0.851562 11.300781 -0.699219 10.648438 -0.699219 C 10.050781 -0.648438 7.847656 -0.648438 5.949219 -0.699219 C 6.648438 0.699219 7.398438 2.800781 7.648438 4.347656 C 10.75 4.347656 13.046875 4.300781 14.847656 3.5 C 16.648438 2.648438 17.097656 1.300781 17.097656 -1.25 L 17.097656 -6.148438 C 20.097656 -6.398438 23.148438 -6.648438 26.148438 -6.949219 L 26.148438 -12.046875 C 23.148438 -11.796875 20.097656 -11.5 17.097656 -11.300781 L 17.097656 -12.296875 C 19.546875 -14.25 22.097656 -16.796875 24.097656 -19.148438 C 25.347656 -18.148438 26.746094 -16.847656 27.398438 -16.097656 C 28.195312 -17.148438 28.945312 -18.296875 29.695312 -19.546875 C 30.597656 -15.847656 31.695312 -12.449219 33.097656 -9.398438 C 30.496094 -5.75 27.046875 -2.949219 22.347656 -0.851562 C 23.449219 0.398438 25.199219 3.148438 25.746094 4.550781 C 30.097656 2.351562 33.546875 -0.351562 36.296875 -3.648438 C 38.546875 -0.351562 41.296875 2.351562 44.746094 4.398438 C 45.644531 2.75 47.496094 0.398438 48.84375 -0.800781 C 45.144531 -2.699219 42.246094 -5.597656 39.996094 -9.148438 C 42.644531 -14.25 44.34375 -20.347656 45.394531 -27.746094 Z M 48.34375 -27.746094 "/></g></g></g><g fill="#000000" fill-opacity="1"><g transform="translate(242.796633, 663.999831)"><g><path d="M 15.699219 -40.394531 L 14.75 -34.648438 C 20.648438 -33.648438 29.898438 -32.597656 35.097656 -32.148438 L 35.894531 -37.996094 C 30.746094 -38.296875 21.246094 -39.347656 15.699219 -40.394531 Z M 37.644531 -24.648438 L 33.996094 -28.796875 C 33.445312 -28.597656 32.097656 -28.296875 31.195312 -28.195312 C 27.097656 -27.648438 15.847656 -27.148438 13.5 -27.148438 C 11.699219 -27.148438 9.898438 -27.199219 8.75 -27.296875 L 9.347656 -20.449219 C 10.398438 -20.648438 11.898438 -20.898438 13.597656 -21.046875 C 16.449219 -21.296875 22.347656 -21.796875 25.847656 -21.949219 C 21.296875 -17.148438 11.199219 -7.097656 8.648438 -4.5 C 7.347656 -3.199219 6.097656 -2.148438 5.199219 -1.449219 L 11.097656 2.648438 C 14.5 -1.699219 18.199219 -5.699219 19.949219 -7.449219 C 21.097656 -8.648438 22.148438 -9.449219 23.148438 -9.449219 C 24.148438 -9.449219 25.199219 -8.800781 25.796875 -7.050781 C 26.148438 -5.800781 26.699219 -3.5 27.246094 -2.050781 C 28.445312 1.199219 30.996094 2.199219 35.695312 2.199219 C 38.246094 2.199219 43.34375 1.898438 45.394531 1.5 L 45.796875 -5 C 43.296875 -4.5 39.894531 -4.148438 36.097656 -4.148438 C 34.148438 -4.148438 33.046875 -4.898438 32.597656 -6.449219 C 32.148438 -7.699219 31.695312 -9.597656 31.246094 -10.949219 C 30.546875 -12.796875 29.648438 -13.847656 28.195312 -14.296875 C 27.695312 -14.546875 26.796875 -14.699219 26.347656 -14.699219 C 27.496094 -15.949219 32.148438 -20.199219 34.398438 -22.148438 C 35.296875 -22.847656 36.347656 -23.746094 37.644531 -24.648438 Z M 37.644531 -24.648438 "/></g></g></g><g fill="#000000" fill-opacity="1"><g transform="translate(292.788899, 663.999831)"><g><path d="M 3.800781 -34.296875 L 4.398438 -27.496094 C 10.148438 -28.746094 20.597656 -29.847656 24.847656 -30.296875 C 21.546875 -27.796875 17.546875 -22.199219 17.546875 -15.046875 C 17.546875 -4.347656 27.347656 1.25 37.746094 1.949219 L 40.046875 -4.898438 C 31.695312 -5.347656 24.046875 -8.25 24.046875 -16.398438 C 24.046875 -22.246094 28.546875 -28.648438 34.496094 -30.246094 C 37.144531 -30.847656 41.394531 -30.898438 44.046875 -30.898438 L 43.996094 -37.296875 C 40.546875 -37.144531 35.097656 -36.847656 29.996094 -36.445312 C 20.949219 -35.644531 12.75 -34.945312 8.648438 -34.546875 C 7.648438 -34.445312 5.75 -34.347656 3.800781 -34.296875 Z M 3.800781 -34.296875 "/></g></g></g><g fill="#000000" fill-opacity="1"><g transform="translate(342.781164, 663.999831)"><g><path d="M 7.25 -39.097656 C 7.25 -37.546875 7 -35.597656 6.800781 -34.246094 C 6.25 -30.445312 4.800781 -21.046875 4.800781 -13.546875 C 4.800781 -6.847656 5.75 -1.199219 6.800781 2.25 L 12.449219 1.851562 C 12.398438 1.148438 12.398438 0.300781 12.398438 -0.199219 C 12.398438 -0.75 12.5 -1.800781 12.648438 -2.5 C 13.25 -5.199219 14.847656 -10.25 16.25 -14.296875 L 13.148438 -16.75 C 12.449219 -15.097656 11.597656 -13.296875 10.898438 -11.550781 C 10.75 -12.546875 10.699219 -13.898438 10.699219 -14.898438 C 10.699219 -19.847656 12.25 -30.796875 13 -34.097656 C 13.199219 -34.996094 13.796875 -37.496094 14.148438 -38.496094 Z M 31.898438 -7.550781 C 31.898438 -5.199219 30.796875 -3.699219 27.847656 -3.699219 C 25.449219 -3.699219 23.898438 -4.648438 23.898438 -6.5 C 23.898438 -8.097656 25.449219 -9.199219 28.246094 -9.199219 C 29.445312 -9.199219 30.648438 -9.050781 31.898438 -8.699219 Z M 45.546875 -26.097656 C 42.945312 -25.796875 40.144531 -25.496094 37.144531 -25.347656 L 37.144531 -31.496094 C 39.847656 -31.648438 42.347656 -31.847656 44.496094 -32.097656 L 44.496094 -37.597656 C 38.394531 -36.746094 29.996094 -36.246094 20.949219 -36.945312 L 20.949219 -31.445312 C 24.597656 -31.246094 28.097656 -31.246094 31.398438 -31.296875 L 31.398438 -25.097656 C 27.796875 -24.996094 24.046875 -25.097656 20.199219 -25.398438 L 20.199219 -19.648438 C 23.996094 -19.449219 27.796875 -19.398438 31.445312 -19.5 C 31.496094 -17.546875 31.597656 -15.546875 31.695312 -13.648438 C 30.648438 -13.796875 29.546875 -13.847656 28.445312 -13.847656 C 21.746094 -13.847656 18.25 -10.398438 18.25 -6.050781 C 18.25 -0.699219 22.898438 1.800781 28.648438 1.800781 C 35.046875 1.800781 37.796875 -1.148438 37.796875 -5.550781 L 37.796875 -6.050781 C 40.144531 -4.597656 42.394531 -2.75 44.445312 -0.648438 L 47.695312 -6.050781 C 45.796875 -7.75 42.394531 -10.550781 37.546875 -12.296875 C 37.394531 -14.546875 37.246094 -17.046875 37.195312 -19.699219 C 40.296875 -19.847656 43.144531 -20.046875 45.546875 -20.347656 Z M 45.546875 -26.097656 "/></g></g></g><g fill="#000000" fill-opacity="1"><g transform="translate(392.773429, 663.999831)"><g><path d="M 10.648438 -39.597656 C 11.097656 -37.644531 11.300781 -35.246094 11.300781 -32.898438 C 11.300781 -28.648438 10.800781 -15.648438 10.800781 -9 C 10.800781 -0.550781 16.046875 3 24.148438 3 C 35.445312 3 42.445312 -3.601562 45.644531 -8.300781 L 41.144531 -13.847656 C 37.597656 -8.449219 32.398438 -3.75 24.199219 -3.75 C 20.398438 -3.75 17.398438 -5.347656 17.398438 -10.347656 C 17.398438 -16.5 17.75 -27.597656 18 -32.898438 C 18.046875 -34.898438 18.296875 -37.394531 18.648438 -39.496094 Z M 10.648438 -39.597656 "/></g></g></g><g fill="#000000" fill-opacity="1"><g transform="translate(442.765706, 663.999831)"><g><path d="M 13.097656 -35.597656 L 5.5 -35.695312 C 5.800781 -34.195312 5.847656 -32.097656 5.847656 -30.695312 C 5.847656 -27.648438 5.949219 -21.898438 6.398438 -17.347656 C 7.800781 -4.050781 12.546875 0.851562 17.949219 0.851562 C 21.949219 0.851562 25.046875 -2.199219 28.347656 -10.800781 L 23.347656 -16.796875 C 22.398438 -12.898438 20.449219 -7.097656 18.097656 -7.097656 C 15 -7.097656 13.5 -11.949219 12.796875 -19.097656 C 12.5 -22.648438 12.449219 -26.398438 12.5 -29.597656 C 12.5 -30.945312 12.75 -33.847656 13.097656 -35.597656 Z M 37.847656 -34.546875 L 31.546875 -32.445312 C 36.945312 -26.347656 39.597656 -14.699219 40.347656 -6.75 L 46.894531 -9.25 C 46.34375 -16.847656 42.546875 -28.796875 37.847656 -34.546875 Z M 37.847656 -34.546875 "/></g></g></g><g fill="#000000" fill-opacity="1"><g transform="translate(492.757982, 663.999831)"><g><path d="M 47.195312 -27.296875 C 44.695312 -29.097656 38.546875 -32.445312 34.996094 -33.996094 L 31.796875 -29.097656 C 35.195312 -27.597656 40.847656 -24.347656 43.695312 -22.046875 Z M 28.546875 -34.898438 C 26.597656 -34.296875 24.296875 -33.746094 21.898438 -33.347656 C 22.597656 -35.996094 23.199219 -38.496094 23.597656 -40.097656 L 16.75 -40.796875 C 16.648438 -38.246094 16.097656 -35.246094 15.398438 -32.496094 C 13.898438 -32.398438 12.398438 -32.347656 10.949219 -32.347656 C 9.148438 -32.347656 6.5 -32.445312 4.347656 -32.695312 L 4.800781 -26.898438 C 6.949219 -26.796875 8.949219 -26.746094 11 -26.746094 C 11.847656 -26.746094 12.699219 -26.746094 13.546875 -26.796875 C 11.347656 -21.449219 7.449219 -14.148438 3.449219 -9.300781 L 9.5 -6.25 C 13.5 -11.898438 17.75 -20.496094 20.097656 -27.445312 C 23.398438 -27.898438 26.449219 -28.546875 28.695312 -29.148438 Z M 29.746094 -7.347656 C 29.746094 -4.699219 28.648438 -2.75 25.296875 -2.75 C 22.597656 -2.75 21.046875 -4 21.046875 -5.847656 C 21.046875 -7.597656 22.898438 -8.800781 25.746094 -8.800781 C 27.148438 -8.800781 28.445312 -8.597656 29.746094 -8.300781 Z M 28.945312 -24.699219 C 29.097656 -21.699219 29.347656 -17.347656 29.496094 -13.648438 C 28.445312 -13.75 27.296875 -13.847656 26.148438 -13.847656 C 19.25 -13.847656 15.199219 -10.097656 15.199219 -5.25 C 15.199219 0.199219 20.046875 2.949219 26.199219 2.949219 C 33.246094 2.949219 35.746094 -0.648438 35.746094 -5.25 L 35.746094 -5.699219 C 38.445312 -4.050781 40.695312 -2.050781 42.445312 -0.449219 L 45.746094 -5.75 C 43.246094 -8 39.746094 -10.5 35.496094 -12.097656 C 35.347656 -14.546875 35.246094 -16.949219 35.195312 -18.347656 C 35.148438 -20.546875 35.046875 -22.597656 35.195312 -24.699219 Z M 28.945312 -24.699219 "/></g></g></g><g fill="#000000" fill-opacity="1"><g transform="translate(542.750259, 663.999831)"><g><path d="M 22.449219 -12.847656 L 27.597656 -12.847656 L 29.347656 -29.945312 L 29.597656 -37.394531 L 20.449219 -37.394531 L 20.648438 -29.945312 Z M 24.996094 0.449219 C 27.945312 0.449219 30.195312 -1.550781 30.195312 -4.449219 C 30.195312 -7.300781 27.945312 -9.398438 24.996094 -9.398438 C 22.046875 -9.398438 19.796875 -7.300781 19.796875 -4.449219 C 19.796875 -1.550781 22.046875 0.449219 24.996094 0.449219 Z M 24.996094 0.449219 "/></g></g></g></svg>