<svg xmlns="http://www.w3.org/2000/svg" xmlns:xlink="http://www.w3.org/1999/xlink" width="1080" zoomAndPan="magnify" viewBox="0 0 810 809.999993" height="1080" preserveAspectRatio="xMidYMid meet" version="1.0"><defs><g/><clipPath id="417a745b31"><path d="M 557.386719 90.40625 L 650 90.40625 L 650 192 L 557.386719 192 Z M 557.386719 90.40625 " clip-rule="nonzero"/></clipPath><clipPath id="938edbeef5"><path d="M 562 104 L 663.886719 104 L 663.886719 196.90625 L 562 196.90625 Z M 562 104 " clip-rule="nonzero"/></clipPath></defs><g clip-path="url(#417a745b31)"><path fill="#ff3131" d="M 648.816406 98.863281 C 649.117188 98.570312 649.347656 98.230469 649.507812 97.84375 C 649.667969 97.457031 649.75 97.054688 649.75 96.636719 C 649.75 96.21875 649.667969 95.816406 649.507812 95.429688 C 649.347656 95.042969 649.117188 94.703125 648.816406 94.410156 L 645.289062 91.246094 C 644.964844 90.976562 644.601562 90.785156 644.203125 90.664062 C 643.800781 90.539062 643.394531 90.5 642.976562 90.542969 C 642.558594 90.585938 642.167969 90.707031 641.800781 90.910156 C 641.433594 91.109375 641.117188 91.375 640.855469 91.699219 L 558.484375 186.671875 C 558.207031 186.96875 557.996094 187.308594 557.847656 187.6875 C 557.703125 188.066406 557.636719 188.460938 557.644531 188.867188 C 557.652344 189.277344 557.738281 189.664062 557.902344 190.039062 C 558.0625 190.414062 558.289062 190.742188 558.582031 191.027344 C 558.894531 191.289062 559.246094 191.480469 559.636719 191.605469 C 560.027344 191.726562 560.425781 191.773438 560.832031 191.738281 C 561.238281 191.707031 561.625 191.597656 561.988281 191.410156 C 562.355469 191.226562 562.667969 190.980469 562.9375 190.671875 Z M 648.816406 98.863281 " fill-opacity="1" fill-rule="nonzero"/></g><g clip-path="url(#938edbeef5)"><path fill="#ff3131" d="M 663.257812 109.214844 L 660.089844 105.703125 C 659.796875 105.402344 659.457031 105.171875 659.070312 105.011719 C 658.683594 104.847656 658.28125 104.769531 657.863281 104.769531 C 657.445312 104.769531 657.042969 104.847656 656.65625 105.011719 C 656.269531 105.171875 655.929688 105.402344 655.632812 105.703125 L 563.828125 191.574219 C 563.503906 191.828125 563.246094 192.140625 563.050781 192.503906 C 562.855469 192.871094 562.738281 193.257812 562.703125 193.671875 C 562.667969 194.082031 562.71875 194.484375 562.851562 194.878906 C 562.984375 195.269531 563.1875 195.621094 563.464844 195.925781 C 563.742188 196.234375 564.066406 196.472656 564.445312 196.644531 C 564.820312 196.816406 565.214844 196.90625 565.628906 196.914062 C 566.042969 196.925781 566.441406 196.851562 566.824219 196.691406 C 567.207031 196.535156 567.542969 196.308594 567.832031 196.011719 L 662.804688 113.632812 C 663.128906 113.371094 663.390625 113.058594 663.589844 112.691406 C 663.789062 112.324219 663.910156 111.933594 663.953125 111.519531 C 663.996094 111.105469 663.957031 110.695312 663.835938 110.296875 C 663.714844 109.898438 663.523438 109.535156 663.257812 109.214844 Z M 663.257812 109.214844 " fill-opacity="1" fill-rule="nonzero"/></g><g fill="#000000" fill-opacity="1"><g transform="translate(182.999994, 244.026087)"><g><path d="M 58.34375 -46.644531 L 58.34375 -54.835938 C 58.34375 -57.953125 58.65625 -60.527344 58.8125 -62.089844 L 47.734375 -62.089844 C 47.96875 -60.527344 48.203125 -57.953125 48.203125 -54.835938 L 48.203125 -46.644531 L 29.71875 -46.644531 L 29.71875 -54.289062 C 29.71875 -57.40625 29.953125 -59.902344 30.1875 -61.386719 L 19.109375 -61.386719 C 19.265625 -59.902344 19.578125 -57.328125 19.578125 -54.367188 L 19.578125 -46.644531 L 12.949219 -46.644531 C 9.046875 -46.644531 5.929688 -47.113281 4.523438 -47.347656 L 4.523438 -36.738281 C 6.238281 -36.894531 9.046875 -37.050781 12.949219 -37.050781 L 19.578125 -37.050781 L 19.578125 -26.441406 C 19.578125 -22.933594 19.34375 -19.8125 19.109375 -18.253906 L 30.03125 -18.253906 C 29.953125 -19.8125 29.71875 -23.011719 29.71875 -26.441406 L 29.71875 -37.050781 L 48.203125 -37.050781 L 48.203125 -34.085938 C 48.203125 -14.976562 41.574219 -8.191406 26.519531 -2.964844 L 34.867188 4.914062 C 53.664062 -3.355469 58.34375 -15.132812 58.34375 -34.476562 L 58.34375 -37.050781 L 64.117188 -37.050781 C 68.25 -37.050781 70.980469 -36.972656 72.695312 -36.816406 L 72.695312 -47.191406 C 70.589844 -46.800781 68.25 -46.644531 64.117188 -46.644531 Z M 58.34375 -46.644531 "/></g></g></g><g fill="#000000" fill-opacity="1"><g transform="translate(261.000059, 244.026087)"><g><path d="M 42.355469 -1.09375 C 45.550781 -8.347656 46.957031 -16.847656 47.578125 -24.726562 C 49.375 -19.734375 51.480469 -15.054688 53.976562 -10.84375 C 50.621094 -6.785156 46.722656 -3.589844 42.355469 -1.09375 Z M 64.738281 -34.242188 C 63.414062 -28.390625 61.464844 -23.164062 59.046875 -18.5625 C 56.316406 -23.320312 54.210938 -28.625 52.570312 -34.242188 Z M 26.128906 -38.453125 L 26.128906 -34.789062 L 15.679688 -34.789062 L 15.679688 -38.453125 Z M 15.679688 -24.726562 L 15.679688 -28.546875 L 26.128906 -28.546875 L 26.128906 -24.726562 Z M 69.1875 -42.820312 L 67.546875 -42.589844 L 47.96875 -42.589844 L 47.96875 -53.742188 L 74.023438 -53.742188 L 74.023438 -62.398438 L 39.234375 -62.398438 L 39.234375 -35.644531 C 39.234375 -26.675781 38.84375 -15.523438 34.867188 -6.085938 C 33.460938 -9.75 31.433594 -14.039062 29.5625 -17.472656 L 22.152344 -14.820312 C 22.933594 -13.261719 23.710938 -11.542969 24.492188 -9.75 C 21.449219 -8.96875 18.484375 -8.191406 15.679688 -7.410156 L 15.679688 -18.328125 L 34.242188 -18.328125 L 34.242188 -44.851562 L 25.738281 -44.851562 L 25.738281 -51.246094 L 17.941406 -51.246094 L 17.941406 -44.851562 L 10.296875 -44.851562 C 15.210938 -49.375 18.875 -54.210938 21.605469 -58.421875 C 25.585938 -54.835938 29.875 -49.6875 32.136719 -46.253906 L 37.753906 -52.804688 C 34.945312 -56.863281 29.09375 -62.242188 24.414062 -65.988281 L 15.910156 -65.988281 C 13.183594 -60.058594 8.269531 -53.039062 0.859375 -47.734375 C 2.730469 -46.488281 5.460938 -43.679688 6.785156 -41.886719 L 7.410156 -42.355469 L 7.410156 -5.304688 C 5.695312 -4.914062 4.054688 -4.523438 2.574219 -4.210938 L 5.460938 4.367188 C 11.855469 2.417969 19.578125 -0.078125 27.222656 -2.652344 C 27.691406 -1.09375 28.15625 0.390625 28.390625 1.636719 L 31.277344 0.46875 L 30.574219 1.402344 C 32.527344 2.339844 36.269531 5.070312 37.753906 6.628906 C 39.46875 4.445312 40.949219 2.027344 42.121094 -0.625 C 43.914062 0.9375 46.644531 4.289062 47.8125 6.238281 C 51.949219 3.820312 55.769531 0.625 59.125 -3.433594 C 62.398438 0.46875 66.066406 3.664062 70.277344 6.238281 C 71.683594 3.898438 74.410156 0.546875 76.441406 -1.171875 C 71.839844 -3.511719 67.859375 -6.785156 64.429688 -10.84375 C 69.1875 -18.796875 72.695312 -28.859375 74.566406 -40.949219 Z M 69.1875 -42.820312 "/></g></g></g><g fill="#000000" fill-opacity="1"><g transform="translate(339.000124, 244.026087)"><g><path d="M 48.59375 -11.230469 C 48.515625 -14.742188 48.359375 -20.4375 48.28125 -24.726562 C 53.039062 -26.910156 57.40625 -28.625 60.839844 -29.953125 C 63.492188 -31.042969 67.546875 -32.605469 70.042969 -33.226562 L 66.144531 -42.199219 C 63.335938 -40.871094 60.605469 -39.546875 57.640625 -38.21875 C 54.445312 -36.816406 51.167969 -35.488281 47.191406 -33.617188 C 45.472656 -37.597656 41.574219 -39.625 36.894531 -39.625 C 34.320312 -39.625 30.1875 -39.078125 28.15625 -38.0625 C 29.796875 -40.324219 31.355469 -43.132812 32.605469 -45.863281 C 40.871094 -46.175781 50.386719 -46.800781 57.796875 -47.890625 L 57.875 -56.941406 C 51.089844 -55.691406 43.289062 -55.066406 36.035156 -54.679688 C 36.972656 -57.796875 37.519531 -60.449219 37.90625 -62.320312 L 27.769531 -63.179688 C 27.691406 -60.996094 27.144531 -57.875 26.207031 -54.367188 L 22.464844 -54.367188 C 18.5625 -54.367188 12.792969 -54.601562 8.890625 -55.222656 L 8.890625 -46.175781 C 13.105469 -45.785156 18.796875 -45.628906 21.917969 -45.628906 L 22.855469 -45.628906 C 19.421875 -38.765625 13.960938 -31.902344 5.851562 -24.414062 L 14.117188 -18.253906 C 16.769531 -21.605469 18.953125 -24.414062 21.292969 -26.753906 C 24.257812 -29.5625 29.015625 -32.058594 33.382812 -32.058594 C 35.488281 -32.058594 37.519531 -31.355469 38.765625 -29.40625 C 29.953125 -24.882812 20.59375 -18.640625 20.59375 -8.8125 C 20.59375 1.171875 29.71875 4.054688 41.808594 4.054688 C 49.0625 4.054688 58.5 3.433594 63.648438 2.808594 L 63.960938 -7.253906 C 57.175781 -5.851562 48.59375 -4.992188 42.042969 -4.992188 C 34.476562 -4.992188 30.808594 -6.160156 30.808594 -10.453125 C 30.808594 -14.273438 33.929688 -17.316406 39.625 -20.4375 C 39.546875 -17.082031 39.46875 -13.492188 39.3125 -11.230469 Z M 48.59375 -11.230469 "/></g></g></g><g fill="#000000" fill-opacity="1"><g transform="translate(417.00019, 244.026087)"><g><path d="M 58.109375 -15.289062 C 55.144531 -13.339844 51.871094 -11.464844 48.984375 -9.90625 C 46.800781 -11.542969 44.929688 -13.261719 43.367188 -15.289062 Z M 25.039062 -26.832031 L 52.648438 -26.832031 L 52.648438 -22.542969 L 25.039062 -22.542969 Z M 43.601562 -44.695312 L 43.601562 -50.699219 L 34.085938 -50.699219 L 34.085938 -44.695312 L 22.464844 -44.695312 C 29.09375 -48.984375 34.867188 -53.742188 38.6875 -58.1875 C 42.742188 -53.664062 48.828125 -48.828125 55.457031 -44.695312 Z M 25.039062 -37.519531 L 52.648438 -37.519531 L 52.648438 -33.460938 L 25.039062 -33.460938 Z M 64.351562 -19.65625 C 63.648438 -19.109375 62.867188 -18.484375 62.011719 -17.941406 L 62.011719 -40.792969 C 64.816406 -39.3125 67.625 -37.90625 70.355469 -36.738281 C 71.914062 -39.46875 74.023438 -42.742188 76.207031 -45.007812 C 64.039062 -48.90625 51.636719 -56.550781 42.898438 -66.300781 L 33.617188 -66.300781 C 27.457031 -58.265625 14.820312 -49.21875 2.027344 -44.148438 C 3.898438 -42.277344 6.238281 -38.6875 7.410156 -36.503906 C 10.21875 -37.753906 13.105469 -39.15625 15.835938 -40.714844 L 15.835938 -3.121094 C 12.871094 -2.886719 10.140625 -2.652344 7.722656 -2.496094 L 8.96875 6.007812 C 17.941406 5.226562 30.1875 4.132812 41.730469 2.964844 L 41.574219 -5.226562 L 25.039062 -3.820312 L 25.039062 -15.289062 L 34.007812 -15.289062 C 40.871094 -3.042969 52.105469 3.976562 69.109375 6.785156 C 70.277344 4.289062 72.773438 0.625 74.644531 -1.324219 C 67.703125 -2.105469 61.699219 -3.589844 56.550781 -5.695312 C 61.386719 -8.113281 66.613281 -11.152344 71.058594 -14.117188 Z M 64.351562 -19.65625 "/></g></g></g><g fill="#000000" fill-opacity="1"><g transform="translate(495.000255, 244.026087)"><g><path d="M 55.300781 -53.742188 L 48.515625 -50.933594 C 51.402344 -46.878906 53.351562 -43.132812 55.691406 -38.21875 L 62.710938 -41.261719 C 60.917969 -44.851562 57.484375 -50.464844 55.300781 -53.742188 Z M 65.753906 -58.03125 L 59.046875 -54.910156 C 61.933594 -51.011719 64.039062 -47.503906 66.613281 -42.589844 L 73.398438 -45.863281 C 71.605469 -49.296875 68.09375 -54.910156 65.753906 -58.03125 Z M 2.652344 -22.074219 L 11.933594 -12.402344 C 13.339844 -14.429688 15.054688 -17.550781 16.847656 -20.046875 C 20.125 -24.414062 25.738281 -31.980469 28.78125 -35.878906 C 31.042969 -38.765625 32.527344 -39.078125 35.257812 -36.113281 C 38.921875 -32.058594 44.695312 -24.726562 49.453125 -19.109375 C 54.367188 -13.261719 60.761719 -5.617188 66.378906 -0.390625 L 74.410156 -9.515625 C 67.078125 -16.066406 60.527344 -23.011719 55.535156 -28.390625 C 51.011719 -33.382812 44.773438 -41.339844 39.546875 -46.488281 C 33.929688 -51.949219 28.859375 -51.402344 23.476562 -45.316406 C 18.71875 -39.703125 12.714844 -31.746094 9.203125 -28.078125 C 6.863281 -25.585938 4.992188 -23.867188 2.652344 -22.074219 Z M 2.652344 -22.074219 "/></g></g></g><g fill="#000000" fill-opacity="1"><g transform="translate(573.000342, 244.026087)"><g><path d="M 34.632812 -12.402344 C 34.632812 -7.332031 32.839844 -5.070312 27.847656 -5.070312 C 22.464844 -5.070312 18.5625 -6.472656 18.5625 -10.296875 C 18.5625 -13.570312 22.152344 -15.601562 28.15625 -15.601562 C 30.34375 -15.601562 32.527344 -15.367188 34.554688 -15.054688 C 34.632812 -14.039062 34.632812 -13.105469 34.632812 -12.402344 Z M 68.015625 -8.8125 C 62.710938 -13.804688 54.367188 -19.109375 44.539062 -22.074219 C 44.148438 -27.769531 43.835938 -33.851562 43.679688 -38.53125 C 49.921875 -38.6875 59.125 -39 65.597656 -39.625 L 65.207031 -48.828125 C 58.8125 -48.125 49.765625 -47.8125 43.679688 -47.65625 C 43.679688 -49.609375 43.679688 -51.558594 43.679688 -53.273438 C 43.835938 -56.316406 44.070312 -60.058594 44.382812 -62.320312 L 32.761719 -62.320312 C 33.226562 -60.371094 33.460938 -57.097656 33.539062 -53.273438 C 33.617188 -49.996094 33.695312 -45.394531 33.695312 -40.714844 C 33.695312 -36.660156 34.007812 -30.03125 34.242188 -24.023438 C 32.761719 -24.179688 31.199219 -24.257812 29.640625 -24.257812 C 15.445312 -24.257812 8.578125 -17.863281 8.578125 -9.828125 C 8.578125 0.703125 17.628906 4.289062 28.625 4.289062 C 41.574219 4.289062 45.085938 -2.261719 45.085938 -9.046875 C 45.085938 -9.828125 45.085938 -10.6875 45.007812 -11.699219 C 51.871094 -8.578125 57.71875 -3.976562 62.089844 0.390625 Z M 68.015625 -8.8125 "/></g></g></g><g fill="#000000" fill-opacity="1"><g transform="translate(651.00043, 244.026087)"><g><path d="M 53.195312 -25.660156 C 53.195312 -13.570312 40.949219 -7.332031 21.761719 -5.148438 L 27.378906 4.523438 C 48.828125 1.558594 64.117188 -8.734375 64.117188 -25.273438 C 64.117188 -37.363281 55.535156 -44.304688 43.289062 -44.304688 C 34.320312 -44.304688 25.660156 -42.042969 19.96875 -40.792969 C 17.472656 -40.246094 14.117188 -39.703125 11.542969 -39.46875 L 14.429688 -28.46875 C 16.691406 -29.25 19.65625 -30.421875 21.917969 -31.121094 C 25.894531 -32.292969 33.539062 -34.867188 42.042969 -34.867188 C 49.296875 -34.945312 53.195312 -30.730469 53.195312 -25.660156 Z M 22.933594 -62.789062 L 21.371094 -53.429688 C 30.265625 -51.871094 47.035156 -50.386719 56.082031 -49.765625 L 57.640625 -59.28125 C 49.453125 -59.28125 31.902344 -60.839844 22.933594 -62.789062 Z M 22.933594 -62.789062 "/></g></g></g><path stroke-linecap="butt" transform="matrix(0.75, 0, 0, 0.75, 72.908203, 60.999989)" fill="none" stroke-linejoin="miter" d="M 49.86719 125.572938 L 67.445316 105.322937 L 108.263026 105.322937 L 108.263026 183.708357 L 120.763027 183.708357 L 120.763027 217.885442 L 108.00261 217.885442 L 108.00261 252.000027 L 67.966149 252.000027 L 67.445316 235.723985 L 67.445316 217.885442 L 42.903648 217.885442 C 28.882814 217.885442 20.007814 217.625026 16.273438 217.104192 C 12.544272 216.541692 9.700521 215.020859 7.747396 212.5469 C 5.403646 209.682317 3.929688 207.229192 3.320313 205.192733 C 2.710938 203.151067 2.236979 199.026066 1.888021 192.822941 C 1.888021 187.656274 1.976563 184.401066 2.148438 183.057316 C 2.320313 181.713566 2.929688 180.343774 3.971354 178.953149 C 5.575521 176.437524 20.877605 158.640648 49.86719 125.572938 Z M 38.669273 183.708357 L 68.294274 183.708357 L 68.294274 148.031272 C 68.294274 148.203147 64.992191 152.286481 58.398441 160.270856 C 53.231774 166.651065 48.263023 172.598982 43.486981 178.109399 Z M 38.669273 183.708357 " stroke="#000000" stroke-width="10.000012" stroke-opacity="1" stroke-miterlimit="4"/><g fill="#000000" fill-opacity="1"><g transform="translate(192.804368, 454.749842)"><g><path d="M 18.847656 -40.796875 L 4.148438 -40.796875 L 4.148438 -36.296875 L 18.847656 -36.296875 Z M 20.648438 -34.097656 L 1.648438 -34.097656 L 1.648438 -29.398438 L 20.648438 -29.398438 Z M 19 -20.296875 L 4 -20.296875 L 4 -15.847656 L 19 -15.847656 Z M 14 -8.699219 L 14 -2.949219 L 8.847656 -2.949219 L 8.847656 -8.699219 Z M 19.046875 -13.398438 L 3.851562 -13.398438 L 3.851562 3.648438 L 8.847656 3.648438 L 8.847656 1.699219 L 19.046875 1.699219 Z M 28.148438 -8.050781 L 33.847656 -8.050781 L 33.847656 -3.550781 L 28.148438 -3.550781 Z M 33.847656 -22.898438 L 28.148438 -22.898438 L 28.148438 -27.296875 L 33.847656 -27.296875 Z M 33.847656 -13.398438 L 28.148438 -13.398438 L 28.148438 -17.597656 L 33.847656 -17.597656 Z M 48.394531 -3.550781 L 39.394531 -3.550781 L 39.394531 -8.050781 L 46.445312 -8.050781 L 46.445312 -13.398438 L 39.394531 -13.398438 L 39.394531 -17.597656 L 46.445312 -17.597656 L 46.445312 -22.898438 L 39.394531 -22.898438 L 39.394531 -27.296875 L 47.445312 -27.296875 L 47.445312 -32.597656 L 39.847656 -32.597656 C 41.097656 -34.945312 42.445312 -37.695312 43.59375 -40.296875 L 37.394531 -41.695312 C 36.746094 -38.894531 35.394531 -35.347656 34.046875 -32.597656 L 29.097656 -32.597656 C 30.445312 -35.347656 31.648438 -38.144531 32.597656 -40.796875 L 26.699219 -42.394531 C 25.246094 -37.496094 22.398438 -31.195312 19 -26.648438 L 19 -27.148438 L 4 -27.148438 L 4 -22.597656 L 18.796875 -22.597656 C 19.5 -21.597656 20.199219 -20.546875 20.699219 -19.796875 C 21.347656 -20.496094 21.996094 -21.246094 22.597656 -22.046875 L 22.597656 4.347656 L 28.148438 4.347656 L 28.148438 2 L 48.394531 2 Z M 48.394531 -3.550781 "/></g></g></g><g fill="#000000" fill-opacity="1"><g transform="translate(242.796633, 454.749842)"><g><path d="M 15.75 -40.097656 C 15.796875 -36.996094 15.398438 -33.398438 14.699219 -29.597656 C 12.199219 -29.398438 9.847656 -29.246094 8.300781 -29.195312 C 6.5 -29.148438 4.847656 -29.046875 3.050781 -29.195312 L 3.601562 -22.496094 C 5.148438 -22.746094 7.699219 -23.097656 9.097656 -23.246094 C 10.050781 -23.398438 11.597656 -23.597656 13.347656 -23.796875 C 11.550781 -17.046875 8.199219 -7.148438 3.351562 -0.648438 L 9.847656 1.949219 C 14.398438 -5.347656 18 -17 19.898438 -24.496094 C 21.296875 -24.597656 22.496094 -24.699219 23.296875 -24.699219 C 26.449219 -24.699219 28.148438 -24.148438 28.148438 -20.199219 C 28.148438 -15.296875 27.496094 -9.398438 26.097656 -6.648438 C 25.347656 -5 24.046875 -4.5 22.398438 -4.5 C 21.097656 -4.5 18.25 -5 16.347656 -5.550781 L 17.449219 1 C 19.097656 1.398438 21.449219 1.699219 23.347656 1.699219 C 27.097656 1.699219 29.847656 0.601562 31.496094 -2.851562 C 33.597656 -7.148438 34.296875 -15.046875 34.296875 -20.898438 C 34.296875 -27.996094 30.597656 -30.347656 25.347656 -30.347656 C 24.347656 -30.347656 22.847656 -30.246094 21.199219 -30.148438 C 21.546875 -31.945312 21.949219 -33.746094 22.199219 -35.246094 C 22.449219 -36.496094 22.796875 -38.046875 23.097656 -39.347656 Z M 34.195312 -32.195312 C 37.746094 -27.796875 41.296875 -18.847656 42.597656 -13.347656 L 48.84375 -16.296875 C 47.34375 -20.996094 43.195312 -30.445312 40.195312 -34.695312 Z M 34.195312 -32.195312 "/></g></g></g><g fill="#000000" fill-opacity="1"><g transform="translate(292.788899, 454.749842)"><g><path d="M 13.648438 -9 C 11.796875 -9 9.800781 -11.449219 9.800781 -16.449219 C 9.800781 -21.898438 14.148438 -29.097656 22.347656 -30.796875 C 21.746094 -26.699219 20.847656 -22.449219 19.699219 -18.796875 C 17.699219 -12.097656 15.699219 -9 13.648438 -9 Z M 27.246094 2.050781 C 39.746094 0.148438 46.144531 -7.25 46.144531 -17.648438 C 46.144531 -28.445312 38.394531 -36.996094 26.148438 -36.996094 C 13.296875 -36.996094 3.351562 -27.199219 3.351562 -15.796875 C 3.351562 -7.449219 8 -1.398438 13.449219 -1.398438 C 18.847656 -1.398438 23.148438 -7.5 26.097656 -17.5 C 27.496094 -22.148438 28.347656 -26.746094 29.046875 -30.945312 C 35.695312 -29.796875 39.394531 -24.699219 39.394531 -17.847656 C 39.394531 -10.648438 34.496094 -6.097656 28.148438 -4.597656 C 26.847656 -4.300781 25.449219 -4.050781 23.546875 -3.800781 Z M 27.246094 2.050781 "/></g></g></g><g fill="#000000" fill-opacity="1"><g transform="translate(342.781164, 454.749842)"><g><path d="M 18.898438 -15.648438 L 18.296875 -20.796875 L 14.148438 -19.796875 L 14.148438 -27.597656 L 19.097656 -27.597656 L 19.097656 -33.097656 L 14.148438 -33.097656 L 14.148438 -42.296875 L 8.300781 -42.296875 L 8.300781 -33.097656 L 2 -33.097656 L 2 -27.597656 L 8.300781 -27.597656 L 8.300781 -18.347656 C 5.597656 -17.699219 3.199219 -17.148438 1.25 -16.796875 L 2.851562 -10.597656 C 4.550781 -11.097656 6.398438 -11.648438 8.300781 -12.25 L 8.300781 -2.050781 C 8.300781 -1.351562 8.050781 -1.148438 7.398438 -1.101562 C 6.75 -1.101562 4.648438 -1.101562 2.75 -1.199219 C 3.449219 0.351562 4.199219 2.75 4.398438 4.25 C 7.898438 4.25 10.300781 4.097656 12 3.199219 C 13.597656 2.300781 14.148438 0.851562 14.148438 -2.101562 L 14.148438 -14.097656 Z M 37.746094 -15.699219 C 36.445312 -13.046875 34.695312 -10.75 32.546875 -8.800781 C 30.398438 -10.800781 28.648438 -13.097656 27.347656 -15.699219 Z M 41.695312 -21.246094 L 40.597656 -21.046875 L 21.746094 -21.046875 C 27.398438 -24.648438 28.796875 -30.296875 28.847656 -34.996094 L 35.246094 -34.996094 L 35.246094 -29.597656 C 35.246094 -24.699219 36.496094 -23.246094 40.597656 -23.246094 L 43.746094 -23.246094 C 47.195312 -23.246094 48.445312 -24.949219 48.945312 -31.097656 C 47.445312 -31.445312 45.195312 -32.347656 44.09375 -33.195312 C 43.996094 -28.847656 43.84375 -28.148438 43.09375 -28.148438 L 41.695312 -28.148438 C 41.097656 -28.148438 40.945312 -28.296875 40.945312 -29.648438 L 40.945312 -40.496094 L 23.246094 -40.496094 L 23.246094 -35.394531 C 23.246094 -32.097656 22.648438 -28.195312 17.699219 -25.347656 C 18.796875 -24.496094 20.898438 -22.246094 21.597656 -21.046875 L 20.597656 -21.046875 L 20.597656 -15.699219 L 26.046875 -15.699219 L 21.847656 -14.398438 C 23.496094 -10.949219 25.449219 -7.898438 27.847656 -5.347656 C 24.449219 -3.300781 20.449219 -1.898438 16.097656 -1.050781 C 17.199219 0.300781 18.546875 2.800781 19.148438 4.398438 C 24.148438 3.148438 28.648438 1.300781 32.546875 -1.25 C 36.046875 1.25 40.246094 3.148438 45.144531 4.300781 C 46.046875 2.699219 47.695312 0.199219 49.046875 -1.101562 C 44.644531 -1.949219 40.746094 -3.351562 37.445312 -5.25 C 41.144531 -8.898438 43.894531 -13.648438 45.59375 -19.699219 Z M 41.695312 -21.246094 "/></g></g></g><g fill="#000000" fill-opacity="1"><g transform="translate(392.773429, 454.749842)"><g><path d="M 35.695312 -8.050781 L 35.695312 -4.597656 L 31.546875 -4.597656 L 31.546875 -8.050781 Z M 39.796875 -1.050781 L 39.796875 -11.699219 L 27.496094 -11.699219 L 27.496094 1.300781 L 31.546875 1.300781 L 31.546875 -1.050781 Z M 47.34375 -18.25 L 20.046875 -18.25 L 20.046875 -15.597656 C 18.847656 -17.097656 15.546875 -20.898438 14.199219 -22.148438 L 14.199219 -22.796875 L 19.648438 -22.796875 L 19.648438 -28.246094 L 14.199219 -28.246094 L 14.199219 -35.347656 C 16.148438 -35.847656 18 -36.347656 19.699219 -36.945312 L 19.699219 -32.898438 L 47.296875 -32.898438 L 47.296875 -37.546875 L 36.546875 -37.546875 L 36.546875 -42.296875 L 30.796875 -42.296875 L 30.796875 -37.546875 L 19.996094 -37.546875 L 16.148438 -41.644531 C 12.648438 -40.097656 6.898438 -38.796875 1.699219 -37.996094 C 2.398438 -36.796875 3.101562 -34.746094 3.351562 -33.496094 C 5 -33.695312 6.75 -33.945312 8.5 -34.246094 L 8.5 -28.246094 L 2 -28.246094 L 2 -22.796875 L 7.949219 -22.796875 C 6.300781 -18 3.75 -12.597656 1.199219 -9.347656 C 2.101562 -7.847656 3.398438 -5.347656 3.949219 -3.648438 C 5.597656 -5.898438 7.148438 -9 8.5 -12.398438 L 8.5 4.347656 L 14.199219 4.347656 L 14.199219 -15.597656 C 15.25 -13.796875 16.296875 -11.949219 16.898438 -10.648438 L 20.046875 -14.898438 L 20.046875 4.398438 L 25.347656 4.398438 L 25.347656 -13.648438 L 41.996094 -13.648438 L 41.996094 -0.851562 C 41.996094 -0.398438 41.847656 -0.25 41.394531 -0.199219 C 40.945312 -0.199219 39.597656 -0.199219 38.296875 -0.25 C 38.894531 1.050781 39.496094 2.898438 39.695312 4.300781 C 42.296875 4.300781 44.195312 4.300781 45.59375 3.5 C 47.046875 2.699219 47.34375 1.5 47.34375 -0.800781 Z M 28.546875 -27.148438 L 38.945312 -27.148438 L 38.945312 -24.097656 L 28.546875 -24.097656 Z M 44.246094 -20.097656 L 44.246094 -31.148438 L 23.546875 -31.148438 L 23.546875 -20.097656 Z M 44.246094 -20.097656 "/></g></g></g><g fill="#000000" fill-opacity="1"><g transform="translate(442.765706, 454.749842)"><g><path d="M 32.648438 -20.449219 C 35.847656 -17.398438 37.746094 -14.199219 37.746094 -10.847656 C 37.746094 -6.75 33.945312 -3.601562 27.046875 -3.601562 C 22.148438 -3.601562 19.648438 -5.847656 19.648438 -9.898438 C 19.648438 -10.800781 19.746094 -12.046875 19.847656 -13.5 C 20.496094 -13.5 21.199219 -13.5 21.847656 -13.5 C 24.898438 -13.5 27.796875 -13.699219 30.597656 -13.949219 L 30.746094 -19.847656 C 27.496094 -19.5 23.847656 -19.25 20.796875 -19.25 L 20.449219 -19.25 C 20.699219 -21.449219 20.996094 -23.796875 21.296875 -25.996094 C 25.296875 -25.996094 27.996094 -26.148438 30.945312 -26.449219 L 31.148438 -32.347656 C 28.796875 -31.996094 25.597656 -31.796875 22.046875 -31.746094 C 22.296875 -33.347656 22.449219 -34.648438 22.597656 -35.496094 C 22.796875 -36.796875 23.046875 -38.097656 23.449219 -39.894531 L 16.5 -40.296875 C 16.597656 -38.644531 16.5 -37.246094 16.398438 -35.894531 C 16.296875 -34.796875 16.199219 -33.445312 16 -31.945312 C 12.398438 -32.246094 8.699219 -32.847656 5.847656 -33.796875 L 5.5 -28.046875 C 8.398438 -27.246094 11.898438 -26.648438 15.347656 -26.296875 C 15.046875 -24.046875 14.796875 -21.746094 14.5 -19.546875 C 11.300781 -19.847656 7.949219 -20.398438 4.75 -21.496094 L 4.398438 -15.5 C 7.050781 -14.75 10.300781 -14.199219 13.898438 -13.847656 C 13.699219 -11.796875 13.546875 -10.050781 13.546875 -8.847656 C 13.546875 -0.601562 19.046875 2.800781 26.847656 2.800781 C 37.695312 2.800781 44.394531 -2.601562 44.394531 -10.050781 C 44.394531 -14.25 42.894531 -17.75 39.597656 -21.949219 Z M 32.648438 -20.449219 "/></g></g></g><g fill="#000000" fill-opacity="1"><g transform="translate(492.757982, 454.749842)"><g><path d="M 18.097656 -1.148438 C 15.546875 -4.25 10.75 -9.199219 7.199219 -12.097656 L 2 -7.597656 C 5.5 -4.597656 9.699219 -0.300781 12.75 3.449219 Z M 18.097656 -1.148438 "/></g></g></g><g fill="#000000" fill-opacity="1"><g transform="translate(192.804368, 524.499838)"><g><path d="M 22.347656 -19.699219 C 24.246094 -20.296875 26.546875 -20.746094 29.148438 -20.796875 C 27.496094 -16.796875 25.296875 -13.796875 22.898438 -11.398438 C 22.546875 -13.847656 22.347656 -16.546875 22.347656 -19.597656 Z M 12.898438 -5.597656 C 11.300781 -5.597656 10.597656 -6.449219 10.597656 -8 C 10.597656 -10.800781 13.097656 -14.597656 16.796875 -17.097656 C 16.898438 -13.699219 17.296875 -10.300781 17.847656 -7.199219 C 16 -6.148438 14.296875 -5.597656 12.898438 -5.597656 Z M 31.246094 -28.796875 C 31.195312 -28.097656 30.996094 -26.847656 30.796875 -25.847656 L 29.945312 -25.847656 C 27.496094 -25.847656 24.898438 -25.496094 22.546875 -24.949219 C 22.597656 -26.449219 22.746094 -27.945312 22.898438 -29.398438 C 28.996094 -29.695312 35.644531 -30.296875 40.496094 -31.195312 L 40.445312 -36.894531 C 34.996094 -35.597656 29.648438 -34.996094 23.648438 -34.796875 C 23.796875 -35.746094 23.949219 -36.644531 24.148438 -37.445312 C 24.296875 -38.195312 24.496094 -39.097656 24.847656 -40.097656 L 18.347656 -40.246094 C 18.398438 -39.394531 18.296875 -38.195312 18.199219 -37.296875 L 17.898438 -34.648438 L 16 -34.648438 C 12.949219 -34.648438 8.597656 -35.046875 6.847656 -35.296875 L 7.050781 -29.546875 C 9.347656 -29.445312 13.199219 -29.246094 15.796875 -29.246094 L 17.398438 -29.246094 C 17.199219 -27.246094 17.046875 -25.148438 16.898438 -23.046875 C 10 -19.796875 4.75 -13.097656 4.75 -6.800781 C 4.75 -1.75 7.800781 0.449219 11.449219 0.449219 C 14.046875 0.449219 16.699219 -0.351562 19.097656 -1.550781 C 19.296875 -0.851562 19.546875 -0.148438 19.746094 0.449219 L 25.449219 -1.25 C 25.046875 -2.449219 24.648438 -3.648438 24.296875 -4.949219 C 28.046875 -8.050781 31.996094 -13.199219 34.746094 -19.949219 C 38.097656 -18.648438 39.847656 -16 39.847656 -13 C 39.847656 -8.148438 35.945312 -3.351562 26.398438 -2.300781 L 29.695312 2.898438 C 41.847656 1.101562 45.996094 -5.75 45.996094 -12.699219 C 45.996094 -18.5 42.195312 -22.949219 36.445312 -24.847656 C 36.746094 -25.796875 37.097656 -26.847656 37.347656 -27.398438 Z M 31.246094 -28.796875 "/></g></g></g><g fill="#000000" fill-opacity="1"><g transform="translate(242.796633, 524.499838)"><g><path d="M 47.195312 -27.296875 C 44.695312 -29.097656 38.546875 -32.445312 34.996094 -33.996094 L 31.796875 -29.097656 C 35.195312 -27.597656 40.847656 -24.347656 43.695312 -22.046875 Z M 28.546875 -34.898438 C 26.597656 -34.296875 24.296875 -33.746094 21.898438 -33.347656 C 22.597656 -35.996094 23.199219 -38.496094 23.597656 -40.097656 L 16.75 -40.796875 C 16.648438 -38.246094 16.097656 -35.246094 15.398438 -32.496094 C 13.898438 -32.398438 12.398438 -32.347656 10.949219 -32.347656 C 9.148438 -32.347656 6.5 -32.445312 4.347656 -32.695312 L 4.800781 -26.898438 C 6.949219 -26.796875 8.949219 -26.746094 11 -26.746094 C 11.847656 -26.746094 12.699219 -26.746094 13.546875 -26.796875 C 11.347656 -21.449219 7.449219 -14.148438 3.449219 -9.300781 L 9.5 -6.25 C 13.5 -11.898438 17.75 -20.496094 20.097656 -27.445312 C 23.398438 -27.898438 26.449219 -28.546875 28.695312 -29.148438 Z M 29.746094 -7.347656 C 29.746094 -4.699219 28.648438 -2.75 25.296875 -2.75 C 22.597656 -2.75 21.046875 -4 21.046875 -5.847656 C 21.046875 -7.597656 22.898438 -8.800781 25.746094 -8.800781 C 27.148438 -8.800781 28.445312 -8.597656 29.746094 -8.300781 Z M 28.945312 -24.699219 C 29.097656 -21.699219 29.347656 -17.347656 29.496094 -13.648438 C 28.445312 -13.75 27.296875 -13.847656 26.148438 -13.847656 C 19.25 -13.847656 15.199219 -10.097656 15.199219 -5.25 C 15.199219 0.199219 20.046875 2.949219 26.199219 2.949219 C 33.246094 2.949219 35.746094 -0.648438 35.746094 -5.25 L 35.746094 -5.699219 C 38.445312 -4.050781 40.695312 -2.050781 42.445312 -0.449219 L 45.746094 -5.75 C 43.246094 -8 39.746094 -10.5 35.496094 -12.097656 C 35.347656 -14.546875 35.246094 -16.949219 35.195312 -18.347656 C 35.148438 -20.546875 35.046875 -22.597656 35.195312 -24.699219 Z M 28.945312 -24.699219 "/></g></g></g><g fill="#000000" fill-opacity="1"><g transform="translate(292.788899, 524.499838)"><g><path d="M 26.648438 -18.949219 C 29.746094 -19.347656 32.746094 -19.5 36.195312 -19.5 C 39.195312 -19.5 42.246094 -19.199219 44.695312 -18.898438 L 44.84375 -24.847656 C 41.945312 -25.148438 38.945312 -25.296875 36.144531 -25.296875 C 32.945312 -25.296875 29.398438 -25.046875 26.648438 -24.796875 Z M 30.546875 -34.847656 C 27.847656 -34.195312 25.046875 -33.648438 22.246094 -33.195312 L 22.648438 -35.097656 C 22.898438 -36.195312 23.347656 -38.394531 23.699219 -39.746094 L 16.148438 -40.347656 C 16.25 -39.195312 16.199219 -37.195312 15.949219 -35.347656 C 15.847656 -34.546875 15.699219 -33.597656 15.5 -32.496094 C 14 -32.398438 12.546875 -32.347656 11.097656 -32.347656 C 9.050781 -32.347656 7.398438 -32.445312 4.847656 -32.746094 L 5 -26.546875 C 6.75 -26.449219 8.597656 -26.347656 11 -26.347656 C 12 -26.347656 13.097656 -26.398438 14.25 -26.449219 C 13.898438 -25.046875 13.546875 -23.648438 13.199219 -22.347656 C 11.347656 -15.398438 7.597656 -5 4.648438 -0.0507812 L 11.597656 2.25 C 14.296875 -3.550781 17.648438 -13.699219 19.449219 -20.648438 C 19.996094 -22.648438 20.496094 -24.847656 20.949219 -26.996094 C 24.246094 -27.398438 27.597656 -27.945312 30.546875 -28.597656 Z M 23.597656 -12.898438 C 23.199219 -10.949219 22.746094 -8.550781 22.746094 -6.300781 C 22.746094 -1.300781 26.996094 1.601562 35.347656 1.601562 C 39.296875 1.601562 42.644531 1.25 45.445312 0.898438 L 45.695312 -5.449219 C 42.144531 -4.800781 38.695312 -4.449219 35.394531 -4.449219 C 30.097656 -4.449219 28.847656 -6.050781 28.847656 -8.199219 C 28.847656 -9.300781 29.148438 -10.949219 29.546875 -12.347656 Z M 23.597656 -12.898438 "/></g></g></g><g fill="#000000" fill-opacity="1"><g transform="translate(342.781164, 524.499838)"><g><path d="M 13.648438 -9 C 11.796875 -9 9.800781 -11.449219 9.800781 -16.449219 C 9.800781 -21.898438 14.148438 -29.097656 22.347656 -30.796875 C 21.746094 -26.699219 20.847656 -22.449219 19.699219 -18.796875 C 17.699219 -12.097656 15.699219 -9 13.648438 -9 Z M 27.246094 2.050781 C 39.746094 0.148438 46.144531 -7.25 46.144531 -17.648438 C 46.144531 -28.445312 38.394531 -36.996094 26.148438 -36.996094 C 13.296875 -36.996094 3.351562 -27.199219 3.351562 -15.796875 C 3.351562 -7.449219 8 -1.398438 13.449219 -1.398438 C 18.847656 -1.398438 23.148438 -7.5 26.097656 -17.5 C 27.496094 -22.148438 28.347656 -26.746094 29.046875 -30.945312 C 35.695312 -29.796875 39.394531 -24.699219 39.394531 -17.847656 C 39.394531 -10.648438 34.496094 -6.097656 28.148438 -4.597656 C 26.847656 -4.300781 25.449219 -4.050781 23.546875 -3.800781 Z M 27.246094 2.050781 "/></g></g></g><g fill="#000000" fill-opacity="1"><g transform="translate(392.773429, 524.499838)"><g><path d="M 18.898438 -15.648438 L 18.296875 -20.796875 L 14.148438 -19.796875 L 14.148438 -27.597656 L 19.097656 -27.597656 L 19.097656 -33.097656 L 14.148438 -33.097656 L 14.148438 -42.296875 L 8.300781 -42.296875 L 8.300781 -33.097656 L 2 -33.097656 L 2 -27.597656 L 8.300781 -27.597656 L 8.300781 -18.347656 C 5.597656 -17.699219 3.199219 -17.148438 1.25 -16.796875 L 2.851562 -10.597656 C 4.550781 -11.097656 6.398438 -11.648438 8.300781 -12.25 L 8.300781 -2.050781 C 8.300781 -1.351562 8.050781 -1.148438 7.398438 -1.101562 C 6.75 -1.101562 4.648438 -1.101562 2.75 -1.199219 C 3.449219 0.351562 4.199219 2.75 4.398438 4.25 C 7.898438 4.25 10.300781 4.097656 12 3.199219 C 13.597656 2.300781 14.148438 0.851562 14.148438 -2.101562 L 14.148438 -14.097656 Z M 37.746094 -15.699219 C 36.445312 -13.046875 34.695312 -10.75 32.546875 -8.800781 C 30.398438 -10.800781 28.648438 -13.097656 27.347656 -15.699219 Z M 41.695312 -21.246094 L 40.597656 -21.046875 L 21.746094 -21.046875 C 27.398438 -24.648438 28.796875 -30.296875 28.847656 -34.996094 L 35.246094 -34.996094 L 35.246094 -29.597656 C 35.246094 -24.699219 36.496094 -23.246094 40.597656 -23.246094 L 43.746094 -23.246094 C 47.195312 -23.246094 48.445312 -24.949219 48.945312 -31.097656 C 47.445312 -31.445312 45.195312 -32.347656 44.09375 -33.195312 C 43.996094 -28.847656 43.84375 -28.148438 43.09375 -28.148438 L 41.695312 -28.148438 C 41.097656 -28.148438 40.945312 -28.296875 40.945312 -29.648438 L 40.945312 -40.496094 L 23.246094 -40.496094 L 23.246094 -35.394531 C 23.246094 -32.097656 22.648438 -28.195312 17.699219 -25.347656 C 18.796875 -24.496094 20.898438 -22.246094 21.597656 -21.046875 L 20.597656 -21.046875 L 20.597656 -15.699219 L 26.046875 -15.699219 L 21.847656 -14.398438 C 23.496094 -10.949219 25.449219 -7.898438 27.847656 -5.347656 C 24.449219 -3.300781 20.449219 -1.898438 16.097656 -1.050781 C 17.199219 0.300781 18.546875 2.800781 19.148438 4.398438 C 24.148438 3.148438 28.648438 1.300781 32.546875 -1.25 C 36.046875 1.25 40.246094 3.148438 45.144531 4.300781 C 46.046875 2.699219 47.695312 0.199219 49.046875 -1.101562 C 44.644531 -1.949219 40.746094 -3.351562 37.445312 -5.25 C 41.144531 -8.898438 43.894531 -13.648438 45.59375 -19.699219 Z M 41.695312 -21.246094 "/></g></g></g><g fill="#000000" fill-opacity="1"><g transform="translate(442.765706, 524.499838)"><g><path d="M 35.695312 -8.050781 L 35.695312 -4.597656 L 31.546875 -4.597656 L 31.546875 -8.050781 Z M 39.796875 -1.050781 L 39.796875 -11.699219 L 27.496094 -11.699219 L 27.496094 1.300781 L 31.546875 1.300781 L 31.546875 -1.050781 Z M 47.34375 -18.25 L 20.046875 -18.25 L 20.046875 -15.597656 C 18.847656 -17.097656 15.546875 -20.898438 14.199219 -22.148438 L 14.199219 -22.796875 L 19.648438 -22.796875 L 19.648438 -28.246094 L 14.199219 -28.246094 L 14.199219 -35.347656 C 16.148438 -35.847656 18 -36.347656 19.699219 -36.945312 L 19.699219 -32.898438 L 47.296875 -32.898438 L 47.296875 -37.546875 L 36.546875 -37.546875 L 36.546875 -42.296875 L 30.796875 -42.296875 L 30.796875 -37.546875 L 19.996094 -37.546875 L 16.148438 -41.644531 C 12.648438 -40.097656 6.898438 -38.796875 1.699219 -37.996094 C 2.398438 -36.796875 3.101562 -34.746094 3.351562 -33.496094 C 5 -33.695312 6.75 -33.945312 8.5 -34.246094 L 8.5 -28.246094 L 2 -28.246094 L 2 -22.796875 L 7.949219 -22.796875 C 6.300781 -18 3.75 -12.597656 1.199219 -9.347656 C 2.101562 -7.847656 3.398438 -5.347656 3.949219 -3.648438 C 5.597656 -5.898438 7.148438 -9 8.5 -12.398438 L 8.5 4.347656 L 14.199219 4.347656 L 14.199219 -15.597656 C 15.25 -13.796875 16.296875 -11.949219 16.898438 -10.648438 L 20.046875 -14.898438 L 20.046875 4.398438 L 25.347656 4.398438 L 25.347656 -13.648438 L 41.996094 -13.648438 L 41.996094 -0.851562 C 41.996094 -0.398438 41.847656 -0.25 41.394531 -0.199219 C 40.945312 -0.199219 39.597656 -0.199219 38.296875 -0.25 C 38.894531 1.050781 39.496094 2.898438 39.695312 4.300781 C 42.296875 4.300781 44.195312 4.300781 45.59375 3.5 C 47.046875 2.699219 47.34375 1.5 47.34375 -0.800781 Z M 28.546875 -27.148438 L 38.945312 -27.148438 L 38.945312 -24.097656 L 28.546875 -24.097656 Z M 44.246094 -20.097656 L 44.246094 -31.148438 L 23.546875 -31.148438 L 23.546875 -20.097656 Z M 44.246094 -20.097656 "/></g></g></g><g fill="#000000" fill-opacity="1"><g transform="translate(492.757982, 524.499838)"><g><path d="M 32.648438 -20.449219 C 35.847656 -17.398438 37.746094 -14.199219 37.746094 -10.847656 C 37.746094 -6.75 33.945312 -3.601562 27.046875 -3.601562 C 22.148438 -3.601562 19.648438 -5.847656 19.648438 -9.898438 C 19.648438 -10.800781 19.746094 -12.046875 19.847656 -13.5 C 20.496094 -13.5 21.199219 -13.5 21.847656 -13.5 C 24.898438 -13.5 27.796875 -13.699219 30.597656 -13.949219 L 30.746094 -19.847656 C 27.496094 -19.5 23.847656 -19.25 20.796875 -19.25 L 20.449219 -19.25 C 20.699219 -21.449219 20.996094 -23.796875 21.296875 -25.996094 C 25.296875 -25.996094 27.996094 -26.148438 30.945312 -26.449219 L 31.148438 -32.347656 C 28.796875 -31.996094 25.597656 -31.796875 22.046875 -31.746094 C 22.296875 -33.347656 22.449219 -34.648438 22.597656 -35.496094 C 22.796875 -36.796875 23.046875 -38.097656 23.449219 -39.894531 L 16.5 -40.296875 C 16.597656 -38.644531 16.5 -37.246094 16.398438 -35.894531 C 16.296875 -34.796875 16.199219 -33.445312 16 -31.945312 C 12.398438 -32.246094 8.699219 -32.847656 5.847656 -33.796875 L 5.5 -28.046875 C 8.398438 -27.246094 11.898438 -26.648438 15.347656 -26.296875 C 15.046875 -24.046875 14.796875 -21.746094 14.5 -19.546875 C 11.300781 -19.847656 7.949219 -20.398438 4.75 -21.496094 L 4.398438 -15.5 C 7.050781 -14.75 10.300781 -14.199219 13.898438 -13.847656 C 13.699219 -11.796875 13.546875 -10.050781 13.546875 -8.847656 C 13.546875 -0.601562 19.046875 2.800781 26.847656 2.800781 C 37.695312 2.800781 44.394531 -2.601562 44.394531 -10.050781 C 44.394531 -14.25 42.894531 -17.75 39.597656 -21.949219 Z M 32.648438 -20.449219 "/></g></g></g><g fill="#000000" fill-opacity="1"><g transform="translate(542.750259, 524.499838)"><g><path d="M 18.097656 -1.148438 C 15.546875 -4.25 10.75 -9.199219 7.199219 -12.097656 L 2 -7.597656 C 5.5 -4.597656 9.699219 -0.300781 12.75 3.449219 Z M 18.097656 -1.148438 "/></g></g></g><g fill="#000000" fill-opacity="1"><g transform="translate(192.804368, 594.249835)"><g><path d="M 32.046875 -10.648438 L 37.945312 -10.648438 L 37.945312 -37.195312 L 48.59375 -37.195312 L 48.59375 -42.597656 L 32.046875 -42.597656 Z M 32.046875 -10.648438 "/></g></g></g><g fill="#000000" fill-opacity="1"><g transform="translate(242.796633, 594.249835)"><g><path d="M 37.394531 -29.898438 L 37.394531 -35.148438 C 37.394531 -37.144531 37.597656 -38.796875 37.695312 -39.796875 L 30.597656 -39.796875 C 30.746094 -38.796875 30.898438 -37.144531 30.898438 -35.148438 L 30.898438 -29.898438 L 19.046875 -29.898438 L 19.046875 -34.796875 C 19.046875 -36.796875 19.199219 -38.394531 19.347656 -39.347656 L 12.25 -39.347656 C 12.347656 -38.394531 12.546875 -36.746094 12.546875 -34.847656 L 12.546875 -29.898438 L 8.300781 -29.898438 C 5.800781 -29.898438 3.800781 -30.195312 2.898438 -30.347656 L 2.898438 -23.546875 C 4 -23.648438 5.800781 -23.746094 8.300781 -23.746094 L 12.546875 -23.746094 L 12.546875 -16.949219 C 12.546875 -14.699219 12.398438 -12.699219 12.25 -11.699219 L 19.25 -11.699219 C 19.199219 -12.699219 19.046875 -14.75 19.046875 -16.949219 L 19.046875 -23.746094 L 30.898438 -23.746094 L 30.898438 -21.847656 C 30.898438 -9.597656 26.648438 -5.25 17 -1.898438 L 22.347656 3.148438 C 34.398438 -2.148438 37.394531 -9.699219 37.394531 -22.097656 L 37.394531 -23.746094 L 41.097656 -23.746094 C 43.746094 -23.746094 45.496094 -23.699219 46.59375 -23.597656 L 46.59375 -30.246094 C 45.246094 -29.996094 43.746094 -29.898438 41.097656 -29.898438 Z M 37.394531 -29.898438 "/></g></g></g><g fill="#000000" fill-opacity="1"><g transform="translate(292.788899, 594.249835)"><g><path d="M 27.148438 -0.699219 C 29.195312 -5.347656 30.097656 -10.800781 30.496094 -15.847656 C 31.648438 -12.648438 32.996094 -9.648438 34.597656 -6.949219 C 32.445312 -4.347656 29.945312 -2.300781 27.148438 -0.699219 Z M 41.496094 -21.949219 C 40.644531 -18.199219 39.394531 -14.847656 37.847656 -11.898438 C 36.097656 -14.949219 34.746094 -18.347656 33.695312 -21.949219 Z M 16.75 -24.648438 L 16.75 -22.296875 L 10.050781 -22.296875 L 10.050781 -24.648438 Z M 10.050781 -15.847656 L 10.050781 -18.296875 L 16.75 -18.296875 L 16.75 -15.847656 Z M 44.34375 -27.445312 L 43.296875 -27.296875 L 30.746094 -27.296875 L 30.746094 -34.445312 L 47.445312 -34.445312 L 47.445312 -39.996094 L 25.148438 -39.996094 L 25.148438 -22.847656 C 25.148438 -17.097656 24.898438 -9.949219 22.347656 -3.898438 C 21.449219 -6.25 20.148438 -9 18.949219 -11.199219 L 14.199219 -9.5 C 14.699219 -8.5 15.199219 -7.398438 15.699219 -6.25 C 13.75 -5.75 11.847656 -5.25 10.050781 -4.75 L 10.050781 -11.75 L 21.949219 -11.75 L 21.949219 -28.746094 L 16.5 -28.746094 L 16.5 -32.847656 L 11.5 -32.847656 L 11.5 -28.746094 L 6.597656 -28.746094 C 9.75 -31.648438 12.097656 -34.746094 13.847656 -37.445312 C 16.398438 -35.148438 19.148438 -31.847656 20.597656 -29.648438 L 24.199219 -33.847656 C 22.398438 -36.445312 18.648438 -39.894531 15.648438 -42.296875 L 10.199219 -42.296875 C 8.449219 -38.496094 5.300781 -33.996094 0.550781 -30.597656 C 1.75 -29.796875 3.5 -27.996094 4.347656 -26.847656 L 4.75 -27.148438 L 4.75 -3.398438 C 3.648438 -3.148438 2.601562 -2.898438 1.648438 -2.699219 L 3.5 2.800781 C 7.597656 1.550781 12.546875 -0.0507812 17.449219 -1.699219 C 17.75 -0.699219 18.046875 0.25 18.199219 1.050781 L 20.046875 0.300781 L 19.597656 0.898438 C 20.847656 1.5 23.246094 3.25 24.199219 4.25 C 25.296875 2.851562 26.246094 1.300781 26.996094 -0.398438 C 28.148438 0.601562 29.898438 2.75 30.648438 4 C 33.296875 2.449219 35.746094 0.398438 37.894531 -2.199219 C 39.996094 0.300781 42.347656 2.351562 45.046875 4 C 45.945312 2.5 47.695312 0.351562 48.996094 -0.75 C 46.046875 -2.25 43.496094 -4.347656 41.296875 -6.949219 C 44.34375 -12.046875 46.59375 -18.5 47.796875 -26.246094 Z M 44.34375 -27.445312 "/></g></g></g><g fill="#000000" fill-opacity="1"><g transform="translate(342.781164, 594.249835)"><g><path d="M 18 -27.347656 L 12.046875 -27.347656 L 12.046875 -0.800781 L 1.398438 -0.800781 L 1.398438 4.597656 L 18 4.597656 Z M 18 -27.347656 "/></g></g></g><g fill="#000000" fill-opacity="1"><g transform="translate(392.773429, 594.249835)"><g><path d="M 37.046875 -34.847656 C 35.796875 -33.796875 34.347656 -32.945312 32.496094 -31.847656 C 30.148438 -30.546875 25.847656 -28.347656 21.796875 -25.996094 C 19.796875 -29.796875 17.5 -34.546875 15.597656 -39.695312 L 9.347656 -37.144531 C 11.597656 -31.898438 14 -26.648438 16.296875 -22.398438 C 11.550781 -18.898438 8.097656 -14.847656 8.097656 -9.347656 C 8.097656 -0.851562 15.546875 1.898438 25.398438 1.898438 C 31.847656 1.898438 37.097656 1.398438 41.296875 0.699219 L 41.394531 -6.449219 C 36.996094 -5.449219 30.296875 -4.648438 25.199219 -4.648438 C 18.347656 -4.648438 14.898438 -6.550781 14.898438 -10.097656 C 14.898438 -13.546875 17.648438 -16.398438 21.796875 -19.097656 C 26.296875 -21.996094 32.496094 -24.898438 35.597656 -26.449219 C 37.394531 -27.347656 38.996094 -28.195312 40.496094 -29.097656 Z M 37.046875 -34.847656 "/></g></g></g><g fill="#000000" fill-opacity="1"><g transform="translate(442.765706, 594.249835)"><g><path d="M 38.894531 -16.847656 L 38.894531 -4.398438 L 27.746094 -4.398438 L 27.746094 -19.5 L 43.09375 -19.5 L 43.09375 -37.644531 L 36.847656 -37.644531 L 36.847656 -25.296875 L 27.746094 -25.296875 L 27.746094 -41.847656 L 21.648438 -41.847656 L 21.648438 -25.296875 L 13.046875 -25.296875 L 13.046875 -37.644531 L 7.148438 -37.644531 L 7.148438 -19.5 L 21.648438 -19.5 L 21.648438 -4.398438 L 11.199219 -4.398438 L 11.199219 -16.847656 L 5.148438 -16.847656 L 5.148438 4.347656 L 11.199219 4.347656 L 11.199219 1.449219 L 38.894531 1.449219 L 38.894531 4.300781 L 45.09375 4.300781 L 45.09375 -16.847656 Z M 38.894531 -16.847656 "/></g></g></g><g fill="#000000" fill-opacity="1"><g transform="translate(492.757982, 594.249835)"><g><path d="M 16.046875 -36.347656 C 14.449219 -38.144531 11 -40.546875 8.25 -42.097656 L 4.300781 -38.394531 C 7.050781 -36.746094 10.347656 -34.097656 11.847656 -32.296875 Z M 34.148438 -34.445312 C 32.996094 -33.347656 31.695312 -32.398438 30.246094 -31.496094 C 28.648438 -32.347656 27.296875 -33.347656 26.148438 -34.445312 Z M 13.046875 -25.648438 C 13.949219 -24.546875 15.046875 -22.597656 15.546875 -21.398438 C 20.796875 -22.398438 25.949219 -23.847656 30.398438 -26.097656 C 34.847656 -23.898438 40.097656 -22.347656 45.84375 -21.546875 C 46.496094 -22.949219 47.894531 -25.046875 49.046875 -26.199219 C 44.09375 -26.746094 39.394531 -27.746094 35.394531 -29.148438 C 38.296875 -31.296875 40.746094 -33.945312 42.445312 -37.144531 L 38.894531 -38.996094 L 37.945312 -38.746094 L 29.445312 -38.746094 C 29.996094 -39.496094 30.496094 -40.246094 30.945312 -41.046875 L 25.746094 -42.445312 C 23.347656 -38.296875 18.847656 -34.597656 13.898438 -32.398438 C 15.199219 -31.648438 17.398438 -29.996094 18.398438 -29.046875 C 19.746094 -29.796875 21.097656 -30.695312 22.398438 -31.695312 C 23.347656 -30.796875 24.398438 -29.898438 25.496094 -29.097656 C 21.746094 -27.546875 17.449219 -26.449219 13.148438 -25.796875 L 14.199219 -26.898438 C 12.5 -28.648438 8.898438 -30.898438 6.199219 -32.246094 L 2.351562 -28.347656 C 5.148438 -26.847656 8.550781 -24.398438 10.148438 -22.597656 Z M 33.296875 -2.898438 L 33.296875 -6 L 45.144531 -6 L 45.144531 -10 L 33.296875 -10 L 33.296875 -11.949219 L 42.894531 -11.949219 L 42.894531 -15.75 L 33.296875 -15.75 L 33.296875 -17.597656 L 41.847656 -17.597656 L 41.847656 -21.597656 L 33.296875 -21.597656 L 33.296875 -24.199219 L 27.546875 -24.199219 L 27.546875 -21.597656 L 19 -21.597656 L 19 -17.597656 L 27.546875 -17.597656 L 27.546875 -15.75 L 17.949219 -15.75 L 17.949219 -11.949219 L 27.546875 -11.949219 L 27.546875 -10 L 16.097656 -10 L 16.097656 -6 L 27.546875 -6 L 27.546875 -2.898438 Z M 13.546875 -19.746094 L 2.199219 -19.746094 L 2.199219 -14.25 L 7.847656 -14.25 L 7.847656 -6.847656 C 5.699219 -5.148438 3.25 -3.449219 1.25 -2.199219 L 4.050781 3.851562 C 6.699219 1.699219 8.898438 -0.199219 11.050781 -2.199219 C 14.25 1.699219 18.398438 3.101562 24.546875 3.398438 C 30.546875 3.648438 40.746094 3.550781 46.796875 3.25 C 47.09375 1.550781 47.945312 -1.25 48.59375 -2.648438 C 41.945312 -2.101562 30.496094 -1.949219 24.648438 -2.199219 C 19.347656 -2.449219 15.648438 -3.800781 13.546875 -7.199219 Z M 13.546875 -19.746094 "/></g></g></g><g fill="#000000" fill-opacity="1"><g transform="translate(542.750259, 594.249835)"><g><path d="M 15.699219 -40.394531 L 14.75 -34.648438 C 20.648438 -33.648438 29.898438 -32.597656 35.097656 -32.148438 L 35.894531 -37.996094 C 30.746094 -38.296875 21.246094 -39.347656 15.699219 -40.394531 Z M 37.644531 -24.648438 L 33.996094 -28.796875 C 33.445312 -28.597656 32.097656 -28.296875 31.195312 -28.195312 C 27.097656 -27.648438 15.847656 -27.148438 13.5 -27.148438 C 11.699219 -27.148438 9.898438 -27.199219 8.75 -27.296875 L 9.347656 -20.449219 C 10.398438 -20.648438 11.898438 -20.898438 13.597656 -21.046875 C 16.449219 -21.296875 22.347656 -21.796875 25.847656 -21.949219 C 21.296875 -17.148438 11.199219 -7.097656 8.648438 -4.5 C 7.347656 -3.199219 6.097656 -2.148438 5.199219 -1.449219 L 11.097656 2.648438 C 14.5 -1.699219 18.199219 -5.699219 19.949219 -7.449219 C 21.097656 -8.648438 22.148438 -9.449219 23.148438 -9.449219 C 24.148438 -9.449219 25.199219 -8.800781 25.796875 -7.050781 C 26.148438 -5.800781 26.699219 -3.5 27.246094 -2.050781 C 28.445312 1.199219 30.996094 2.199219 35.695312 2.199219 C 38.246094 2.199219 43.34375 1.898438 45.394531 1.5 L 45.796875 -5 C 43.296875 -4.5 39.894531 -4.148438 36.097656 -4.148438 C 34.148438 -4.148438 33.046875 -4.898438 32.597656 -6.449219 C 32.148438 -7.699219 31.695312 -9.597656 31.246094 -10.949219 C 30.546875 -12.796875 29.648438 -13.847656 28.195312 -14.296875 C 27.695312 -14.546875 26.796875 -14.699219 26.347656 -14.699219 C 27.496094 -15.949219 32.148438 -20.199219 34.398438 -22.148438 C 35.296875 -22.847656 36.347656 -23.746094 37.644531 -24.648438 Z M 37.644531 -24.648438 "/></g></g></g><g fill="#000000" fill-opacity="1"><g transform="translate(592.742535, 594.249835)"><g><path d="M 24.546875 -3 C 21.648438 -3 19.546875 -4.25 19.546875 -6.097656 C 19.546875 -7.347656 20.746094 -8.449219 22.597656 -8.449219 C 25.296875 -8.449219 27.148438 -6.347656 27.445312 -3.148438 C 26.546875 -3.050781 25.597656 -3 24.546875 -3 Z M 35.445312 -38.695312 C 34.847656 -38.546875 33.695312 -38.347656 31.648438 -38.195312 C 28.847656 -37.945312 18.25 -37.695312 15.648438 -37.695312 C 14.25 -37.695312 12.546875 -37.796875 11.148438 -37.945312 L 11.347656 -31.496094 C 12.5 -31.695312 14.046875 -31.847656 15.398438 -31.898438 C 18 -32.097656 24.796875 -32.398438 27.347656 -32.445312 C 24.898438 -30.296875 19.746094 -26.148438 17 -23.847656 C 14.046875 -21.449219 8.097656 -16.398438 4.597656 -13.546875 L 9.097656 -8.898438 C 14.398438 -14.898438 19.347656 -18.949219 26.949219 -18.949219 C 32.695312 -18.949219 37.195312 -15.949219 37.195312 -11.5 C 37.195312 -8.5 35.847656 -6.199219 33.148438 -4.75 C 32.398438 -9.449219 28.695312 -13.199219 22.597656 -13.199219 C 17.347656 -13.199219 13.699219 -9.5 13.699219 -5.5 C 13.699219 -0.550781 18.898438 2.601562 25.796875 2.601562 C 37.746094 2.601562 43.695312 -3.601562 43.695312 -11.398438 C 43.695312 -18.597656 37.296875 -23.847656 28.898438 -23.847656 C 27.296875 -23.847656 25.898438 -23.746094 24.246094 -23.296875 C 27.347656 -25.796875 32.546875 -30.195312 35.195312 -32.046875 C 36.296875 -32.796875 37.445312 -33.546875 38.644531 -34.296875 Z M 35.445312 -38.695312 "/></g></g></g><g fill="#000000" fill-opacity="1"><g transform="translate(192.804368, 663.999831)"><g><path d="M 44.246094 -21.199219 C 42.945312 -20.796875 41.097656 -20.398438 39.144531 -19.996094 C 36.894531 -19.546875 32.796875 -18.898438 28.296875 -18.148438 L 26.746094 -26.097656 L 36.746094 -27.695312 C 38.246094 -27.898438 40.246094 -28.195312 41.347656 -28.296875 L 40.144531 -34.847656 C 38.945312 -34.496094 37.046875 -34.097656 35.445312 -33.796875 C 33.648438 -33.445312 29.847656 -32.847656 25.597656 -32.148438 C 25.199219 -34.398438 24.898438 -36.046875 24.796875 -36.746094 C 24.546875 -37.945312 24.398438 -39.644531 24.246094 -40.644531 L 17.199219 -39.496094 C 17.546875 -38.296875 17.898438 -37.097656 18.199219 -35.695312 C 18.347656 -34.898438 18.699219 -33.246094 19.097656 -31.148438 C 14.796875 -30.445312 10.949219 -29.898438 9.199219 -29.695312 C 7.648438 -29.496094 6.148438 -29.398438 4.550781 -29.347656 L 5.898438 -22.449219 C 7.398438 -22.847656 8.75 -23.148438 10.5 -23.496094 C 12.046875 -23.746094 15.898438 -24.398438 20.296875 -25.097656 L 21.796875 -17.097656 C 16.75 -16.296875 12.097656 -15.546875 9.800781 -15.199219 C 8.199219 -15 5.949219 -14.699219 4.597656 -14.648438 L 6 -7.949219 C 7.148438 -8.25 8.847656 -8.597656 11 -9 C 13.148438 -9.398438 17.847656 -10.199219 22.949219 -11.050781 C 23.746094 -6.847656 24.398438 -3.398438 24.648438 -1.949219 C 24.949219 -0.5 25.097656 1.199219 25.347656 3.101562 L 32.546875 1.800781 C 32.097656 0.199219 31.597656 -1.601562 31.246094 -3.101562 C 30.945312 -4.648438 30.246094 -8 29.445312 -12.097656 C 33.847656 -12.796875 37.894531 -13.449219 40.296875 -13.847656 C 42.195312 -14.148438 44.246094 -14.5 45.546875 -14.597656 Z M 44.246094 -21.199219 "/></g></g></g><g fill="#000000" fill-opacity="1"><g transform="translate(242.796633, 663.999831)"><g><path d="M 25.246094 -29.746094 L 19.296875 -27.796875 C 20.546875 -25.199219 22.746094 -19.148438 23.347656 -16.699219 L 29.347656 -18.796875 C 28.648438 -21.097656 26.199219 -27.597656 25.246094 -29.746094 Z M 36.644531 -28.347656 C 36.097656 -22.097656 33.695312 -15.449219 30.296875 -11.199219 C 26.148438 -6 19.199219 -2.199219 13.699219 -0.75 L 18.949219 4.597656 C 24.796875 2.398438 31.046875 -1.800781 35.695312 -7.800781 C 39.097656 -12.199219 41.195312 -17.398438 42.496094 -22.449219 C 42.796875 -23.449219 43.09375 -24.496094 43.695312 -26.097656 Z M 13.648438 -27.097656 L 7.648438 -24.949219 C 8.847656 -22.746094 11.347656 -16.097656 12.199219 -13.398438 L 18.296875 -15.699219 C 17.296875 -18.5 14.898438 -24.546875 13.648438 -27.097656 Z M 13.648438 -27.097656 "/></g></g></g><g fill="#000000" fill-opacity="1"><g transform="translate(292.788899, 663.999831)"><g><path d="M 39.296875 -31.496094 C 38.046875 -31.296875 36.746094 -31.148438 35.496094 -31.148438 L 26.097656 -31.148438 C 26.199219 -32.597656 26.246094 -34.097656 26.296875 -35.644531 C 26.347656 -36.847656 26.449219 -38.945312 26.597656 -40.097656 L 19.25 -40.097656 C 19.449219 -38.894531 19.597656 -36.597656 19.597656 -35.496094 C 19.597656 -33.996094 19.546875 -32.546875 19.5 -31.148438 L 12.347656 -31.148438 C 10.449219 -31.148438 7.847656 -31.296875 5.75 -31.496094 L 5.75 -24.949219 C 7.898438 -25.148438 10.648438 -25.148438 12.347656 -25.148438 L 18.949219 -25.148438 C 17.847656 -17.546875 15.347656 -11.949219 10.699219 -7.347656 C 8.699219 -5.300781 6.25 -3.601562 4.148438 -2.449219 L 9.949219 2.25 C 18.898438 -4.097656 23.648438 -11.949219 25.496094 -25.148438 L 36.746094 -25.148438 C 36.746094 -19.746094 36.097656 -9.75 34.648438 -6.597656 C 34.097656 -5.398438 33.398438 -4.847656 31.796875 -4.847656 C 29.847656 -4.847656 27.246094 -5.097656 24.796875 -5.550781 L 25.546875 1.148438 C 27.996094 1.351562 30.996094 1.550781 33.847656 1.550781 C 37.296875 1.550781 39.195312 0.25 40.296875 -2.300781 C 42.445312 -7.398438 43.046875 -21.347656 43.246094 -26.746094 C 43.246094 -27.296875 43.445312 -28.546875 43.59375 -29.398438 Z M 39.296875 -31.496094 "/></g></g></g><g fill="#000000" fill-opacity="1"><g transform="translate(342.781164, 663.999831)"><g><path d="M 19.398438 -31.445312 C 19.949219 -32.746094 20.398438 -34.046875 20.796875 -35.097656 C 21.199219 -36.144531 21.847656 -37.894531 22.398438 -39.144531 L 14.699219 -40.695312 C 14.597656 -38.996094 14.199219 -37.097656 13.648438 -35.546875 C 13.046875 -33.648438 12.148438 -31.046875 10.75 -28.746094 C 8.847656 -25.597656 5.648438 -21.097656 2.101562 -18.449219 L 8.398438 -14.648438 C 11.398438 -17.25 14.449219 -21.496094 16.449219 -25.148438 L 26.996094 -25.148438 C 26.199219 -14.699219 22.046875 -8.550781 16.796875 -4.550781 C 15.648438 -3.550781 13.847656 -2.5 12.046875 -1.75 L 18.796875 2.75 C 27.847656 -2.949219 33.046875 -11.847656 33.945312 -25.148438 L 40.945312 -25.148438 C 42.097656 -25.148438 44.296875 -25.148438 46.144531 -24.949219 L 46.144531 -31.796875 C 44.496094 -31.496094 42.246094 -31.445312 40.945312 -31.445312 Z M 19.398438 -31.445312 "/></g></g></g><g fill="#000000" fill-opacity="1"><g transform="translate(392.773429, 663.999831)"><g><path d="M 22.398438 -34.898438 L 22.449219 -28.496094 C 28.648438 -27.945312 37.597656 -27.945312 43.695312 -28.496094 L 43.695312 -34.898438 C 38.347656 -34.246094 28.496094 -34.046875 22.398438 -34.898438 Z M 20.699219 -14.25 C 20.199219 -11.949219 19.847656 -9.847656 19.847656 -7.800781 C 19.847656 -2.75 23.898438 0.351562 32.445312 0.351562 C 38.046875 0.351562 42.046875 -0.0507812 45.246094 -0.648438 L 45.09375 -7.347656 C 40.796875 -6.449219 37.144531 -6.050781 32.695312 -6.050781 C 27.695312 -6.050781 25.796875 -7.347656 25.796875 -9.550781 C 25.796875 -10.898438 25.996094 -12.097656 26.398438 -13.699219 Z M 7.847656 -38.746094 C 7.847656 -37.195312 7.550781 -35.296875 7.347656 -33.898438 C 6.800781 -30.097656 5.300781 -21.746094 5.300781 -14.296875 C 5.300781 -7.597656 6.25 -1.550781 7.25 1.898438 L 12.949219 1.5 C 12.898438 0.800781 12.898438 0 12.847656 -0.550781 C 12.847656 -1.050781 13 -2.148438 13.148438 -2.851562 C 13.648438 -5.5 15.296875 -10.847656 16.699219 -15 L 13.597656 -17.398438 C 12.898438 -15.796875 12.097656 -14.148438 11.398438 -12.398438 C 11.25 -13.449219 11.199219 -14.648438 11.199219 -15.597656 C 11.199219 -20.546875 12.898438 -30.445312 13.597656 -33.746094 C 13.796875 -34.648438 14.398438 -37.144531 14.796875 -38.144531 Z M 7.847656 -38.746094 "/></g></g></g><g fill="#000000" fill-opacity="1"><g transform="translate(442.765706, 663.999831)"><g><path d="M 47.195312 -27.296875 C 44.695312 -29.097656 38.546875 -32.445312 34.996094 -33.996094 L 31.796875 -29.097656 C 35.195312 -27.597656 40.847656 -24.347656 43.695312 -22.046875 Z M 28.546875 -34.898438 C 26.597656 -34.296875 24.296875 -33.746094 21.898438 -33.347656 C 22.597656 -35.996094 23.199219 -38.496094 23.597656 -40.097656 L 16.75 -40.796875 C 16.648438 -38.246094 16.097656 -35.246094 15.398438 -32.496094 C 13.898438 -32.398438 12.398438 -32.347656 10.949219 -32.347656 C 9.148438 -32.347656 6.5 -32.445312 4.347656 -32.695312 L 4.800781 -26.898438 C 6.949219 -26.796875 8.949219 -26.746094 11 -26.746094 C 11.847656 -26.746094 12.699219 -26.746094 13.546875 -26.796875 C 11.347656 -21.449219 7.449219 -14.148438 3.449219 -9.300781 L 9.5 -6.25 C 13.5 -11.898438 17.75 -20.496094 20.097656 -27.445312 C 23.398438 -27.898438 26.449219 -28.546875 28.695312 -29.148438 Z M 29.746094 -7.347656 C 29.746094 -4.699219 28.648438 -2.75 25.296875 -2.75 C 22.597656 -2.75 21.046875 -4 21.046875 -5.847656 C 21.046875 -7.597656 22.898438 -8.800781 25.746094 -8.800781 C 27.148438 -8.800781 28.445312 -8.597656 29.746094 -8.300781 Z M 28.945312 -24.699219 C 29.097656 -21.699219 29.347656 -17.347656 29.496094 -13.648438 C 28.445312 -13.75 27.296875 -13.847656 26.148438 -13.847656 C 19.25 -13.847656 15.199219 -10.097656 15.199219 -5.25 C 15.199219 0.199219 20.046875 2.949219 26.199219 2.949219 C 33.246094 2.949219 35.746094 -0.648438 35.746094 -5.25 L 35.746094 -5.699219 C 38.445312 -4.050781 40.695312 -2.050781 42.445312 -0.449219 L 45.746094 -5.75 C 43.246094 -8 39.746094 -10.5 35.496094 -12.097656 C 35.347656 -14.546875 35.246094 -16.949219 35.195312 -18.347656 C 35.148438 -20.546875 35.046875 -22.597656 35.195312 -24.699219 Z M 28.945312 -24.699219 "/></g></g></g><g fill="#000000" fill-opacity="1"><g transform="translate(492.757982, 663.999831)"><g><path d="M 24.546875 -3 C 21.648438 -3 19.546875 -4.25 19.546875 -6.097656 C 19.546875 -7.347656 20.746094 -8.449219 22.597656 -8.449219 C 25.296875 -8.449219 27.148438 -6.347656 27.445312 -3.148438 C 26.546875 -3.050781 25.597656 -3 24.546875 -3 Z M 35.445312 -38.695312 C 34.847656 -38.546875 33.695312 -38.347656 31.648438 -38.195312 C 28.847656 -37.945312 18.25 -37.695312 15.648438 -37.695312 C 14.25 -37.695312 12.546875 -37.796875 11.148438 -37.945312 L 11.347656 -31.496094 C 12.5 -31.695312 14.046875 -31.847656 15.398438 -31.898438 C 18 -32.097656 24.796875 -32.398438 27.347656 -32.445312 C 24.898438 -30.296875 19.746094 -26.148438 17 -23.847656 C 14.046875 -21.449219 8.097656 -16.398438 4.597656 -13.546875 L 9.097656 -8.898438 C 14.398438 -14.898438 19.347656 -18.949219 26.949219 -18.949219 C 32.695312 -18.949219 37.195312 -15.949219 37.195312 -11.5 C 37.195312 -8.5 35.847656 -6.199219 33.148438 -4.75 C 32.398438 -9.449219 28.695312 -13.199219 22.597656 -13.199219 C 17.347656 -13.199219 13.699219 -9.5 13.699219 -5.5 C 13.699219 -0.550781 18.898438 2.601562 25.796875 2.601562 C 37.746094 2.601562 43.695312 -3.601562 43.695312 -11.398438 C 43.695312 -18.597656 37.296875 -23.847656 28.898438 -23.847656 C 27.296875 -23.847656 25.898438 -23.746094 24.246094 -23.296875 C 27.347656 -25.796875 32.546875 -30.195312 35.195312 -32.046875 C 36.296875 -32.796875 37.445312 -33.546875 38.644531 -34.296875 Z M 35.445312 -38.695312 "/></g></g></g><g fill="#000000" fill-opacity="1"><g transform="translate(542.750259, 663.999831)"><g><path d="M 15.75 -40.097656 C 15.796875 -36.996094 15.398438 -33.398438 14.699219 -29.597656 C 12.199219 -29.398438 9.847656 -29.246094 8.300781 -29.195312 C 6.5 -29.148438 4.847656 -29.046875 3.050781 -29.195312 L 3.601562 -22.496094 C 5.148438 -22.746094 7.699219 -23.097656 9.097656 -23.246094 C 10.050781 -23.398438 11.597656 -23.597656 13.347656 -23.796875 C 11.550781 -17.046875 8.199219 -7.148438 3.351562 -0.648438 L 9.847656 1.949219 C 14.398438 -5.347656 18 -17 19.898438 -24.496094 C 21.296875 -24.597656 22.496094 -24.699219 23.296875 -24.699219 C 26.449219 -24.699219 28.148438 -24.148438 28.148438 -20.199219 C 28.148438 -15.296875 27.496094 -9.398438 26.097656 -6.648438 C 25.347656 -5 24.046875 -4.5 22.398438 -4.5 C 21.097656 -4.5 18.25 -5 16.347656 -5.550781 L 17.449219 1 C 19.097656 1.398438 21.449219 1.699219 23.347656 1.699219 C 27.097656 1.699219 29.847656 0.601562 31.496094 -2.851562 C 33.597656 -7.148438 34.296875 -15.046875 34.296875 -20.898438 C 34.296875 -27.996094 30.597656 -30.347656 25.347656 -30.347656 C 24.347656 -30.347656 22.847656 -30.246094 21.199219 -30.148438 C 21.546875 -31.945312 21.949219 -33.746094 22.199219 -35.246094 C 22.449219 -36.496094 22.796875 -38.046875 23.097656 -39.347656 Z M 34.195312 -32.195312 C 37.746094 -27.796875 41.296875 -18.847656 42.597656 -13.347656 L 48.84375 -16.296875 C 47.34375 -20.996094 43.195312 -30.445312 40.195312 -34.695312 Z M 34.195312 -32.195312 "/></g></g></g><g fill="#000000" fill-opacity="1"><g transform="translate(592.742535, 663.999831)"><g><path d="M 32.648438 -20.449219 C 35.847656 -17.398438 37.746094 -14.199219 37.746094 -10.847656 C 37.746094 -6.75 33.945312 -3.601562 27.046875 -3.601562 C 22.148438 -3.601562 19.648438 -5.847656 19.648438 -9.898438 C 19.648438 -10.800781 19.746094 -12.046875 19.847656 -13.5 C 20.496094 -13.5 21.199219 -13.5 21.847656 -13.5 C 24.898438 -13.5 27.796875 -13.699219 30.597656 -13.949219 L 30.746094 -19.847656 C 27.496094 -19.5 23.847656 -19.25 20.796875 -19.25 L 20.449219 -19.25 C 20.699219 -21.449219 20.996094 -23.796875 21.296875 -25.996094 C 25.296875 -25.996094 27.996094 -26.148438 30.945312 -26.449219 L 31.148438 -32.347656 C 28.796875 -31.996094 25.597656 -31.796875 22.046875 -31.746094 C 22.296875 -33.347656 22.449219 -34.648438 22.597656 -35.496094 C 22.796875 -36.796875 23.046875 -38.097656 23.449219 -39.894531 L 16.5 -40.296875 C 16.597656 -38.644531 16.5 -37.246094 16.398438 -35.894531 C 16.296875 -34.796875 16.199219 -33.445312 16 -31.945312 C 12.398438 -32.246094 8.699219 -32.847656 5.847656 -33.796875 L 5.5 -28.046875 C 8.398438 -27.246094 11.898438 -26.648438 15.347656 -26.296875 C 15.046875 -24.046875 14.796875 -21.746094 14.5 -19.546875 C 11.300781 -19.847656 7.949219 -20.398438 4.75 -21.496094 L 4.398438 -15.5 C 7.050781 -14.75 10.300781 -14.199219 13.898438 -13.847656 C 13.699219 -11.796875 13.546875 -10.050781 13.546875 -8.847656 C 13.546875 -0.601562 19.046875 2.800781 26.847656 2.800781 C 37.695312 2.800781 44.394531 -2.601562 44.394531 -10.050781 C 44.394531 -14.25 42.894531 -17.75 39.597656 -21.949219 Z M 32.648438 -20.449219 "/></g></g></g><g fill="#000000" fill-opacity="1"><g transform="translate(642.734812, 663.999831)"><g><path d="M 22.449219 -12.847656 L 27.597656 -12.847656 L 29.347656 -29.945312 L 29.597656 -37.394531 L 20.449219 -37.394531 L 20.648438 -29.945312 Z M 24.996094 0.449219 C 27.945312 0.449219 30.195312 -1.550781 30.195312 -4.449219 C 30.195312 -7.300781 27.945312 -9.398438 24.996094 -9.398438 C 22.046875 -9.398438 19.796875 -7.300781 19.796875 -4.449219 C 19.796875 -1.550781 22.046875 0.449219 24.996094 0.449219 Z M 24.996094 0.449219 "/></g></g></g><g fill="#000000" fill-opacity="1"><g transform="translate(201.319033, 129.570422)"><g><path d="M 28.882812 -31.011719 C 33.148438 -28.679688 36.078125 -25.820312 37.027344 -22.257812 C 38.195312 -17.902344 35.050781 -13.476562 27.71875 -11.515625 C 22.511719 -10.121094 19.21875 -11.800781 18.066406 -16.105469 C 17.808594 -17.0625 17.5625 -18.417969 17.253906 -19.988281 C 17.945312 -20.171875 18.691406 -20.371094 19.378906 -20.554688 C 22.621094 -21.421875 25.644531 -22.460938 28.550781 -23.519531 L 27.03125 -29.832031 C 23.679688 -28.535156 19.871094 -27.234375 16.628906 -26.367188 L 16.257812 -26.265625 C 15.898438 -28.675781 15.550781 -31.257812 15.242188 -33.679688 C 19.492188 -34.820312 22.320312 -35.746094 25.367188 -36.902344 L 23.90625 -43.230469 C 21.507812 -42.1875 18.164062 -41.066406 14.40625 -40.003906 C 14.214844 -41.777344 14.007812 -43.199219 13.925781 -44.144531 C 13.765625 -45.582031 13.664062 -47.035156 13.578125 -49.0625 L 6.078125 -47.511719 C 6.652344 -45.789062 6.945312 -44.269531 7.222656 -42.808594 C 7.429688 -41.609375 7.707031 -40.148438 7.921875 -38.496094 C 4.007812 -37.792969 -0.09375 -37.378906 -3.390625 -37.578125 L -2.128906 -31.367188 C 1.179688 -31.34375 5.070312 -31.699219 8.835938 -32.308594 C 9.15625 -29.832031 9.542969 -27.316406 9.851562 -24.894531 C 6.363281 -24.304688 2.648438 -23.9375 -1.0625 -24.195312 L 0.269531 -17.722656 C 3.296875 -17.675781 6.910156 -18.015625 10.832031 -18.667969 C 11.203125 -16.433594 11.542969 -14.53125 11.882812 -13.253906 C 14.226562 -4.488281 21.039062 -2.441406 29.328125 -4.65625 C 40.855469 -7.742188 46.441406 -15.382812 44.324219 -23.300781 C 43.128906 -27.761719 40.539062 -31.054688 35.839844 -34.578125 Z M 28.882812 -31.011719 "/></g></g></g><g fill="#000000" fill-opacity="1"><g transform="translate(254.447134, 115.358943)"><g><path d="M 1.769531 -24.667969 L 6.328125 -18.488281 C 10.332031 -21.609375 19.632812 -28.765625 25.742188 -30.398438 C 30.3125 -31.621094 34.027344 -29.652344 35.078125 -25.722656 C 36.996094 -18.550781 28.910156 -13.027344 17.039062 -9.511719 L 21.550781 -3.714844 C 38.015625 -9.203125 44.609375 -17.96875 42.066406 -27.476562 C 39.933594 -35.445312 33.035156 -38.894531 24.746094 -36.679688 C 18.371094 -34.972656 10.253906 -29.558594 6.980469 -27.542969 C 5.527344 -26.585938 3.238281 -25.347656 1.769531 -24.667969 Z M 1.769531 -24.667969 "/></g></g></g><g fill="#000000" fill-opacity="1"><g transform="translate(307.575236, 101.147464)"><g><path d="M 29.464844 -47.5625 C 28.433594 -46.089844 27.132812 -44.777344 25.480469 -43.082031 C 23.355469 -41.03125 19.410156 -37.472656 15.773438 -33.824219 C 12.570312 -37.292969 8.773438 -41.6875 5.292969 -46.617188 L -0.625 -42.132812 C 3.257812 -37.195312 7.300781 -32.296875 10.953125 -28.433594 C 6.902344 -23.367188 4.386719 -18.082031 5.949219 -12.238281 C 8.367188 -3.207031 17.0625 -2.402344 27.53125 -5.199219 C 34.382812 -7.035156 39.820312 -9.058594 44.082031 -10.996094 L 42.15625 -18.621094 C 37.765625 -16.308594 30.875 -13.554688 25.457031 -12.105469 C 18.175781 -10.15625 13.972656 -11.195312 12.960938 -14.96875 C 11.980469 -18.632812 14.09375 -22.441406 17.734375 -26.492188 C 21.691406 -30.851562 27.457031 -35.695312 30.308594 -38.222656 C 31.96875 -39.691406 33.425781 -41.050781 34.761719 -42.433594 Z M 29.464844 -47.5625 "/></g></g></g><g fill="#000000" fill-opacity="1"><g transform="translate(361.116811, 112.906059)"><g><path d="M 33.664062 -8.308594 C 35.542969 -4.800781 36.265625 -1.53125 35.324219 1.332031 C 34.171875 4.839844 30.039062 6.464844 24.140625 4.523438 C 19.949219 3.148438 18.445312 0.519531 19.582031 -2.941406 C 19.835938 -3.710938 20.273438 -4.75 20.765625 -5.964844 C 21.320312 -5.78125 21.921875 -5.582031 22.476562 -5.402344 C 25.082031 -4.542969 27.621094 -3.898438 30.082031 -3.328125 L 31.871094 -8.328125 C 28.992188 -8.941406 25.800781 -9.753906 23.195312 -10.613281 L 22.894531 -10.710938 C 23.726562 -12.519531 24.644531 -14.445312 25.519531 -16.242188 C 28.9375 -15.117188 31.289062 -14.488281 33.894531 -13.914062 L 35.726562 -18.902344 C 33.617188 -19.265625 30.824219 -19.992188 27.777344 -20.949219 C 28.441406 -22.246094 28.933594 -23.316406 29.300781 -24 C 29.835938 -25.054688 30.417969 -26.097656 31.265625 -27.523438 L 25.433594 -29.816406 C 25.054688 -28.378906 24.578125 -27.210938 24.113281 -26.085938 C 23.71875 -25.171875 23.253906 -24.046875 22.660156 -22.820312 C 19.667969 -24.089844 16.671875 -25.640625 14.5 -27.253906 L 12.585938 -22.4375 C 14.839844 -20.9375 17.664062 -19.441406 20.515625 -18.171875 C 19.628906 -16.332031 18.765625 -14.4375 17.890625 -12.640625 C 15.242188 -13.796875 12.53125 -15.207031 10.105469 -17.046875 L 8.117188 -12.015625 C 10.171875 -10.628906 12.796875 -9.246094 15.777344 -7.933594 C 15.03125 -6.238281 14.410156 -4.785156 14.074219 -3.757812 C 11.753906 3.296875 15.5 7.75 22.167969 9.941406 C 31.445312 12.992188 38.691406 10.257812 40.785156 3.886719 C 41.964844 0.296875 41.667969 -3.117188 40.027344 -7.636719 Z M 33.664062 -8.308594 "/></g></g></g><g fill="#000000" fill-opacity="1"><g transform="translate(403.866031, 126.95953)"><g><path d="M 12.257812 -16.101562 L 12.609375 -9.828125 C 16.75 -10.171875 26.324219 -10.910156 31.238281 -9.292969 C 34.917969 -8.085938 36.578125 -5.074219 35.539062 -1.910156 C 33.640625 3.859375 25.632812 4.019531 15.929688 1.113281 L 16.421875 7.105469 C 30.15625 10.71875 38.597656 7.667969 41.113281 0.015625 C 43.21875 -6.398438 40.039062 -11.847656 33.367188 -14.042969 C 28.238281 -15.726562 20.257812 -15.652344 17.109375 -15.738281 C 15.6875 -15.734375 13.566406 -15.910156 12.257812 -16.101562 Z M 12.257812 -16.101562 "/></g></g></g><g fill="#000000" fill-opacity="1"><g transform="translate(446.615251, 141.013001)"><g><path d="M 41.472656 -19.382812 C 40.109375 -18.835938 38.628906 -18.515625 36.738281 -18.097656 C 34.363281 -17.644531 30.070312 -16.972656 25.945312 -16.101562 C 25.304688 -19.914062 24.671875 -24.621094 24.496094 -29.558594 L 18.4375 -29.132812 C 18.882812 -24.011719 19.460938 -18.851562 20.230469 -14.570312 C 15.1875 -12.914062 11.097656 -10.417969 9.554688 -5.71875 C 7.164062 1.550781 12.761719 5.996094 21.183594 8.761719 C 26.695312 10.578125 31.328125 11.625 35.113281 12.207031 L 37.210938 6.121094 C 33.167969 5.738281 27.214844 4.539062 22.851562 3.105469 C 16.996094 1.183594 14.582031 -1.414062 15.578125 -4.449219 C 16.546875 -7.398438 19.699219 -9.0625 24.007812 -10.203125 C 28.667969 -11.417969 34.785156 -12.15625 37.871094 -12.609375 C 39.664062 -12.871094 41.269531 -13.148438 42.804688 -13.496094 Z M 41.472656 -19.382812 "/></g></g></g></svg>