<svg xmlns="http://www.w3.org/2000/svg" xmlns:xlink="http://www.w3.org/1999/xlink" width="1080" zoomAndPan="magnify" viewBox="0 0 810 809.999993" height="1080" preserveAspectRatio="xMidYMid meet" version="1.0"><defs><g/></defs><g fill="#000000" fill-opacity="1"><g transform="translate(182.999994, 244.026087)"><g><path d="M 58.34375 -46.644531 L 58.34375 -54.835938 C 58.34375 -57.953125 58.65625 -60.527344 58.8125 -62.089844 L 47.734375 -62.089844 C 47.96875 -60.527344 48.203125 -57.953125 48.203125 -54.835938 L 48.203125 -46.644531 L 29.71875 -46.644531 L 29.71875 -54.289062 C 29.71875 -57.40625 29.953125 -59.902344 30.1875 -61.386719 L 19.109375 -61.386719 C 19.265625 -59.902344 19.578125 -57.328125 19.578125 -54.367188 L 19.578125 -46.644531 L 12.949219 -46.644531 C 9.046875 -46.644531 5.929688 -47.113281 4.523438 -47.347656 L 4.523438 -36.738281 C 6.238281 -36.894531 9.046875 -37.050781 12.949219 -37.050781 L 19.578125 -37.050781 L 19.578125 -26.441406 C 19.578125 -22.933594 19.34375 -19.8125 19.109375 -18.253906 L 30.03125 -18.253906 C 29.953125 -19.8125 29.71875 -23.011719 29.71875 -26.441406 L 29.71875 -37.050781 L 48.203125 -37.050781 L 48.203125 -34.085938 C 48.203125 -14.976562 41.574219 -8.191406 26.519531 -2.964844 L 34.867188 4.914062 C 53.664062 -3.355469 58.34375 -15.132812 58.34375 -34.476562 L 58.34375 -37.050781 L 64.117188 -37.050781 C 68.25 -37.050781 70.980469 -36.972656 72.695312 -36.816406 L 72.695312 -47.191406 C 70.589844 -46.800781 68.25 -46.644531 64.117188 -46.644531 Z M 58.34375 -46.644531 "/></g></g></g><g fill="#000000" fill-opacity="1"><g transform="translate(261.000059, 244.026087)"><g><path d="M 42.355469 -1.09375 C 45.550781 -8.347656 46.957031 -16.847656 47.578125 -24.726562 C 49.375 -19.734375 51.480469 -15.054688 53.976562 -10.84375 C 50.621094 -6.785156 46.722656 -3.589844 42.355469 -1.09375 Z M 64.738281 -34.242188 C 63.414062 -28.390625 61.464844 -23.164062 59.046875 -18.5625 C 56.316406 -23.320312 54.210938 -28.625 52.570312 -34.242188 Z M 26.128906 -38.453125 L 26.128906 -34.789062 L 15.679688 -34.789062 L 15.679688 -38.453125 Z M 15.679688 -24.726562 L 15.679688 -28.546875 L 26.128906 -28.546875 L 26.128906 -24.726562 Z M 69.1875 -42.820312 L 67.546875 -42.589844 L 47.96875 -42.589844 L 47.96875 -53.742188 L 74.023438 -53.742188 L 74.023438 -62.398438 L 39.234375 -62.398438 L 39.234375 -35.644531 C 39.234375 -26.675781 38.84375 -15.523438 34.867188 -6.085938 C 33.460938 -9.75 31.433594 -14.039062 29.5625 -17.472656 L 22.152344 -14.820312 C 22.933594 -13.261719 23.710938 -11.542969 24.492188 -9.75 C 21.449219 -8.96875 18.484375 -8.191406 15.679688 -7.410156 L 15.679688 -18.328125 L 34.242188 -18.328125 L 34.242188 -44.851562 L 25.738281 -44.851562 L 25.738281 -51.246094 L 17.941406 -51.246094 L 17.941406 -44.851562 L 10.296875 -44.851562 C 15.210938 -49.375 18.875 -54.210938 21.605469 -58.421875 C 25.585938 -54.835938 29.875 -49.6875 32.136719 -46.253906 L 37.753906 -52.804688 C 34.945312 -56.863281 29.09375 -62.242188 24.414062 -65.988281 L 15.910156 -65.988281 C 13.183594 -60.058594 8.269531 -53.039062 0.859375 -47.734375 C 2.730469 -46.488281 5.460938 -43.679688 6.785156 -41.886719 L 7.410156 -42.355469 L 7.410156 -5.304688 C 5.695312 -4.914062 4.054688 -4.523438 2.574219 -4.210938 L 5.460938 4.367188 C 11.855469 2.417969 19.578125 -0.078125 27.222656 -2.652344 C 27.691406 -1.09375 28.15625 0.390625 28.390625 1.636719 L 31.277344 0.46875 L 30.574219 1.402344 C 32.527344 2.339844 36.269531 5.070312 37.753906 6.628906 C 39.46875 4.445312 40.949219 2.027344 42.121094 -0.625 C 43.914062 0.9375 46.644531 4.289062 47.8125 6.238281 C 51.949219 3.820312 55.769531 0.625 59.125 -3.433594 C 62.398438 0.46875 66.066406 3.664062 70.277344 6.238281 C 71.683594 3.898438 74.410156 0.546875 76.441406 -1.171875 C 71.839844 -3.511719 67.859375 -6.785156 64.429688 -10.84375 C 69.1875 -18.796875 72.695312 -28.859375 74.566406 -40.949219 Z M 69.1875 -42.820312 "/></g></g></g><g fill="#000000" fill-opacity="1"><g transform="translate(339.000124, 244.026087)"><g><path d="M 48.59375 -11.230469 C 48.515625 -14.742188 48.359375 -20.4375 48.28125 -24.726562 C 53.039062 -26.910156 57.40625 -28.625 60.839844 -29.953125 C 63.492188 -31.042969 67.546875 -32.605469 70.042969 -33.226562 L 66.144531 -42.199219 C 63.335938 -40.871094 60.605469 -39.546875 57.640625 -38.21875 C 54.445312 -36.816406 51.167969 -35.488281 47.191406 -33.617188 C 45.472656 -37.597656 41.574219 -39.625 36.894531 -39.625 C 34.320312 -39.625 30.1875 -39.078125 28.15625 -38.0625 C 29.796875 -40.324219 31.355469 -43.132812 32.605469 -45.863281 C 40.871094 -46.175781 50.386719 -46.800781 57.796875 -47.890625 L 57.875 -56.941406 C 51.089844 -55.691406 43.289062 -55.066406 36.035156 -54.679688 C 36.972656 -57.796875 37.519531 -60.449219 37.90625 -62.320312 L 27.769531 -63.179688 C 27.691406 -60.996094 27.144531 -57.875 26.207031 -54.367188 L 22.464844 -54.367188 C 18.5625 -54.367188 12.792969 -54.601562 8.890625 -55.222656 L 8.890625 -46.175781 C 13.105469 -45.785156 18.796875 -45.628906 21.917969 -45.628906 L 22.855469 -45.628906 C 19.421875 -38.765625 13.960938 -31.902344 5.851562 -24.414062 L 14.117188 -18.253906 C 16.769531 -21.605469 18.953125 -24.414062 21.292969 -26.753906 C 24.257812 -29.5625 29.015625 -32.058594 33.382812 -32.058594 C 35.488281 -32.058594 37.519531 -31.355469 38.765625 -29.40625 C 29.953125 -24.882812 20.59375 -18.640625 20.59375 -8.8125 C 20.59375 1.171875 29.71875 4.054688 41.808594 4.054688 C 49.0625 4.054688 58.5 3.433594 63.648438 2.808594 L 63.960938 -7.253906 C 57.175781 -5.851562 48.59375 -4.992188 42.042969 -4.992188 C 34.476562 -4.992188 30.808594 -6.160156 30.808594 -10.453125 C 30.808594 -14.273438 33.929688 -17.316406 39.625 -20.4375 C 39.546875 -17.082031 39.46875 -13.492188 39.3125 -11.230469 Z M 48.59375 -11.230469 "/></g></g></g><g fill="#000000" fill-opacity="1"><g transform="translate(417.00019, 244.026087)"><g><path d="M 58.109375 -15.289062 C 55.144531 -13.339844 51.871094 -11.464844 48.984375 -9.90625 C 46.800781 -11.542969 44.929688 -13.261719 43.367188 -15.289062 Z M 25.039062 -26.832031 L 52.648438 -26.832031 L 52.648438 -22.542969 L 25.039062 -22.542969 Z M 43.601562 -44.695312 L 43.601562 -50.699219 L 34.085938 -50.699219 L 34.085938 -44.695312 L 22.464844 -44.695312 C 29.09375 -48.984375 34.867188 -53.742188 38.6875 -58.1875 C 42.742188 -53.664062 48.828125 -48.828125 55.457031 -44.695312 Z M 25.039062 -37.519531 L 52.648438 -37.519531 L 52.648438 -33.460938 L 25.039062 -33.460938 Z M 64.351562 -19.65625 C 63.648438 -19.109375 62.867188 -18.484375 62.011719 -17.941406 L 62.011719 -40.792969 C 64.816406 -39.3125 67.625 -37.90625 70.355469 -36.738281 C 71.914062 -39.46875 74.023438 -42.742188 76.207031 -45.007812 C 64.039062 -48.90625 51.636719 -56.550781 42.898438 -66.300781 L 33.617188 -66.300781 C 27.457031 -58.265625 14.820312 -49.21875 2.027344 -44.148438 C 3.898438 -42.277344 6.238281 -38.6875 7.410156 -36.503906 C 10.21875 -37.753906 13.105469 -39.15625 15.835938 -40.714844 L 15.835938 -3.121094 C 12.871094 -2.886719 10.140625 -2.652344 7.722656 -2.496094 L 8.96875 6.007812 C 17.941406 5.226562 30.1875 4.132812 41.730469 2.964844 L 41.574219 -5.226562 L 25.039062 -3.820312 L 25.039062 -15.289062 L 34.007812 -15.289062 C 40.871094 -3.042969 52.105469 3.976562 69.109375 6.785156 C 70.277344 4.289062 72.773438 0.625 74.644531 -1.324219 C 67.703125 -2.105469 61.699219 -3.589844 56.550781 -5.695312 C 61.386719 -8.113281 66.613281 -11.152344 71.058594 -14.117188 Z M 64.351562 -19.65625 "/></g></g></g><g fill="#000000" fill-opacity="1"><g transform="translate(495.000255, 244.026087)"><g><path d="M 55.300781 -53.742188 L 48.515625 -50.933594 C 51.402344 -46.878906 53.351562 -43.132812 55.691406 -38.21875 L 62.710938 -41.261719 C 60.917969 -44.851562 57.484375 -50.464844 55.300781 -53.742188 Z M 65.753906 -58.03125 L 59.046875 -54.910156 C 61.933594 -51.011719 64.039062 -47.503906 66.613281 -42.589844 L 73.398438 -45.863281 C 71.605469 -49.296875 68.09375 -54.910156 65.753906 -58.03125 Z M 2.652344 -22.074219 L 11.933594 -12.402344 C 13.339844 -14.429688 15.054688 -17.550781 16.847656 -20.046875 C 20.125 -24.414062 25.738281 -31.980469 28.78125 -35.878906 C 31.042969 -38.765625 32.527344 -39.078125 35.257812 -36.113281 C 38.921875 -32.058594 44.695312 -24.726562 49.453125 -19.109375 C 54.367188 -13.261719 60.761719 -5.617188 66.378906 -0.390625 L 74.410156 -9.515625 C 67.078125 -16.066406 60.527344 -23.011719 55.535156 -28.390625 C 51.011719 -33.382812 44.773438 -41.339844 39.546875 -46.488281 C 33.929688 -51.949219 28.859375 -51.402344 23.476562 -45.316406 C 18.71875 -39.703125 12.714844 -31.746094 9.203125 -28.078125 C 6.863281 -25.585938 4.992188 -23.867188 2.652344 -22.074219 Z M 2.652344 -22.074219 "/></g></g></g><g fill="#000000" fill-opacity="1"><g transform="translate(573.000342, 244.026087)"><g><path d="M 34.632812 -12.402344 C 34.632812 -7.332031 32.839844 -5.070312 27.847656 -5.070312 C 22.464844 -5.070312 18.5625 -6.472656 18.5625 -10.296875 C 18.5625 -13.570312 22.152344 -15.601562 28.15625 -15.601562 C 30.34375 -15.601562 32.527344 -15.367188 34.554688 -15.054688 C 34.632812 -14.039062 34.632812 -13.105469 34.632812 -12.402344 Z M 68.015625 -8.8125 C 62.710938 -13.804688 54.367188 -19.109375 44.539062 -22.074219 C 44.148438 -27.769531 43.835938 -33.851562 43.679688 -38.53125 C 49.921875 -38.6875 59.125 -39 65.597656 -39.625 L 65.207031 -48.828125 C 58.8125 -48.125 49.765625 -47.8125 43.679688 -47.65625 C 43.679688 -49.609375 43.679688 -51.558594 43.679688 -53.273438 C 43.835938 -56.316406 44.070312 -60.058594 44.382812 -62.320312 L 32.761719 -62.320312 C 33.226562 -60.371094 33.460938 -57.097656 33.539062 -53.273438 C 33.617188 -49.996094 33.695312 -45.394531 33.695312 -40.714844 C 33.695312 -36.660156 34.007812 -30.03125 34.242188 -24.023438 C 32.761719 -24.179688 31.199219 -24.257812 29.640625 -24.257812 C 15.445312 -24.257812 8.578125 -17.863281 8.578125 -9.828125 C 8.578125 0.703125 17.628906 4.289062 28.625 4.289062 C 41.574219 4.289062 45.085938 -2.261719 45.085938 -9.046875 C 45.085938 -9.828125 45.085938 -10.6875 45.007812 -11.699219 C 51.871094 -8.578125 57.71875 -3.976562 62.089844 0.390625 Z M 68.015625 -8.8125 "/></g></g></g><g fill="#000000" fill-opacity="1"><g transform="translate(651.00043, 244.026087)"><g><path d="M 53.195312 -25.660156 C 53.195312 -13.570312 40.949219 -7.332031 21.761719 -5.148438 L 27.378906 4.523438 C 48.828125 1.558594 64.117188 -8.734375 64.117188 -25.273438 C 64.117188 -37.363281 55.535156 -44.304688 43.289062 -44.304688 C 34.320312 -44.304688 25.660156 -42.042969 19.96875 -40.792969 C 17.472656 -40.246094 14.117188 -39.703125 11.542969 -39.46875 L 14.429688 -28.46875 C 16.691406 -29.25 19.65625 -30.421875 21.917969 -31.121094 C 25.894531 -32.292969 33.539062 -34.867188 42.042969 -34.867188 C 49.296875 -34.945312 53.195312 -30.730469 53.195312 -25.660156 Z M 22.933594 -62.789062 L 21.371094 -53.429688 C 30.265625 -51.871094 47.035156 -50.386719 56.082031 -49.765625 L 57.640625 -59.28125 C 49.453125 -59.28125 31.902344 -60.839844 22.933594 -62.789062 Z M 22.933594 -62.789062 "/></g></g></g><path stroke-linecap="butt" transform="matrix(0.75, 0, 0, 0.75, 72.908203, 60.999989)" fill="none" stroke-linejoin="miter" d="M 13.606772 112.291687 L 14.127605 105.322937 L 45.570315 105.322937 C 61.585941 105.671895 71.632816 105.953145 75.71615 106.171895 C 79.794275 106.34377 83.351567 106.864603 86.393234 107.734395 C 99.716151 111.291687 108.330735 118.234396 112.236985 128.56773 C 113.669277 131.041688 114.47136 133.078146 114.643235 134.687522 C 114.820318 136.291688 114.903652 139.56773 114.903652 144.515647 C 114.903652 149.161481 114.820318 152.458356 114.643235 154.411481 C 114.47136 156.364606 113.861985 158.859398 112.820318 161.895856 C 111.216152 165.630231 109.611985 168.776065 108.00261 171.338565 C 106.398443 173.901065 103.903651 176.958357 100.518234 180.515649 C 97.304693 183.729191 93.835942 186.812524 90.101567 189.760441 C 86.367192 192.671899 79.794275 197.250025 70.377608 203.500025 L 55.205732 213.588567 L 115.164068 213.588567 L 115.164068 250.958361 L 111.195318 251.739611 C 109.414068 251.911486 103.992193 252.000027 94.919276 252.000027 C 85.674484 252.000027 72.783858 251.911486 56.247399 251.739611 L 5.856771 251.739611 L 5.856771 234.161485 C 5.856771 222.401068 6.117188 215.541692 6.638021 213.588567 C 7.54948 211.463567 9.632813 208.817734 12.888022 205.645858 C 16.190105 202.437525 21.76823 197.791691 29.622397 191.713566 C 51.278649 174.656274 64.190108 164.088565 68.356774 160.010439 C 72.565108 155.932314 74.674483 151.828147 74.674483 147.703147 L 74.674483 143.213564 L 71.221358 142.69273 C 69.268233 142.13023 58.851566 141.84898 39.971356 141.84898 L 14.127605 141.84898 C 13.95573 141.84898 13.695313 139.979188 13.346355 136.250022 C 12.997397 132.515646 12.825522 128.479188 12.825522 124.140646 C 12.825522 119.796896 13.085938 115.848979 13.606772 112.291687 Z M 13.606772 112.291687 " stroke="#000000" stroke-width="10.000012" stroke-opacity="1" stroke-miterlimit="4"/><g fill="#000000" fill-opacity="1"><g transform="translate(192.804368, 454.749842)"><g><path d="M 37.246094 -9.800781 C 35.347656 -8.550781 33.246094 -7.347656 31.398438 -6.347656 C 29.996094 -7.398438 28.796875 -8.5 27.796875 -9.800781 Z M 16.046875 -17.199219 L 33.746094 -17.199219 L 33.746094 -14.449219 L 16.046875 -14.449219 Z M 27.945312 -28.648438 L 27.945312 -32.496094 L 21.847656 -32.496094 L 21.847656 -28.648438 L 14.398438 -28.648438 C 18.648438 -31.398438 22.347656 -34.445312 24.796875 -37.296875 C 27.398438 -34.398438 31.296875 -31.296875 35.546875 -28.648438 Z M 16.046875 -24.046875 L 33.746094 -24.046875 L 33.746094 -21.449219 L 16.046875 -21.449219 Z M 41.246094 -12.597656 C 40.796875 -12.25 40.296875 -11.847656 39.746094 -11.5 L 39.746094 -26.148438 C 41.546875 -25.199219 43.34375 -24.296875 45.09375 -23.546875 C 46.09375 -25.296875 47.445312 -27.398438 48.84375 -28.847656 C 41.046875 -31.347656 33.097656 -36.246094 27.496094 -42.496094 L 21.546875 -42.496094 C 17.597656 -37.347656 9.5 -31.546875 1.300781 -28.296875 C 2.5 -27.097656 4 -24.796875 4.75 -23.398438 C 6.550781 -24.199219 8.398438 -25.097656 10.148438 -26.097656 L 10.148438 -2 C 8.25 -1.851562 6.5 -1.699219 4.949219 -1.601562 L 5.75 3.851562 C 11.5 3.351562 19.347656 2.648438 26.746094 1.898438 L 26.648438 -3.351562 L 16.046875 -2.449219 L 16.046875 -9.800781 L 21.796875 -9.800781 C 26.199219 -1.949219 33.398438 2.550781 44.296875 4.347656 C 45.046875 2.75 46.644531 0.398438 47.84375 -0.851562 C 43.394531 -1.351562 39.546875 -2.300781 36.246094 -3.648438 C 39.347656 -5.199219 42.695312 -7.148438 45.546875 -9.050781 Z M 41.246094 -12.597656 "/></g></g></g><g fill="#000000" fill-opacity="1"><g transform="translate(242.796633, 454.749842)"><g><path d="M 35.445312 -34.445312 L 31.097656 -32.648438 C 32.945312 -30.046875 34.195312 -27.648438 35.695312 -24.496094 L 40.195312 -26.449219 C 39.046875 -28.746094 36.847656 -32.347656 35.445312 -34.445312 Z M 42.144531 -37.195312 L 37.847656 -35.195312 C 39.695312 -32.695312 41.046875 -30.445312 42.695312 -27.296875 L 47.046875 -29.398438 C 45.894531 -31.597656 43.644531 -35.195312 42.144531 -37.195312 Z M 1.699219 -14.148438 L 7.648438 -7.949219 C 8.550781 -9.25 9.648438 -11.25 10.800781 -12.847656 C 12.898438 -15.648438 16.5 -20.496094 18.449219 -22.996094 C 19.898438 -24.847656 20.847656 -25.046875 22.597656 -23.148438 C 24.949219 -20.546875 28.648438 -15.847656 31.695312 -12.25 C 34.847656 -8.5 38.945312 -3.601562 42.546875 -0.25 L 47.695312 -6.097656 C 42.996094 -10.300781 38.796875 -14.75 35.597656 -18.199219 C 32.695312 -21.398438 28.695312 -26.496094 25.347656 -29.796875 C 21.746094 -33.296875 18.5 -32.945312 15.046875 -29.046875 C 12 -25.449219 8.148438 -20.347656 5.898438 -18 C 4.398438 -16.398438 3.199219 -15.296875 1.699219 -14.148438 Z M 1.699219 -14.148438 "/></g></g></g><g fill="#000000" fill-opacity="1"><g transform="translate(292.788899, 454.749842)"><g><path d="M 24.546875 -3 C 21.648438 -3 19.546875 -4.25 19.546875 -6.097656 C 19.546875 -7.347656 20.746094 -8.449219 22.597656 -8.449219 C 25.296875 -8.449219 27.148438 -6.347656 27.445312 -3.148438 C 26.546875 -3.050781 25.597656 -3 24.546875 -3 Z M 35.445312 -38.695312 C 34.847656 -38.546875 33.695312 -38.347656 31.648438 -38.195312 C 28.847656 -37.945312 18.25 -37.695312 15.648438 -37.695312 C 14.25 -37.695312 12.546875 -37.796875 11.148438 -37.945312 L 11.347656 -31.496094 C 12.5 -31.695312 14.046875 -31.847656 15.398438 -31.898438 C 18 -32.097656 24.796875 -32.398438 27.347656 -32.445312 C 24.898438 -30.296875 19.746094 -26.148438 17 -23.847656 C 14.046875 -21.449219 8.097656 -16.398438 4.597656 -13.546875 L 9.097656 -8.898438 C 14.398438 -14.898438 19.347656 -18.949219 26.949219 -18.949219 C 32.695312 -18.949219 37.195312 -15.949219 37.195312 -11.5 C 37.195312 -8.5 35.847656 -6.199219 33.148438 -4.75 C 32.398438 -9.449219 28.695312 -13.199219 22.597656 -13.199219 C 17.347656 -13.199219 13.699219 -9.5 13.699219 -5.5 C 13.699219 -0.550781 18.898438 2.601562 25.796875 2.601562 C 37.746094 2.601562 43.695312 -3.601562 43.695312 -11.398438 C 43.695312 -18.597656 37.296875 -23.847656 28.898438 -23.847656 C 27.296875 -23.847656 25.898438 -23.746094 24.246094 -23.296875 C 27.347656 -25.796875 32.546875 -30.195312 35.195312 -32.046875 C 36.296875 -32.796875 37.445312 -33.546875 38.644531 -34.296875 Z M 35.445312 -38.695312 "/></g></g></g><g fill="#000000" fill-opacity="1"><g transform="translate(342.781164, 454.749842)"><g><path d="M 10.75 -10.398438 L 10.75 -13.648438 L 19.097656 -13.648438 L 19.097656 -10.398438 Z M 19.097656 -21.148438 L 19.097656 -18.046875 L 10.75 -18.046875 L 10.75 -21.148438 Z M 24.847656 -26.148438 L 5.097656 -26.148438 L 5.097656 4.050781 L 10.75 4.050781 L 10.75 -6.050781 L 19.097656 -6.050781 L 19.097656 -1.601562 C 19.097656 -1 18.898438 -0.800781 18.296875 -0.800781 C 17.648438 -0.75 15.648438 -0.75 13.796875 -0.851562 C 14.546875 0.5 15.398438 2.699219 15.699219 4.199219 C 18.75 4.199219 21.046875 4.097656 22.648438 3.25 C 24.347656 2.398438 24.847656 1 24.847656 -1.550781 Z M 39.097656 -2.300781 C 39.097656 -1.601562 38.847656 -1.398438 38.046875 -1.398438 C 37.195312 -1.351562 34.597656 -1.351562 32.046875 -1.449219 C 32.945312 0.101562 33.898438 2.550781 34.195312 4.148438 C 37.796875 4.199219 40.496094 4.050781 42.394531 3.148438 C 44.394531 2.199219 44.945312 0.75 44.945312 -2.199219 L 44.945312 -27.046875 L 39.097656 -27.046875 Z M 34.597656 -25.648438 L 29.148438 -25.648438 L 29.148438 -5.25 L 34.597656 -5.25 Z M 37.445312 -34.945312 C 38.695312 -36.695312 40.046875 -38.644531 41.246094 -40.597656 L 34.796875 -42.496094 C 33.796875 -40.195312 32.195312 -37.246094 30.695312 -34.945312 L 16.796875 -34.945312 L 19.546875 -35.894531 C 18.699219 -37.796875 16.699219 -40.496094 14.898438 -42.394531 L 9.25 -40.445312 C 10.648438 -38.796875 12.097656 -36.644531 13 -34.945312 L 2.351562 -34.945312 L 2.351562 -29.597656 L 47.59375 -29.597656 L 47.59375 -34.945312 Z M 37.445312 -34.945312 "/></g></g></g><g fill="#000000" fill-opacity="1"><g transform="translate(392.773429, 454.749842)"><g><path d="M 22.398438 -34.898438 L 22.449219 -28.496094 C 28.648438 -27.945312 37.597656 -27.945312 43.695312 -28.496094 L 43.695312 -34.898438 C 38.347656 -34.246094 28.496094 -34.046875 22.398438 -34.898438 Z M 20.699219 -14.25 C 20.199219 -11.949219 19.847656 -9.847656 19.847656 -7.800781 C 19.847656 -2.75 23.898438 0.351562 32.445312 0.351562 C 38.046875 0.351562 42.046875 -0.0507812 45.246094 -0.648438 L 45.09375 -7.347656 C 40.796875 -6.449219 37.144531 -6.050781 32.695312 -6.050781 C 27.695312 -6.050781 25.796875 -7.347656 25.796875 -9.550781 C 25.796875 -10.898438 25.996094 -12.097656 26.398438 -13.699219 Z M 7.847656 -38.746094 C 7.847656 -37.195312 7.550781 -35.296875 7.347656 -33.898438 C 6.800781 -30.097656 5.300781 -21.746094 5.300781 -14.296875 C 5.300781 -7.597656 6.25 -1.550781 7.25 1.898438 L 12.949219 1.5 C 12.898438 0.800781 12.898438 0 12.847656 -0.550781 C 12.847656 -1.050781 13 -2.148438 13.148438 -2.851562 C 13.648438 -5.5 15.296875 -10.847656 16.699219 -15 L 13.597656 -17.398438 C 12.898438 -15.796875 12.097656 -14.148438 11.398438 -12.398438 C 11.25 -13.449219 11.199219 -14.648438 11.199219 -15.597656 C 11.199219 -20.546875 12.898438 -30.445312 13.597656 -33.746094 C 13.796875 -34.648438 14.398438 -37.144531 14.796875 -38.144531 Z M 7.847656 -38.746094 "/></g></g></g><g fill="#000000" fill-opacity="1"><g transform="translate(192.804368, 524.499838)"><g><path d="M 47.496094 -11.75 L 38.144531 -11.75 C 38.394531 -13.699219 38.597656 -15.898438 38.796875 -18.398438 C 38.894531 -19.199219 38.996094 -20.898438 38.996094 -20.898438 L 17.796875 -20.898438 C 18.097656 -22.246094 18.347656 -23.699219 18.648438 -25.148438 L 38.046875 -25.148438 L 38.046875 -30.246094 L 19.648438 -30.246094 C 19.898438 -31.597656 20.148438 -32.945312 20.347656 -34.195312 L 16.546875 -34.546875 L 40.597656 -34.546875 L 40.597656 -27.945312 L 46.796875 -27.945312 L 46.796875 -40.046875 L 3.398438 -40.046875 L 3.398438 -27.945312 L 9.300781 -27.945312 L 9.300781 -34.546875 L 14.347656 -34.546875 C 13.296875 -28.148438 11.699219 -19.847656 10.25 -14.699219 L 16.296875 -14.25 L 16.648438 -15.699219 L 32.597656 -15.699219 C 32.496094 -14.25 32.347656 -12.949219 32.195312 -11.75 L 2.601562 -11.75 L 2.601562 -6.300781 L 31.398438 -6.300781 C 30.847656 -3.699219 30.195312 -2.25 29.496094 -1.648438 C 28.847656 -1.101562 28.148438 -1 27.097656 -1 C 25.699219 -1 22.398438 -1.050781 19.046875 -1.351562 C 20.199219 0.25 20.996094 2.601562 21.097656 4.300781 C 24.296875 4.398438 27.496094 4.449219 29.296875 4.25 C 31.546875 4.050781 32.996094 3.601562 34.445312 2.101562 C 35.695312 0.800781 36.644531 -1.699219 37.394531 -6.300781 L 47.496094 -6.300781 Z M 47.496094 -11.75 "/></g></g></g><g fill="#000000" fill-opacity="1"><g transform="translate(242.796633, 524.499838)"><g><path d="M 34.695312 -26.097656 L 15.847656 -26.097656 L 15.847656 -28.195312 L 34.695312 -28.195312 Z M 34.695312 -20.597656 L 15.847656 -20.597656 L 15.847656 -22.699219 L 34.695312 -22.699219 Z M 34.695312 -15.046875 L 15.847656 -15.046875 L 15.847656 -17.296875 L 34.695312 -17.296875 Z M 21.796875 -31.695312 L 10.097656 -31.695312 L 10.097656 -11.597656 L 40.746094 -11.597656 L 40.746094 -31.695312 L 27.996094 -31.695312 L 27.996094 -33.796875 L 46.195312 -33.796875 L 46.195312 -38.746094 L 27.996094 -38.746094 L 27.996094 -42.347656 L 21.796875 -42.347656 L 21.796875 -38.746094 L 4.300781 -38.746094 L 4.300781 -33.796875 L 21.796875 -33.796875 Z M 47.246094 -4.75 L 47.246094 -9.648438 L 2.800781 -9.648438 L 2.800781 -4.75 L 16.398438 -4.75 C 13.25 -2.851562 7.449219 -0.699219 2.601562 0.351562 C 3.851562 1.5 5.648438 3.25 6.597656 4.449219 C 11.550781 3.25 17.75 0.851562 21.699219 -1.5 L 17.046875 -4.75 L 31.847656 -4.75 L 28.445312 -1.5 C 33.847656 0.398438 39.445312 2.75 42.746094 4.398438 L 47.84375 0.449219 C 44.445312 -1 38.894531 -3.050781 33.898438 -4.75 Z M 47.246094 -4.75 "/></g></g></g><g fill="#000000" fill-opacity="1"><g transform="translate(292.788899, 524.499838)"><g><path d="M 31.148438 -7.199219 C 31.097656 -9.449219 30.996094 -13.097656 30.945312 -15.847656 C 33.996094 -17.25 36.796875 -18.347656 38.996094 -19.199219 C 40.695312 -19.898438 43.296875 -20.898438 44.894531 -21.296875 L 42.394531 -27.046875 C 40.597656 -26.199219 38.847656 -25.347656 36.945312 -24.496094 C 34.898438 -23.597656 32.796875 -22.746094 30.246094 -21.546875 C 29.148438 -24.097656 26.648438 -25.398438 23.648438 -25.398438 C 21.996094 -25.398438 19.347656 -25.046875 18.046875 -24.398438 C 19.097656 -25.847656 20.097656 -27.648438 20.898438 -29.398438 C 26.199219 -29.597656 32.296875 -29.996094 37.046875 -30.695312 L 37.097656 -36.496094 C 32.746094 -35.695312 27.746094 -35.296875 23.097656 -35.046875 C 23.699219 -37.046875 24.046875 -38.746094 24.296875 -39.945312 L 17.796875 -40.496094 C 17.75 -39.097656 17.398438 -37.097656 16.796875 -34.847656 L 14.398438 -34.847656 C 11.898438 -34.847656 8.199219 -34.996094 5.699219 -35.394531 L 5.699219 -29.597656 C 8.398438 -29.347656 12.046875 -29.246094 14.046875 -29.246094 L 14.648438 -29.246094 C 12.449219 -24.847656 8.949219 -20.449219 3.75 -15.648438 L 9.050781 -11.699219 C 10.75 -13.847656 12.148438 -15.648438 13.648438 -17.148438 C 15.546875 -18.949219 18.597656 -20.546875 21.398438 -20.546875 C 22.746094 -20.546875 24.046875 -20.097656 24.847656 -18.847656 C 19.199219 -15.949219 13.199219 -11.949219 13.199219 -5.648438 C 13.199219 0.75 19.046875 2.601562 26.796875 2.601562 C 31.445312 2.601562 37.496094 2.199219 40.796875 1.800781 L 40.996094 -4.648438 C 36.644531 -3.75 31.148438 -3.199219 26.949219 -3.199219 C 22.097656 -3.199219 19.746094 -3.949219 19.746094 -6.699219 C 19.746094 -9.148438 21.746094 -11.097656 25.398438 -13.097656 C 25.347656 -10.949219 25.296875 -8.648438 25.199219 -7.199219 Z M 31.148438 -7.199219 "/></g></g></g><g fill="#000000" fill-opacity="1"><g transform="translate(342.781164, 524.499838)"><g><path d="M 8.847656 -26.148438 C 8.847656 -19.949219 11.449219 -18.097656 18.847656 -18.097656 L 21.398438 -18.097656 L 17.949219 -15.046875 C 21.398438 -13.097656 25.449219 -10 27.199219 -7.75 L 31.496094 -11.75 C 29.746094 -13.796875 26.199219 -16.347656 23.046875 -18.097656 L 34.945312 -18.097656 C 38.144531 -18.097656 42.195312 -18.199219 43.59375 -18.546875 C 43.34375 -19.996094 43.046875 -22.398438 42.945312 -23.996094 C 41.046875 -23.648438 37.246094 -23.496094 34.597656 -23.496094 L 18.296875 -23.496094 C 15.398438 -23.496094 14.796875 -24.199219 14.796875 -25.996094 L 14.796875 -31.148438 L 46.894531 -31.148438 L 46.894531 -36.644531 L 27.847656 -36.644531 L 27.847656 -42.347656 L 21.949219 -42.347656 L 21.949219 -36.644531 L 3.199219 -36.644531 L 3.199219 -31.148438 L 8.847656 -31.148438 Z M 6.199219 2.148438 C 9.648438 -1.050781 11.449219 -6 12.597656 -10.847656 L 7.300781 -12.5 C 6.300781 -8 4.300781 -3.75 1.199219 -1.101562 Z M 23.097656 -1.648438 C 20.746094 -1.648438 20.347656 -1.851562 20.347656 -3.300781 L 20.347656 -12.046875 L 14.449219 -12.046875 L 14.449219 -3.25 C 14.449219 2 16.046875 3.648438 22.449219 3.648438 L 30.496094 3.648438 C 35.546875 3.648438 37.195312 1.949219 37.847656 -4.949219 C 36.246094 -5.300781 33.746094 -6.199219 32.546875 -7.097656 C 32.347656 -2.351562 31.945312 -1.648438 29.945312 -1.648438 Z M 35.195312 -10.648438 C 38.496094 -6.898438 41.796875 -1.800781 42.847656 1.75 L 48.34375 -0.949219 C 47.09375 -4.550781 43.59375 -9.5 40.296875 -13.046875 Z M 35.195312 -10.648438 "/></g></g></g><g fill="#000000" fill-opacity="1"><g transform="translate(392.773429, 524.499838)"><g><path d="M 47.644531 -9.800781 C 45.445312 -7.550781 43.09375 -6.300781 41.296875 -6.300781 C 40.046875 -6.300781 39.394531 -7.148438 39.394531 -8.449219 C 39.394531 -13.597656 41.046875 -20.847656 41.046875 -25.996094 C 41.046875 -30.148438 38.546875 -33.296875 33.246094 -33.296875 C 28.445312 -33.296875 22.746094 -29.347656 18.847656 -25.949219 C 18.898438 -26.296875 18.949219 -26.648438 18.949219 -26.996094 C 19.796875 -28.296875 20.847656 -29.898438 21.496094 -30.746094 L 19.648438 -33.097656 C 20.046875 -36.195312 20.449219 -38.746094 20.746094 -40.144531 L 13.5 -40.347656 C 13.75 -38.847656 13.699219 -37.347656 13.699219 -35.945312 C 13.699219 -35.394531 13.597656 -33.996094 13.5 -32.148438 C 11.398438 -31.847656 9.25 -31.597656 7.800781 -31.496094 C 6.050781 -31.398438 4.898438 -31.398438 3.5 -31.445312 L 4.097656 -25.097656 C 6.898438 -25.449219 10.699219 -25.949219 13.097656 -26.246094 L 12.898438 -22.796875 C 10.097656 -18.648438 5.097656 -12.046875 2.300781 -8.648438 L 6.199219 -3.148438 C 7.898438 -5.5 10.300781 -9.148438 12.449219 -12.296875 C 12.347656 -8.097656 12.347656 -5.25 12.25 -1.398438 C 12.25 -0.601562 12.199219 1.199219 12.097656 2.25 L 18.898438 2.25 C 18.796875 1.148438 18.597656 -0.648438 18.546875 -1.550781 C 18.25 -6.199219 18.25 -10.347656 18.25 -14.398438 C 18.25 -15.648438 18.296875 -17 18.347656 -18.398438 C 22.347656 -22.847656 27.746094 -27.398438 31.445312 -27.398438 C 33.496094 -27.398438 34.746094 -26.199219 34.746094 -23.746094 C 34.746094 -19.25 32.996094 -12 32.996094 -6.597656 C 32.996094 -1.851562 35.496094 0.898438 39.195312 0.898438 C 43.195312 0.898438 46.246094 -0.699219 48.496094 -2.851562 Z M 47.644531 -9.800781 "/></g></g></g><g fill="#000000" fill-opacity="1"><g transform="translate(442.765706, 524.499838)"><g><path d="M 47.195312 -27.296875 C 44.695312 -29.097656 38.546875 -32.445312 34.996094 -33.996094 L 31.796875 -29.097656 C 35.195312 -27.597656 40.847656 -24.347656 43.695312 -22.046875 Z M 28.546875 -34.898438 C 26.597656 -34.296875 24.296875 -33.746094 21.898438 -33.347656 C 22.597656 -35.996094 23.199219 -38.496094 23.597656 -40.097656 L 16.75 -40.796875 C 16.648438 -38.246094 16.097656 -35.246094 15.398438 -32.496094 C 13.898438 -32.398438 12.398438 -32.347656 10.949219 -32.347656 C 9.148438 -32.347656 6.5 -32.445312 4.347656 -32.695312 L 4.800781 -26.898438 C 6.949219 -26.796875 8.949219 -26.746094 11 -26.746094 C 11.847656 -26.746094 12.699219 -26.746094 13.546875 -26.796875 C 11.347656 -21.449219 7.449219 -14.148438 3.449219 -9.300781 L 9.5 -6.25 C 13.5 -11.898438 17.75 -20.496094 20.097656 -27.445312 C 23.398438 -27.898438 26.449219 -28.546875 28.695312 -29.148438 Z M 29.746094 -7.347656 C 29.746094 -4.699219 28.648438 -2.75 25.296875 -2.75 C 22.597656 -2.75 21.046875 -4 21.046875 -5.847656 C 21.046875 -7.597656 22.898438 -8.800781 25.746094 -8.800781 C 27.148438 -8.800781 28.445312 -8.597656 29.746094 -8.300781 Z M 28.945312 -24.699219 C 29.097656 -21.699219 29.347656 -17.347656 29.496094 -13.648438 C 28.445312 -13.75 27.296875 -13.847656 26.148438 -13.847656 C 19.25 -13.847656 15.199219 -10.097656 15.199219 -5.25 C 15.199219 0.199219 20.046875 2.949219 26.199219 2.949219 C 33.246094 2.949219 35.746094 -0.648438 35.746094 -5.25 L 35.746094 -5.699219 C 38.445312 -4.050781 40.695312 -2.050781 42.445312 -0.449219 L 45.746094 -5.75 C 43.246094 -8 39.746094 -10.5 35.496094 -12.097656 C 35.347656 -14.546875 35.246094 -16.949219 35.195312 -18.347656 C 35.148438 -20.546875 35.046875 -22.597656 35.195312 -24.699219 Z M 28.945312 -24.699219 "/></g></g></g><g fill="#000000" fill-opacity="1"><g transform="translate(492.757982, 524.499838)"><g><path d="M 13.097656 -35.597656 L 5.5 -35.695312 C 5.800781 -34.195312 5.847656 -32.097656 5.847656 -30.695312 C 5.847656 -27.648438 5.949219 -21.898438 6.398438 -17.347656 C 7.800781 -4.050781 12.546875 0.851562 17.949219 0.851562 C 21.949219 0.851562 25.046875 -2.199219 28.347656 -10.800781 L 23.347656 -16.796875 C 22.398438 -12.898438 20.449219 -7.097656 18.097656 -7.097656 C 15 -7.097656 13.5 -11.949219 12.796875 -19.097656 C 12.5 -22.648438 12.449219 -26.398438 12.5 -29.597656 C 12.5 -30.945312 12.75 -33.847656 13.097656 -35.597656 Z M 37.847656 -34.546875 L 31.546875 -32.445312 C 36.945312 -26.347656 39.597656 -14.699219 40.347656 -6.75 L 46.894531 -9.25 C 46.34375 -16.847656 42.546875 -28.796875 37.847656 -34.546875 Z M 37.847656 -34.546875 "/></g></g></g><g fill="#000000" fill-opacity="1"><g transform="translate(542.750259, 524.499838)"><g><path d="M 36.996094 -25.996094 L 33.296875 -24.449219 C 34.898438 -22.199219 35.945312 -20.246094 37.195312 -17.5 L 40.996094 -19.199219 C 40.046875 -21.199219 38.195312 -24.199219 36.996094 -25.996094 Z M 42.597656 -28.296875 L 38.945312 -26.597656 C 40.546875 -24.398438 41.695312 -22.546875 43.046875 -19.847656 L 46.796875 -21.648438 C 45.746094 -23.597656 43.84375 -26.546875 42.597656 -28.296875 Z M 3.648438 -34.195312 L 4.300781 -27.398438 C 10.050781 -28.648438 20.449219 -29.746094 24.746094 -30.195312 C 21.398438 -27.695312 17.449219 -22.097656 17.449219 -14.949219 C 17.449219 -4.199219 27.246094 1.398438 37.644531 2.050781 L 39.945312 -4.800781 C 31.546875 -5.199219 23.949219 -8.148438 23.949219 -16.296875 C 23.949219 -22.148438 28.398438 -28.546875 34.398438 -30.148438 C 37.046875 -30.746094 41.296875 -30.796875 43.945312 -30.796875 L 43.894531 -37.195312 C 40.394531 -37.046875 34.996094 -36.746094 29.898438 -36.347656 C 20.847656 -35.546875 12.648438 -34.796875 8.5 -34.445312 C 7.550781 -34.347656 5.648438 -34.246094 3.648438 -34.195312 Z M 3.648438 -34.195312 "/></g></g></g><g fill="#000000" fill-opacity="1"><g transform="translate(592.742535, 524.499838)"><g><path d="M 22.449219 -12.847656 L 27.597656 -12.847656 L 29.347656 -29.945312 L 29.597656 -37.394531 L 20.449219 -37.394531 L 20.648438 -29.945312 Z M 24.996094 0.449219 C 27.945312 0.449219 30.195312 -1.550781 30.195312 -4.449219 C 30.195312 -7.300781 27.945312 -9.398438 24.996094 -9.398438 C 22.046875 -9.398438 19.796875 -7.300781 19.796875 -4.449219 C 19.796875 -1.550781 22.046875 0.449219 24.996094 0.449219 Z M 24.996094 0.449219 "/></g></g></g><g fill="#000000" fill-opacity="1"><g transform="translate(192.804368, 594.249835)"><g><path d="M 37.394531 -29.898438 L 37.394531 -35.148438 C 37.394531 -37.144531 37.597656 -38.796875 37.695312 -39.796875 L 30.597656 -39.796875 C 30.746094 -38.796875 30.898438 -37.144531 30.898438 -35.148438 L 30.898438 -29.898438 L 19.046875 -29.898438 L 19.046875 -34.796875 C 19.046875 -36.796875 19.199219 -38.394531 19.347656 -39.347656 L 12.25 -39.347656 C 12.347656 -38.394531 12.546875 -36.746094 12.546875 -34.847656 L 12.546875 -29.898438 L 8.300781 -29.898438 C 5.800781 -29.898438 3.800781 -30.195312 2.898438 -30.347656 L 2.898438 -23.546875 C 4 -23.648438 5.800781 -23.746094 8.300781 -23.746094 L 12.546875 -23.746094 L 12.546875 -16.949219 C 12.546875 -14.699219 12.398438 -12.699219 12.25 -11.699219 L 19.25 -11.699219 C 19.199219 -12.699219 19.046875 -14.75 19.046875 -16.949219 L 19.046875 -23.746094 L 30.898438 -23.746094 L 30.898438 -21.847656 C 30.898438 -9.597656 26.648438 -5.25 17 -1.898438 L 22.347656 3.148438 C 34.398438 -2.148438 37.394531 -9.699219 37.394531 -22.097656 L 37.394531 -23.746094 L 41.097656 -23.746094 C 43.746094 -23.746094 45.496094 -23.699219 46.59375 -23.597656 L 46.59375 -30.246094 C 45.246094 -29.996094 43.746094 -29.898438 41.097656 -29.898438 Z M 37.394531 -29.898438 "/></g></g></g><g fill="#000000" fill-opacity="1"><g transform="translate(242.796633, 594.249835)"><g><path d="M 27.148438 -0.699219 C 29.195312 -5.347656 30.097656 -10.800781 30.496094 -15.847656 C 31.648438 -12.648438 32.996094 -9.648438 34.597656 -6.949219 C 32.445312 -4.347656 29.945312 -2.300781 27.148438 -0.699219 Z M 41.496094 -21.949219 C 40.644531 -18.199219 39.394531 -14.847656 37.847656 -11.898438 C 36.097656 -14.949219 34.746094 -18.347656 33.695312 -21.949219 Z M 16.75 -24.648438 L 16.75 -22.296875 L 10.050781 -22.296875 L 10.050781 -24.648438 Z M 10.050781 -15.847656 L 10.050781 -18.296875 L 16.75 -18.296875 L 16.75 -15.847656 Z M 44.34375 -27.445312 L 43.296875 -27.296875 L 30.746094 -27.296875 L 30.746094 -34.445312 L 47.445312 -34.445312 L 47.445312 -39.996094 L 25.148438 -39.996094 L 25.148438 -22.847656 C 25.148438 -17.097656 24.898438 -9.949219 22.347656 -3.898438 C 21.449219 -6.25 20.148438 -9 18.949219 -11.199219 L 14.199219 -9.5 C 14.699219 -8.5 15.199219 -7.398438 15.699219 -6.25 C 13.75 -5.75 11.847656 -5.25 10.050781 -4.75 L 10.050781 -11.75 L 21.949219 -11.75 L 21.949219 -28.746094 L 16.5 -28.746094 L 16.5 -32.847656 L 11.5 -32.847656 L 11.5 -28.746094 L 6.597656 -28.746094 C 9.75 -31.648438 12.097656 -34.746094 13.847656 -37.445312 C 16.398438 -35.148438 19.148438 -31.847656 20.597656 -29.648438 L 24.199219 -33.847656 C 22.398438 -36.445312 18.648438 -39.894531 15.648438 -42.296875 L 10.199219 -42.296875 C 8.449219 -38.496094 5.300781 -33.996094 0.550781 -30.597656 C 1.75 -29.796875 3.5 -27.996094 4.347656 -26.847656 L 4.75 -27.148438 L 4.75 -3.398438 C 3.648438 -3.148438 2.601562 -2.898438 1.648438 -2.699219 L 3.5 2.800781 C 7.597656 1.550781 12.546875 -0.0507812 17.449219 -1.699219 C 17.75 -0.699219 18.046875 0.25 18.199219 1.050781 L 20.046875 0.300781 L 19.597656 0.898438 C 20.847656 1.5 23.246094 3.25 24.199219 4.25 C 25.296875 2.851562 26.246094 1.300781 26.996094 -0.398438 C 28.148438 0.601562 29.898438 2.75 30.648438 4 C 33.296875 2.449219 35.746094 0.398438 37.894531 -2.199219 C 39.996094 0.300781 42.347656 2.351562 45.046875 4 C 45.945312 2.5 47.695312 0.351562 48.996094 -0.75 C 46.046875 -2.25 43.496094 -4.347656 41.296875 -6.949219 C 44.34375 -12.046875 46.59375 -18.5 47.796875 -26.246094 Z M 44.34375 -27.445312 "/></g></g></g><g fill="#000000" fill-opacity="1"><g transform="translate(292.788899, 594.249835)"><g><path d="M 7.398438 -39.046875 C 7.398438 -37.496094 7.148438 -35.597656 6.949219 -34.195312 C 6.347656 -30.398438 4.898438 -21.046875 4.898438 -13.546875 C 4.898438 -6.847656 5.847656 -1.199219 6.847656 2.25 L 12.449219 1.851562 C 12.398438 1.148438 12.398438 0.300781 12.398438 -0.199219 C 12.347656 -0.75 12.5 -1.800781 12.648438 -2.5 C 13.199219 -5.199219 14.796875 -10.25 16.199219 -14.296875 L 13.148438 -16.75 C 12.398438 -15.097656 11.597656 -13.449219 10.949219 -11.699219 C 10.800781 -12.699219 10.75 -13.898438 10.75 -14.898438 C 10.75 -19.847656 12.347656 -30.746094 13.097656 -34.046875 C 13.296875 -34.945312 13.898438 -37.445312 14.296875 -38.445312 Z M 32.398438 -8.300781 C 32.398438 -5.398438 31.347656 -3.800781 28.296875 -3.800781 C 25.699219 -3.800781 23.699219 -4.699219 23.699219 -6.699219 C 23.699219 -8.550781 25.597656 -9.699219 28.398438 -9.699219 C 29.746094 -9.699219 31.097656 -9.5 32.398438 -9.148438 Z M 48.046875 -6.300781 C 45.746094 -8.449219 42.644531 -11 38.496094 -12.699219 C 38.296875 -16.046875 38.046875 -19.996094 37.945312 -24.796875 C 40.644531 -24.996094 43.246094 -25.296875 45.644531 -25.648438 L 45.644531 -31.796875 C 43.296875 -31.296875 40.695312 -30.945312 37.996094 -30.648438 C 37.996094 -32.847656 38.097656 -34.695312 38.144531 -35.796875 C 38.195312 -36.847656 38.296875 -38.046875 38.445312 -38.996094 L 31.347656 -38.996094 C 31.496094 -37.996094 31.648438 -36.496094 31.648438 -35.746094 C 31.695312 -34.695312 31.695312 -32.695312 31.746094 -30.246094 C 30.597656 -30.195312 29.398438 -30.195312 28.246094 -30.195312 C 25.296875 -30.195312 22.449219 -30.347656 19.597656 -30.648438 L 19.597656 -24.746094 C 22.546875 -24.546875 25.347656 -24.449219 28.246094 -24.449219 C 29.398438 -24.449219 30.597656 -24.449219 31.796875 -24.496094 C 31.847656 -20.996094 31.996094 -17.398438 32.148438 -14.347656 C 31.148438 -14.5 30.046875 -14.546875 28.898438 -14.546875 C 22.148438 -14.546875 17.898438 -11.097656 17.898438 -6.050781 C 17.898438 -0.851562 22.199219 2.050781 28.996094 2.050781 C 35.695312 2.050781 38.394531 -1.351562 38.695312 -6.050781 C 40.644531 -4.699219 42.644531 -3.050781 44.695312 -1.101562 Z M 48.046875 -6.300781 "/></g></g></g><g fill="#000000" fill-opacity="1"><g transform="translate(342.781164, 594.249835)"><g><path d="M 34.898438 -33.445312 C 33.597656 -32.398438 32.195312 -31.546875 30.347656 -30.496094 C 28.046875 -29.148438 24.546875 -27.398438 20.898438 -25.246094 C 18.898438 -29.046875 16.597656 -33.796875 14.699219 -38.945312 L 8.449219 -36.394531 C 10.699219 -31.148438 13.097656 -25.847656 15.347656 -21.648438 C 10.597656 -18.148438 7.148438 -14.097656 7.148438 -8.648438 C 7.148438 -0.101562 14.597656 2.648438 24.449219 2.648438 C 30.898438 2.648438 36.144531 2.148438 40.347656 1.398438 L 40.445312 -5.699219 C 36.046875 -4.699219 29.347656 -3.898438 24.296875 -3.898438 C 17.398438 -3.898438 14 -5.800781 14 -9.347656 C 14 -12.796875 16.75 -15.648438 20.847656 -18.347656 C 25.398438 -21.296875 30.046875 -23.398438 33.097656 -24.996094 C 34.945312 -25.898438 36.496094 -26.746094 37.996094 -27.648438 Z M 34.796875 -38.246094 C 36.144531 -36.296875 37.695312 -33.347656 38.695312 -31.296875 L 42.746094 -32.996094 C 41.796875 -34.847656 39.996094 -38.046875 38.746094 -39.847656 Z M 40.695312 -40.496094 C 42.097656 -38.597656 43.695312 -35.695312 44.746094 -33.597656 L 48.695312 -35.296875 C 47.84375 -37.046875 45.996094 -40.246094 44.695312 -42.144531 Z M 40.695312 -40.496094 "/></g></g></g><g fill="#000000" fill-opacity="1"><g transform="translate(392.773429, 594.249835)"><g><path d="M 11 -29.648438 C 15.046875 -29.347656 19.347656 -29.097656 24.546875 -29.097656 C 29.246094 -29.097656 35.394531 -29.445312 38.847656 -29.695312 L 38.847656 -36.347656 C 35.046875 -35.945312 29.398438 -35.644531 24.496094 -35.644531 C 19.296875 -35.644531 14.699219 -35.847656 11 -36.246094 Z M 8.699219 -15.847656 C 8.300781 -14 7.699219 -11.597656 7.699219 -8.699219 C 7.699219 -1.898438 13.398438 1.898438 24.746094 1.898438 C 31.695312 1.898438 37.644531 1.25 41.945312 0.199219 L 41.894531 -6.75 C 37.496094 -5.550781 31.195312 -4.800781 24.496094 -4.800781 C 17.347656 -4.800781 14.347656 -7.097656 14.347656 -10.25 C 14.347656 -11.898438 14.75 -13.449219 15.199219 -15.25 Z M 8.699219 -15.847656 "/></g></g></g><g fill="#000000" fill-opacity="1"><g transform="translate(442.765706, 594.249835)"><g><path d="M 36.996094 -25.996094 L 33.296875 -24.449219 C 34.898438 -22.199219 35.945312 -20.246094 37.195312 -17.5 L 40.996094 -19.199219 C 40.046875 -21.199219 38.195312 -24.199219 36.996094 -25.996094 Z M 42.597656 -28.296875 L 38.945312 -26.597656 C 40.546875 -24.398438 41.695312 -22.546875 43.046875 -19.847656 L 46.796875 -21.648438 C 45.746094 -23.597656 43.84375 -26.546875 42.597656 -28.296875 Z M 3.648438 -34.195312 L 4.300781 -27.398438 C 10.050781 -28.648438 20.449219 -29.746094 24.746094 -30.195312 C 21.398438 -27.695312 17.449219 -22.097656 17.449219 -14.949219 C 17.449219 -4.199219 27.246094 1.398438 37.644531 2.050781 L 39.945312 -4.800781 C 31.546875 -5.199219 23.949219 -8.148438 23.949219 -16.296875 C 23.949219 -22.148438 28.398438 -28.546875 34.398438 -30.148438 C 37.046875 -30.746094 41.296875 -30.796875 43.945312 -30.796875 L 43.894531 -37.195312 C 40.394531 -37.046875 34.996094 -36.746094 29.898438 -36.347656 C 20.847656 -35.546875 12.648438 -34.796875 8.5 -34.445312 C 7.550781 -34.347656 5.648438 -34.246094 3.648438 -34.195312 Z M 3.648438 -34.195312 "/></g></g></g><g fill="#000000" fill-opacity="1"><g transform="translate(492.757982, 594.249835)"><g><path d="M 12.449219 -42.394531 C 10 -35.347656 5.699219 -28.347656 1.300781 -23.949219 C 2.351562 -22.449219 3.949219 -19.199219 4.5 -17.75 C 5.648438 -19 6.847656 -20.398438 8 -21.949219 L 8 4.199219 L 13.949219 4.199219 L 13.949219 -31.445312 C 15.546875 -34.496094 16.898438 -37.546875 18.046875 -40.597656 Z M 29.296875 -21.796875 L 29.296875 -14 L 23.746094 -14 L 23.746094 -21.796875 Z M 34.847656 -8.847656 L 34.847656 -26.949219 L 18.199219 -26.949219 L 18.199219 -5.597656 L 23.746094 -5.597656 L 23.746094 -8.847656 Z M 48.394531 -38.046875 L 17.597656 -38.046875 L 17.597656 -32.347656 L 39.394531 -32.347656 L 39.394531 -2.800781 C 39.394531 -1.851562 39.097656 -1.550781 38.097656 -1.550781 C 37.097656 -1.550781 33.597656 -1.550781 30.347656 -1.699219 C 31.195312 0.0507812 32.148438 2.648438 32.347656 4.398438 C 36.996094 4.398438 40.394531 4.199219 42.496094 3.300781 C 44.644531 2.351562 45.394531 0.75 45.394531 -2.699219 L 45.394531 -32.347656 L 48.394531 -32.347656 Z M 48.394531 -38.046875 "/></g></g></g><g fill="#000000" fill-opacity="1"><g transform="translate(542.750259, 594.249835)"><g><path d="M 31.148438 -7.199219 C 31.097656 -9.449219 30.996094 -13.097656 30.945312 -15.847656 C 33.996094 -17.25 36.796875 -18.347656 38.996094 -19.199219 C 40.695312 -19.898438 43.296875 -20.898438 44.894531 -21.296875 L 42.394531 -27.046875 C 40.597656 -26.199219 38.847656 -25.347656 36.945312 -24.496094 C 34.898438 -23.597656 32.796875 -22.746094 30.246094 -21.546875 C 29.148438 -24.097656 26.648438 -25.398438 23.648438 -25.398438 C 21.996094 -25.398438 19.347656 -25.046875 18.046875 -24.398438 C 19.097656 -25.847656 20.097656 -27.648438 20.898438 -29.398438 C 26.199219 -29.597656 32.296875 -29.996094 37.046875 -30.695312 L 37.097656 -36.496094 C 32.746094 -35.695312 27.746094 -35.296875 23.097656 -35.046875 C 23.699219 -37.046875 24.046875 -38.746094 24.296875 -39.945312 L 17.796875 -40.496094 C 17.75 -39.097656 17.398438 -37.097656 16.796875 -34.847656 L 14.398438 -34.847656 C 11.898438 -34.847656 8.199219 -34.996094 5.699219 -35.394531 L 5.699219 -29.597656 C 8.398438 -29.347656 12.046875 -29.246094 14.046875 -29.246094 L 14.648438 -29.246094 C 12.449219 -24.847656 8.949219 -20.449219 3.75 -15.648438 L 9.050781 -11.699219 C 10.75 -13.847656 12.148438 -15.648438 13.648438 -17.148438 C 15.546875 -18.949219 18.597656 -20.546875 21.398438 -20.546875 C 22.746094 -20.546875 24.046875 -20.097656 24.847656 -18.847656 C 19.199219 -15.949219 13.199219 -11.949219 13.199219 -5.648438 C 13.199219 0.75 19.046875 2.601562 26.796875 2.601562 C 31.445312 2.601562 37.496094 2.199219 40.796875 1.800781 L 40.996094 -4.648438 C 36.644531 -3.75 31.148438 -3.199219 26.949219 -3.199219 C 22.097656 -3.199219 19.746094 -3.949219 19.746094 -6.699219 C 19.746094 -9.148438 21.746094 -11.097656 25.398438 -13.097656 C 25.347656 -10.949219 25.296875 -8.648438 25.199219 -7.199219 Z M 31.148438 -7.199219 "/></g></g></g><g fill="#000000" fill-opacity="1"><g transform="translate(192.804368, 663.999831)"><g><path d="M 37.246094 -9.800781 C 35.347656 -8.550781 33.246094 -7.347656 31.398438 -6.347656 C 29.996094 -7.398438 28.796875 -8.5 27.796875 -9.800781 Z M 16.046875 -17.199219 L 33.746094 -17.199219 L 33.746094 -14.449219 L 16.046875 -14.449219 Z M 27.945312 -28.648438 L 27.945312 -32.496094 L 21.847656 -32.496094 L 21.847656 -28.648438 L 14.398438 -28.648438 C 18.648438 -31.398438 22.347656 -34.445312 24.796875 -37.296875 C 27.398438 -34.398438 31.296875 -31.296875 35.546875 -28.648438 Z M 16.046875 -24.046875 L 33.746094 -24.046875 L 33.746094 -21.449219 L 16.046875 -21.449219 Z M 41.246094 -12.597656 C 40.796875 -12.25 40.296875 -11.847656 39.746094 -11.5 L 39.746094 -26.148438 C 41.546875 -25.199219 43.34375 -24.296875 45.09375 -23.546875 C 46.09375 -25.296875 47.445312 -27.398438 48.84375 -28.847656 C 41.046875 -31.347656 33.097656 -36.246094 27.496094 -42.496094 L 21.546875 -42.496094 C 17.597656 -37.347656 9.5 -31.546875 1.300781 -28.296875 C 2.5 -27.097656 4 -24.796875 4.75 -23.398438 C 6.550781 -24.199219 8.398438 -25.097656 10.148438 -26.097656 L 10.148438 -2 C 8.25 -1.851562 6.5 -1.699219 4.949219 -1.601562 L 5.75 3.851562 C 11.5 3.351562 19.347656 2.648438 26.746094 1.898438 L 26.648438 -3.351562 L 16.046875 -2.449219 L 16.046875 -9.800781 L 21.796875 -9.800781 C 26.199219 -1.949219 33.398438 2.550781 44.296875 4.347656 C 45.046875 2.75 46.644531 0.398438 47.84375 -0.851562 C 43.394531 -1.351562 39.546875 -2.300781 36.246094 -3.648438 C 39.347656 -5.199219 42.695312 -7.148438 45.546875 -9.050781 Z M 41.246094 -12.597656 "/></g></g></g><g fill="#000000" fill-opacity="1"><g transform="translate(242.796633, 663.999831)"><g><path d="M 35.445312 -34.445312 L 31.097656 -32.648438 C 32.945312 -30.046875 34.195312 -27.648438 35.695312 -24.496094 L 40.195312 -26.449219 C 39.046875 -28.746094 36.847656 -32.347656 35.445312 -34.445312 Z M 42.144531 -37.195312 L 37.847656 -35.195312 C 39.695312 -32.695312 41.046875 -30.445312 42.695312 -27.296875 L 47.046875 -29.398438 C 45.894531 -31.597656 43.644531 -35.195312 42.144531 -37.195312 Z M 1.699219 -14.148438 L 7.648438 -7.949219 C 8.550781 -9.25 9.648438 -11.25 10.800781 -12.847656 C 12.898438 -15.648438 16.5 -20.496094 18.449219 -22.996094 C 19.898438 -24.847656 20.847656 -25.046875 22.597656 -23.148438 C 24.949219 -20.546875 28.648438 -15.847656 31.695312 -12.25 C 34.847656 -8.5 38.945312 -3.601562 42.546875 -0.25 L 47.695312 -6.097656 C 42.996094 -10.300781 38.796875 -14.75 35.597656 -18.199219 C 32.695312 -21.398438 28.695312 -26.496094 25.347656 -29.796875 C 21.746094 -33.296875 18.5 -32.945312 15.046875 -29.046875 C 12 -25.449219 8.148438 -20.347656 5.898438 -18 C 4.398438 -16.398438 3.199219 -15.296875 1.699219 -14.148438 Z M 1.699219 -14.148438 "/></g></g></g><g fill="#000000" fill-opacity="1"><g transform="translate(292.788899, 663.999831)"><g><path d="M 3.800781 -34.296875 L 4.398438 -27.496094 C 10.148438 -28.746094 20.597656 -29.847656 24.847656 -30.296875 C 21.546875 -27.796875 17.546875 -22.199219 17.546875 -15.046875 C 17.546875 -4.347656 27.347656 1.25 37.746094 1.949219 L 40.046875 -4.898438 C 31.695312 -5.347656 24.046875 -8.25 24.046875 -16.398438 C 24.046875 -22.246094 28.546875 -28.648438 34.496094 -30.246094 C 37.144531 -30.847656 41.394531 -30.898438 44.046875 -30.898438 L 43.996094 -37.296875 C 40.546875 -37.144531 35.097656 -36.847656 29.996094 -36.445312 C 20.949219 -35.644531 12.75 -34.945312 8.648438 -34.546875 C 7.648438 -34.445312 5.75 -34.347656 3.800781 -34.296875 Z M 3.800781 -34.296875 "/></g></g></g><g fill="#000000" fill-opacity="1"><g transform="translate(342.781164, 663.999831)"><g><path d="M 32.648438 -20.449219 C 35.847656 -17.398438 37.746094 -14.199219 37.746094 -10.847656 C 37.746094 -6.75 33.945312 -3.601562 27.046875 -3.601562 C 22.148438 -3.601562 19.648438 -5.847656 19.648438 -9.898438 C 19.648438 -10.800781 19.746094 -12.046875 19.847656 -13.5 C 20.496094 -13.5 21.199219 -13.5 21.847656 -13.5 C 24.898438 -13.5 27.796875 -13.699219 30.597656 -13.949219 L 30.746094 -19.847656 C 27.496094 -19.5 23.847656 -19.25 20.796875 -19.25 L 20.449219 -19.25 C 20.699219 -21.449219 20.996094 -23.796875 21.296875 -25.996094 C 25.296875 -25.996094 27.996094 -26.148438 30.945312 -26.449219 L 31.148438 -32.347656 C 28.796875 -31.996094 25.597656 -31.796875 22.046875 -31.746094 C 22.296875 -33.347656 22.449219 -34.648438 22.597656 -35.496094 C 22.796875 -36.796875 23.046875 -38.097656 23.449219 -39.894531 L 16.5 -40.296875 C 16.597656 -38.644531 16.5 -37.246094 16.398438 -35.894531 C 16.296875 -34.796875 16.199219 -33.445312 16 -31.945312 C 12.398438 -32.246094 8.699219 -32.847656 5.847656 -33.796875 L 5.5 -28.046875 C 8.398438 -27.246094 11.898438 -26.648438 15.347656 -26.296875 C 15.046875 -24.046875 14.796875 -21.746094 14.5 -19.546875 C 11.300781 -19.847656 7.949219 -20.398438 4.75 -21.496094 L 4.398438 -15.5 C 7.050781 -14.75 10.300781 -14.199219 13.898438 -13.847656 C 13.699219 -11.796875 13.546875 -10.050781 13.546875 -8.847656 C 13.546875 -0.601562 19.046875 2.800781 26.847656 2.800781 C 37.695312 2.800781 44.394531 -2.601562 44.394531 -10.050781 C 44.394531 -14.25 42.894531 -17.75 39.597656 -21.949219 Z M 32.648438 -20.449219 "/></g></g></g><g fill="#000000" fill-opacity="1"><g transform="translate(392.773429, 663.999831)"><g><path d="M 13.097656 -35.597656 L 5.5 -35.695312 C 5.800781 -34.195312 5.847656 -32.097656 5.847656 -30.695312 C 5.847656 -27.648438 5.949219 -21.898438 6.398438 -17.347656 C 7.800781 -4.050781 12.546875 0.851562 17.949219 0.851562 C 21.949219 0.851562 25.046875 -2.199219 28.347656 -10.800781 L 23.347656 -16.796875 C 22.398438 -12.898438 20.449219 -7.097656 18.097656 -7.097656 C 15 -7.097656 13.5 -11.949219 12.796875 -19.097656 C 12.5 -22.648438 12.449219 -26.398438 12.5 -29.597656 C 12.5 -30.945312 12.75 -33.847656 13.097656 -35.597656 Z M 37.847656 -34.546875 L 31.546875 -32.445312 C 36.945312 -26.347656 39.597656 -14.699219 40.347656 -6.75 L 46.894531 -9.25 C 46.34375 -16.847656 42.546875 -28.796875 37.847656 -34.546875 Z M 37.847656 -34.546875 "/></g></g></g><g fill="#000000" fill-opacity="1"><g transform="translate(442.765706, 663.999831)"><g><path d="M 13.097656 -35.597656 L 5.5 -35.695312 C 5.800781 -34.195312 5.847656 -32.097656 5.847656 -30.695312 C 5.847656 -27.648438 5.949219 -21.898438 6.398438 -17.347656 C 7.800781 -4.050781 12.546875 0.851562 17.949219 0.851562 C 21.949219 0.851562 25.046875 -2.199219 28.347656 -10.800781 L 23.347656 -16.796875 C 22.398438 -12.898438 20.449219 -7.097656 18.097656 -7.097656 C 15 -7.097656 13.5 -11.949219 12.796875 -19.097656 C 12.5 -22.648438 12.449219 -26.398438 12.5 -29.597656 C 12.5 -30.945312 12.75 -33.847656 13.097656 -35.597656 Z M 37.847656 -34.546875 L 31.546875 -32.445312 C 36.945312 -26.347656 39.597656 -14.699219 40.347656 -6.75 L 46.894531 -9.25 C 46.34375 -16.847656 42.546875 -28.796875 37.847656 -34.546875 Z M 37.847656 -34.546875 "/></g></g></g><g fill="#000000" fill-opacity="1"><g transform="translate(492.757982, 663.999831)"><g><path d="M 29.148438 -37.597656 L 22.097656 -40.445312 C 21.199219 -38.347656 20.296875 -36.746094 19.648438 -35.394531 C 17.046875 -30.695312 6.597656 -9.898438 2.949219 0 L 9.949219 2.351562 C 10.699219 -0.25 12.347656 -5.75 13.699219 -8.648438 C 15.449219 -12.699219 18.199219 -16.097656 21.597656 -16.097656 C 23.398438 -16.097656 24.347656 -15.097656 24.496094 -13.347656 C 24.648438 -11.347656 24.597656 -7.300781 24.796875 -4.648438 C 24.996094 -1.050781 27.597656 2.25 32.996094 2.25 C 40.644531 2.25 45.246094 -3.351562 47.796875 -11.898438 L 42.445312 -16.25 C 41.046875 -10.097656 38.347656 -4.550781 34.097656 -4.550781 C 32.445312 -4.550781 31.097656 -5.300781 30.945312 -7.25 C 30.648438 -9.300781 30.796875 -13.296875 30.695312 -15.5 C 30.496094 -19.597656 28.246094 -21.996094 24.546875 -21.996094 C 22.648438 -21.996094 20.746094 -21.546875 18.898438 -20.496094 C 21.347656 -24.847656 25.097656 -31.746094 27.546875 -35.296875 C 28.097656 -36.097656 28.648438 -36.996094 29.148438 -37.597656 Z M 29.148438 -37.597656 "/></g></g></g><g fill="#000000" fill-opacity="1"><g transform="translate(542.750259, 663.999831)"><g><path d="M 42.144531 -31.046875 C 41.246094 -32.898438 39.445312 -36.046875 38.195312 -37.894531 L 34.246094 -36.246094 C 35.597656 -34.347656 37.144531 -31.347656 38.144531 -29.296875 Z M 25.148438 -18.398438 C 28.246094 -18.75 31.246094 -18.949219 34.695312 -18.949219 C 37.695312 -18.949219 40.746094 -18.597656 43.195312 -18.296875 L 43.34375 -24.296875 C 40.445312 -24.597656 37.445312 -24.699219 34.648438 -24.699219 C 31.445312 -24.699219 27.898438 -24.496094 25.148438 -24.199219 Z M 29.046875 -34.246094 C 26.347656 -33.597656 23.546875 -33.046875 20.746094 -32.648438 L 21.148438 -34.496094 C 21.398438 -35.597656 21.847656 -37.796875 22.199219 -39.195312 L 14.648438 -39.796875 C 14.75 -38.597656 14.699219 -36.597656 14.449219 -34.746094 C 14.347656 -33.996094 14.199219 -32.996094 14 -31.945312 C 12.5 -31.847656 11.050781 -31.796875 9.597656 -31.796875 C 7.550781 -31.796875 5.898438 -31.847656 3.351562 -32.148438 L 3.5 -25.996094 C 5.25 -25.898438 7.097656 -25.796875 9.5 -25.796875 C 10.5 -25.796875 11.597656 -25.847656 12.75 -25.898438 C 12.449219 -24.496094 12.046875 -23.097656 11.699219 -21.746094 C 9.847656 -14.796875 6.097656 -4.449219 3.148438 0.550781 L 10.097656 2.851562 C 12.796875 -3 16.148438 -13.097656 17.949219 -20.046875 C 18.5 -22.097656 19 -24.296875 19.449219 -26.398438 C 22.746094 -26.796875 26.097656 -27.347656 29.046875 -28.046875 Z M 22.097656 -12.296875 C 21.699219 -10.398438 21.246094 -8 21.246094 -5.699219 C 21.246094 -0.699219 25.496094 2.199219 33.847656 2.199219 C 37.796875 2.199219 41.144531 1.851562 43.945312 1.5 L 44.195312 -4.847656 C 40.644531 -4.25 37.195312 -3.851562 33.898438 -3.851562 C 28.597656 -3.851562 27.347656 -5.5 27.347656 -7.648438 C 27.347656 -8.75 27.648438 -10.347656 28.046875 -11.796875 Z M 40.144531 -38.546875 C 41.546875 -36.644531 43.144531 -33.746094 44.195312 -31.648438 L 48.144531 -33.347656 C 47.296875 -35.097656 45.445312 -38.246094 44.09375 -40.144531 Z M 40.144531 -38.546875 "/></g></g></g><g fill="#000000" fill-opacity="1"><g transform="translate(592.742535, 663.999831)"><g><path d="M 22.199219 -7.949219 C 22.199219 -4.699219 21.046875 -3.25 17.847656 -3.25 C 14.398438 -3.25 11.898438 -4.148438 11.898438 -6.597656 C 11.898438 -8.699219 14.199219 -10 18.046875 -10 C 19.449219 -10 20.847656 -9.847656 22.148438 -9.648438 C 22.199219 -9 22.199219 -8.398438 22.199219 -7.949219 Z M 43.59375 -5.648438 C 40.195312 -8.847656 34.847656 -12.25 28.546875 -14.148438 C 28.296875 -17.796875 28.097656 -21.699219 27.996094 -24.699219 C 31.996094 -24.796875 37.894531 -24.996094 42.046875 -25.398438 L 41.796875 -31.296875 C 37.695312 -30.847656 31.898438 -30.648438 27.996094 -30.546875 C 27.996094 -31.796875 27.996094 -33.046875 27.996094 -34.148438 C 28.097656 -36.097656 28.246094 -38.496094 28.445312 -39.945312 L 20.996094 -39.945312 C 21.296875 -38.695312 21.449219 -36.597656 21.496094 -34.148438 C 21.546875 -32.046875 21.597656 -29.097656 21.597656 -26.097656 C 21.597656 -23.496094 21.796875 -19.25 21.949219 -15.398438 C 20.996094 -15.5 19.996094 -15.546875 19 -15.546875 C 9.898438 -15.546875 5.5 -11.449219 5.5 -6.300781 C 5.5 0.449219 11.300781 2.75 18.347656 2.75 C 26.648438 2.75 28.898438 -1.449219 28.898438 -5.800781 C 28.898438 -6.300781 28.898438 -6.847656 28.847656 -7.5 C 33.246094 -5.5 36.996094 -2.550781 39.796875 0.25 Z M 43.59375 -5.648438 "/></g></g></g><g fill="#000000" fill-opacity="1"><g transform="translate(642.734812, 663.999831)"><g><path d="M 22.449219 -12.847656 L 27.597656 -12.847656 L 29.347656 -29.945312 L 29.597656 -37.394531 L 20.449219 -37.394531 L 20.648438 -29.945312 Z M 24.996094 0.449219 C 27.945312 0.449219 30.195312 -1.550781 30.195312 -4.449219 C 30.195312 -7.300781 27.945312 -9.398438 24.996094 -9.398438 C 22.046875 -9.398438 19.796875 -7.300781 19.796875 -4.449219 C 19.796875 -1.550781 22.046875 0.449219 24.996094 0.449219 Z M 24.996094 0.449219 "/></g></g></g></svg>